<svg width="1305" height="196" viewBox="0 0 1305 196" fill="none" xmlns="http://www.w3.org/2000/svg">
<g clip-path="url(#clip0_14027_2415)">
<g clip-path="url(#clip1_14027_2415)">
<path d="M282.419 58.7848C273.03 53.1628 266.757 61.779 267.526 73.4779L267.448 73.5663C267.474 61.3495 265.779 47.8566 260.145 36.9411C258.15 33.0751 254.107 26.7204 246.113 29.7146C242.605 31.0285 239.423 34.9828 241.066 45.1909C241.066 45.1909 242.892 55.9043 242.552 69.3719V69.5614C240.27 32.4182 231.663 21.0857 219.352 21.8185C215.414 22.5007 210.028 24.1557 211.841 35.5766C211.841 35.5766 213.81 47.4902 214.449 56.9782L214.488 57.4583H214.449C208.659 36.979 200.86 36.701 195.213 37.4969C190.088 38.2171 184.493 43.3969 187.323 53.605C196.204 85.6315 194.47 124.202 193.805 129.723C191.992 125.946 191.431 122.952 188.914 118.808C178.794 102.169 173.982 100.944 168.074 100.691C162.206 100.438 155.868 103.963 156.285 110.672C156.716 117.38 160.224 118.492 165.205 127.841C169.092 135.118 170.2 144.656 178.025 161.99C184.506 176.342 201.447 192.084 232.302 190.214C257.302 189.405 294.639 180.89 288.144 124.973C286.527 115.258 287.74 107.122 288.588 98.7833C289.905 85.8463 291.835 64.4068 282.432 58.7722L282.419 58.7848Z" fill="#FFE165"/>
<path d="M126.317 101.083C120.409 101.449 115.636 102.75 105.829 119.566C103.391 123.748 102.895 126.754 101.148 130.557C100.378 125.049 97.9134 86.516 106.181 54.3378C108.816 44.0918 103.13 39.0131 97.9916 38.3814C92.3318 37.6865 84.5201 38.1034 79.1211 58.7849H79.0559L79.1341 58.1911C79.5906 48.6905 81.3381 36.7516 81.3381 36.7516C82.9161 25.2928 77.517 23.7389 73.5655 23.1198C61.2808 22.6145 52.9083 33.9975 51.2912 70.8122H51.2652C50.7044 57.4836 52.3084 46.8713 52.3084 46.8713C53.756 36.6253 50.4957 32.7341 46.9616 31.4833C38.9152 28.6281 34.9898 35.0587 33.0727 38.9625C27.6476 49.9792 26.2 63.4973 26.4609 75.7141L26.3826 75.6257C26.9173 63.9142 20.488 55.4117 11.2027 61.1979C1.9174 66.9968 4.25176 88.3984 5.8167 101.31C6.83391 109.636 8.19019 117.747 6.75567 127.487C1.33054 183.505 38.8239 191.351 63.8368 191.717C94.7183 193.044 111.359 176.986 117.566 162.521C125.052 145.061 125.991 135.497 129.734 128.157C134.533 118.719 138.028 117.544 138.328 110.836C138.628 104.127 132.225 100.716 126.356 101.07L126.317 101.083Z" fill="#FFE165"/>
<path d="M138.679 101.171C135.549 98.2021 130.842 96.6228 126.056 96.9008C118.387 97.3682 112.949 100.084 104.59 113.35C104.368 98.1768 105.242 75.3981 110.38 55.361C112.31 47.8313 110.367 42.9168 108.385 40.1247C106.076 36.8652 102.49 34.7175 98.5256 34.2374C94.9132 33.7952 90.1923 33.7699 85.5888 37.4337C85.5888 37.3832 85.6018 37.32 85.6018 37.32C87.0885 26.5561 83.2544 20.3908 74.2169 19.0011L73.7213 18.9505C68.1527 18.7105 63.3797 20.4792 59.5325 24.1935C57.472 26.177 55.6854 28.7417 54.1335 31.9128C52.399 29.4492 50.169 28.1984 48.4084 27.5668C37.6495 23.7387 31.7027 31.938 29.1205 37.1684C26.1211 43.2579 24.2562 50.0801 23.2129 57.0413C22.9912 56.9023 22.7825 56.7634 22.5608 56.637C20.1873 55.3105 15.2447 53.6934 8.82849 57.6983C-2.04784 64.4952 -0.665478 84.027 1.49935 101.815C1.61673 102.763 1.7341 103.698 1.85147 104.645C2.77739 111.935 3.65115 118.82 2.45136 126.919L2.42528 127.121C0.247403 149.596 4.61619 166.892 15.4143 178.553C25.795 189.771 42.0574 195.608 63.6144 195.924C65.1924 195.987 66.7312 196.013 68.231 196C105.059 195.671 118.27 171.73 121.517 164.15C125.716 154.346 127.894 147.032 129.629 141.144C130.972 136.596 132.041 133.008 133.554 130.026C135.276 126.641 136.788 124.442 138.119 122.497C140.388 119.187 142.344 116.331 142.579 111.025C142.748 107.185 141.392 103.774 138.64 101.171H138.679ZM65.6488 30.1314C67.7224 28.1353 70.1089 27.2509 73.1345 27.3141C75.7557 27.731 78.1292 28.3501 77.0468 36.183C76.9686 36.6757 75.2732 48.4377 74.8168 58.0141C74.8168 58.0773 74.8168 58.1404 74.8168 58.2036C72.4302 67.5526 70.4349 81.0202 69.3656 100.704C64.7359 100.981 60.1194 101.462 55.6332 102.093C54.1856 62.158 57.5372 37.9391 65.6358 30.1314H65.6488ZM36.9452 40.7817C40.1925 34.2121 42.9181 34.5406 45.4481 35.4376C48.9561 36.6883 48.4084 43.4727 48.0041 46.29C47.9389 46.7448 46.374 57.3192 46.9217 70.7742C46.5174 80.2116 46.5696 91.0893 47.0521 103.534C42.7616 104.355 38.6927 105.302 34.976 106.326C33.2155 100.59 25.4299 64.1541 36.9452 40.7943V40.7817ZM130.946 117.86C129.537 119.907 127.79 122.459 125.821 126.325C123.956 129.976 122.808 133.892 121.335 138.832C119.652 144.505 117.553 151.567 113.549 160.929C110.706 167.549 98.7603 189.051 63.8752 187.535C44.4309 187.257 30.6855 182.482 21.8566 172.943C12.7539 163.114 9.11539 147.979 11.0324 127.98C12.3626 118.833 11.3846 111.088 10.4326 103.609C10.3152 102.674 10.1978 101.752 10.0804 100.817C9.03715 92.1884 6.24634 69.2581 13.5103 64.7226C15.4664 63.4972 17.0705 63.2192 18.2572 63.8762C20.2786 65.0006 22.313 69.0939 22.0261 75.436C22.0131 75.7772 22.0522 76.1056 22.1174 76.4341C22.4826 91.2156 25.2082 104.077 26.7601 108.903C24.2171 109.825 21.974 110.785 20.0961 111.745C17.9834 112.832 17.1879 115.359 18.3094 117.405C19.0919 118.833 20.6047 119.642 22.1696 119.629C22.8347 119.629 23.5128 119.465 24.1519 119.136C34.7022 113.716 59.7281 108.208 81.7807 108.802C84.1803 108.84 86.1495 107.046 86.2147 104.734C86.28 102.422 84.402 100.501 82.0155 100.438C80.6983 100.4 79.3681 100.4 78.0379 100.4C80.2419 60.7051 86.306 47.7555 91.0269 43.9275C92.9831 42.3483 94.848 42.2219 97.4301 42.5378C98.1474 42.6262 99.9471 43.0305 101.238 44.8497C102.634 46.8332 102.894 49.7643 101.982 53.327C94.0003 84.4186 95.8 120.981 96.7129 129.85C96.5564 130.153 96.4129 130.456 96.2434 130.772C94.3785 134.17 90.9096 137.708 86.7755 137.468C84.4151 137.354 82.3415 139.098 82.1981 141.397C82.0546 143.709 83.8673 145.692 86.2539 145.831C93.2439 146.236 99.8297 142.079 103.872 134.714C104.303 133.93 104.668 133.185 104.994 132.465C105.02 132.414 105.046 132.351 105.072 132.301C105.829 130.658 106.376 129.155 106.859 127.803C107.615 125.706 108.267 123.886 109.571 121.638C118.831 105.744 122.587 105.517 126.564 105.277C128.898 105.138 131.22 105.858 132.589 107.172C133.567 108.094 133.998 109.244 133.932 110.684C133.802 113.653 132.954 114.891 130.907 117.873L130.946 117.86Z" fill="black"/>
<path d="M292.383 124.316C291.04 116.243 291.783 109.345 292.566 102.043C292.67 101.095 292.774 100.16 292.866 99.2129C294.691 81.3993 295.709 61.8296 284.689 55.2348C278.194 51.3436 273.278 53.0492 270.93 54.4136C270.709 54.54 270.5 54.6916 270.278 54.8305C269.091 47.8946 267.109 41.1103 263.992 35.0713C261.319 29.8915 255.229 21.7933 244.535 25.8108C242.787 26.4678 240.597 27.7564 238.901 30.2579C237.284 27.1121 235.445 24.5853 233.346 22.6397C229.433 19.0012 224.621 17.3083 219.066 17.6494L218.57 17.6999C209.559 19.2539 205.842 25.4823 207.537 36.2463C207.537 36.2463 207.537 36.2968 207.55 36.3347C202.882 32.7467 198.161 32.8604 194.561 33.3658C190.61 33.9217 187.063 36.1326 184.82 39.43C182.902 42.2599 181.038 47.1997 183.111 54.6916C188.641 74.6403 189.945 97.4063 190.01 112.579C181.403 99.4656 175.912 96.8504 168.244 96.5219C163.471 96.3198 158.763 98.0001 155.699 101.02C152.999 103.673 151.708 107.109 151.956 110.937C152.295 116.231 154.303 119.061 156.638 122.32C158.007 124.24 159.559 126.413 161.345 129.761C162.923 132.718 164.058 136.28 165.493 140.803C167.344 146.653 169.653 153.93 174.048 163.658C177.438 171.175 191.105 194.888 227.829 194.547C229.316 194.535 230.855 194.484 232.42 194.383C254.094 193.688 270.239 187.548 280.411 176.152C290.975 164.302 295.017 146.931 292.422 124.493L292.396 124.291L292.383 124.316ZM245.317 44.5593C244.861 41.7041 244.17 34.9324 247.665 33.6311C250.169 32.6836 252.907 32.3172 256.272 38.8236C268.231 61.9812 261.149 98.5559 259.493 104.317C255.75 103.357 251.668 102.485 247.365 101.74C247.6 89.2954 247.443 78.4051 246.869 68.9803C247.156 55.5254 245.396 44.9762 245.317 44.5593ZM219.822 26.0003C222.861 25.874 225.26 26.7204 227.36 28.6913C235.602 36.36 239.423 60.5031 238.732 100.464C234.232 99.9078 229.616 99.5161 224.973 99.314C223.539 79.6432 221.283 66.2262 218.714 56.9151C218.714 56.8519 218.714 56.7888 218.714 56.7256C218.074 47.1492 216.144 35.4251 216.066 34.9703C214.827 27.1247 217.188 26.4678 219.809 26.0003H219.822ZM283.841 125.554C286.136 145.516 282.785 160.714 273.878 170.707C265.231 180.397 251.577 185.426 232.015 186.057C197.326 188.18 184.937 166.905 181.977 160.335C177.777 151.037 175.547 144.025 173.761 138.378C172.196 133.45 170.97 129.572 169.04 125.946C167.005 122.118 165.206 119.604 163.758 117.582C161.658 114.639 160.785 113.413 160.589 110.444C160.498 109.004 160.915 107.842 161.867 106.907C163.223 105.568 165.519 104.797 167.866 104.911C171.844 105.088 175.599 105.239 185.172 120.968C186.528 123.192 187.206 124.998 188.002 127.083C188.523 128.435 189.097 129.938 189.893 131.568C189.919 131.618 189.932 131.669 189.958 131.707C190.31 132.427 190.688 133.16 191.131 133.943C195.318 141.233 201.982 145.276 208.959 144.745C211.332 144.568 213.119 142.547 212.936 140.247C212.754 137.948 210.68 136.242 208.294 136.394C204.16 136.697 200.625 133.223 198.695 129.862C198.513 129.547 198.369 129.256 198.213 128.953C198.956 120.084 200.065 83.4839 191.484 52.5438C190.492 48.9937 190.701 46.0627 192.057 44.0539C193.322 42.2094 195.109 41.7672 195.826 41.6662C198.395 41.2998 200.273 41.4009 202.256 42.9422C207.055 46.6944 213.367 59.5303 216.314 99.175C214.984 99.1876 213.654 99.2255 212.349 99.2887C209.963 99.3898 208.124 101.348 208.228 103.66C208.333 105.972 210.315 107.715 212.741 107.652C234.767 106.667 259.911 111.72 270.552 116.963C271.191 117.279 271.869 117.418 272.547 117.418C274.112 117.406 275.612 116.572 276.368 115.119C277.451 113.06 276.603 110.533 274.464 109.484C272.573 108.549 270.304 107.64 267.748 106.755C269.209 101.904 271.7 88.9922 271.778 74.2107C271.843 73.8822 271.869 73.5537 271.843 73.2126C271.426 66.8831 273.395 62.7519 275.39 61.5896C276.564 60.9074 278.168 61.16 280.15 62.3476C287.506 66.7568 285.158 89.725 284.271 98.3791C284.18 99.314 284.076 100.236 283.971 101.171C283.163 108.676 282.328 116.42 283.841 125.554Z" fill="black"/>
<path d="M162.923 44.774C162.232 44.774 161.527 44.6477 160.862 44.3445C158.424 43.258 157.354 40.4659 158.476 38.1034C162.101 30.4347 167.409 23.3598 173.812 17.6494C175.781 15.8933 178.859 16.007 180.672 17.9273C182.485 19.835 182.367 22.8166 180.385 24.5727C174.921 29.4493 170.395 35.4882 167.292 42.0325C166.483 43.7381 164.749 44.7614 162.923 44.774Z" fill="black"/>
<path d="M146.57 42.0578C144.053 42.083 141.901 40.2132 141.692 37.737C140.766 26.6572 140.727 15.4258 141.601 4.34602C141.809 1.7561 144.144 -0.176866 146.804 0.0126405C149.478 0.214781 151.473 2.46359 151.277 5.05351C150.443 15.6406 150.482 26.3793 151.369 36.9664C151.59 39.5563 149.595 41.8304 146.922 42.0325C146.804 42.0325 146.687 42.0451 146.57 42.0451V42.0578Z" fill="black"/>
<path d="M129.851 44.9762C127.673 45.0015 125.665 43.5739 125.104 41.4388C123.043 33.6058 119.144 26.1645 113.836 19.9361C112.128 17.9273 112.428 14.971 114.488 13.316C116.562 11.661 119.614 11.9516 121.322 13.9477C127.53 21.25 132.094 29.9547 134.494 39.1141C135.159 41.6283 133.581 44.1929 130.985 44.8372C130.594 44.9383 130.216 44.9762 129.825 44.9888L129.851 44.9762Z" fill="black"/>
</g>
</g>
<path d="M379.045 147.144L419.52 55.0319C423.451 46.2048 424.882 39.0196 425.244 34.35C425.349 32.9943 426.419 31.9097 427.775 31.7892L440.789 30.5691C441.979 30.4637 443.109 31.1114 443.606 32.211L492.788 141.571C500.244 158.005 502.94 165.566 513.153 168.715C514.313 169.076 515.127 170.161 515.127 171.381V173.655C515.127 175.207 513.876 176.457 512.325 176.457H455.822C454.271 176.457 453.021 175.207 453.021 173.655V171.321C453.021 170.01 453.955 168.88 455.235 168.594C466.954 166.003 466.728 160.068 462.556 150.413L459.528 143.438C456.741 136.931 451.62 135.997 445.805 135.997H407.665C401.384 135.997 396.97 137.157 394.409 143.212L391.849 149.027C387.224 159.827 391.999 166.033 405.195 168.639C406.505 168.895 407.439 170.055 407.439 171.381V173.685C407.439 175.237 406.189 176.487 404.637 176.487H358.589C357.037 176.487 355.787 175.237 355.787 173.685V171.245C355.787 169.98 356.631 168.88 357.851 168.549C369.344 165.476 373.984 158.622 379.045 147.174V147.144ZM407.665 125.98H445.579C448.14 125.98 450.46 123.886 448.833 120.166L428.603 75.051C426.75 71.0894 425.816 71.0894 424.19 75.051L404.185 120.874C402.785 124.127 405.345 125.995 407.68 125.995L407.665 125.98Z" fill="#fff" stroke="#fff" stroke-width="0.393644" stroke-miterlimit="10"/>
<path d="M527.675 156.227V50.1663C527.675 40.5107 524.075 37.3023 515.685 37.4378C514.103 37.468 512.777 36.2328 512.777 34.6361V32.708C512.777 31.3523 513.741 30.2074 515.067 29.9514L545.344 24.3328C552.093 23.1729 555.572 26.2006 555.572 32.4669V156.212C555.572 162.825 558.329 166.184 563.179 165.883C564.836 165.777 566.267 166.997 566.267 168.669V168.745C566.267 169.227 566.162 169.709 565.921 170.115C562.682 175.689 555.316 177.843 548.598 177.843C536.502 177.843 527.66 171.094 527.66 156.212L527.675 156.227Z" fill="#fff" stroke="#fff" stroke-width="0.393644" stroke-miterlimit="10"/>
<path d="M581.748 156.227V50.1663C581.748 40.5107 578.148 37.3023 569.758 37.4378C568.176 37.468 566.851 36.2328 566.851 34.6361V32.708C566.851 31.3523 567.815 30.2074 569.14 29.9514L599.417 24.3328C606.166 23.1729 609.645 26.2006 609.645 32.4669V156.212C609.645 162.825 612.402 166.184 617.252 165.883C618.909 165.777 620.34 166.997 620.34 168.669V168.745C620.34 169.227 620.235 169.709 619.994 170.115C616.755 175.689 609.389 177.843 602.671 177.843C590.575 177.843 581.733 171.094 581.733 156.212L581.748 156.227Z" fill="#fff" stroke="#fff" stroke-width="0.393644" stroke-miterlimit="10"/>
<path d="M688.158 155.052V53.4201C688.158 45.2558 683.383 41.4599 674.405 39.818C673.079 39.577 672.115 38.4171 672.115 37.0765V34.817C672.115 33.2655 673.365 32.0152 674.917 32.0152H733.046C734.598 32.0152 735.848 33.2655 735.848 34.817V37.0765C735.848 38.4171 734.884 39.577 733.558 39.818C724.566 41.4448 719.806 45.2408 719.806 53.4201V92.9613C719.806 98.3087 723.993 100.644 729.808 100.644H770.283C776.097 100.644 780.285 98.3238 780.285 92.9613V53.4201C780.285 45.2558 775.51 41.4599 766.532 39.818C765.206 39.577 764.242 38.4171 764.242 37.0765V34.817C764.242 33.2655 765.493 32.0152 767.044 32.0152H825.173C826.725 32.0152 827.975 33.2655 827.975 34.817V37.0765C827.975 38.4171 827.011 39.577 825.686 39.818C816.708 41.4448 811.933 45.2408 811.933 53.4201V155.067C811.933 163.232 816.708 167.027 825.686 168.669C827.011 168.91 827.975 170.07 827.975 171.411V173.67C827.975 175.222 826.725 176.472 825.173 176.472H767.044C765.493 176.472 764.242 175.222 764.242 173.67V171.411C764.242 170.07 765.206 168.91 766.532 168.669C775.525 167.043 780.285 163.247 780.285 155.067V117.62C780.285 112.272 776.097 109.938 770.524 109.938H729.582C723.993 109.938 719.821 112.257 719.821 117.62V155.067C719.821 163.232 724.596 167.027 733.573 168.669C734.899 168.91 735.863 170.07 735.863 171.411V173.67C735.863 175.222 734.613 176.472 733.061 176.472H674.932C673.381 176.472 672.13 175.222 672.13 173.67V171.411C672.13 170.07 673.094 168.91 674.42 168.669C683.398 167.043 688.173 163.247 688.173 155.067L688.158 155.052Z" fill="#fff" stroke="#fff" stroke-width="0.393644" stroke-miterlimit="10"/>
<path d="M834.929 152.265C834.929 133.421 850.745 122.033 896.101 115.511C902.608 114.577 904.476 112.95 904.476 106.909V103.189C904.476 86.4384 899.128 77.8373 885.873 77.8373C859.361 77.8373 879.591 108.777 855.4 108.777C846.091 108.777 841.677 102.963 841.677 95.5216C841.677 77.6114 867.029 69.4772 892.621 69.4772C920.066 69.4772 932.388 79.4792 932.388 111.805V156.227C932.388 162.855 934.346 166.379 938.941 165.973C940.553 165.837 941.923 167.148 941.923 168.759C941.923 169.226 941.818 169.708 941.577 170.115C938.414 175.688 931.891 177.843 924.947 177.843C911.917 177.843 905.877 170.16 904.943 161.8C904.717 159.013 902.849 158.546 900.755 161.107C894.248 169.241 882.152 177.858 865.402 177.858C849.585 177.858 834.929 170.416 834.929 152.28V152.265ZM879.817 162.267C894.007 162.267 904.476 151.331 904.476 136.675V130.634C904.476 125.287 902.623 122.952 895.167 123.66C869.348 125.98 863.534 137.608 863.534 146.692C863.534 155.067 868.414 162.282 879.817 162.282V162.267Z" fill="#fff" stroke="#fff" stroke-width="0.393644" stroke-miterlimit="10"/>
<path d="M1038.21 156.227V114.125C1038.21 98.0829 1030.3 85.746 1015.89 85.746C1001.47 85.746 992.856 98.0678 992.856 114.125V154.359C992.856 164.211 996.2 167.751 1005.07 168.971C1006.46 169.167 1007.51 170.341 1007.51 171.742V173.655C1007.51 175.207 1006.26 176.457 1004.71 176.457H952.863C951.311 176.457 950.061 175.207 950.061 173.655V171.757C950.061 170.357 951.115 169.182 952.501 168.986C961.584 167.766 964.944 164.226 964.944 154.359V95.7481C964.944 86.0925 961.343 82.884 952.953 83.0196C951.372 83.0497 950.046 81.8145 950.046 80.2178V78.2897C950.046 76.934 951.01 75.7892 952.336 75.5331L982.613 69.9145C989.361 68.7546 992.841 71.7824 992.841 77.1298C992.841 85.505 996.561 87.5988 999.589 84.1041C1004.47 78.2897 1013.31 68.9806 1031.69 68.9806C1048.91 68.9806 1066.11 77.3558 1066.11 108.748V156.197C1066.11 162.81 1068.87 166.169 1073.72 165.868C1075.37 165.762 1076.8 166.982 1076.8 168.654V168.73C1076.8 169.212 1076.7 169.694 1076.46 170.1C1073.22 175.674 1065.85 177.828 1059.13 177.828C1047.04 177.828 1038.2 171.08 1038.2 156.197L1038.21 156.227Z" fill="#fff" stroke="#fff" stroke-width="0.393644" stroke-miterlimit="10"/>
<path d="M1082.63 125.061C1082.63 88.7735 1107.52 69.4775 1133.11 69.4775C1157.06 69.4775 1165.21 86.6948 1165.21 67.6096V50.1663C1165.21 40.5107 1161.61 37.3023 1153.22 37.4378C1151.64 37.468 1150.31 36.2328 1150.31 34.6361V32.708C1150.31 31.3523 1151.27 30.2074 1152.6 29.9514L1182.88 24.3328C1189.63 23.1729 1193.1 26.2006 1193.1 32.4669V156.212C1193.1 162.825 1195.86 166.184 1200.71 165.883C1202.37 165.777 1203.8 166.997 1203.8 168.669V168.745C1203.8 169.227 1203.69 169.709 1203.45 170.115C1200.21 175.689 1192.86 177.843 1186.36 177.843C1178.67 177.843 1170.77 174.815 1168.22 167.841C1166.82 164.12 1164.73 162.493 1162.18 162.493C1156.59 162.493 1148.46 177.843 1127.29 177.843C1104.04 177.843 1082.63 158.532 1082.63 125.046V125.061ZM1142.64 161.574C1152.64 161.574 1165.21 155.534 1165.21 135.289V117.62C1165.21 89.2405 1148.92 78.0786 1135.89 78.0786C1120.77 78.0786 1111.94 93.4281 1111.94 114.592C1111.94 139.718 1124.27 161.574 1142.64 161.574Z" fill="#fff" stroke="#fff" stroke-width="0.393644" stroke-miterlimit="10"/>
<path d="M1219.29 167.826C1218.9 167.539 1218.6 167.163 1218.39 166.726C1212.86 154.781 1212.35 141.103 1221.02 141.103C1224.28 141.103 1226.37 142.73 1227.53 146.225C1233.12 162.975 1242.88 169.483 1256.6 169.483C1272.19 169.483 1276.61 161.574 1276.61 154.133C1276.61 143.905 1267.07 140.636 1252.41 136.223C1233.57 130.408 1215.66 121.34 1215.66 101.095C1215.66 80.8501 1234.5 69.4623 1258.45 69.4623C1272.06 69.4623 1284.77 73.213 1292.72 78.7865C1293.13 79.0727 1293.46 79.4643 1293.67 79.9162C1299.19 91.8463 1299.68 105.268 1291.02 105.268C1287.77 105.268 1285.67 103.641 1284.51 100.146C1278.93 83.3958 1268.92 77.3554 1257.07 77.3554C1245.91 77.3554 1240.79 82.9439 1240.79 91.3041C1240.79 101.773 1249.63 106.895 1260.79 110.374C1277.54 115.496 1302.65 121.777 1302.65 145.035C1302.65 166.666 1280.33 177.828 1254.98 177.828C1240 177.828 1227.23 173.625 1219.28 167.795L1219.29 167.826Z" fill="#fff" stroke="#fff" stroke-width="0.393644" stroke-miterlimit="10"/>
<defs>
<clipPath id="clip0_14027_2415">
<rect width="294" height="196" fill="white"/>
</clipPath>
<clipPath id="clip1_14027_2415">
<rect width="294" height="196" fill="white"/>
</clipPath>
</defs>
</svg>
