<svg width="27" height="27" viewBox="0 0 27 27" fill="none" xmlns="http://www.w3.org/2000/svg">
<path d="M24.5719 9.17199V14.8456M15.7404 3.4984C14.9543 3.12524 14.095 2.93164 13.2248 2.93164C12.3546 2.93164 11.4952 3.12524 10.7091 3.4984L3.11671 7.05801C1.46456 7.83189 1.46456 10.5121 3.11671 11.286L10.708 14.8456C11.4943 15.2189 12.3538 15.4126 13.2242 15.4126C14.0946 15.4126 14.9541 15.2189 15.7404 14.8456L23.3328 11.286C24.985 10.5121 24.985 7.83189 23.3328 7.05801L15.7404 3.4984Z" stroke="currentColor" stroke-width="1.8" stroke-linecap="round" stroke-linejoin="round"/>
<path d="M5.28183 12.5762V18.3916C5.28183 21.7027 10.6082 23.356 13.2249 23.356C15.8415 23.356 21.1679 21.7027 21.1679 18.3916V12.5762" stroke="currentColor" stroke-width="1.8" stroke-linecap="round" stroke-linejoin="round"/>
</svg>
