<svg xmlns="http://www.w3.org/2000/svg" width="17" height="17" viewBox="0 0 17 17" fill="none">
  <path d="M14.2541 0.99075C15.0629 0.811957 15.8642 1.32275 16.0432 2.13138C16.222 2.94015 15.7113 3.74145 14.9026 3.92044C10.5163 4.8902 8.31751 8.22203 8.09593 11.8745L10.343 9.62942C10.863 9.10947 11.7057 9.10867 12.2258 9.62845C12.7459 10.1486 12.7459 10.9921 12.2258 11.5122L7.52073 16.2173C7.03316 16.7049 6.26163 16.7357 5.73851 16.3091L5.63694 16.2173L0.93089 11.5122C0.411068 10.9922 0.411047 10.1485 0.93089 9.62845C1.45095 9.10851 2.29457 9.10859 2.81468 9.62845L5.09691 11.9107C5.32362 7.06867 8.20704 2.32786 14.2541 0.99075Z" fill="currentColor"/>
</svg>
