<svg xmlns="http://www.w3.org/2000/svg" width="35" height="35" viewBox="0 0 35 35" fill="none">
  <path d="M35 17.5C35 7.83502 27.165 0 17.5 0C7.83502 0 0 7.83502 0 17.5C0 27.165 7.83502 35 17.5 35C27.165 35 35 27.165 35 17.5ZM18.5938 25.1562C18.5938 25.7603 18.1041 26.25 17.5 26.25C16.8959 26.25 16.4063 25.7603 16.4063 25.1562V12.4843L11.7109 17.1796C11.2838 17.6068 10.5912 17.6068 10.1641 17.1796C9.73697 16.7525 9.73697 16.06 10.1641 15.6329L16.7266 9.07035C17.1537 8.64322 17.8463 8.64322 18.2734 9.07035L24.8359 15.6329C25.263 16.06 25.263 16.7525 24.8359 17.1796C24.4088 17.6068 23.7162 17.6068 23.2891 17.1796L18.5938 12.4843V25.1562Z" fill="currentColor"/>
</svg>
