<svg xmlns="http://www.w3.org/2000/svg" width="24" height="24" viewBox="0 0 24 24" fill="none">
  <path d="M13.234 20.252L21 12.3" stroke="#979995" stroke-width="2" stroke-linecap="round" stroke-linejoin="round"/>
  <path d="M16 6L7.58602 14.586C7.21108 14.9611 7.00045 15.4697 7.00045 16C7.00045 16.5303 7.21108 17.0389 7.58602 17.414C7.96107 17.7889 8.46969 17.9996 9.00002 17.9996C9.53035 17.9996 10.039 17.7889 10.414 17.414L18.828 8.828C19.5779 8.07789 19.9992 7.06066 19.9992 6C19.9992 4.93934 19.5779 3.92211 18.828 3.172C18.0779 2.42212 17.0607 2.00085 16 2.00085C14.9394 2.00085 13.9221 2.42212 13.172 3.172L4.75702 11.757C3.63171 12.8823 2.99951 14.4086 2.99951 16C2.99951 17.5914 3.63171 19.1177 4.75702 20.243C5.88233 21.3683 7.40859 22.0005 9.00002 22.0005C10.5915 22.0005 12.1177 21.3683 13.243 20.243" stroke="#979995" stroke-width="2" stroke-linecap="round" stroke-linejoin="round"/>
</svg>
