<svg width="12" height="12" viewBox="0 0 12 12" fill="none" xmlns="http://www.w3.org/2000/svg">
  <path
    d="M6.14645 2.64645C6.34171 2.45118 6.65829 2.45118 6.85355 2.64645L9.85355 5.64645C10.0488 5.84171 10.0488 6.15829 9.85355 6.35355L6.85355 9.35355C6.65829 9.54882 6.34171 9.54882 6.14645 9.35355C5.95118 9.15829 5.95118 8.84171 6.14645 8.64645L8.79289 6L6.14645 3.35355C5.95118 3.15829 5.95118 2.84171 6.14645 2.64645ZM3.14645 2.64645C3.34171 2.45118 3.65829 2.45118 3.85355 2.64645L6.85355 5.64645C6.94732 5.74022 7 5.86739 7 6C7 6.13261 6.94732 6.25979 6.85355 6.35355L3.85355 9.35355C3.65829 9.54882 3.34171 9.54882 3.14645 9.35355C2.95118 9.15829 2.95118 8.84171 3.14645 8.64645L5.79289 6L3.14645 3.35355C2.95118 3.15829 2.95118 2.84171 3.14645 2.64645Z"
    fill="white" />
</svg>
