<svg width="79" height="79" viewBox="0 0 79 79" fill="none" xmlns="http://www.w3.org/2000/svg">
<path d="M66.9233 78.9383L66.9326 79H65.5713C65.9891 78.9067 66.4916 78.9445 66.9233 78.9383Z" fill="#424F67"/>
<path d="M35.3015 38.519C35.4645 38.4156 35.6982 38.2656 35.9051 38.3186C36.0013 38.3432 36.0681 38.4083 36.1086 38.4975C36.1437 38.5746 36.1106 38.7011 36.0969 38.7808C35.8367 38.6686 35.578 38.5806 35.3015 38.519Z" fill="#6E8399"/>
<path d="M45.3074 38.0173L45.3832 38.0959C45.3446 38.3731 44.9158 38.8157 44.7109 38.9943L44.5146 38.8389C44.6296 38.5821 45.0839 38.2022 45.3074 38.0173Z" fill="#424F67"/>
<path d="M45.7037 38.9446C45.794 38.9904 45.843 39.0212 45.9039 39.1027L45.8907 39.1901C45.7026 39.4255 45.4099 39.5967 45.1675 39.7738L45.128 39.7974C45.0353 39.7283 44.999 39.5636 44.9568 39.4535C45.2202 39.2999 45.4606 39.1282 45.7037 38.9446Z" fill="#424F67"/>
<path d="M46.2683 54.9866C46.6188 55.2844 46.8846 55.9751 47.0217 56.4029L46.5043 56.2141C46.414 55.8071 46.3353 55.398 46.2683 54.9866Z" fill="#6E8399"/>
<path d="M36.0968 38.7808C36.0611 38.8435 36.0207 38.9017 35.9672 38.9509C35.8419 39.0665 35.6468 39.1316 35.4775 39.119C35.352 39.1097 35.173 39.0507 35.1031 38.9386C35.068 38.8823 35.0559 38.8262 35.0709 38.7628C35.1028 38.629 35.1901 38.5799 35.3014 38.519C35.5779 38.5806 35.8367 38.6686 36.0968 38.7808Z" fill="#424F67"/>
<path d="M55.7136 67.5627C55.7855 67.6115 55.8418 67.6731 55.8906 67.7444C56.0622 67.9952 56.1388 68.2858 56.0701 68.586C56.0206 68.8021 55.9176 68.9088 55.731 69.0173C55.6004 69.0349 55.478 69.0438 55.3461 69.0425C55.2771 68.8613 55.6321 67.7943 55.7136 67.5627Z" fill="#424F67"/>
<path d="M61.5557 79C62.1789 78.6706 62.737 78.3404 62.9662 77.6237C63.0719 77.2927 63.156 76.788 63.0987 76.4463C63.0837 76.3565 62.9039 76.0047 62.9483 75.9727C63.4033 76.6105 63.5774 77.1809 63.4526 77.9585C63.393 78.3304 63.2592 78.6637 63.0959 79H61.5557Z" fill="#424F67"/>
<path d="M46.4521 39.4004L47.102 38.731C47.6016 40.1172 47.8003 41.419 47.6277 42.8893C47.4918 42.7021 47.3936 41.9649 47.3235 41.6974C47.2178 41.3007 47.0922 40.9104 46.9466 40.5266C46.801 40.1427 46.6362 39.7674 46.4521 39.4004Z" fill="#6E8399"/>
<path d="M63.571 79.0001L63.6025 78.9553C63.9638 78.4277 64.15 77.785 64.0265 77.1475C63.8308 76.136 62.4924 74.3194 61.8947 73.4369C61.7043 73.1559 61.495 72.897 61.3367 72.5952L61.3603 72.5688C61.8687 73.2049 62.3563 73.8542 62.7916 74.5428C63.7187 76.0096 64.4797 77.5258 65.4501 79.0001H63.571Z" fill="#6E8399"/>
<path d="M38.9949 62.0591C39.7775 62.9848 40.2841 63.6577 41.2878 64.4018C41.412 64.7223 41.6399 65.0244 41.7344 65.3459L41.7105 65.3842L41.5617 65.3113C40.4301 64.5995 39.2328 63.654 38.569 62.4741L38.9949 62.0591Z" fill="#424F67"/>
<path d="M43.0122 29.2568C43.618 29.5929 44.6326 31.8057 44.834 32.5046C44.3924 32.4195 43.9461 32.3685 43.4999 32.3131C43.1023 31.3495 43.0023 30.2912 43.0122 29.2568Z" fill="#6E8399"/>
<path d="M45.641 50.002C45.6757 50.0172 45.6848 50.0188 45.7181 50.0466C45.9338 50.2265 46.113 50.5664 46.2671 50.806C47.4012 52.5702 47.8347 54.6482 47.9652 56.7165C47.8725 56.4982 47.8351 56.2612 47.7865 56.0299C47.2523 53.7276 46.2935 52.0151 44.7227 50.2758C45.0213 50.1581 45.3298 50.0778 45.641 50.002Z" fill="#6E8399"/>
<path d="M42.7048 77.1479C43.6015 77.6993 44.4088 78.3659 45.2452 79.0001H40.9774C41.4601 78.2571 41.9873 77.6754 42.7048 77.1479Z" fill="#424F67"/>
<path d="M41.2115 58.3455C41.2237 58.3561 41.2375 58.3651 41.248 58.3773C41.3738 58.5235 41.43 58.8836 41.4709 59.0688C41.5092 59.2437 41.5438 59.4193 41.5749 59.5956C41.6059 59.772 41.6333 59.9489 41.6571 60.1264C41.6808 60.3038 41.7009 60.4817 41.7174 60.66C41.7339 60.8383 41.7466 61.0168 41.7557 61.1956C41.7648 61.3745 41.7702 61.5534 41.7719 61.7324C41.7737 61.9115 41.7718 62.0905 41.7662 62.2695C41.7605 62.4484 41.7512 62.6271 41.7382 62.8057C41.7253 62.9843 41.7086 63.1625 41.6883 63.3404C41.4394 63.1332 41.1961 62.9196 40.9582 62.6999C40.5071 62.2624 40.1263 61.7818 39.7899 61.2519C40.5082 60.2432 40.8162 59.4974 41.2115 58.3455Z" fill="#424F67"/>
<path d="M56.8747 55.8095C57.3573 55.8271 57.8456 55.835 58.3259 55.7771C57.8642 57.0729 57.4398 58.4097 56.9043 59.6754C56.3625 59.6683 55.82 59.651 55.2814 59.5872C55.7579 58.3659 56.0785 57.0839 56.5625 55.8648C56.6608 55.7966 56.7574 55.8146 56.8747 55.8095Z" fill="#6E8399"/>
<path d="M55.0389 60.3418C55.5871 60.4466 56.154 60.5033 56.7123 60.4703C56.2714 61.7235 55.8691 62.989 55.5054 64.2668C54.8988 64.2322 54.2938 64.2028 53.6929 64.1067C54.125 63.2347 54.3846 62.2025 54.6971 61.2762C54.7994 60.973 54.8806 60.6162 55.0389 60.3418Z" fill="#6E8399"/>
<path d="M56.093 65.708C56.7372 66.1869 57.3507 66.8576 57.6401 67.6162C57.8796 68.2445 57.9145 68.9679 57.6195 69.5852C57.3612 70.1255 56.862 70.527 56.3018 70.7223C54.1298 71.4796 49.9907 69.7108 47.96 68.7409C47.7002 68.6258 47.4352 68.517 47.1915 68.3701L47.2063 68.3507C47.4796 68.3865 48.6465 68.8728 49.0323 68.9987C50.5473 69.4933 52.1816 69.9479 53.7667 70.1441C54.7012 70.2599 55.9674 70.3521 56.7486 69.7125C57.0847 69.4372 57.3135 69.0361 57.3384 68.5986C57.3952 67.6037 56.6332 66.77 56.0357 66.0721C55.9956 65.9597 56.0598 65.8183 56.093 65.708Z" fill="#6E8399"/>
<path d="M48.9989 70.0554C50.7969 70.78 52.6404 71.3133 54.5744 71.5036C54.4987 71.9511 54.9366 74.1576 54.9848 74.8373C54.2826 74.2636 53.6603 73.5791 52.9559 72.9977C52.1703 72.3493 51.3689 71.7062 50.5403 71.1139C50.033 70.7512 49.501 70.4257 48.9989 70.0554Z" fill="#424F67"/>
<path d="M51.4601 42.4292C51.8794 42.9739 52.2472 43.5534 52.6787 44.0919C55.1405 47.1636 57.1555 48.7979 60.432 50.9172C61.0772 51.3345 61.7296 51.7471 62.406 52.1126C62.7444 52.2955 63.4363 52.4843 63.69 52.7092L63.6384 52.7482L62.9956 52.8251C62.5102 52.4922 61.984 52.2301 61.4708 51.9438C60.6481 51.4927 59.8389 51.0185 59.0433 50.5213C58.7599 50.3427 58.4798 50.1591 58.2031 49.9703C57.9264 49.7816 57.6532 49.5878 57.3836 49.3891C57.114 49.1903 56.8481 48.9867 56.5859 48.7783C56.3237 48.5698 56.0654 48.3566 55.811 48.1387C55.5566 47.9209 55.3062 47.6984 55.0599 47.4714C54.8137 47.2443 54.5716 47.0129 54.3338 46.7771C54.096 46.5411 53.8625 46.301 53.6334 46.0566C53.4044 45.8122 53.1798 45.5637 52.9599 45.3112C52.4114 44.6703 51.9518 43.9609 51.4066 43.3245L51.3718 43.2842C51.3748 42.9982 51.3773 42.7052 51.4601 42.4292Z" fill="#6E8399"/>
<path d="M53.5032 64.97C54.0923 65.0883 54.6769 65.0622 55.271 65.1127C54.9208 66.408 54.5761 67.8631 53.9832 69.0666C53.3675 68.9512 52.7546 68.8221 52.1447 68.6794C52.182 68.2893 53.2821 65.5481 53.5032 64.97Z" fill="#6E8399"/>
<path d="M23.6782 79.0001C24.1832 77.8128 25.1565 75.6339 26.0458 74.736C26.4114 74.3667 26.8616 74.0897 27.341 73.8931C27.5456 73.8091 27.7562 73.73 27.9701 73.6738C26.9682 75.2881 25.9758 77.0164 25.5097 78.8759C25.6891 78.9129 25.8786 78.9399 26.0514 79.0001H23.6782Z" fill="#424F67"/>
<path d="M38.2913 34.8915C39.958 34.2544 41.7287 34.0939 43.3972 34.8288C44.9885 35.5297 46.1866 36.8547 46.979 38.3782C46.7176 38.608 46.4499 38.8334 46.195 39.0701C45.8639 38.537 45.489 38.0714 45.0809 37.5963C45.0076 37.4932 44.9196 37.3948 44.8372 37.2988C43.6532 35.9175 41.7494 34.9313 39.9263 34.8314C39.4084 34.8031 38.8674 34.9492 38.3612 34.8992C38.3379 34.897 38.3146 34.8941 38.2913 34.8915Z" fill="#6E8399"/>
<path d="M43.8113 33.1731C44.1169 33.1775 44.4579 33.278 44.7482 33.3718C44.8116 33.3924 44.8747 33.4138 44.9376 33.4359C45.0005 33.4581 45.0631 33.481 45.1254 33.5047C45.1877 33.5284 45.2497 33.5529 45.3114 33.5781C45.3731 33.6033 45.4346 33.6293 45.4957 33.656C45.5567 33.6828 45.6174 33.7103 45.6778 33.7385C45.7382 33.7668 45.7983 33.7957 45.8579 33.8255C45.9177 33.8552 45.977 33.8856 46.0359 33.9168C46.0949 33.948 46.1534 33.9799 46.2115 34.0125C46.2697 34.0451 46.3275 34.0784 46.3848 34.1125C46.4421 34.1465 46.499 34.1812 46.5554 34.2166C46.612 34.252 46.668 34.2882 46.7236 34.325C46.7792 34.3618 46.8343 34.3993 46.889 34.4375C46.9436 34.4756 46.9978 34.5145 47.0515 34.554C47.1053 34.5935 47.1585 34.6336 47.2112 34.6744C47.2639 34.7152 47.3161 34.7567 47.3678 34.7988C47.4195 34.8408 47.4707 34.8836 47.5213 34.9269C47.572 34.9703 47.6221 35.0142 47.6717 35.0588C47.7213 35.1034 47.7703 35.1486 47.8188 35.1944C47.8672 35.2402 47.9151 35.2866 47.9624 35.3336C48.0097 35.3805 48.0565 35.4281 48.1026 35.4762C48.1488 35.5243 48.1943 35.573 48.2393 35.6223C48.2842 35.6715 48.3286 35.7213 48.3723 35.7716C48.416 35.8219 48.4591 35.8728 48.5016 35.9242C48.5441 35.9756 48.5859 36.0275 48.6271 36.0799C48.6683 36.1323 48.7088 36.1852 48.7487 36.2387C48.7886 36.2921 48.8279 36.346 48.8664 36.4004C48.905 36.4547 48.9429 36.5096 48.9801 36.5649C49.0173 36.6202 49.0538 36.676 49.0897 36.7322C49.1255 36.7884 49.1607 36.8451 49.1952 36.9021C49.2296 36.9592 49.2634 37.0167 49.2964 37.0746C49.3295 37.1326 49.3618 37.1909 49.3934 37.2495C49.425 37.3083 49.4559 37.3674 49.486 37.4268C49.5191 37.4937 49.5514 37.5611 49.5828 37.6288C49.6143 37.6965 49.6449 37.7646 49.6746 37.8331C49.7044 37.9016 49.7333 37.9704 49.7614 38.0395C49.7894 38.1087 49.8166 38.1783 49.843 38.2482C49.8693 38.318 49.8947 38.3882 49.9193 38.4587C49.9439 38.5292 49.9676 38.6 49.9904 38.6711C50.0132 38.7422 50.0352 38.8135 50.0563 38.8852C50.0773 38.9568 50.0975 39.0286 50.1168 39.1008C50.1361 39.1729 50.1544 39.2452 50.1719 39.3178C50.1893 39.3904 50.2059 39.4632 50.2216 39.5362C50.2373 39.6092 50.2521 39.6824 50.2659 39.7558C50.2798 39.8291 50.2928 39.9027 50.3048 39.9764C50.3168 40.05 50.3279 40.1238 50.3381 40.1978C50.3483 40.2717 50.3576 40.3458 50.366 40.42C50.3743 40.4942 50.3817 40.5685 50.3883 40.6428C50.3948 40.7173 50.4004 40.7917 50.4051 40.8662C50.4098 40.9407 50.4135 41.0153 50.4163 41.0899C50.4192 41.1645 50.4211 41.2391 50.4221 41.3138C50.423 41.3884 50.4231 41.4631 50.4221 41.5378C50.4213 41.6124 50.4195 41.687 50.4167 41.7616C50.414 41.8363 50.4104 41.9109 50.4058 41.9854C50.4012 42.0599 50.3957 42.1344 50.3893 42.2087C50.3828 42.2831 50.3755 42.3574 50.3672 42.4316C50.3589 42.5058 50.3497 42.5799 50.3397 42.6539C50.3295 42.7278 50.3185 42.8017 50.3066 42.8754C50.2946 42.9491 50.2818 43.0226 50.268 43.096C50.2543 43.1693 50.2396 43.2425 50.224 43.3156C50.2084 43.3886 50.1919 43.4614 50.1746 43.534C50.1572 43.6066 50.1389 43.679 50.1197 43.7512C50.1005 43.8233 50.0804 43.8952 50.0595 43.9669C50.0385 44.0385 50.0166 44.1099 49.9939 44.181C49.9711 44.2522 49.9475 44.323 49.9231 44.3935C49.2473 46.3997 47.8903 48.005 45.9872 48.9476C45.7877 49.0336 45.587 49.097 45.3795 49.1597C46.1703 48.7671 46.9201 48.2332 47.5286 47.5922C47.5755 47.5424 47.6218 47.492 47.6674 47.441C47.7131 47.39 47.7581 47.3385 47.8025 47.2864C47.8468 47.2343 47.8905 47.1817 47.9336 47.1286C47.9767 47.0754 48.0192 47.0218 48.061 46.9675C48.1028 46.9133 48.1439 46.8586 48.1843 46.8035C48.2248 46.7483 48.2645 46.6926 48.3036 46.6364C48.3426 46.5803 48.381 46.5236 48.4187 46.4665C48.4564 46.4094 48.4934 46.3518 48.5297 46.2938C48.5659 46.2358 48.6015 46.1773 48.6364 46.1184C48.6712 46.0596 48.7053 46.0002 48.7387 45.9405C48.7721 45.8808 48.8048 45.8206 48.8366 45.7601C48.8686 45.6996 48.8998 45.6387 48.9302 45.5774C48.9606 45.5161 48.9903 45.4544 49.0192 45.3924C49.0481 45.3304 49.0762 45.268 49.1037 45.2053C49.131 45.1426 49.1576 45.0796 49.1835 45.0162C49.2093 44.9529 49.2344 44.8892 49.2587 44.8252C49.2829 44.7613 49.3064 44.697 49.3292 44.6325C49.3518 44.5679 49.3738 44.5031 49.3949 44.438C49.416 44.3729 49.4363 44.3076 49.4558 44.242C49.4753 44.1764 49.494 44.1106 49.5119 44.0445C49.5298 43.9785 49.5469 43.9123 49.5632 43.8458C49.5795 43.7794 49.595 43.7127 49.6096 43.6458C49.6243 43.579 49.6381 43.512 49.6511 43.4449C49.6641 43.3776 49.6763 43.3103 49.6877 43.2428C49.699 43.1753 49.7096 43.1077 49.7192 43.04C49.7289 42.9723 49.7378 42.9044 49.7458 42.8365C49.7539 42.7685 49.7611 42.7005 49.7674 42.6323C49.7738 42.5642 49.7794 42.496 49.784 42.4277C49.7888 42.3595 49.7926 42.2912 49.7956 42.2228C49.7986 42.1545 49.8008 42.0861 49.8022 42.0177C49.8036 41.9493 49.8041 41.8809 49.8037 41.8124C49.8034 41.744 49.8022 41.6756 49.8002 41.6072C49.7973 41.514 49.7929 41.4209 49.7871 41.3278C49.7814 41.2348 49.7742 41.1419 49.7657 41.049C49.7572 40.9562 49.7472 40.8635 49.736 40.771C49.7247 40.6785 49.712 40.5861 49.6979 40.4939C49.6838 40.4018 49.6683 40.3099 49.6515 40.2182C49.6347 40.1265 49.6165 40.0351 49.597 39.944C49.5774 39.8528 49.5565 39.762 49.5342 39.6715C49.512 39.5809 49.4883 39.4908 49.4633 39.4009C49.4384 39.3111 49.4121 39.2217 49.3844 39.1327C49.3568 39.0436 49.3278 38.955 49.2975 38.8669C49.2672 38.7787 49.2356 38.691 49.2026 38.6038C49.1697 38.5166 49.1355 38.4299 49.1 38.3437C49.0645 38.2575 49.0277 38.1718 48.9896 38.0868C48.9516 38.0017 48.9122 37.9172 48.8716 37.8332C48.831 37.7493 48.7892 37.666 48.7461 37.5834C48.703 37.5007 48.6586 37.4187 48.6131 37.3374C48.5676 37.256 48.5208 37.1754 48.4728 37.0955C48.4249 37.0156 48.3757 36.9363 48.3254 36.8579C48.275 36.7794 48.2236 36.7017 48.1709 36.6248C48.1183 36.5479 48.0645 36.4717 48.0095 36.3964C47.9546 36.3211 47.8986 36.2466 47.8414 36.1729C47.7842 36.0993 47.726 36.0265 47.6666 35.9546C47.6073 35.8828 47.5469 35.8118 47.4854 35.7417C47.4239 35.6716 47.3614 35.6024 47.2979 35.5341C47.2344 35.4659 47.1699 35.3987 47.1044 35.3324C47.0388 35.2661 46.9723 35.2008 46.9048 35.1365C46.8373 35.0722 46.7689 35.0089 46.6995 34.9467C46.6301 34.8844 46.5597 34.8232 46.4886 34.763C46.4173 34.7029 46.3452 34.6439 46.2722 34.5858C46.1993 34.5279 46.1254 34.471 46.0507 34.4152C45.976 34.3594 45.9005 34.3047 45.8242 34.2512C45.7478 34.1977 45.6707 34.1453 45.5929 34.0941C45.1867 33.8324 44.0879 33.4666 43.8624 33.2303C43.8447 33.2117 43.8283 33.1922 43.8113 33.1731Z" fill="#6E8399"/>
<path d="M58.3664 66.9922C60.9627 68.3521 65.0295 74.0869 66.8215 76.6786C67.2525 77.3018 67.6191 77.9831 68.0688 78.5902C68.1854 78.7476 68.3401 78.942 68.544 78.9713L68.5452 78.9999H66.9326L66.9233 78.9382C65.6264 76.8638 64.4935 74.7046 63.0094 72.7488C62.6362 72.2569 61.2844 70.7127 61.2246 70.2552C61.4259 70.4086 61.5944 70.7903 61.8647 70.8048C61.9367 70.7556 61.9665 70.7303 61.9862 70.6372C62.0215 70.4704 61.8979 70.3343 61.7985 70.2182C61.6488 70.0434 61.4302 69.8346 61.1957 69.8062C61.0877 69.8451 61.0775 69.853 61.0076 69.9441L60.9712 70.1891C60.5769 69.7286 60.1833 69.2646 59.7641 68.8262C59.44 68.4873 59.0591 68.1748 58.7877 67.7918C58.6107 67.5419 58.4911 67.2703 58.3664 66.9922Z" fill="#6E8399"/>
<path d="M37.2663 65.801C44.2498 66.8117 50.1689 71.63 55.1061 76.3518C56.0205 77.2264 56.9676 78.0897 57.8443 79H56.9942H56.4747H54.9633H54.6499C54.662 78.9723 54.6744 78.9445 54.6859 78.9167C54.7678 78.7177 54.8518 78.5495 54.9908 78.3821C55.202 78.1283 55.4689 77.974 55.7982 77.9416C55.4642 77.9115 55.1216 77.4254 54.9003 77.1878C53.9709 76.1921 52.9654 75.2554 51.9558 74.3416C51.1515 73.6135 50.3504 72.8834 49.5093 72.1977C47.5168 70.5734 44.5837 68.5667 42.2701 67.4631C41.1445 66.9262 40.0051 66.5073 38.7951 66.2072C38.5018 66.1345 37.4396 65.9567 37.2663 65.801Z" fill="#6E8399"/>
<path d="M55.7982 77.9414C56.2352 78.0486 56.532 78.1921 56.7764 78.591C56.8573 78.7229 56.9275 78.8602 56.9942 78.9999H56.4748H54.9633H54.65C54.662 78.9721 54.6744 78.9443 54.6859 78.9166C54.7678 78.7175 54.8519 78.5493 54.9908 78.3819C55.202 78.1281 55.469 77.9738 55.7982 77.9414Z" fill="#272E3D"/>
<path d="M54.9633 79C55.1128 78.7485 55.2438 78.5356 55.5443 78.4484C55.7279 78.3959 55.9117 78.4252 56.0759 78.5209C56.2828 78.6413 56.372 78.7894 56.4747 79H54.9633Z" fill="#424F67"/>
<path d="M35.8465 79C36.2974 77.7849 37.5868 75.6722 38.5564 74.8271C39.6717 75.3549 40.7951 75.8832 41.8376 76.5476C41.0034 77.1646 40.1914 78.0649 39.7305 79H35.8465Z" fill="#424F67"/>
<path d="M29.1522 73.3655C30.3899 73.1586 31.4888 73.1217 32.7396 73.1799C31.3186 75.1482 30.4836 76.7014 29.6989 79H26.3199C26.8001 77.7919 27.3049 76.5611 27.922 75.4154C28.2991 74.7154 28.7411 74.0461 29.1522 73.3655Z" fill="#424F67"/>
<path d="M55.3781 14.9082C57.0625 14.8414 59.35 15.0769 60.9986 15.4838C61.4746 15.6013 61.9479 15.7399 62.4172 15.8812C62.5897 15.9331 62.7426 16.0135 62.9199 16.0514L62.9577 16.0591C62.8871 16.0833 62.8122 16.0637 62.7401 16.047C62.5016 15.9919 62.2683 15.8928 62.0307 15.8286C61.4867 15.6822 60.9372 15.5602 60.3823 15.4625C56.0929 14.7215 51.4049 14.9634 47.746 17.5612C44.5733 19.8139 42.986 23.495 42.3671 27.2205C42.0092 29.5515 42.2482 31.6933 43.1732 33.8606C42.8019 33.7423 42.4189 33.6569 42.0407 33.5632C41.5654 32.4101 41.2828 31.0057 41.2403 29.7645C41.1117 26.012 42.4697 21.833 45.0571 19.0703C47.9089 16.0251 51.329 15.0381 55.3781 14.9082Z" fill="#6E8399"/>
<path d="M33.6978 73.3457C35.0405 73.6154 36.3947 73.9375 37.6675 74.4524C36.4369 75.7371 35.3411 77.3043 34.7666 79H30.6687C31.3264 77.1419 32.3872 74.8342 33.6978 73.3457Z" fill="#424F67"/>
<path d="M32.5119 69.1709C33.772 69.2056 34.9879 69.3289 36.2173 69.618C37.9562 70.0268 39.6326 70.7372 41.2281 71.5289C41.8713 71.848 42.5304 72.1539 43.1548 72.5084C44.9713 73.5397 46.7286 74.7868 48.3628 76.0879C49.4396 76.9452 50.6599 77.9137 51.5978 78.9213C51.6217 78.9468 51.6443 78.9738 51.6673 79H49.7587C48.3729 77.3691 46.7031 76.0297 44.9274 74.8446C41.378 72.4755 37.3074 70.6437 33.0122 70.2933C32.4785 70.2497 31.9421 70.2274 31.4072 70.2007C31.6958 69.8264 32.1231 69.4426 32.5119 69.1709Z" fill="#424F67"/>
<path d="M26.4622 73.5789C27.6383 72.1382 29.374 71.3546 31.2049 71.1695C35.2272 70.7629 40.0079 72.7289 43.3333 74.8547C44.466 75.5787 45.5175 76.4072 46.5545 77.2603C47.2248 77.8112 47.8645 78.3736 48.4666 79H46.6196C43.0739 75.5354 36.3575 72.138 31.3221 72.206C29.6905 72.2281 27.8196 72.6491 26.4622 73.5789Z" fill="#6E8399"/>
<path d="M48.3709 52.8411C50.4508 54.1088 52.6607 55.122 55.0674 55.5781C55.6685 55.692 56.2743 55.7154 56.8747 55.8096C56.7573 55.8147 56.6607 55.7967 56.5625 55.8649C56.0785 57.084 55.7579 58.366 55.2814 59.5873C53.1582 59.2553 50.4257 58.2768 48.5625 57.2225C48.723 55.7297 48.7173 54.3104 48.3709 52.8411Z" fill="#424F67"/>
<path d="M45.4103 61.9788C46.0893 62.3457 46.7534 62.7354 47.4524 63.0648C49.3811 63.9738 51.4258 64.523 53.5031 64.9699C53.2821 65.548 52.182 68.2892 52.1446 68.6793C49.8295 68.3559 45.5354 66.2029 43.673 64.8126C44.3799 63.9092 44.904 63.0077 45.4103 61.9788Z" fill="#424F67"/>
<path d="M46.4707 56.9707C46.7773 57.14 47.0884 57.2832 47.4115 57.4182C47.5341 57.8622 47.6219 58.3192 47.7031 58.7723C47.7494 59.0309 47.7685 59.2952 47.8502 59.5458C48.0459 59.4219 48.3212 58.3271 48.4049 58.044C50.3811 59.1994 52.7716 60.0229 55.0389 60.3417C54.8806 60.6161 54.7994 60.9729 54.6971 61.2761C54.3846 62.2024 54.125 63.2346 53.6929 64.1066C51.7241 63.8322 49.698 63.1812 47.8992 62.3415C47.1542 61.9938 46.4415 61.5918 45.7081 61.2236C46.1521 59.8151 46.4868 58.4619 46.4707 56.9707Z" fill="#424F67"/>
<path d="M54.5744 71.5037C55.626 71.5502 56.7683 71.5237 57.5916 70.7672C58.0659 70.3313 58.2954 69.7958 58.458 69.1853C58.9217 70.1481 59.2852 71.1539 59.758 72.1166C60.4155 73.4554 61.8282 75.6939 62.1261 77.0446C61.6234 77.6314 60.9699 78.0187 60.1922 78.0835C59.5607 78.1368 58.8874 78.0141 58.2577 77.947C57.6841 77.5288 57.1678 76.9598 56.6544 76.4677C56.0979 75.9342 55.496 75.4135 54.9848 74.8374C54.9366 74.1576 54.4988 71.9511 54.5744 71.5037Z" fill="#6E8399"/>
<path d="M60.8196 11.2423C61.9544 11.2093 63.1194 11.2046 64.2478 11.3414C67.0709 11.6836 69.5659 12.969 71.9553 14.4322C71.1301 14.2525 70.2854 14.0762 69.4436 14.0037C67.2627 13.8159 64.8199 14.1667 62.7782 14.9582C62.5956 15.0289 62.3535 15.0991 62.2701 15.2868C62.3329 15.3494 64.1762 15.714 64.4187 15.7855C66.5191 16.4053 68.7235 17.6362 70.0785 19.3982C69.6019 19.0691 69.0832 18.8589 68.5398 18.6675C65.9126 17.7418 63.1389 17.9668 60.4175 18.1733C60.9995 18.7506 61.6743 19.1625 62.3248 19.6531C63.5182 20.5532 64.6286 21.7963 65.3313 23.1249C62.6918 20.7002 59.0912 20.7352 55.7528 20.306C57.0869 21.4056 58.6448 22.12 60.0332 23.1352C59.2373 23.0631 58.4403 23.0062 57.6423 22.9644C55.4836 22.852 52.4002 22.8287 50.7195 21.2872C51.0036 21.767 51.3635 22.2192 51.6931 22.6696C52.943 24.3778 53.4288 25.2166 53.8337 27.3497C51.2869 25.0947 48.2839 25.8487 45.9302 23.8951C46.1712 24.5294 46.4397 25.1565 46.6264 25.8098C47.3106 28.2043 46.9012 30.4201 45.7128 32.5642C45.3247 31.4117 44.8661 30.1956 44.1172 29.2274C43.8623 28.898 43.5316 28.6334 43.2805 28.3072C43.2158 28.2231 43.1697 28.1506 43.1802 28.0412L43.2473 28.0096C43.3766 28.0364 43.4499 28.1324 43.539 28.2226C44.5977 29.2948 45.1836 30.2007 45.7476 31.5976C46.9121 28.0228 46.2519 25.7673 45.1005 22.363C46.9086 24.2387 48.855 24.2871 51.0876 25.2011C51.842 25.5099 52.5001 25.9296 53.1632 26.3963C52.5324 24.9697 51.5227 23.8812 50.7033 22.5815C50.0982 21.622 49.7032 20.5264 49.3967 19.4398C51.356 21.4441 53.0381 21.8256 55.7344 22.152C56.5345 22.2488 57.3288 22.3158 58.0848 22.6149C57.621 22.279 57.098 22.015 56.6097 21.7152C55.2266 20.8662 54.2162 19.8273 53.5255 18.3515C54.042 18.7565 54.5651 19.2088 55.1771 19.4624C55.991 19.7995 56.8962 19.8286 57.7619 19.909C59.6686 20.0863 61.5424 20.3231 63.261 21.2322C62.8626 20.8395 62.4637 20.4366 62.0241 20.0897C61.0058 19.286 59.9868 18.6573 59.1235 17.6659C60.2073 17.7158 61.2866 17.5781 62.3686 17.53C63.7433 17.469 65.0766 17.4866 66.4324 17.7443C66.9353 17.84 67.4292 17.9813 67.9289 18.0925C67.5611 17.699 67.0907 17.418 66.6147 17.1748C65.3798 16.5437 62.0784 15.3834 60.7463 15.2585C62.3715 14.1685 64.5003 13.3831 66.4618 13.2786C67.2673 13.2357 68.0717 13.3222 68.8765 13.2974L68.9163 13.3553L68.9385 13.2737L69.1214 13.2734C69.0914 13.2433 69.0865 13.2358 69.0451 13.2099C68.7387 13.0181 67.9689 12.8145 67.5962 12.699C65.789 12.1393 63.9931 11.9083 62.1083 11.7927C61.2369 11.7393 60.3575 11.697 59.4852 11.7512C58.7081 11.7995 57.9308 11.9297 57.1615 12.0451C58.3314 11.4697 59.5375 11.3174 60.8196 11.2423Z" fill="#6E8399"/>
<path d="M51.2822 44.0771C51.7269 44.5465 52.1018 45.0795 52.5443 45.5538C54.6273 47.7868 56.3747 49.2779 58.9469 50.9012C60.0841 51.619 61.3311 52.1591 62.4482 52.9015C61.8896 53.0896 61.1998 53.1214 60.613 53.1861C58.7059 53.3966 56.7822 53.5771 54.8625 53.4482C51.7887 53.2418 48.8822 51.944 46.8391 49.6153C47.0668 49.487 47.2934 49.357 47.5191 49.2253C47.7255 49.4794 47.9283 49.7277 48.1659 49.9539C48.5995 50.3324 49.0607 50.6734 49.5496 50.9771C52.6301 52.913 55.849 52.8926 59.3386 52.7608C60.042 52.7343 61.1519 52.79 61.8008 52.6411C61.7212 52.5988 61.6314 52.5965 61.542 52.593C61.2207 52.5805 60.8934 52.6156 60.57 52.611C59.6756 52.5983 58.7751 52.5593 57.8811 52.5195C54.7976 52.3823 51.8504 52.0259 49.2725 50.1623C48.7955 49.8175 48.2882 49.4375 47.8945 49.0001C47.8847 48.9892 47.8751 48.978 47.8654 48.967C49.7465 47.273 50.3862 46.4961 51.2822 44.0771Z" fill="#424F67"/>
<path d="M40.3461 37.3939C41.333 37.2575 42.4423 37.612 43.2332 38.1965C44.2077 38.9167 44.8406 40.0781 45.0074 41.2704C45.0176 41.3431 45.026 41.416 45.0325 41.4892C45.0391 41.5623 45.0439 41.6356 45.0469 41.7089C45.0499 41.7823 45.0511 41.8557 45.0504 41.9292C45.0498 42.0026 45.0474 42.0759 45.0432 42.1493C45.039 42.2226 45.0329 42.2957 45.0251 42.3687C45.0173 42.4417 45.0077 42.5145 44.9963 42.587C44.9849 42.6596 44.9717 42.7318 44.9568 42.8037C44.9418 42.8756 44.9251 42.947 44.9066 43.0181C44.8882 43.0892 44.868 43.1598 44.8461 43.2299C44.8241 43.2999 44.8004 43.3694 44.7751 43.4383C44.7498 43.5073 44.7228 43.5755 44.6941 43.6431C44.6653 43.7107 44.635 43.7775 44.603 43.8436C44.5711 43.9097 44.5374 43.975 44.5022 44.0395C44.467 44.1039 44.4303 44.1675 44.392 44.2301C44.3537 44.2928 44.3138 44.3544 44.2725 44.415C44.2311 44.4757 44.1883 44.5354 44.144 44.5939C43.3633 45.6186 42.3337 46.1852 41.0683 46.3624C39.9236 46.3918 38.9561 46.0969 38.0331 45.4015C37.9754 45.3576 37.9188 45.3125 37.8633 45.2659C37.8077 45.2193 37.7534 45.1714 37.7002 45.1222C37.6471 45.073 37.5951 45.0225 37.5444 44.9707C37.4937 44.919 37.4442 44.866 37.3962 44.8119C37.348 44.7577 37.3012 44.7024 37.2557 44.646C37.2103 44.5896 37.1663 44.5321 37.1237 44.4735C37.081 44.4149 37.0398 44.3553 37.0001 44.2948C36.9604 44.2342 36.9221 44.1726 36.8854 44.1101C36.8486 44.0477 36.8134 43.9844 36.7798 43.9202C36.7462 43.8561 36.7141 43.7911 36.6836 43.7254C36.6531 43.6597 36.6243 43.5932 36.597 43.5261C36.5698 43.4589 36.5442 43.3912 36.5202 43.3228C36.4963 43.2544 36.474 43.1855 36.4534 43.116C36.4328 43.0465 36.4139 42.9766 36.3968 42.9062C36.3796 42.8358 36.3641 42.7651 36.3504 42.6939C36.3367 42.6228 36.3247 42.5514 36.3145 42.4796C36.1486 41.252 36.5555 40.0018 37.3084 39.0334C38.0572 38.0703 39.1462 37.5377 40.3461 37.3939Z" fill="#424F67"/>
<path d="M40.4609 42.0526C40.7059 42.0363 40.9272 42.0483 41.1538 42.1534C41.4555 42.2931 41.6789 42.5515 41.7876 42.8645C41.7951 42.8858 41.802 42.9072 41.8085 42.9288C41.8148 42.9504 41.8206 42.9722 41.8259 42.9941C41.8311 43.016 41.8358 43.038 41.8399 43.0601C41.8441 43.0823 41.8477 43.1045 41.8507 43.1268C41.8536 43.1492 41.856 43.1716 41.8578 43.194C41.8597 43.2165 41.8609 43.2389 41.8616 43.2615C41.8623 43.284 41.8624 43.3065 41.8619 43.329C41.8615 43.3515 41.8604 43.374 41.8588 43.3965C41.8571 43.419 41.8549 43.4414 41.8521 43.4637C41.8493 43.4861 41.8459 43.5083 41.842 43.5306C41.8381 43.5527 41.8336 43.5748 41.8285 43.5968C41.8234 43.6187 41.8178 43.6404 41.8116 43.6621C41.8054 43.6838 41.7986 43.7053 41.7913 43.7266C41.784 43.7479 41.7762 43.769 41.7678 43.7899C41.7594 43.8108 41.7505 43.8315 41.7411 43.852C41.7316 43.8724 41.7217 43.8926 41.7112 43.9125C41.5138 44.2856 41.1959 44.4766 40.8021 44.592C40.5086 44.6162 40.2492 44.6147 39.986 44.4664C39.6916 44.3006 39.4969 44.0053 39.4202 43.68C39.3355 43.3206 39.3928 42.9121 39.5939 42.5998C39.801 42.2781 40.0981 42.1348 40.4609 42.0526Z" fill="#272E3D"/>
<path d="M40.3742 42.7856C40.5004 42.7665 40.632 42.7502 40.7584 42.7772C40.9025 42.808 41.0332 42.916 41.1077 43.0408C41.1868 43.1732 41.2021 43.3238 41.1623 43.4719C41.1038 43.6899 40.9732 43.8058 40.7844 43.9154C40.7033 43.9212 40.6186 43.9263 40.538 43.9118C40.3683 43.8812 40.2089 43.7646 40.1209 43.6177C40.1111 43.6015 40.102 43.5847 40.0939 43.5676C40.0857 43.5504 40.0784 43.5329 40.0719 43.515C40.0655 43.4971 40.0599 43.479 40.0552 43.4606C40.0506 43.4421 40.0469 43.4235 40.044 43.4047C40.0413 43.3859 40.0394 43.367 40.0385 43.348C40.0375 43.329 40.0375 43.31 40.0385 43.2911C40.0395 43.272 40.0414 43.2531 40.0442 43.2344C40.047 43.2155 40.0508 43.1969 40.0555 43.1785C40.1057 42.9827 40.2083 42.8903 40.3742 42.7856Z" fill="#424F67"/>
<path d="M38.2912 34.8916C38.3146 34.8942 38.3379 34.8971 38.3612 34.8994C38.8674 34.9493 39.4083 34.8032 39.9263 34.8316C41.7493 34.9315 43.6532 35.9177 44.8372 37.2989C44.9196 37.395 45.0075 37.4933 45.0809 37.5964C44.8143 37.9015 44.5679 38.2215 44.3196 38.5415C43.4457 37.57 42.2958 36.8363 40.9582 36.7578C39.6925 36.6834 38.2506 37.164 37.3038 38.0129C37.0967 38.1986 36.91 38.4097 36.7167 38.6097C36.5955 38.3267 36.4218 38.049 36.1256 37.9222C35.9077 37.829 35.6609 37.8447 35.4461 37.9389C35.1757 38.0577 34.965 38.2998 34.8666 38.5763C34.7766 38.8296 34.7735 39.1484 34.9031 39.3893C35.005 39.5787 35.1801 39.6881 35.3832 39.7451C35.5957 39.8048 35.7915 39.8099 36.0086 39.781L36.0614 39.7743C36.072 39.7729 36.0825 39.7712 36.093 39.7697C35.5276 41.0554 35.4604 42.4757 35.9784 43.7889C36.01 43.8706 36.0437 43.9515 36.0793 44.0315C36.1149 44.1115 36.1526 44.1906 36.1922 44.2688C36.2318 44.3469 36.2734 44.4241 36.3168 44.5002C36.3603 44.5763 36.4056 44.6512 36.4529 44.725C36.5001 44.7988 36.5491 44.8714 36.5999 44.9428C36.6507 45.0141 36.7033 45.0842 36.7577 45.1529C36.812 45.2217 36.868 45.289 36.9257 45.3549C36.9834 45.4208 37.0427 45.4853 37.1037 45.5483C37.1646 45.6113 37.227 45.6727 37.2911 45.7326C37.3551 45.7924 37.4205 45.8506 37.4874 45.9072C37.5543 45.9638 37.6226 46.0187 37.6922 46.0719C37.7619 46.125 37.8328 46.1764 37.905 46.226C37.9772 46.2756 38.0506 46.3234 38.1252 46.3694C38.1998 46.4153 38.2755 46.4594 38.3523 46.5016C38.4291 46.5437 38.5069 46.584 38.5858 46.6223C38.6646 46.6606 38.7443 46.6969 38.8249 46.7312C40.0064 47.2354 41.258 47.2301 42.445 46.7506C42.521 46.7203 42.5962 46.688 42.6707 46.6539C42.7451 46.6198 42.8187 46.5839 42.8913 46.5462C42.964 46.5085 43.0356 46.469 43.1064 46.4277C43.1771 46.3864 43.2467 46.3434 43.3153 46.2987C43.3838 46.2539 43.4513 46.2075 43.5176 46.1594C43.5838 46.1114 43.6488 46.0617 43.7127 46.0104C43.7765 45.9591 43.839 45.9063 43.9002 45.8519C43.9614 45.7975 44.0212 45.7416 44.0796 45.6843C44.1381 45.6269 44.1951 45.5682 44.2506 45.508C44.3061 45.4479 44.3601 45.3864 44.4126 45.3235C44.465 45.2607 44.5159 45.1966 44.5652 45.1312C44.6145 45.0658 44.6622 44.9993 44.7082 44.9315C44.7542 44.8638 44.7985 44.795 44.841 44.7251C44.8837 44.6552 44.9245 44.5843 44.9636 44.5123C45.0027 44.4403 45.04 44.3675 45.0754 44.2937C45.1109 44.2199 45.1446 44.1453 45.1763 44.0699C45.6959 42.8445 45.6578 41.5523 45.259 40.2912C45.6744 40.0224 46.1175 39.7706 46.4521 39.4005C46.6361 39.7674 46.801 40.1428 46.9466 40.5267C47.0922 40.9105 47.2178 41.3008 47.3235 41.6975C47.3936 41.965 47.4918 42.7022 47.6277 42.8894C47.597 43.4362 47.4318 44.0365 47.2563 44.554C46.6876 46.2291 45.3938 47.7333 43.7985 48.5124C42.104 49.34 40.2785 49.4896 38.4914 48.86C36.7314 48.2398 35.2307 46.7896 34.4448 45.113C33.6369 43.3893 33.3965 41.329 34.0562 39.5173C34.0786 39.4541 34.1018 39.3911 34.1258 39.3284C34.1498 39.2657 34.1746 39.2034 34.2001 39.1413C34.2257 39.0793 34.252 39.0176 34.2791 38.9561C34.3062 38.8947 34.3341 38.8337 34.3627 38.773C34.3914 38.7123 34.4208 38.652 34.4509 38.592C34.4811 38.532 34.512 38.4725 34.5437 38.4133C34.5753 38.3541 34.6077 38.2953 34.6408 38.237C34.6739 38.1786 34.7077 38.1206 34.7422 38.0631C34.7768 38.0056 34.8121 37.9485 34.8481 37.8918C34.8841 37.8352 34.9208 37.779 34.9582 37.7232C34.9956 37.6675 35.0337 37.6123 35.0724 37.5575C35.1113 37.5027 35.1507 37.4485 35.1909 37.3947C35.231 37.3409 35.2718 37.2876 35.3133 37.2349C35.3547 37.1821 35.3969 37.1299 35.4397 37.0781C35.4825 37.0264 35.5259 36.9753 35.57 36.9247C35.614 36.8741 35.6587 36.824 35.7041 36.7745C35.7494 36.725 35.7953 36.676 35.8418 36.6277C35.8884 36.5793 35.9355 36.5316 35.9832 36.4844C36.031 36.4372 36.0794 36.3907 36.1283 36.3447C36.1771 36.2988 36.2266 36.2534 36.2766 36.2087C36.3267 36.164 36.3773 36.1199 36.4285 36.0764C36.4796 36.033 36.5313 35.9901 36.5835 35.948C36.6357 35.9059 36.6885 35.8644 36.7417 35.8235C36.795 35.7827 36.8488 35.7425 36.903 35.703C36.9573 35.6635 37.012 35.6247 37.0673 35.5866C37.1225 35.5485 37.1782 35.5111 37.2344 35.4743C37.2905 35.4376 37.3472 35.4016 37.4042 35.3663C37.4613 35.3309 37.5188 35.2964 37.5768 35.2625C37.6347 35.2286 37.6931 35.1955 37.7519 35.1631C37.8106 35.1307 37.8698 35.099 37.9293 35.0681C37.9889 35.0372 38.0489 35.007 38.1092 34.9776C38.1695 34.9481 38.2302 34.9195 38.2912 34.8916Z" fill="#424F67"/>
<path d="M47.5892 16.3967C47.6069 16.4067 47.5946 16.398 47.6086 16.4375C46.0467 17.4261 44.4283 18.7905 43.372 20.3263C42.961 20.9236 42.6273 21.5806 42.2931 22.2234C40.8829 24.9364 40.3883 28.5328 40.8786 31.5352C40.9874 32.202 41.1693 32.8362 41.3724 33.4786C39.0911 33.5836 37.0258 34.1756 35.3891 35.8445L35.0646 36.2071C34.9655 32.4558 35.2563 29.1946 36.8425 25.7498C38.7186 21.6758 41.4423 18.9643 45.558 17.1582C46.2189 16.8682 46.9123 16.6467 47.5892 16.3967Z" fill="#424F67"/>
<path d="M38.6746 25.7791C38.942 25.7601 39.1756 25.7735 39.4146 25.9073C39.6784 26.0549 39.8519 26.308 39.9288 26.5971C40.0297 26.9767 39.9789 27.4116 39.7744 27.7489C39.5541 28.1124 39.2294 28.2894 38.827 28.3869C38.561 28.3958 38.3304 28.3607 38.0976 28.2219C38.0646 28.2022 38.0327 28.1809 38.0018 28.158C37.9709 28.135 37.9412 28.1107 37.9128 28.0848C37.8843 28.059 37.8572 28.0318 37.8314 28.0032C37.8056 27.9747 37.7813 27.945 37.7585 27.914C37.7356 27.8831 37.7144 27.8512 37.6947 27.8181C37.675 27.7851 37.657 27.7512 37.6406 27.7164C37.6243 27.6816 37.6098 27.646 37.597 27.6098C37.5841 27.5735 37.5731 27.5367 37.564 27.4994C37.473 27.133 37.5541 26.7205 37.7486 26.4004C37.9681 26.0391 38.2716 25.8678 38.6746 25.7791Z" fill="#272E3D"/>
<path d="M38.6559 26.1975C38.8204 26.1883 38.9844 26.1963 39.1288 26.2852C39.2941 26.3868 39.4165 26.5858 39.4474 26.776C39.4657 26.8887 39.4528 26.9697 39.3875 27.062L39.3188 27.0513L39.1932 26.8745C38.9062 26.5763 38.6429 26.57 38.2493 26.5157L38.2377 26.4597C38.373 26.3571 38.5041 26.2738 38.6559 26.1975Z" fill="#8FA4B9"/>
<path d="M38.4616 26.7756C38.5764 26.7882 38.7002 26.8071 38.8104 26.8424C38.9649 26.892 39.1151 27.0599 39.1801 27.2045C39.227 27.309 39.236 27.4298 39.1849 27.5352C39.0971 27.7165 38.9226 27.7659 38.743 27.8104C38.6472 27.8107 38.545 27.8124 38.4545 27.7763C38.293 27.7116 38.1464 27.5649 38.0835 27.4028C38.0318 27.2697 38.0383 27.1382 38.1061 27.011C38.1794 26.8732 38.322 26.8199 38.4616 26.7756Z" fill="#424F67"/>
<path d="M32.4331 67.4611C32.8991 66.9597 34.2999 65.9416 34.9278 65.6848C35.3199 65.5243 36.8669 65.6416 37.2663 65.8009C37.4396 65.9566 38.5019 66.1344 38.7951 66.2071C40.0051 66.5072 41.1445 66.9262 42.2701 67.463C44.5838 68.5666 47.5168 70.5733 49.5093 72.1976C50.3505 72.8833 51.1516 73.6135 51.9558 74.3415C52.9654 75.2553 53.971 76.1921 54.9003 77.1877C55.1216 77.4254 55.4642 77.9114 55.7982 77.9415C55.469 77.9739 55.202 78.1282 54.9908 78.382C54.8518 78.5494 54.7678 78.7176 54.6859 78.9166C54.6744 78.9444 54.662 78.9722 54.6499 79H53.1811C51.8873 77.754 50.5847 76.5156 49.1861 75.3855C48.706 74.9976 48.1939 74.6433 47.6962 74.278C46.7062 73.5514 45.7344 72.8387 44.6802 72.203C42.0059 70.5904 38.4483 69.1212 35.3516 68.6063C34.8452 68.5237 34.3361 68.4646 33.8242 68.4291C33.3123 68.3935 32.7999 68.3816 32.2869 68.3934C32.3036 68.0752 32.3412 67.7668 32.4331 67.4611Z" fill="#424F67"/>
<path d="M34.5206 66.0115C34.634 65.9969 34.7559 65.9821 34.8699 65.9954C35.0689 66.0186 35.2809 66.1136 35.395 66.2843C35.5061 66.4507 35.5175 66.6584 35.4649 66.8475C35.3646 67.2083 35.107 67.4042 34.7958 67.5731C34.6581 67.5951 34.5144 67.6114 34.3758 67.5858C34.2018 67.5536 34.0457 67.4629 33.9514 67.3103C33.8467 67.1411 33.8428 66.918 33.8926 66.7305C33.9865 66.3768 34.2149 66.1831 34.5206 66.0115Z" fill="#272E3D"/>
<path d="M34.6343 66.4961C34.6737 66.494 34.739 66.4892 34.7766 66.4933C34.8902 66.5059 34.915 66.5408 34.9886 66.6192C35.0117 66.6903 35.0273 66.7389 35.0082 66.8147C34.9676 66.9747 34.8762 67.0514 34.7392 67.1298C34.6594 67.1346 34.5404 67.1442 34.4633 67.1179C34.3711 67.0865 34.3587 67.0308 34.3281 66.9501C34.3591 66.7383 34.4739 66.6278 34.6343 66.4961Z" fill="#424F67"/>
<path d="M46.3592 70.3312C46.5556 70.3174 46.7482 70.3393 46.9251 70.4301C47.1515 70.5464 47.3112 70.7387 47.3866 70.9817C47.3968 71.0138 47.4053 71.0463 47.4122 71.0793C47.4191 71.1123 47.4244 71.1455 47.4278 71.179C47.4314 71.2125 47.4332 71.2462 47.4333 71.2798C47.4334 71.3135 47.4318 71.3471 47.4285 71.3807C47.4253 71.4142 47.4203 71.4475 47.4137 71.4805C47.407 71.5135 47.3986 71.5461 47.3887 71.5783C47.3787 71.6105 47.3671 71.6421 47.3539 71.6731C47.3408 71.7041 47.3261 71.7344 47.3098 71.7639C47.1269 72.1006 46.8367 72.2646 46.4785 72.3629C46.2413 72.3679 46.03 72.3326 45.8207 72.2143C45.7952 72.2001 45.7705 72.1846 45.7466 72.1678C45.7226 72.1511 45.6996 72.1331 45.6775 72.114C45.6553 72.095 45.6342 72.0748 45.6142 72.0536C45.5941 72.0323 45.5752 72.0101 45.5573 71.987C45.5395 71.9638 45.5228 71.9399 45.5075 71.9151C45.492 71.8902 45.4779 71.8647 45.4651 71.8385C45.4523 71.8122 45.4408 71.7853 45.4307 71.7579C45.4206 71.7305 45.4119 71.7027 45.4046 71.6744C45.3342 71.3975 45.409 71.0823 45.5603 70.8448C45.7581 70.5345 46.0113 70.4089 46.3592 70.3312Z" fill="#272E3D"/>
<path d="M46.4738 70.9055C46.5239 70.9192 46.5765 70.9316 46.6237 70.9542C46.7389 71.0094 46.841 71.1296 46.8662 71.2553C46.8871 71.3594 46.8585 71.4705 46.8008 71.5579C46.7055 71.7022 46.5795 71.7421 46.4181 71.7791C46.382 71.7645 46.3455 71.7504 46.3102 71.7338C46.1704 71.6677 46.0401 71.5492 46.0014 71.3942C45.976 71.293 45.9972 71.2144 46.0509 71.1277C46.1425 70.9798 46.3169 70.9413 46.4738 70.9055Z" fill="#424F67"/>
<path d="M40.9525 3.43726L40.9775 3.45847C40.9536 3.48132 40.9302 3.50457 40.9072 3.52823C39.764 4.70287 38.7309 6.90256 38.3623 8.51544C38.1037 9.64697 38.0182 10.8395 38.0345 11.9978C38.492 10.8378 39.1394 9.71124 39.9643 8.76979C42.0591 6.3789 44.7496 4.93903 47.9354 4.72022C46.9453 5.07976 46.0744 5.61132 45.2928 6.32143C43.9816 7.51268 42.6569 10.4282 42.5684 12.2052C44.6647 9.39979 46.7889 8.92509 49.8701 7.84023C50.7514 7.52991 51.6829 7.18382 52.4525 6.64729C52.9685 6.28758 53.3869 5.84282 53.8047 5.37807C53.2623 7.151 51.8498 8.33175 50.4892 9.48882C50.0981 9.82148 49.6755 10.1511 49.334 10.5354L49.2988 10.5755C50.2842 10.2309 51.2331 9.78985 52.2318 9.47447C52.9029 9.26254 53.5978 9.12097 54.2772 8.93705C55.4222 8.62699 56.6943 8.1543 57.6962 7.51685C58.7254 6.86198 59.3212 5.99868 59.5798 4.81341C59.7316 5.08379 59.8744 5.3604 59.986 5.64997C60.3963 6.71449 60.2361 7.7985 59.7731 8.81832C59.0729 10.3605 57.2313 12.0837 55.6504 12.6848C56.5374 11.6599 57.5418 10.676 58.3257 9.57376C58.9394 8.71101 59.4191 7.70679 59.829 6.73111C59.6145 6.97684 59.4339 7.23757 59.194 7.46288C57.797 8.77535 55.8717 9.53094 54.0117 9.90002C53.2696 10.0472 52.5148 10.1263 51.7716 10.2693C50.5977 10.4953 49.1384 10.8884 48.0512 11.3604C48.7535 10.3629 49.6024 9.43227 50.3978 8.50641C49.5262 8.81199 48.6265 9.02724 47.7531 9.32673C45.3457 10.1523 43.7052 11.5449 42.0534 13.4283C42.0877 10.879 42.3889 9.08672 44.0273 7.03431C44.3561 6.62246 44.7787 6.29607 45.1012 5.87929L45.1356 5.83427C45.0342 5.87468 44.9397 5.91979 44.8437 5.97176C41.9632 7.5325 38.7889 10.3481 37.8263 13.576C37.0303 10.4174 37.6625 7.7725 39.2674 5.01781C38.5911 5.58882 38.0239 6.31437 37.4633 6.99602C36.7118 7.90982 35.9711 8.84108 35.1635 9.70622C34.5465 10.3673 33.8575 10.9235 33.1551 11.4895C31.466 12.8508 29.8727 14.1698 28.8942 16.1669C28.5007 16.97 28.187 17.8347 28.0476 18.7202C27.7291 18.0771 27.4933 17.4066 27.3024 16.7163C26.7193 14.6075 26.5591 12.2215 27.3413 10.1446C27.5662 9.54753 27.8934 8.99931 28.2064 8.44569C27.9014 8.7815 27.6091 9.12794 27.3294 9.48504C27.0497 9.84213 26.7834 10.209 26.5305 10.5856C26.2776 10.9621 26.0387 11.3473 25.8139 11.7413C25.589 12.1353 25.3789 12.5369 25.1834 12.9462C23.957 15.5467 23.68 18.6491 24.6615 21.3769C24.2292 21.1395 23.8117 20.8784 23.409 20.5937C21.8043 19.4657 20.455 17.6224 19.8148 15.7614C19.5999 15.1367 19.482 14.4982 19.3685 13.8498C18.5422 17.2502 18.782 21.2503 19.99 24.5301C20.3413 25.4841 20.8213 26.3853 21.2798 27.2907C19.7568 27.0972 18.2806 26.7532 16.9035 26.0541C16.3087 25.752 15.7608 25.3711 15.2448 24.9498C13.9128 23.8623 13.2014 22.7748 12.6748 21.1497C12.6569 21.6497 12.6373 22.1459 12.6759 22.6456C12.929 25.9173 15.07 29.5876 17.5293 31.6935C16.8563 31.9562 16.1096 32.0783 15.3934 32.1442C13.2349 32.3432 11.3266 31.7578 9.66157 30.3782C9.8009 30.6475 9.9687 30.9101 10.1343 31.1642C11.497 33.2568 12.9899 34.2538 15.4215 34.7676C15.0284 35.0394 14.626 35.3055 14.249 35.5992C13.7437 35.9931 13.2713 36.4287 12.7669 36.8244C11.8863 37.5149 10.7981 38.1834 9.73486 38.5309C9.28971 38.6764 8.83353 38.7554 8.37381 38.8381C11.5134 39.3551 13.9475 39.4757 16.8482 37.8443C16.3051 39.2565 15.3578 40.5455 14.2522 41.5766C12.8413 42.8922 10.9715 43.7372 9.01985 43.6705C10.3174 44.4783 11.6345 44.9792 13.1825 45.0109C14.9438 45.047 16.7939 44.3858 18.1806 43.306C18.5356 43.0295 18.8509 42.6764 19.1771 42.366C19.1736 42.5385 19.1662 42.7109 19.1548 42.8831C19.1435 43.0553 19.1283 43.2271 19.1091 43.3986C19.09 43.57 19.0669 43.741 19.04 43.9114C19.0131 44.0819 18.9823 44.2516 18.9477 44.4206C18.913 44.5897 18.8746 44.7578 18.8323 44.9251C18.79 45.0924 18.7439 45.2587 18.694 45.4239C18.6442 45.5891 18.5906 45.753 18.5333 45.9158C18.476 46.0785 18.415 46.2399 18.3503 46.3999C17.4369 48.6519 15.8998 50.1257 13.6738 51.0594C14.4756 51.0844 15.2715 51.0782 16.0668 50.9574C18.4024 50.6029 20.0559 49.5945 21.4507 47.6993C21.6726 49.2619 21.62 50.896 21.2036 52.4211C20.628 54.5296 19.2512 56.0923 17.3817 57.1677C17.9719 57.0378 18.594 57.0218 19.194 56.944C20.7331 56.7443 22.2553 56.1972 23.5069 55.2687C25.1775 54.0295 25.9738 52.5178 26.2689 50.4871C27.1919 51.7708 27.7999 53.1007 27.8367 54.7111C27.8789 56.5531 27.1518 58.6089 25.8677 59.9464C25.7215 60.0838 25.5644 60.2112 25.4121 60.3418C26.4565 60.0848 27.5331 59.8324 28.5412 59.4529C30.4079 58.7503 32.17 57.4778 33.2129 55.7574C33.7073 54.9419 33.9792 54.2829 33.7445 53.3271L33.786 53.3661C34.7095 54.2523 35.0096 55.6953 35.0255 56.9298C35.0605 59.6439 34.2066 61.1743 32.3642 63.0531C35.0499 61.9944 38.1622 60.9455 39.4456 58.0933C40.2641 56.2741 40.2354 54.253 39.5364 52.408C40.7383 53.4536 41.7654 54.9269 42.4109 56.3753C42.9839 57.6609 43.3257 58.9603 43.5046 60.3556C43.5505 60.7141 43.6195 61.1139 43.5563 61.4726C43.4982 61.802 43.2647 62.1503 43.1424 62.4694C43.483 61.9926 43.7555 61.5041 43.9804 60.9623C44.8865 58.7793 45.0954 55.1186 44.1812 52.9168C44.2661 52.97 44.352 53.0239 44.4226 53.0959C45.1299 53.8165 45.4901 56.4301 45.4749 57.3866C45.4349 59.903 44.4059 62.7084 42.5891 64.4765C42.7363 63.9021 42.871 63.3192 42.9373 62.7292C43.2653 59.8112 42.2109 56.4326 40.3959 54.1517C40.4397 54.3372 40.4734 54.5244 40.4971 54.7134C40.5208 54.9024 40.5342 55.0921 40.5375 55.2826C40.5825 57.3749 39.8777 59.5743 38.4127 61.0954C36.3646 63.2221 33.3101 63.7151 30.4918 63.7668C31.9305 62.9454 32.8112 62.1488 33.5991 60.6564C34.6282 58.7074 34.7966 56.6016 34.1604 54.5109C33.8119 55.8676 33.1491 56.8172 32.1537 57.7906C31.4605 58.4684 30.7026 59.0245 29.8689 59.5144C27.6211 60.835 25.5994 61.1644 23.0377 61.1371C23.3591 61.0055 23.6792 60.8664 23.9862 60.7033C25.3931 59.956 26.3134 58.4827 26.7567 56.9895C27.2906 55.1911 27.4203 53.0843 26.5052 51.3888C26.486 51.5711 26.4704 51.7544 26.4409 51.9353C26.1739 53.57 24.674 55.2131 23.3648 56.1269C20.9539 57.8098 18.5451 57.9545 15.7523 57.4495C16.5703 57.2047 17.2755 56.758 17.9062 56.1894C19.1429 55.0744 20.2014 53.1266 20.6532 51.5246C20.8943 50.6696 21.0081 49.8165 21.0512 48.9313C20.8846 49.1261 20.7096 49.3131 20.5263 49.4923C20.3429 49.6715 20.152 49.8422 19.9535 50.0043C19.7549 50.1665 19.5496 50.3195 19.3374 50.4634C19.1252 50.6072 18.907 50.7413 18.6828 50.8657C16.4574 52.1052 13.7367 52.0875 11.3447 51.4117C12.2514 51.3014 13.2974 50.8578 14.0605 50.3615C15.7844 49.2402 17.342 47.0731 18.0379 45.1383C18.2187 44.6356 18.3186 44.1073 18.4311 43.5862C18.065 43.8781 17.7097 44.1809 17.3179 44.439C16.1139 45.2317 14.6419 45.6632 13.2062 45.7322C10.9067 45.8427 9.01884 44.6163 7.39252 43.1272C8.3019 43.2615 9.21943 43.2028 10.1167 43.01C12.5069 42.4962 14.4366 40.8578 15.7348 38.8336C15.5009 38.9328 15.2637 39.0236 15.0232 39.1059C14.2452 39.374 13.4417 39.5195 12.6271 39.6182C10.4301 39.8844 8.34488 39.6853 6.33594 38.7017C8.92912 38.5688 10.6332 37.7511 12.5819 36.1202C13.1336 35.6586 13.6431 35.1674 14.3484 34.9622C13.0663 34.5378 11.8375 33.9675 10.8581 33.0129C9.45674 31.6469 8.67368 29.5607 8.64228 27.6253C9.33446 28.7168 9.51174 29.3889 10.5989 30.2578C12.1226 31.4754 14.0285 31.5398 15.8819 31.3388C14.9708 30.4407 12.986 26.6893 12.4351 25.429C12.2725 25.0538 12.1405 24.6682 12.0389 24.2721C11.5489 22.3595 12.025 20.583 13.0107 18.9184C12.9764 19.7469 13.1178 20.6275 13.4417 21.3924C14.3473 23.5309 16.3501 24.5432 18.3037 25.5432C18.9795 25.889 19.6568 26.2843 20.3614 26.5672C19.7422 25.4262 19.294 24.1311 18.9259 22.891C18.0773 20.0315 18.1325 17.4201 18.7469 14.5279C18.9262 13.6832 19.2653 12.4233 19.6742 11.668C19.7374 12.2873 19.7162 12.906 19.7955 13.5282C20.1956 16.667 21.621 17.8775 23.7492 19.9417C23.4059 17.7638 23.4921 15.5006 24.2682 13.4207C25.0521 11.3196 26.3735 9.33522 28.1716 7.97162C28.6139 7.63617 29.0861 7.36094 29.5657 7.08436C29.9394 6.86886 30.3101 6.64587 30.703 6.4666C30.2075 6.88284 29.7658 7.41527 29.4012 7.94816C27.6042 10.575 27.3095 13.8182 27.8882 16.8736C28.3038 15.6126 28.6924 14.6062 29.5602 13.5639C31.0325 11.7954 33.1064 10.7688 34.7576 9.19642C35.5412 8.45017 36.2359 7.60841 36.9268 6.77754C37.4608 6.13529 37.9768 5.49105 38.6099 4.94049C39.3293 4.31488 40.1136 3.87625 40.9525 3.43726Z" fill="#6E8399"/>
<path d="M53.178 23.4041C54.8597 23.8558 56.8693 23.7799 58.6135 23.8552C59.3123 23.8855 60.002 23.9785 60.698 24.0402C60.9107 24.4692 61.0984 24.9089 61.2611 25.3593C61.4238 25.8096 61.5604 26.2678 61.671 26.7337C61.9724 27.9743 62.0963 29.3307 62.7689 30.4426C63.0527 30.9118 63.454 31.3131 63.8663 31.6701C65.5587 33.1361 67.6396 33.7796 69.7671 34.3069C69.853 35.6851 69.4006 37.0356 68.7201 38.2165C68.9954 38.8524 69.3361 39.3815 69.7487 39.9346C69.3985 40.3188 68.9934 40.6617 68.6066 41.0085C67.7615 41.7663 66.9363 42.5636 65.8847 43.0298C65.5114 43.1954 64.8864 43.3869 64.4814 43.2334C64.5256 43.0234 64.7954 42.7229 64.9103 42.5169C64.4943 42.7141 64.1586 43.0322 63.9881 43.4674C63.928 43.6207 63.8487 43.8954 63.9328 44.0509C63.9594 44.0999 63.9948 44.0932 64.0444 44.1058C64.1819 44.0484 64.2367 43.9191 64.3085 43.7969C66.0104 44.0551 67.7774 43.4662 69.432 43.1579C69.8969 43.509 69.9631 44.03 70.0764 44.5626C68.9148 45.2251 67.7706 45.3073 66.4618 45.2097C66.6019 45.3683 66.744 45.5187 66.9094 45.6515C67.6002 46.2058 68.5114 46.3851 69.3758 46.2924C69.8126 47.3121 70.461 48.3361 70.7085 49.4251C70.8015 49.8339 70.7639 50.2418 70.5298 50.598C69.7215 51.8273 66.6765 52.2346 65.3159 52.506C64.4868 52.1109 63.6665 51.698 62.8553 51.2672C58.7864 49.0652 54.8042 45.8293 52.3643 41.8489C52.0977 41.4139 51.7535 40.9471 51.5488 40.4832C51.4065 40.1607 51.3782 39.7619 51.3033 39.4166C51.2198 39.0315 51.1027 38.6632 50.9714 38.2924C50.1108 35.8602 48.6666 34.2197 46.3431 33.1136C46.5527 32.7402 46.7505 32.3607 46.9364 31.9751C47.8838 29.9829 48.1905 27.7497 47.444 25.6421C48.2827 26.0038 49.1596 26.1988 50.0406 26.4209C51.5088 26.791 52.6749 27.4451 53.7906 28.4618C53.3604 29.2647 53.0835 29.9266 53 30.8399C53.9386 29.9057 54.924 28.9806 56.0469 28.2686C57.4416 27.384 58.3626 27.6106 59.9048 27.9579C59.833 27.3824 59.6403 26.7943 59.2231 26.3736C58.8751 26.0227 58.4033 25.8477 57.9131 25.8447C56.6282 25.8371 55.4894 26.8064 54.6342 27.6614C54.6049 26.1899 54.1709 24.5266 53.178 23.4041Z" fill="#6E8399"/>
<path d="M68.8321 35.6287L68.875 35.6755C68.8726 35.7313 68.8732 35.7516 68.8666 35.8036C68.7515 36.7104 68.0353 37.7556 67.3102 38.293C67.0792 38.4642 66.8085 38.6063 66.5122 38.5524C66.1651 38.4893 65.9247 38.2151 65.7417 37.9339C65.6919 37.812 65.6847 37.685 65.7032 37.5559L65.7584 37.5436C65.9283 37.6581 65.9894 37.8013 66.1252 37.941C66.3467 38.1688 66.7581 38.166 67.0546 38.1723C67.3534 37.8067 67.568 37.3676 67.827 36.9726C68.1329 36.506 68.4862 36.0659 68.8321 35.6287Z" fill="#272E3D"/>
<path d="M58.48 28.7923C58.5182 28.7917 58.5564 28.792 58.5945 28.7937C59.1415 28.8188 59.4663 29.0122 59.8278 29.412C59.1236 29.1543 58.5207 29.0517 57.8016 29.3556C56.8261 29.7679 56.2331 30.6145 55.8445 31.5635C55.6837 32.0001 55.5836 32.4548 55.4139 32.8896C55.451 31.7795 55.7088 30.733 56.4443 29.8721C57.0012 29.2202 57.6214 28.857 58.48 28.7923Z" fill="#272E3D"/>
<path d="M58.478 29.3617C58.5682 29.3532 58.6591 29.3445 58.7499 29.3433C59.4323 29.3345 59.9232 30.024 60.364 30.4571L60.5039 30.4694C60.5653 30.4743 60.6327 30.4743 60.6922 30.4914C60.7967 30.5212 60.8437 30.5577 60.8973 30.6489C60.8614 30.7057 60.8791 30.6877 60.8147 30.7354C60.4605 30.9978 59.8909 30.9854 59.4758 30.9343C60.1422 31.6164 60.564 33.1742 60.8916 34.0931C61.0987 34.0313 61.3119 33.985 61.5219 33.9332C61.4237 34.0634 61.3207 34.1934 61.1995 34.3031C60.5858 34.8581 59.6142 35.0128 58.8161 34.9714C57.3782 34.8694 57.0196 34.1106 55.8885 33.6112C55.7409 33.6791 55.5772 33.7607 55.417 33.7896C55.2205 33.8249 54.7154 33.8251 54.5659 33.6837C54.4988 33.6201 54.4913 33.5817 54.4899 33.4973C54.669 33.4027 54.9043 33.4679 55.0961 33.4109C55.6493 33.2467 55.8097 32.3314 55.9798 31.8639C56.0846 31.5717 56.2137 31.2906 56.367 31.0206C56.8488 30.179 57.5427 29.6192 58.478 29.3617Z" fill="#272E3D"/>
<path d="M59.0099 30.7771C59.1602 30.8027 59.2777 30.8178 59.3826 30.9415C59.4623 31.0353 59.504 31.1373 59.4863 31.2629C59.4633 31.4251 59.3752 31.4843 59.2494 31.5673C59.1334 31.5562 59.0295 31.5348 58.9381 31.4589C58.8431 31.3801 58.7847 31.2771 58.7867 31.1502C58.7894 30.9703 58.8847 30.8872 59.0099 30.7771Z" fill="#FEFEFE"/>
<path d="M57.773 31.2004C57.8078 31.2352 57.7963 31.2159 57.8121 31.2687C58.1886 32.521 58.4404 33.3307 59.269 34.3817C58.9394 34.4073 58.6241 34.3798 58.3 34.3192C57.6832 34.1423 57.1928 33.869 56.6575 33.518C56.6947 32.5686 57.0884 31.8443 57.773 31.2004Z" fill="#FEFEFE"/>
</svg>
