<svg width="12" height="12" viewBox="0 0 12 12" fill="none" xmlns="http://www.w3.org/2000/svg">
  <g clip-path="url(#clip0_8491_870)">
    <path
      d="M10.5 9.16941H7.41C7.33534 8.9649 7.21495 8.77916 7.05755 8.62566C6.90015 8.47215 6.7097 8.35474 6.5 8.28193V6.73128H8.085C8.61443 6.74825 9.13186 6.57533 9.53936 6.24526C9.94685 5.91519 10.2161 5.45088 10.2962 4.94022C10.3763 4.42955 10.2616 3.90797 9.97392 3.47421C9.68621 3.04045 9.24543 2.72461 8.735 2.58647C8.46761 2.00867 8.01503 1.5312 7.44537 1.2259C6.87571 0.920612 6.21979 0.804017 5.57632 0.893667C4.93285 0.983316 4.33664 1.27436 3.87741 1.723C3.41819 2.17164 3.1208 2.7536 3.03 3.3813C2.6231 3.49258 2.27123 3.7437 2.03938 4.08828C1.80754 4.43286 1.71138 4.84762 1.76867 5.25596C1.82596 5.6643 2.03282 6.03862 2.35106 6.3098C2.66929 6.58098 3.0774 6.73069 3.5 6.73128H5.5V8.28193C5.2903 8.35474 5.09985 8.47215 4.94245 8.62566C4.78505 8.77916 4.66466 8.9649 4.59 9.16941H1.5C1.36739 9.16941 1.24021 9.22078 1.14645 9.31223C1.05268 9.40368 1 9.52771 1 9.65703C1 9.78636 1.05268 9.91039 1.14645 10.0018C1.24021 10.0933 1.36739 10.1447 1.5 10.1447H4.59C4.6951 10.4271 4.88681 10.6711 5.13908 10.8435C5.39135 11.0159 5.69194 11.1084 6 11.1084C6.30806 11.1084 6.60865 11.0159 6.86092 10.8435C7.11319 10.6711 7.3049 10.4271 7.41 10.1447H10.5C10.6326 10.1447 10.7598 10.0933 10.8536 10.0018C10.9473 9.91039 11 9.78636 11 9.65703C11 9.52771 10.9473 9.40368 10.8536 9.31223C10.7598 9.22078 10.6326 9.16941 10.5 9.16941ZM3.5 5.75603C3.30109 5.75603 3.11032 5.67897 2.96967 5.5418C2.82902 5.40463 2.75 5.21858 2.75 5.02459C2.75 4.83061 2.82902 4.64456 2.96967 4.50739C3.11032 4.37022 3.30109 4.29316 3.5 4.29316C3.63261 4.29316 3.75979 4.24178 3.85355 4.15033C3.94732 4.05889 4 3.93486 4 3.80553C3.99869 3.34255 4.1663 2.8942 4.47284 2.54068C4.77939 2.18715 5.20489 1.9515 5.67325 1.87586C6.14161 1.80022 6.62228 1.88953 7.02932 2.12781C7.43635 2.3661 7.74321 2.73781 7.895 3.1765C7.92358 3.26029 7.97496 3.33494 8.04364 3.39248C8.11233 3.45002 8.19575 3.48829 8.285 3.5032C8.55564 3.54722 8.80137 3.68376 8.97819 3.88836C9.15501 4.09297 9.25136 4.35229 9.25 4.61987C9.24868 4.9208 9.12552 5.20904 8.90733 5.42184C8.68913 5.63463 8.39357 5.75475 8.085 5.75603H3.5ZM6 10.1447C5.90111 10.1447 5.80444 10.1161 5.72221 10.0625C5.63999 10.0089 5.5759 9.93274 5.53806 9.84364C5.50022 9.75454 5.49031 9.65649 5.50961 9.5619C5.5289 9.46731 5.57652 9.38042 5.64645 9.31223C5.71637 9.24403 5.80546 9.19759 5.90245 9.17878C5.99945 9.15996 6.09998 9.16962 6.19134 9.20652C6.2827 9.24343 6.36079 9.30593 6.41573 9.38612C6.47068 9.46631 6.5 9.56059 6.5 9.65703C6.5 9.78636 6.44732 9.91039 6.35355 10.0018C6.25979 10.0933 6.13261 10.1447 6 10.1447Z"
      fill="white" />
  </g>
  <defs>
    <clipPath id="clip0_8491_870">
      <rect width="12" height="11.703" fill="white" transform="translate(0 0.148438)" />
    </clipPath>
  </defs>
</svg>
