<svg width="20" height="20" viewBox="0 0 20 20" fill="none" xmlns="http://www.w3.org/2000/svg">
  <path
    d="M13.0919 10.5917C13.9089 9.94891 14.5052 9.06746 14.7979 8.06997C15.0906 7.07249 15.0652 6.00858 14.7251 5.02625C14.385 4.04391 13.7471 3.19202 12.9003 2.58907C12.0535 1.98612 11.0398 1.66211 10.0002 1.66211C8.9607 1.66211 7.947 1.98612 7.10018 2.58907C6.25336 3.19202 5.61553 4.04391 5.27542 5.02625C4.93531 6.00858 4.90984 7.07249 5.20254 8.06997C5.49525 9.06746 6.09158 9.94891 6.90858 10.5917C5.50864 11.1526 4.28715 12.0828 3.37432 13.2833C2.46149 14.4838 1.89154 15.9094 1.72524 17.4084C1.7132 17.5178 1.72284 17.6285 1.7536 17.7342C1.78435 17.8399 1.83563 17.9386 1.9045 18.0245C2.04359 18.1979 2.24589 18.309 2.46691 18.3334C2.68792 18.3577 2.90954 18.2932 3.08301 18.1541C3.25648 18.015 3.3676 17.8127 3.39191 17.5917C3.5749 15.9627 4.35165 14.4582 5.57376 13.3657C6.79587 12.2732 8.37766 11.6692 10.0169 11.6692C11.6562 11.6692 13.2379 12.2732 14.4601 13.3657C15.6822 14.4582 16.4589 15.9627 16.6419 17.5917C16.6646 17.7965 16.7623 17.9856 16.9162 18.1225C17.0701 18.2595 17.2692 18.3346 17.4752 18.3334H17.5669C17.7854 18.3082 17.985 18.1978 18.1224 18.0261C18.2597 17.8544 18.3237 17.6353 18.3002 17.4167C18.1332 15.9135 17.5601 14.4842 16.6426 13.2819C15.7251 12.0795 14.4977 11.1496 13.0919 10.5917ZM10.0002 10C9.34097 10 8.69651 9.80453 8.14834 9.43825C7.60018 9.07198 7.17294 8.55139 6.92064 7.9423C6.66835 7.33321 6.60234 6.66299 6.73096 6.01639C6.85957 5.36979 7.17704 4.77584 7.64322 4.30967C8.10939 3.84349 8.70334 3.52602 9.34994 3.39741C9.99654 3.26879 10.6668 3.3348 11.2759 3.58709C11.8849 3.83938 12.4055 4.26662 12.7718 4.81479C13.1381 5.36295 13.3336 6.00742 13.3336 6.66669C13.3336 7.55074 12.9824 8.39859 12.3573 9.02371C11.7321 9.64883 10.8843 10 10.0002 10Z"
    fill="#E4E7EB"/>
</svg>
