<svg xmlns="http://www.w3.org/2000/svg" viewBox="0 0 15 16" fill="none">
  <path
    d="M11.875 9.5h-2.5V3.25c0-.16576-.0658-.32473-.1831-.44194-.1172-.11721-.276-.18306-.4419-.18306h-2.5c-.16576 0-.32473.06585-.44194.18306C5.68585 2.92527 5.62 3.08424 5.62 3.25V9.5h-2.5c-.13855 0-.27293.0483-.38002.1367-.10708.0883-.18294.2124-.21493.3508-.03199.1385-.01839.2839.03873.4142.05712.1304.15543.2397.27872.3108l4.375 2.5c.09664.0552.20607.0842.3175.0842.11144 0 .22087-.029.3175-.0842l4.375-2.5c.1233-.0711.2216-.1804.2787-.3108.0571-.1303.0707-.2757.0387-.4142-.032-.1384-.1078-.2625-.2149-.3508-.1071-.0884-.2415-.1367-.38-.1367zM3.75 13.375v1.25c0 .1658.06585.3247.18306.4419.11721.1172.27618.1831.44194.1831h6.25c.1657 0 .3247-.0659.4419-.1831.1172-.1172.1831-.2761.1831-.4419v-1.25c0-.1657-.0659-.3247-.1831-.4419-.1172-.1172-.2762-.1831-.4419-.1831h-6.25c-.16576 0-.32473.0659-.44194.1831C3.81585 13.0503 3.75 13.2093 3.75 13.375z"
    fill="white"/>
</svg>
