<svg width="16" height="16" viewBox="0 0 16 16" fill="none" xmlns="http://www.w3.org/2000/svg">
  <path d="M13 3H8.33337V4H11.2929L7.31315 7.97978L8.02026 8.68689L12 4.70711V7.66667H13V3Z"
    fill="#EEEEEE" />
  <path
    d="M4.33333 3.66667C3.59695 3.66667 3 4.26362 3 5V11.6667C3 12.403 3.59695 13 4.33333 13H11C11.7364 13 12.3333 12.403 12.3333 11.6667V9.66667H11.3333V11.6667C11.3333 11.8508 11.1841 12 11 12H4.33333C4.14924 12 4 11.8508 4 11.6667V5C4 4.81591 4.14924 4.66667 4.33333 4.66667H6.33333V3.66667H4.33333Z"
    fill="#EEEEEE" />
</svg>
