<svg width="28" height="28" viewBox="0 0 28 28" fill="none" xmlns="http://www.w3.org/2000/svg">
  <g clip-path="url(#clip0_8760_4530)">
    <path
      d="M2.33496 6.99504C2.33496 5.70504 3.37496 4.66504 4.66496 4.66504H10.495C10.805 4.66504 11.105 4.78504 11.315 5.00504L13.305 6.99504H23.325C24.615 6.99504 25.655 8.03504 25.655 9.32504V20.995C25.655 22.285 24.615 23.325 23.325 23.325H4.66496C3.37496 23.325 2.33496 22.285 2.33496 20.995V6.99504ZM10.015 6.99504H4.66496V20.995H23.335V9.33504H12.835C12.525 9.33504 12.225 9.21504 12.015 8.99504L10.025 7.00504L10.015 6.99504Z"
      fill="#E4E7EB" />
    <path
      d="M8.40279 11.4871C8.28576 11.4871 8.16873 11.4403 8.0829 11.3545L6.67853 9.95013C6.49908 9.77068 6.49908 9.482 6.67853 9.30255C6.85798 9.12311 7.14666 9.12311 7.3261 9.30255L8.73048 10.7069C8.90992 10.8864 8.90992 11.1751 8.73048 11.3545C8.64465 11.4403 8.52762 11.4871 8.41059 11.4871H8.40279Z"
      fill="#E4E7EB" />
    <path d="M9.48901 12.5635H8.57617V16.7532H9.48901V12.5635Z" fill="#E4E7EB" />
    <path
      d="M9.03627 13.0159C8.28727 13.0159 7.67871 12.4073 7.67871 11.6583C7.67871 10.9093 8.28727 10.3008 9.03627 10.3008C9.78527 10.3008 10.3938 10.9093 10.3938 11.6583C10.3938 12.4073 9.78527 13.0159 9.03627 13.0159ZM9.03627 11.2214C8.79441 11.2214 8.59936 11.4165 8.59936 11.6583C8.59936 11.9002 8.79441 12.0953 9.03627 12.0953C9.27814 12.0953 9.47319 11.9002 9.47319 11.6583C9.47319 11.4165 9.27814 11.2214 9.03627 11.2214Z"
      fill="#E4E7EB" />
    <path
      d="M12.0324 16.012C11.2834 16.012 10.6748 15.4034 10.6748 14.6544C10.6748 13.9054 11.2834 13.2969 12.0324 13.2969C12.7814 13.2969 13.3899 13.9054 13.3899 14.6544C13.3899 15.4034 12.7814 16.012 12.0324 16.012ZM12.0324 14.2175C11.7905 14.2175 11.5954 14.4126 11.5954 14.6544C11.5954 14.8963 11.7905 15.0914 12.0324 15.0914C12.2742 15.0914 12.4693 14.8963 12.4693 14.6544C12.4693 14.4126 12.2742 14.2175 12.0324 14.2175Z"
      fill="#E4E7EB" />
    <path
      d="M9.03627 19.0003C8.28727 19.0003 7.67871 18.3917 7.67871 17.6427C7.67871 16.8937 8.28727 16.2852 9.03627 16.2852C9.78527 16.2852 10.3938 16.8937 10.3938 17.6427C10.3938 18.3917 9.78527 19.0003 9.03627 19.0003ZM9.03627 17.2058C8.79441 17.2058 8.59936 17.4009 8.59936 17.6427C8.59936 17.8846 8.79441 18.0796 9.03627 18.0796C9.27814 18.0796 9.47319 17.8846 9.47319 17.6427C9.47319 17.4009 9.27814 17.2058 9.03627 17.2058Z"
      fill="#E4E7EB" />
    <path d="M9.9902 11.9805L9.34473 12.626L11.066 14.3472L11.7115 13.7018L9.9902 11.9805Z"
      fill="#E4E7EB" />
  </g>
  <defs>
    <clipPath id="clip0_8760_4530">
      <rect width="23.33" height="18.67" fill="white" transform="translate(2.33496 4.66504)" />
    </clipPath>
  </defs>
</svg>
