<svg width="26" height="26" viewBox="0 0 26 26" fill="none" xmlns="http://www.w3.org/2000/svg">
  <g transform="scale(1.3) translate(-3, -3)">
    <path fill-rule="evenodd" clip-rule="evenodd" d="M8.21875 9.04H7.42L6.25 7.85875L7.04875 7.07125L7.825 7.83625L9.41125 6.25L10.21 7.04875L8.21875 9.04ZM11.8637 7.375H20.8637V8.5H11.8637V7.375ZM11.8637 10.75H20.8637V11.875H11.8637V10.75ZM20.8637 14.125H11.8637V15.25H20.8637V14.125ZM11.8637 17.5H20.8637V18.625H11.8637V17.5ZM7.42 12.415H8.21875L10.21 10.4237L9.41125 9.63625L7.825 11.2225L7.04875 10.4462L6.25 11.245L7.42 12.415ZM8.21875 15.8012H7.42L6.25 14.6312L7.04875 13.8325L7.825 14.6088L9.41125 13.0113L10.21 13.81L8.21875 15.8012ZM7.42 19.1875H8.21875L10.21 17.1962L9.41125 16.3975L7.825 17.995L7.04875 17.2188L6.25 18.0062L7.42 19.1875Z" fill="currentColor"/>
  </g>
</svg>
