<svg width="25" height="24" viewBox="0 0 25 24" fill="none" xmlns="http://www.w3.org/2000/svg">
<path fill-rule="evenodd" clip-rule="evenodd" d="M3.5835 12C3.5835 7.16751 7.501 3.25 12.3335 3.25C17.166 3.25 21.0835 7.16751 21.0835 12C21.0835 16.8325 17.166 20.75 12.3335 20.75C7.501 20.75 3.5835 16.8325 3.5835 12ZM5.85099 8.75C6.75105 6.95823 8.37212 5.5911 10.3334 5.02939C9.86889 5.56854 9.46926 6.20527 9.14301 6.90523C8.87786 7.47408 8.657 8.09299 8.48676 8.75H5.85099ZM5.29611 10.25C5.15721 10.8104 5.0835 11.3966 5.0835 12C5.0835 12.6034 5.15721 13.1896 5.29611 13.75H8.19667C8.12231 13.1834 8.0835 12.598 8.0835 12C8.0835 11.4019 8.12231 10.8165 8.19666 10.25H5.29611ZM9.71122 10.25C9.62798 10.8092 9.5835 11.3951 9.5835 12C9.5835 12.6049 9.62799 13.1908 9.71123 13.75H14.9558C15.039 13.1908 15.0835 12.6049 15.0835 12C15.0835 11.3952 15.039 10.8092 14.9558 10.25H9.71122ZM16.4703 10.25C16.5447 10.8165 16.5835 11.4019 16.5835 12C16.5835 12.5981 16.5447 13.1835 16.4703 13.75H19.3709C19.5098 13.1896 19.5835 12.6034 19.5835 12C19.5835 11.3966 19.5098 10.8104 19.3709 10.25H16.4703ZM18.816 8.75H16.1802C16.01 8.09302 15.7891 7.47413 15.524 6.90529C15.1977 6.2053 14.7981 5.56854 14.3335 5.02937C16.2948 5.59107 17.9159 6.95821 18.816 8.75ZM14.6229 8.75H10.0441C10.1736 8.31962 10.3276 7.91428 10.5026 7.53893C10.998 6.47611 11.6415 5.69218 12.3335 5.23257C13.0254 5.69217 13.669 6.47613 14.1644 7.53899C14.3394 7.91433 14.4934 8.31964 14.6229 8.75ZM5.85099 15.25H8.48677C8.66634 15.943 8.90223 16.5936 9.18703 17.1879C9.50463 17.8505 9.8893 18.455 10.3336 18.9706C8.37219 18.409 6.75107 17.0418 5.85099 15.25ZM14.6229 15.25H10.0441C10.1827 15.7106 10.3494 16.1424 10.5397 16.5396C11.0309 17.5645 11.6596 18.3198 12.3336 18.7674C13.0255 18.3078 13.6691 17.5239 14.1644 16.4611C14.3394 16.0857 14.4934 15.6804 14.6229 15.25ZM15.524 17.0948C15.7891 16.5259 16.01 15.907 16.1802 15.25H18.816C17.9159 17.0418 16.2949 18.4089 14.3336 18.9706C14.7981 18.4315 15.1977 17.7947 15.524 17.0948Z" fill="#E4E7EB"/>
</svg>
