<svg  viewBox="0 0 18 18" fill="none" xmlns="http://www.w3.org/2000/svg">
<path fill-rule="evenodd" clip-rule="evenodd" d="M2.4375 9C2.4375 5.37563 5.37563 2.4375 9 2.4375C12.6244 2.4375 15.5625 5.37563 15.5625 9C15.5625 12.6244 12.6244 15.5625 9 15.5625C5.37563 15.5625 2.4375 12.6244 2.4375 9ZM4.13812 6.5625C4.81317 5.21867 6.02897 4.19333 7.49996 3.77204C7.15155 4.17641 6.85182 4.65395 6.60713 5.17892C6.40828 5.60556 6.24263 6.06975 6.11494 6.5625H4.13812ZM3.72196 7.6875C3.61778 8.10783 3.5625 8.54746 3.5625 9C3.5625 9.45254 3.61778 9.89217 3.72196 10.3125H5.89738C5.84161 9.88758 5.8125 9.44852 5.8125 8.99998C5.8125 8.55142 5.84161 8.11239 5.89737 7.6875H3.72196ZM7.0333 7.6875C6.97087 8.10689 6.9375 8.54634 6.9375 8.99998C6.9375 9.45367 6.97087 9.89313 7.0333 10.3125H10.9667C11.0291 9.89311 11.0625 9.45367 11.0625 9.00002C11.0625 8.54637 11.0291 8.1069 10.9667 7.6875H7.0333ZM12.1026 7.6875C12.1584 8.1124 12.1875 8.55145 12.1875 9.00002C12.1875 9.44858 12.1584 9.88762 12.1026 10.3125H14.278C14.3822 9.89217 14.4375 9.45254 14.4375 9C14.4375 8.54746 14.3822 8.10783 14.278 7.6875H12.1026ZM13.8619 6.5625H11.885C11.7574 6.06976 11.5917 5.6056 11.3929 5.17897C11.1482 4.65397 10.8484 4.1764 10.5 3.77203C11.971 4.19331 13.1868 5.21866 13.8619 6.5625ZM10.7171 6.5625H7.28293C7.38007 6.23971 7.49559 5.93571 7.62681 5.65419C7.99835 4.85708 8.48101 4.26914 8.99997 3.92442C9.51895 4.26913 10.0016 4.8571 10.3732 5.65424C10.5044 5.93575 10.6199 6.23973 10.7171 6.5625ZM4.13812 11.4375H6.11496C6.24963 11.9572 6.42655 12.4452 6.64015 12.8909C6.87835 13.3879 7.16685 13.8413 7.50006 14.228C6.02902 13.8067 4.81318 12.7814 4.13812 11.4375ZM10.7171 11.4375H7.28295C7.3869 11.7829 7.51191 12.1068 7.65465 12.4047C8.02305 13.1733 8.49456 13.7398 9.00007 14.0756C9.51902 13.7308 10.0017 13.1429 10.3732 12.3458C10.5044 12.0643 10.6199 11.7603 10.7171 11.4375ZM11.3929 12.8211C11.5917 12.3944 11.7574 11.9303 11.8851 11.4375H13.8619C13.1868 12.7813 11.971 13.8067 10.5 14.228C10.8485 13.8236 11.1482 13.346 11.3929 12.8211Z" fill="currentColor"/>
</svg>
