<svg width="102" height="69" viewBox="0 0 102 69" fill="none" xmlns="http://www.w3.org/2000/svg">
<g clip-path="url(#clip0_40000615_2266)">
<g clip-path="url(#clip1_40000615_2266)">
<path d="M97.9659 20.9744C94.7109 18.9968 92.5363 22.0276 92.8031 26.1428L92.7759 26.1739C92.785 21.8765 92.1973 17.1303 90.2443 13.2906C89.5526 11.9307 88.1511 9.69537 85.3798 10.7486C84.1637 11.2108 83.0606 12.6018 83.6302 16.1926C83.6302 16.1926 84.2631 19.9611 84.1456 24.6985V24.7651C83.3544 11.6996 80.3707 7.71333 76.103 7.97108C74.7376 8.21106 72.8705 8.79323 73.4989 12.8107C73.4989 12.8107 74.1816 17.0014 74.4031 20.3389L74.4167 20.5077H74.4031C72.3958 13.3039 69.6924 13.2062 67.7348 13.4861C65.9581 13.7395 64.0187 15.5615 64.9997 19.1523C68.0784 30.418 67.4771 43.9857 67.2466 45.9277C66.6182 44.5989 66.4238 43.5457 65.5512 42.088C62.043 36.2352 60.3748 35.8042 58.3269 35.7153C56.2925 35.6264 54.0953 36.8663 54.24 39.2261C54.3892 41.5859 55.6053 41.9769 57.3323 45.2655C58.6795 47.8253 59.0638 51.1806 61.7763 57.2778C64.0232 62.3262 69.8958 67.8635 80.5922 67.2058C89.2587 66.9214 102.202 63.9261 99.9506 44.2567C99.39 40.8393 99.8104 37.9773 100.104 35.0442C100.561 30.4935 101.23 22.952 97.9704 20.9699L97.9659 20.9744Z" fill="#E3D495"/>
<path d="M43.8511 35.8532C41.8032 35.9821 40.1485 36.4398 36.7488 42.3548C35.9034 43.8258 35.7316 44.8835 35.1258 46.2212C34.8591 44.2835 34.0046 30.7292 36.8709 19.4102C37.7841 15.8061 35.813 14.0196 34.0318 13.7974C32.0697 13.553 29.3617 13.6996 27.4901 20.9745H27.4675L27.4946 20.7656C27.6528 17.4237 28.2586 13.2241 28.2586 13.2241C28.8056 9.19334 26.934 8.64672 25.5642 8.42896C21.3055 8.2512 18.4031 12.2553 17.8425 25.2052H17.8335C17.6391 20.5168 18.1951 16.7838 18.1951 16.7838C18.697 13.1797 17.5667 11.8109 16.3416 11.3709C13.5522 10.3666 12.1914 12.6286 11.5268 14.0018C9.64616 17.877 9.14434 22.6321 9.23476 26.9295L9.20763 26.8984C9.39299 22.7788 7.1642 19.788 3.94533 21.8233C0.726467 23.8631 1.5357 31.3914 2.07821 35.9332C2.43084 38.8618 2.90101 41.7149 2.40371 45.1413C0.523028 64.8462 13.5205 67.6059 22.1916 67.7348C32.897 68.2014 38.6657 62.553 40.8176 57.4646C43.4126 51.3229 43.7381 47.9588 45.0356 45.3768C46.6993 42.0571 47.9109 41.6438 48.0148 39.284C48.1188 36.9242 45.8991 35.7243 43.8647 35.8487L43.8511 35.8532Z" fill="#E3D495"/>
<path d="M48.1374 35.8835C47.0524 34.8392 45.4204 34.2837 43.7612 34.3815C41.1029 34.5459 39.2177 35.5014 36.3198 40.1676C36.243 34.8303 36.5459 26.8177 38.3271 19.7694C38.9962 17.1208 38.3226 15.392 37.6354 14.4099C36.8352 13.2633 35.592 12.5078 34.2176 12.339C32.9653 12.1834 31.3288 12.1745 29.7329 13.4633C29.7329 13.4455 29.7374 13.4233 29.7374 13.4233C30.2528 9.63699 28.9237 7.4683 25.7907 6.97945L25.6189 6.96167C23.6885 6.87724 22.0339 7.4994 20.7002 8.80595C19.9859 9.50367 19.3665 10.4058 18.8286 11.5213C18.2273 10.6547 17.4542 10.2147 16.8439 9.99251C13.1142 8.64597 11.0527 11.5302 10.1575 13.37C9.11772 15.512 8.47123 17.9118 8.10956 20.3605C8.03271 20.3116 7.96037 20.2627 7.88352 20.2183C7.06072 19.7516 5.34731 19.1828 3.12304 20.5916C-0.647376 22.9825 -0.168163 29.853 0.582303 36.1102C0.622991 36.4435 0.663679 36.7724 0.704367 37.1057C1.02535 39.6699 1.32825 42.0919 0.912327 44.9405L0.903285 45.0116C0.148299 52.9176 1.66279 59.0015 5.40608 63.1033C9.0047 67.0497 14.6422 69.1028 22.1152 69.2139C22.6623 69.2361 23.1957 69.245 23.7156 69.2406C36.4826 69.125 41.0622 60.7036 42.1879 58.0371C43.6437 54.5885 44.3986 52.0154 44.9999 49.9445C45.4656 48.3447 45.8363 47.0825 46.3607 46.0337C46.9575 44.8427 47.4819 44.0695 47.943 43.3851C48.7296 42.2208 49.4078 41.2164 49.4892 39.3499C49.5479 37.9989 49.0777 36.799 48.1238 35.8835H48.1374ZM22.8205 10.8947C23.5393 10.1925 24.3666 9.88141 25.4155 9.90363C26.3242 10.0503 27.147 10.268 26.7717 13.0234C26.7446 13.1967 26.1569 17.3341 25.9987 20.7027C25.9987 20.7249 25.9987 20.7471 25.9987 20.7693C25.1714 24.0579 24.4797 28.7953 24.1089 35.7191C22.504 35.8169 20.9036 35.9858 19.3485 36.208C18.8466 22.1603 20.0085 13.6411 22.816 10.8947H22.8205ZM12.87 14.641C13.9957 12.3301 14.9406 12.4456 15.8177 12.7612C17.0338 13.2011 16.8439 15.5876 16.7038 16.5786C16.6811 16.7386 16.1386 20.4583 16.3285 25.1912C16.1884 28.5109 16.2065 32.3372 16.3737 36.7146C14.8864 37.0034 13.4758 37.3367 12.1874 37.6967C11.5771 35.6791 8.87811 22.8625 12.87 14.6454V14.641ZM45.4565 41.7541C44.9683 42.4741 44.3625 43.3718 43.6798 44.7316C43.0333 46.016 42.6355 47.3936 42.1246 49.1313C41.5414 51.1266 40.8136 53.6109 39.4257 56.9039C38.4401 59.2326 34.299 66.7963 22.2057 66.2631C15.465 66.1653 10.7 64.4854 7.63939 61.1302C4.48382 57.6727 3.2225 52.3487 3.88706 45.3138C4.34819 42.0963 4.00913 39.3721 3.6791 36.7412C3.63842 36.4124 3.59773 36.088 3.55704 35.7591C3.19537 32.7238 2.2279 24.6579 4.74603 23.0625C5.42416 22.6314 5.98023 22.5336 6.39163 22.7647C7.09237 23.1602 7.79762 24.6001 7.69816 26.831C7.69364 26.951 7.7072 27.0666 7.72981 27.1821C7.85639 32.3816 8.80126 36.9057 9.33924 38.6033C8.45767 38.9277 7.68008 39.2655 7.02907 39.6032C6.29669 39.9854 6.02092 40.8742 6.40971 41.5941C6.68097 42.0963 7.20539 42.3807 7.74789 42.3763C7.97846 42.3763 8.21354 42.3185 8.43507 42.203C12.0925 40.2965 20.768 38.3589 28.4128 38.5677C29.2447 38.5811 29.9273 37.95 29.9499 37.1368C29.9725 36.3235 29.3215 35.648 28.4942 35.6258C28.0376 35.6125 27.5765 35.6125 27.1153 35.6125C27.8794 21.6493 29.9816 17.0941 31.6181 15.7476C32.2963 15.1921 32.9427 15.1476 33.8379 15.2587C34.0865 15.2898 34.7104 15.432 35.158 16.072C35.6417 16.7697 35.7321 17.8007 35.4157 19.0539C32.6489 29.9907 33.2728 42.8518 33.5892 45.9715C33.535 46.0782 33.4852 46.1848 33.4265 46.2959C32.78 47.4914 31.5774 48.7357 30.1443 48.6513C29.326 48.6113 28.6072 49.2246 28.5575 50.0334C28.5078 50.8467 29.1362 51.5444 29.9635 51.5933C32.3867 51.7355 34.6697 50.2734 36.0712 47.6825C36.2204 47.407 36.347 47.1448 36.46 46.8914C36.469 46.8737 36.4781 46.8515 36.4871 46.8337C36.7493 46.256 36.9392 45.7271 37.1065 45.2516C37.3687 44.5139 37.5947 43.8739 38.0468 43.0829C41.2566 37.4923 42.5586 37.4123 43.9375 37.3279C44.7468 37.279 45.5515 37.5323 46.0262 37.9945C46.3652 38.3189 46.5144 38.7233 46.4918 39.2299C46.4466 40.2743 46.1527 40.7098 45.443 41.7586L45.4565 41.7541Z" fill="#0D0F11"/>
<path d="M101.42 44.0245C100.954 41.1848 101.212 38.7583 101.483 36.1896C101.519 35.8563 101.556 35.5275 101.587 35.1942C102.22 28.9281 102.573 22.0442 98.7526 19.7244C96.5013 18.3557 94.7969 18.9556 93.9831 19.4356C93.9063 19.48 93.8339 19.5333 93.7571 19.5822C93.3457 17.1424 92.6585 14.756 91.578 12.6317C90.6512 10.8097 88.54 7.96104 84.8329 9.37425C84.2271 9.60534 83.4676 10.0586 82.8798 10.9386C82.3193 9.83198 81.6818 8.94317 80.954 8.25879C79.5977 6.9789 77.9295 6.3834 76.0036 6.50339L75.8318 6.52117C72.7079 7.06779 71.4194 9.2587 72.0071 13.045C72.0071 13.045 72.0071 13.0628 72.0117 13.0761C70.3932 11.814 68.7566 11.854 67.5089 12.0318C66.139 12.2273 64.9094 13.005 64.1318 14.1649C63.4672 15.1604 62.8207 16.898 63.5395 19.5333C65.4564 26.5505 65.9085 34.5587 65.9311 39.896C62.9473 35.2831 61.044 34.3631 58.3857 34.2476C56.7311 34.1765 55.0991 34.7675 54.0366 35.8297C53.1008 36.7629 52.6533 37.9717 52.7392 39.3182C52.8567 41.1803 53.5529 42.1758 54.3622 43.3223C54.8368 43.9978 55.3748 44.7622 55.9942 45.9399C56.5412 46.9798 56.9345 48.233 57.4318 49.824C58.0738 51.8816 58.874 54.4413 60.3975 57.8633C61.573 60.5075 66.3108 68.849 79.0416 68.729C79.557 68.7245 80.0905 68.7067 80.633 68.6712C88.1467 68.4268 93.7435 66.267 97.2698 62.2584C100.932 58.0899 102.333 51.9793 101.434 44.0867L101.424 44.0156L101.42 44.0245ZM85.1041 15.9692C84.9459 14.9649 84.7063 12.5829 85.9179 12.1251C86.7859 11.7918 87.7353 11.6629 88.9017 13.9516C93.0473 22.0976 90.5925 34.9631 90.0183 36.9896C88.7208 36.6518 87.3058 36.3452 85.8139 36.083C85.8953 31.7056 85.841 27.8748 85.6421 24.5596C85.7416 19.8266 85.1312 16.1159 85.1041 15.9692ZM76.2658 9.44091C77.3192 9.39647 78.151 9.69422 78.8789 10.3875C81.7361 13.085 83.0607 21.5776 82.8211 35.6341C81.2614 35.4386 79.661 35.3008 78.0515 35.2297C77.5543 28.3103 76.7721 23.5908 75.8815 20.3155C75.8815 20.2933 75.8815 20.2711 75.8815 20.2488C75.66 16.8802 74.9909 12.7562 74.9638 12.5962C74.5343 9.83643 75.3526 9.60534 76.2613 9.44091H76.2658ZM98.4588 44.46C99.2545 51.4816 98.0926 56.8278 95.0048 60.343C92.0075 63.7516 87.2741 65.5204 80.4928 65.7426C68.4673 66.4892 64.1725 59.0054 63.1462 56.6945C61.6905 53.4237 60.9174 50.9572 60.2981 48.9707C59.7556 47.2375 59.3306 45.8732 58.6615 44.5978C57.9562 43.2512 57.3324 42.3669 56.8306 41.6558C56.1027 40.6204 55.7998 40.1893 55.732 39.1449C55.7003 38.6383 55.845 38.2295 56.175 37.9006C56.6452 37.4295 57.4409 37.1584 58.2546 37.1984C59.6335 37.2607 60.9355 37.314 64.2538 42.8468C64.724 43.629 64.9591 44.2645 65.2349 44.9977C65.4157 45.4733 65.6146 46.0021 65.8904 46.5754C65.8994 46.5932 65.904 46.6109 65.913 46.6243C66.0351 46.8776 66.1662 47.1353 66.3199 47.4109C67.7711 49.9751 70.0812 51.3972 72.4999 51.2105C73.3227 51.1483 73.9421 50.4373 73.8788 49.6284C73.8155 48.8196 73.0967 48.2197 72.2693 48.273C70.8362 48.3797 69.6111 47.1576 68.942 45.9754C68.8787 45.8643 68.829 45.7621 68.7747 45.6555C69.0324 42.5357 69.4167 29.6613 66.4419 18.7779C66.0984 17.5291 66.1707 16.4981 66.6409 15.7915C67.0794 15.1426 67.6987 14.9871 67.9474 14.9515C68.838 14.8227 69.489 14.8582 70.1762 15.4004C71.8399 16.7203 74.028 21.2354 75.0497 35.1808C74.5886 35.1853 74.1274 35.1986 73.6753 35.2208C72.848 35.2564 72.2106 35.9452 72.2467 36.7585C72.2829 37.5717 72.9701 38.185 73.811 38.1628C81.4467 37.8162 90.163 39.5938 93.852 41.4381C94.0735 41.5492 94.3086 41.598 94.5437 41.598C95.0862 41.5936 95.6061 41.3003 95.8683 40.7892C96.2436 40.0649 95.9497 39.176 95.2083 38.8072C94.5528 38.4783 93.7661 38.1584 92.88 37.8473C93.3864 36.1408 94.2498 31.5989 94.277 26.3994C94.2996 26.2839 94.3086 26.1683 94.2996 26.0483C94.1549 23.8218 94.8376 22.3686 95.5293 21.9598C95.9361 21.7198 96.4922 21.8087 97.1794 22.2264C99.7292 23.7774 98.9154 31.8567 98.608 34.9009C98.5763 35.2297 98.5402 35.5541 98.504 35.883C98.2237 38.5228 97.9344 41.247 98.4588 44.46Z" fill="#0D0F11"/>
</g>
</g>
<defs>
<clipPath id="clip0_40000615_2266">
<rect width="101.919" height="68.945" fill="white" transform="translate(0.0621948 0.29541)"/>
</clipPath>
<clipPath id="clip1_40000615_2266">
<rect width="101.919" height="68.945" fill="white" transform="translate(0.0621948 0.29541)"/>
</clipPath>
</defs>
</svg>
