<svg xmlns="http://www.w3.org/2000/svg" width="113" height="113" viewBox="0 0 113 113" fill="none">
  <path d="M57.9521 83.6306C57.2282 83.6659 56.3772 83.6871 55.5226 83.6871C41.334 83.6871 28.5015 77.8853 19.2672 68.5204L19.2602 68.5134C22.177 76.7765 27.3821 83.6271 34.1162 88.4967L34.2362 88.5814C40.8185 93.3522 49.0569 96.216 57.9627 96.216C66.8685 96.216 75.1034 93.3557 81.8022 88.5038L81.6821 88.585C88.5327 83.6306 93.7378 76.7835 96.5663 68.81L96.6546 68.5204C87.4062 77.8888 74.5631 83.6907 60.3675 83.6907C59.5164 83.6907 58.6689 83.6695 57.8285 83.6271L57.9521 83.6306ZM57.9486 24.9624C58.676 24.9236 59.527 24.9024 60.3851 24.9024C74.5702 24.9024 87.4027 30.7043 96.6334 40.0656L96.6405 40.0727C93.7237 31.8095 88.5186 24.9589 81.788 20.0893L81.668 20.0046C75.0857 15.2374 66.8473 12.3806 57.9415 12.3806C49.0357 12.3806 40.8008 15.2374 34.0985 20.0893L34.2186 20.0081C27.3644 24.9589 22.1593 31.8095 19.3308 39.7831L19.2425 40.0727C28.5015 30.7078 41.3517 24.9059 55.5579 24.9059C56.3983 24.9059 57.2388 24.9271 58.0686 24.966L57.9486 24.9624ZM25.5776 18.2672C25.5776 19.549 25.0585 20.7108 24.2216 21.5548C23.3882 22.3952 22.2335 22.9178 20.9587 22.9178C19.6839 22.9178 18.5257 22.3952 17.6958 21.5548C16.8589 20.7108 16.3398 19.5455 16.3398 18.2637C16.3398 16.9818 16.8589 15.8165 17.6958 14.9725C18.5292 14.1321 19.6839 13.6095 20.9587 13.6095C22.2335 13.6095 23.3918 14.1321 24.2251 14.9761C25.062 15.82 25.5776 16.9818 25.5776 18.2672ZM94.3734 9.84516C94.3734 9.84869 94.3734 9.85222 94.3734 9.85222C94.3734 11.5861 93.6742 13.1575 92.5442 14.2981C91.4178 15.4387 89.8534 16.1449 88.1266 16.1449C86.3998 16.1449 84.8355 15.4387 83.709 14.3016C82.579 13.1575 81.8798 11.5825 81.8798 9.84516C81.8798 8.10779 82.579 6.53285 83.709 5.38872C84.8355 4.25166 86.3963 3.54541 88.1266 3.54541C89.8569 3.54541 91.4178 4.25166 92.5442 5.38872C93.6742 6.52932 94.3734 8.10072 94.3734 9.8381V9.84516ZM35.1296 101.516C35.1296 101.516 35.1296 101.52 35.1296 101.523C35.1296 103.709 34.2503 105.69 32.8237 107.131C31.4042 108.568 29.4337 109.458 27.2585 109.458C25.0832 109.458 23.1128 108.568 21.6932 107.135C20.2666 105.694 19.3873 103.709 19.3873 101.52C19.3873 99.3306 20.2666 97.3495 21.6932 95.9053C23.1128 94.468 25.0797 93.5817 27.2585 93.5817C29.4372 93.5817 31.4042 94.4716 32.8237 95.9088C34.2468 97.3495 35.1296 99.3306 35.1296 101.516C35.1296 101.52 35.1296 101.52 35.1296 101.523V101.516Z" fill="currentColor"/>
</svg>
