<svg width="24" height="24" viewBox="0 0 24 24" fill="none" xmlns="http://www.w3.org/2000/svg">
<path d="M12 2C6.48 2 2 6.48 2 12C2 17.52 6.48 22 12 22C17.52 22 22 17.52 22 12C22 6.48 17.52 2 12 2ZM12 3.5C16.69 3.5 20.5 7.31 20.5 12C20.5 16.69 16.69 20.5 12 20.5C7.31 20.5 3.5 16.69 3.5 12C3.5 7.31 7.31 3.5 12 3.5Z" fill="currentColor"/>
<path d="M7.5 8C7.5 8.83 8.17 9.5 9 9.5C9.83 9.5 10.5 8.83 10.5 8C10.5 7.17 9.83 6.5 9 6.5C8.17 6.5 7.5 7.17 7.5 8Z" fill="currentColor"/>
<path d="M13.5 16C13.5 16.83 14.17 17.5 15 17.5C15.83 17.5 16.5 16.83 16.5 16C16.5 15.17 15.83 14.5 15 14.5C14.17 14.5 13.5 15.17 13.5 16Z" fill="currentColor"/>
<path d="M9 10.5C8.17 10.5 7.5 11.17 7.5 12C7.5 12.83 8.17 13.5 9 13.5C9.83 13.5 10.5 12.83 10.5 12C10.5 11.17 9.83 10.5 9 10.5Z" fill="currentColor"/>
</svg>