<svg width="24" height="24" viewBox="0 0 24 24" fill="none" xmlns="http://www.w3.org/2000/svg">
  <path d="M19.5 2C18.67 2 18 2.67 18 3.5C18 4.33 18.67 5 19.5 5C20.33 5 21 4.33 21 3.5C21 2.67 20.33 2 19.5 2Z" fill="currentColor"/>
  <path d="M12 18C8.5 18 5.5 16.8 4 15C4 18.3137 7.13401 21 12 21C16.866 21 20 18.3137 20 15C18.5 16.8 15.5 18 12 18Z" fill="currentColor"/>
  <path d="M12 6C15.5 6 18.5 7.2 20 9C20 5.68629 16.866 3 12 3C7.13401 3 4 5.68629 4 9C5.5 7.2 8.5 6 12 6Z" fill="currentColor"/>
  <path d="M7.5 21C6.67 21 6 21.67 6 22.5C6 23.33 6.67 24 7.5 24C8.33 24 9 23.33 9 22.5C9 21.67 8.33 21 7.5 21Z" fill="currentColor"/>
  <path d="M4.5 6C3.67 6 3 5.33 3 4.5C3 3.67 3.67 3 4.5 3C5.33 3 6 3.67 6 4.5C6 5.33 5.33 6 4.5 6Z" fill="currentColor"/>
</svg>
