<svg width="24" height="24" viewBox="0 0 24 24" fill="none" xmlns="http://www.w3.org/2000/svg">
  <g transform="scale(0.85) translate(1.8, 1.8)">
    <path d="M19.5 1.5C18.67 1.5 18 2.17 18 3C18 3.83 18.67 4.5 19.5 4.5C20.33 4.5 21 3.83 21 3C21 2.17 20.33 1.5 19.5 1.5Z" fill="currentColor"/>
    <path d="M12 18C8.5 18 5.5 16.8 4 15C4 18.3137 7.13401 21 12 21C16.866 21 20 18.3137 20 15C18.5 16.8 15.5 18 12 18Z" fill="currentColor"/>
    <path d="M12 6C15.5 6 18.5 7.2 20 9C20 5.68629 16.866 3 12 3C7.13401 3 4 5.68629 4 9C5.5 7.2 8.5 6 12 6Z" fill="currentColor"/>
    <path d="M7.5 21C6.67 21 6 21.67 6 22.5C6 23.33 6.67 24 7.5 24C8.33 24 9 23.33 9 22.5C9 21.67 8.33 21 7.5 21Z" fill="currentColor"/>
    <path d="M4.5 5.5C3.67 5.5 3 4.83 3 4C3 3.17 3.67 2.5 4.5 2.5C5.33 2.5 6 3.17 6 4C6 4.83 5.33 5.5 4.5 5.5Z" fill="currentColor"/>
  </g>
</svg>
