<svg xmlns="http://www.w3.org/2000/svg" width="24" height="24" viewBox="0 0 24 24" fill="none">
  <path fill-rule="evenodd" clip-rule="evenodd" d="M17.0265 1.63647C18.2362 1.88301 19.3557 2.45458 20.2649 3.28974C21.1741 4.12489 21.8384 5.19205 22.1865 6.37647C22.509 7.46247 22.557 8.61147 22.326 9.72147C21.9921 11.2422 21.1518 12.6046 19.9428 13.5856C18.7337 14.5666 17.2274 15.1081 15.6705 15.1215C15.0135 15.1215 14.3595 15.027 13.731 14.8365L12.531 16.2435L11.9625 16.506H10.5V18.756L9.75 19.506H7.5V21.756L6.75 22.506H2.25L1.5 21.756V18.2955L1.719 17.766L9.18 10.305C8.96826 9.62297 8.86698 8.91148 8.88 8.19747C8.89367 7.19853 9.12754 6.2149 9.56495 5.3167C10.0024 4.4185 10.6325 3.62786 11.4105 3.00113C12.1885 2.3744 13.0952 1.92702 14.0659 1.69088C15.0367 1.45473 16.0475 1.43565 17.0265 1.63497V1.63647ZM19.0035 12.4365C19.9458 11.6734 20.6011 10.6131 20.862 9.42897L20.868 9.43647C21.0538 8.57068 21.0204 7.67216 20.7707 6.82258C20.521 5.97299 20.063 5.19926 19.4383 4.57169C18.8135 3.94412 18.0419 3.4826 17.1934 3.22908C16.345 2.97555 15.4466 2.93804 14.58 3.11997C13.4112 3.3794 12.3627 4.0224 11.6016 4.94661C10.8405 5.87082 10.4105 7.02309 10.38 8.21997C10.365 8.90397 10.485 9.58197 10.7385 10.215L10.5735 11.0295L3 18.606V21.006H6V18.756L6.75 18.006H9V15.756L9.75 15.006H11.6175L12.9315 13.482L13.773 13.272C14.3796 13.509 15.0253 13.6301 15.6765 13.629C16.8885 13.6197 18.0615 13.1992 19.0035 12.4365ZM17.7465 8.33847C17.8648 8.17505 17.9489 7.98945 17.9937 7.79277C18.0386 7.59609 18.0434 7.39239 18.0077 7.19384C17.972 6.99528 17.8967 6.80597 17.7861 6.63721C17.6756 6.46845 17.5322 6.32373 17.3644 6.21169C17.1967 6.09965 17.008 6.0226 16.8098 5.98514C16.6116 5.94769 16.4078 5.95061 16.2108 5.99372C16.0137 6.03683 15.8273 6.11925 15.6629 6.23605C15.4984 6.35285 15.3592 6.50162 15.2535 6.67347C15.0503 7.00406 14.983 7.40054 15.066 7.77963C15.1489 8.15872 15.3755 8.49093 15.6982 8.70645C16.0209 8.92198 16.4146 9.00405 16.7966 8.93543C17.1785 8.86682 17.519 8.65285 17.7465 8.33847Z" fill="currentColor"/>
</svg>
