<svg xmlns="http://www.w3.org/2000/svg" width="109" height="109" viewBox="0 0 109 109" fill="none">
  <path d="M40.1979 21.8969L34.7311 17.832L25.2691 30.5574L20.2094 26.784L16.1367 32.2451L26.6653 40.0969L40.1979 21.8969Z" fill="currentColor"/>
  <path d="M90.8342 35.1983H50.4639V28.3858H90.8342V35.1983Z" fill="currentColor"/>
  <path d="M90.8342 57.9067H50.4638V51.0942H90.8342V57.9067Z" fill="currentColor"/>
  <path fill-rule="evenodd" clip-rule="evenodd" d="M27.2508 63.5837C32.2674 63.5837 36.3342 59.517 36.3342 54.5004C36.3342 49.4838 32.2674 45.4171 27.2508 45.4171C22.2342 45.4171 18.1675 49.4838 18.1675 54.5004C18.1675 59.517 22.2342 63.5837 27.2508 63.5837ZM27.2508 59.0421C29.7591 59.0421 31.7925 57.0087 31.7925 54.5004C31.7925 51.9921 29.7591 49.9587 27.2508 49.9587C24.7425 49.9587 22.7092 51.9921 22.7092 54.5004C22.7092 57.0087 24.7425 59.0421 27.2508 59.0421Z" fill="currentColor"/>
  <path fill-rule="evenodd" clip-rule="evenodd" d="M36.3342 77.2087C36.3342 82.2253 32.2674 86.2921 27.2508 86.2921C22.2342 86.2921 18.1675 82.2253 18.1675 77.2087C18.1675 72.1922 22.2342 68.1254 27.2508 68.1254C32.2674 68.1254 36.3342 72.1922 36.3342 77.2087ZM31.7925 77.2087C31.7925 79.717 29.7591 81.7504 27.2508 81.7504C24.7425 81.7504 22.7092 79.717 22.7092 77.2087C22.7092 74.7005 24.7425 72.6671 27.2508 72.6671C29.7591 72.6671 31.7925 74.7005 31.7925 77.2087Z" fill="currentColor"/>
  <path d="M50.4637 80.615H90.834V73.8025H50.4637V80.615Z" fill="currentColor"/>
</svg>
