<svg xmlns="http://www.w3.org/2000/svg" width="16" height="7" viewBox="0 0 16 7" fill="none">
  <path d="M7.50684 0.25C9.24918 0.25 10.9332 0.87774 12.251 2.01758C13.5688 3.15746 14.4327 4.73379 14.6836 6.45801L14.7256 6.74316H13.2129L13.1777 6.53516C12.9499 5.19635 12.2554 3.98161 11.2178 3.10547C10.1799 2.22925 8.86511 1.74805 7.50684 1.74805C6.14866 1.74811 4.83466 2.22931 3.79688 3.10547C2.75913 3.98161 2.06476 5.19628 1.83691 6.53516L1.80078 6.74316H0.289063L0.331055 6.45801C0.581982 4.73389 1.44504 3.15745 2.7627 2.01758C4.08041 0.877757 5.76455 0.250069 7.50684 0.25Z" fill="currentColor" stroke="currentColor" stroke-width="0.5"/>
</svg>
