<?xml version="1.0" encoding="UTF-8"?>
<svg id="Layer_1" xmlns="http://www.w3.org/2000/svg" version="1.1" viewBox="0 0 22.3 18.66">
  <!-- Generator: Adobe Illustrator 29.5.1, SVG Export Plug-In . SVG Version: 2.1.0 Build 141)  -->
  <defs>
    <style>
      .st0 {
        stroke-miterlimit: 10;
      }

      .st0, .st1 {
        fill: none;
        stroke: currentColor;
        stroke-linecap: round;
        stroke-width: 2px;
      }

      .st1 {
        stroke-linejoin: round;
      }
    </style>
  </defs>
  <path class="st1" d="M15.15,12.54h3.26c1.58,0,2.93-1.29,2.9-2.88-.03-1.53-1.28-2.77-2.82-2.77-.04,0-.08,0-.11,0,.13-.44.16-.92.04-1.43-.27-1.17-1.27-2.05-2.46-2.17-.74-.07-1.43.14-1.97.55,0,0,0-.02,0-.03,0-1.56-1.26-2.82-2.82-2.82s-2.82,1.26-2.82,2.82c0,0,0,.02,0,.03-.54-.4-1.23-.62-1.97-.55-1.19.12-2.19,1-2.46,2.17-.12.5-.09.99.04,1.43-.04,0-.08,0-.11,0-1.56,0-2.82,1.26-2.82,2.82s1.26,2.82,2.82,2.82l1.29.03c.41,0,.74.34.74.75v1.85c0,1.38,1.12,2.5,2.5,2.5h.29c1.44,0,2.6-1.17,2.6-2.6V6.49"/>
  <polyline class="st0" points="7.97 9.74 11.22 6.49 14.47 9.74"/>
</svg>
