<svg width="28" height="28" viewBox="0 0 28 28" fill="none" xmlns="http://www.w3.org/2000/svg">
  <path
    d="M19.8335 8.16634H8.16683C7.85741 8.16634 7.56066 8.28926 7.34187 8.50805C7.12308 8.72684 7.00016 9.02359 7.00016 9.33301C7.00016 9.64243 7.12308 9.93917 7.34187 10.158C7.56066 10.3768 7.85741 10.4997 8.16683 10.4997H19.8335C20.1429 10.4997 20.4397 10.3768 20.6585 10.158C20.8772 9.93917 21.0002 9.64243 21.0002 9.33301C21.0002 9.02359 20.8772 8.72684 20.6585 8.50805C20.4397 8.28926 20.1429 8.16634 19.8335 8.16634ZM19.8335 12.833H8.16683C7.85741 12.833 7.56066 12.9559 7.34187 13.1747C7.12308 13.3935 7.00016 13.6903 7.00016 13.9997C7.00016 14.3091 7.12308 14.6058 7.34187 14.8246C7.56066 15.0434 7.85741 15.1663 8.16683 15.1663H19.8335C20.1429 15.1663 20.4397 15.0434 20.6585 14.8246C20.8772 14.6058 21.0002 14.3091 21.0002 13.9997C21.0002 13.6903 20.8772 13.3935 20.6585 13.1747C20.4397 12.9559 20.1429 12.833 19.8335 12.833ZM22.1668 2.33301H5.8335C4.90524 2.33301 4.015 2.70176 3.35862 3.35813C2.70225 4.01451 2.3335 4.90475 2.3335 5.83301V17.4997C2.3335 18.4279 2.70225 19.3182 3.35862 19.9745C4.015 20.6309 4.90524 20.9997 5.8335 20.9997H19.3552L23.6718 25.328C23.7808 25.4361 23.9101 25.5217 24.0523 25.5797C24.1944 25.6378 24.3466 25.6672 24.5002 25.6663C24.6532 25.6703 24.805 25.6383 24.9435 25.573C25.1565 25.4855 25.3389 25.3369 25.4677 25.1458C25.5964 24.9548 25.6657 24.73 25.6668 24.4997V5.83301C25.6668 4.90475 25.2981 4.01451 24.6417 3.35813C23.9853 2.70176 23.0951 2.33301 22.1668 2.33301ZM23.3335 21.688L20.6618 19.0047C20.5528 18.8965 20.4235 18.811 20.2814 18.7529C20.1392 18.6949 19.987 18.6655 19.8335 18.6663H5.8335C5.52408 18.6663 5.22733 18.5434 5.00854 18.3246C4.78975 18.1058 4.66683 17.8091 4.66683 17.4997V5.83301C4.66683 5.52359 4.78975 5.22684 5.00854 5.00805C5.22733 4.78926 5.52408 4.66634 5.8335 4.66634H22.1668C22.4762 4.66634 22.773 4.78926 22.9918 5.00805C23.2106 5.22684 23.3335 5.52359 23.3335 5.83301V21.688Z"
    fill="white" />
</svg>
