<svg width="22" height="14" viewBox="0 0 22 14" fill="none" xmlns="http://www.w3.org/2000/svg">
<path d="M5 6C4.80222 6 4.60888 6.05865 4.44443 6.16853C4.27998 6.27841 4.15181 6.43459 4.07612 6.61732C4.00043 6.80004 3.98063 7.00111 4.01921 7.19509C4.0578 7.38907 4.15304 7.56725 4.29289 7.70711C4.43275 7.84696 4.61093 7.9422 4.80491 7.98079C4.99889 8.01937 5.19996 7.99957 5.38268 7.92388C5.56541 7.84819 5.72159 7.72002 5.83147 7.55557C5.94135 7.39112 6 7.19778 6 7C6 6.73478 5.89464 6.48043 5.70711 6.29289C5.51957 6.10536 5.26522 6 5 6ZM17 6C16.8022 6 16.6089 6.05865 16.4444 6.16853C16.28 6.27841 16.1518 6.43459 16.0761 6.61732C16.0004 6.80004 15.9806 7.00111 16.0192 7.19509C16.0578 7.38907 16.153 7.56725 16.2929 7.70711C16.4327 7.84696 16.6109 7.9422 16.8049 7.98079C16.9989 8.01937 17.2 7.99957 17.3827 7.92388C17.5654 7.84819 17.7216 7.72002 17.8315 7.55557C17.9414 7.39112 18 7.19778 18 7C18 6.73478 17.8946 6.48043 17.7071 6.29289C17.5196 6.10536 17.2652 6 17 6ZM19 0H3C2.20435 0 1.44129 0.316071 0.87868 0.87868C0.31607 1.44129 0 2.20435 0 3V11C0 11.7956 0.31607 12.5587 0.87868 13.1213C1.44129 13.6839 2.20435 14 3 14H19C19.7956 14 20.5587 13.6839 21.1213 13.1213C21.6839 12.5587 22 11.7956 22 11V3C22 2.20435 21.6839 1.44129 21.1213 0.87868C20.5587 0.316071 19.7956 0 19 0ZM20 11C20 11.2652 19.8946 11.5196 19.7071 11.7071C19.5196 11.8946 19.2652 12 19 12H3C2.73478 12 2.48043 11.8946 2.29289 11.7071C2.10536 11.5196 2 11.2652 2 11V3C2 2.73478 2.10536 2.48043 2.29289 2.29289C2.48043 2.10536 2.73478 2 3 2H19C19.2652 2 19.5196 2.10536 19.7071 2.29289C19.8946 2.48043 20 2.73478 20 3V11ZM11 4C10.4067 4 9.82664 4.17595 9.33329 4.50559C8.83994 4.83524 8.45542 5.30377 8.22836 5.85195C8.0013 6.40013 7.94189 7.00333 8.05764 7.58527C8.1734 8.16721 8.45912 8.70176 8.87868 9.12132C9.29824 9.54088 9.83279 9.8266 10.4147 9.94236C10.9967 10.0581 11.5999 9.9987 12.1481 9.77164C12.6962 9.54458 13.1648 9.16006 13.4944 8.66671C13.8241 8.17336 14 7.59334 14 7C14 6.20435 13.6839 5.44129 13.1213 4.87868C12.5587 4.31607 11.7956 4 11 4ZM11 8C10.8022 8 10.6089 7.94135 10.4444 7.83147C10.28 7.72159 10.1518 7.56541 10.0761 7.38268C10.0004 7.19996 9.98063 6.99889 10.0192 6.80491C10.0578 6.61093 10.153 6.43275 10.2929 6.29289C10.4327 6.15304 10.6109 6.0578 10.8049 6.01921C10.9989 5.98063 11.2 6.00043 11.3827 6.07612C11.5654 6.15181 11.7216 6.27998 11.8315 6.44443C11.9414 6.60888 12 6.80222 12 7C12 7.26522 11.8946 7.51957 11.7071 7.70711C11.5196 7.89464 11.2652 8 11 8Z" fill="white"/>
</svg>
