<svg width="28" height="28" viewBox="0 0 28 28" fill="none" xmlns="http://www.w3.org/2000/svg">
  <rect width="28" height="28" rx="14" fill="#E4E7EB" />
  <path
    d="M20.4165 13.0837H14.9165V7.58366C14.9165 7.34054 14.8199 7.10739 14.648 6.93548C14.4761 6.76357 14.243 6.66699 13.9998 6.66699C13.7567 6.66699 13.5236 6.76357 13.3517 6.93548C13.1797 7.10739 13.0832 7.34054 13.0832 7.58366V13.0837H7.58317C7.34006 13.0837 7.1069 13.1802 6.93499 13.3521C6.76308 13.5241 6.6665 13.7572 6.6665 14.0003C6.6665 14.2434 6.76308 14.4766 6.93499 14.6485C7.1069 14.8204 7.34006 14.917 7.58317 14.917H13.0832V20.417C13.0832 20.6601 13.1797 20.8933 13.3517 21.0652C13.5236 21.2371 13.7567 21.3337 13.9998 21.3337C14.243 21.3337 14.4761 21.2371 14.648 21.0652C14.8199 20.8933 14.9165 20.6601 14.9165 20.417V14.917H20.4165C20.6596 14.917 20.8928 14.8204 21.0647 14.6485C21.2366 14.4766 21.3332 14.2434 21.3332 14.0003C21.3332 13.7572 21.2366 13.5241 21.0647 13.3521C20.8928 13.1802 20.6596 13.0837 20.4165 13.0837Z"
    fill="black" />
</svg>
