<svg xmlns="http://www.w3.org/2000/svg" width="13" height="25" viewBox="0 0 13 25" fill="none">
  <path fill-rule="evenodd" clip-rule="evenodd" d="M4.64286 1.92308C3.10435 1.92308 1.85714 3.21456 1.85714 4.80769V18.2692C1.85714 20.9244 3.93582 23.0769 6.5 23.0769C9.06418 23.0769 11.1429 20.9244 11.1429 18.2692V6.08974H13V18.2692C13 21.9865 10.0899 25 6.5 25C2.91015 25 0 21.9865 0 18.2692V4.80769C0 2.15248 2.07868 0 4.64286 0C7.20704 0 9.28572 2.15248 9.28572 4.80769V17.6282C9.28572 19.2213 8.03851 20.5128 6.5 20.5128C4.96149 20.5128 3.71429 19.2213 3.71429 17.6282V6.08974H5.57143V17.6282C5.57143 18.1592 5.98716 18.5897 6.5 18.5897C7.01284 18.5897 7.42857 18.1592 7.42857 17.6282V4.80769C7.42857 3.21456 6.18136 1.92308 4.64286 1.92308Z" fill="currentColor"/>
</svg>
