<svg width="20" height="20" viewBox="0 0 20 20" fill="none" xmlns="http://www.w3.org/2000/svg">
<g id="Frame">
<path id="Vector" d="M14.167 3.33334H12.5003C12.0401 3.33334 11.667 3.70644 11.667 4.16668V15.8333C11.667 16.2936 12.0401 16.6667 12.5003 16.6667H14.167C14.6272 16.6667 15.0003 16.2936 15.0003 15.8333V4.16668C15.0003 3.70644 14.6272 3.33334 14.167 3.33334Z" fill="currentColor"/>
<path id="Vector_2" d="M7.5 3.33334H5.83333C5.3731 3.33334 5 3.70644 5 4.16668V15.8333C5 16.2936 5.3731 16.6667 5.83333 16.6667H7.5C7.96024 16.6667 8.33333 16.2936 8.33333 15.8333V4.16668C8.33333 3.70644 7.96024 3.33334 7.5 3.33334Z" fill="currentColor"/>
</g>
</svg>
