<svg xmlns="http://www.w3.org/2000/svg" width="24" height="24" viewBox="0 0 24 24" fill="none">
  <path fill-rule="evenodd" clip-rule="evenodd" d="M7.13832 8.76476C8.25957 8.17949 9.52697 7.9727 10.7515 8.14436L14.9025 2.52826L21.4717 9.09737L15.8555 13.2484C16.0272 14.4729 15.8204 15.7403 15.2351 16.8616C15.1872 16.9535 15.1366 17.0444 15.0836 17.1343C14.8318 17.5605 14.5228 17.9624 14.1566 18.3286L10.4443 14.6163L4.75207 20.3085H3.69141V19.2478L9.38361 13.5556L5.6713 9.84332C6.03755 9.47708 6.43936 9.16808 6.86562 8.91632C6.95547 8.86326 7.04641 8.81274 7.13832 8.76476ZM15.0735 4.82054L19.1794 8.92641L14.2461 12.5727L14.3701 13.4567C14.492 14.3266 14.3596 15.2233 13.9758 16.0265L7.97338 10.0241C8.77665 9.64035 9.67335 9.50789 10.5432 9.62984L11.4272 9.75376L15.0735 4.82054Z" fill="currentColor"/>
</svg>
