<svg xmlns="http://www.w3.org/2000/svg" width="24" height="24" viewBox="0 0 24 24" fill="none">
  <path fill-rule="evenodd" clip-rule="evenodd" d="M12.9 1.50004C15.3 1.65004 17.55 2.85004 19.2 4.50004C21.15 6.60004 22.2 9.15004 22.2 12.15C22.2 14.55 21.3 16.8 19.8 18.75C18.3 20.55 16.2 21.9 13.8 22.35C11.4 22.8 9 22.5 6.9 21.3C4.8 20.1 3.15 18.3 2.25 16.05C1.35 13.8 1.2 11.25 1.95 9.00004C2.7 6.60004 4.05 4.65004 6.15 3.30004C8.1 1.95004 10.5 1.35004 12.9 1.50004ZM13.65 20.85C15.6 20.4 17.4 19.35 18.75 17.7C19.95 16.05 20.7 14.1 20.55 12C20.55 9.60004 19.65 7.20004 18 5.55004C16.5 4.05004 14.7 3.15004 12.6 3.00004C10.65 2.85004 8.55 3.30004 6.9 4.50004C5.25 5.70004 4.05 7.35004 3.45 9.45004C2.85 11.4 2.85 13.5 3.75 15.45C4.65 17.4 6 18.9 7.8 19.95C9.6 21 11.7 21.3 13.65 20.85Z" fill="currentColor"/>
  <path fill-rule="evenodd" clip-rule="evenodd" d="M9 7.49998L10.1655 6.87598L16.9155 11.376V12.624L10.1655 17.124L9 16.5V7.49998ZM10.5 8.90098V15.099L15.1485 12L10.5 8.90098Z" fill="currentColor"/>
</svg>
