<svg xmlns="http://www.w3.org/2000/svg" width="24" height="24" viewBox="0 0 20 21" fill="none">
  <path d="M15.9532 15.8037C16.7679 15.8037 17.4304 16.4662 17.4304 17.2809C17.4304 18.0955 16.7679 18.758 15.9532 18.758C15.1385 18.758 14.4761 18.0955 14.4761 17.2809C14.4761 16.4662 15.1385 15.8037 15.9532 15.8037ZM15.9532 14.0132C14.1538 14.0132 12.6855 15.4814 12.6855 17.2809C12.6855 19.0803 14.1538 20.5485 15.9532 20.5485C17.7527 20.5485 19.2209 19.0803 19.2209 17.2809C19.2209 15.4814 17.7527 14.0132 15.9532 14.0132Z" fill="currentColor"/>
  <path d="M3.51768 15.8037C4.33236 15.8037 4.99485 16.4662 4.99485 17.2809C4.99485 18.0955 4.33236 18.758 3.51768 18.758C2.703 18.758 2.04051 18.0955 2.04051 17.2809C2.04051 16.4662 2.703 15.8037 3.51768 15.8037ZM3.51768 14.0132C1.71822 14.0132 0.25 15.4814 0.25 17.2809C0.25 19.0803 1.71822 20.5485 3.51768 20.5485C5.31714 20.5485 6.78536 19.0803 6.78536 17.2809C6.78536 15.4814 5.31714 14.0132 3.51768 14.0132Z" fill="currentColor"/>
  <path d="M3.51768 2.59862C4.33236 2.59862 4.99485 3.2611 4.99485 4.07579C4.99485 4.89047 4.33236 5.55296 3.51768 5.55296C2.703 5.55296 2.04051 4.89047 2.04051 4.07579C2.04051 3.2611 2.703 2.59862 3.51768 2.59862ZM3.51768 0.808105C1.71822 0.808105 0.25 2.27632 0.25 4.07579C0.25 5.87525 1.71822 7.34347 3.51768 7.34347C5.31714 7.34347 6.78536 5.87525 6.78536 4.07579C6.78536 2.27632 5.31714 0.808105 3.51768 0.808105Z" fill="currentColor"/>
  <path d="M3.51758 14.1295V6.52881" stroke="currentColor" stroke-width="2" stroke-miterlimit="10"/>
  <path d="M15.9523 14.1294V6.17058C15.9523 5.0157 15.0123 4.07568 13.8574 4.07568H11.9863" stroke="currentColor" stroke-width="2" stroke-miterlimit="10"/>
  <path d="M11.9863 7.6119L8.45898 4.07565L11.9863 0.54834V7.6119Z" fill="currentColor"/>
</svg>
