<svg width="27" height="26" viewBox="0 0 27 26" fill="none" xmlns="http://www.w3.org/2000/svg">
<g clip-path="url(#clip0_40000158_426)">
<path d="M13.5381 1.83496C7.32618 1.83496 2.29074 6.8704 2.29074 13.0823C2.29074 19.2942 7.32618 24.3297 13.5381 24.3297C19.75 24.3297 24.7855 19.2942 24.7855 13.0823C24.7855 6.8704 19.75 1.83496 13.5381 1.83496Z" stroke="currentColor" stroke-width="1.8" stroke-linecap="round" stroke-linejoin="round"/>
<path d="M4.84641 20.22C4.84641 20.22 7.35344 17.019 13.5395 17.019C19.7255 17.019 22.2337 20.22 22.2337 20.22M13.5395 13.0824C14.4344 13.0824 15.2926 12.7269 15.9254 12.0941C16.5582 11.4613 16.9137 10.6031 16.9137 9.70819C16.9137 8.8133 16.5582 7.95505 15.9254 7.32227C15.2926 6.68948 14.4344 6.33398 13.5395 6.33398C12.6446 6.33398 11.7863 6.68948 11.1536 7.32227C10.5208 7.95505 10.1653 8.8133 10.1653 9.70819C10.1653 10.6031 10.5208 11.4613 11.1536 12.0941C11.7863 12.7269 12.6446 13.0824 13.5395 13.0824Z" stroke="currentColor" stroke-width="1.8" stroke-linecap="round" stroke-linejoin="round"/>
</g>
<defs>
<clipPath id="clip0_40000158_426">
<rect width="26" height="26" fill="white" transform="translate(0.5)"/>
</clipPath>
</defs>
</svg>
