<svg width="24" height="24" viewBox="0 0 24 24" fill="none" xmlns="http://www.w3.org/2000/svg">
<path d="M11.95 3C9.175 3 8.75 4.25 8.75 5.5V8H12V9H6.5C5 9 4 10.5 4 12C4 13.5 4.75 15 6.5 15H8.5V17.5C8.5 19 9.175 21 11.95 21C14.725 21 15.5 19 15.5 17.5V15H12V14H17.5C19 14 20 12.75 20 11.5C20 10.25 19.25 9 17.5 9H15.5V5.5C15.5 4 14.725 3 11.95 3ZM10 5.5C10.55 5.5 11 5.95 11 6.5C11 7.05 10.55 7.5 10 7.5C9.45 7.5 9 7.05 9 6.5C9 5.95 9.45 5.5 10 5.5ZM14 16.5C14 17.05 14.45 17.5 15 17.5C15.55 17.5 16 17.05 16 16.5C16 15.95 15.55 15.5 15 15.5C14.45 15.5 14 15.95 14 16.5Z" fill="currentColor"/>
</svg>
