<svg xmlns="http://www.w3.org/2000/svg" x="0px" y="0px" width="100" height="100" viewBox="0 0 50 50">
<path d="M 25 2 C 20.941406 2 18.1875 2.96875 16.4375 4.375 C 14.6875 5.78125 14 7.589844 14 9.09375 L 14 14 L 24 14 L 24 15 L 9.09375 15 C 7.265625 15 5.410156 15.792969 4.09375 17.46875 C 2.777344 19.144531 2 21.644531 2 25 C 2 28.355469 2.777344 30.855469 4.09375 32.53125 C 5.410156 34.207031 7.265625 35 9.09375 35 L 14 35 L 14 40.90625 C 14 42.410156 14.6875 44.21875 16.4375 45.625 C 18.1875 47.03125 20.941406 48 25 48 C 29.058594 48 31.8125 47.03125 33.5625 45.625 C 35.3125 44.21875 36 42.410156 36 40.90625 L 36 36 L 26 36 L 26 35 L 40.90625 35 C 42.734375 35 44.589844 34.207031 45.90625 32.53125 C 47.222656 30.855469 48 28.355469 48 25 C 48 21.644531 47.222656 19.144531 45.90625 17.46875 C 44.589844 15.792969 42.734375 15 40.90625 15 L 36 15 L 36 9.09375 C 36 7.550781 35.316406 5.738281 33.5625 4.34375 C 31.808594 2.949219 29.054688 2 25 2 Z M 25 4 C 28.746094 4 31.015625 4.875 32.3125 5.90625 C 33.609375 6.9375 34 8.136719 34 9.09375 L 34 21 C 34 22.65625 32.65625 24 31 24 L 19 24 C 16.941406 24 15.167969 25.269531 14.40625 27.0625 C 14.277344 27.359375 14.160156 27.675781 14.09375 28 C 14.027344 28.324219 14 28.65625 14 29 L 14 33 L 9.09375 33 C 7.824219 33 6.648438 32.503906 5.6875 31.28125 C 4.726563 30.058594 4 28.042969 4 25 C 4 21.957031 4.726563 19.941406 5.6875 18.71875 C 6.648438 17.496094 7.824219 17 9.09375 17 L 26 17 L 26 12 L 16 12 L 16 9.09375 C 16 8.199219 16.386719 6.980469 17.6875 5.9375 C 18.988281 4.894531 21.257813 4 25 4 Z M 20 7 C 18.898438 7 18 7.898438 18 9 C 18 10.101563 18.898438 11 20 11 C 21.101563 11 22 10.101563 22 9 C 22 7.898438 21.101563 7 20 7 Z M 36 17 L 40.90625 17 C 42.175781 17 43.351563 17.496094 44.3125 18.71875 C 45.273438 19.941406 46 21.957031 46 25 C 46 28.042969 45.273438 30.058594 44.3125 31.28125 C 43.351563 32.503906 42.175781 33 40.90625 33 L 24 33 L 24 38 L 34 38 L 34 40.90625 C 34 41.800781 33.613281 43.019531 32.3125 44.0625 C 31.011719 45.105469 28.742188 46 25 46 C 21.257813 46 18.988281 45.105469 17.6875 44.0625 C 16.386719 43.019531 16 41.800781 16 40.90625 L 16 29 C 16 28.792969 16.023438 28.601563 16.0625 28.40625 C 16.34375 27.039063 17.550781 26 19 26 L 31 26 C 33.746094 26 36 23.746094 36 21 Z M 30 39 C 28.898438 39 28 39.898438 28 41 C 28 42.101563 28.898438 43 30 43 C 31.101563 43 32 42.101563 32 41 C 32 39.898438 31.101563 39 30 39 Z"></path>
</svg>
