<svg width="8" height="8" viewBox="0 0 8 8" fill="none" xmlns="http://www.w3.org/2000/svg">
  <path
    d="M4.26446 0.763647C4.39463 0.633472 4.60569 0.633472 4.73586 0.763647L5.73586 1.76365C5.86604 1.89382 5.86604 2.10488 5.73586 2.23505L4.73586 3.23505C4.60569 3.36523 4.39463 3.36523 4.26446 3.23505C4.13429 3.10488 4.13429 2.89382 4.26446 2.76365L4.69542 2.33268H4.16683C2.98426 2.33268 2.00016 3.31678 2.00016 4.49935C2.00016 5.68192 2.98426 6.66602 4.16683 6.66602C5.3494 6.66602 6.3335 5.68192 6.3335 4.49935C6.3335 4.31525 6.48273 4.16602 6.66683 4.16602C6.85092 4.16602 7.00016 4.31525 7.00016 4.49935C7.00016 6.05011 5.71759 7.33268 4.16683 7.33268C2.61607 7.33268 1.3335 6.05011 1.3335 4.49935C1.3335 2.94859 2.61607 1.66602 4.16683 1.66602H4.69542L4.26446 1.23505C4.13429 1.10488 4.13429 0.893821 4.26446 0.763647Z"
    fill="white" />
</svg>
