<svg width="24" height="24" viewBox="0 0 24 24" fill="none" xmlns="http://www.w3.org/2000/svg">
<path d="M21.0004 6.00001C21.0016 5.43668 20.8441 4.88442 20.5459 4.40644C20.2478 3.92846 19.8212 3.54406 19.3148 3.29726C18.8084 3.05046 18.2428 2.95122 17.6826 3.0109C17.1224 3.07059 16.5904 3.28678 16.1474 3.63473C15.7044 3.98269 15.3683 4.44835 15.1776 4.97841C14.9869 5.50848 14.9493 6.08152 15.0691 6.63197C15.1888 7.18241 15.4612 7.688 15.8549 8.09088C16.2487 8.49375 16.7479 8.77762 17.2954 8.91001V10.5C17.2978 10.6372 17.261 10.7722 17.1892 10.8891C17.1175 11.006 17.0138 11.1 16.8904 11.16L12.7354 13.32L8.59544 11.22C8.46356 11.1544 8.35443 11.0507 8.28221 10.9223C8.21 10.7939 8.17802 10.6468 8.19044 10.5V8.91001C8.89743 8.72746 9.51358 8.29333 9.92339 7.689C10.3332 7.08467 10.5085 6.35161 10.4165 5.62725C10.3245 4.90289 9.97149 4.23695 9.42361 3.75426C8.87573 3.27157 8.17062 3.00527 7.44044 3.00527C6.71026 3.00527 6.00514 3.27157 5.45726 3.75426C4.90938 4.23695 4.55635 4.90289 4.46435 5.62725C4.37234 6.35161 4.54768 7.08467 4.95749 7.689C5.36729 8.29333 5.98344 8.72746 6.69044 8.91001V10.5C6.6913 10.9156 6.80651 11.323 7.02346 11.6776C7.24041 12.0321 7.55073 12.3201 7.92044 12.51L12.0004 14.61V16.59C11.2934 16.7726 10.6773 17.2067 10.2675 17.811C9.85768 18.4153 9.68234 19.1484 9.77435 19.8728C9.86635 20.5971 10.2194 21.2631 10.7673 21.7457C11.3151 22.2284 12.0203 22.4947 12.7504 22.4947C13.4806 22.4947 14.1857 22.2284 14.7336 21.7457C15.2815 21.2631 15.6345 20.5971 15.7265 19.8728C15.8185 19.1484 15.6432 18.4153 15.2334 17.811C14.8236 17.2067 14.2074 16.7726 13.5004 16.59V14.61L17.5504 12.57C17.9317 12.3784 18.2501 12.0816 18.468 11.7148C18.686 11.348 18.7944 10.9265 18.7804 10.5V8.88001C19.4147 8.70922 19.9755 8.33496 20.3765 7.81469C20.7776 7.29442 20.9967 6.6569 21.0004 6.00001ZM6.00044 6.00001C6.00044 5.60218 6.15847 5.22065 6.43978 4.93934C6.72108 4.65804 7.10261 4.5 7.50044 4.5C7.89826 4.5 8.27979 4.65804 8.5611 4.93934C8.8424 5.22065 9.00044 5.60218 9.00044 6.00001C9.00044 6.39783 8.8424 6.77936 8.5611 7.06067C8.27979 7.34197 7.89826 7.50001 7.50044 7.50001C7.10261 7.50001 6.72108 7.34197 6.43978 7.06067C6.15847 6.77936 6.00044 6.39783 6.00044 6.00001ZM14.2054 19.5C14.2054 19.8978 14.0474 20.2794 13.7661 20.5607C13.4848 20.842 13.1033 21 12.7054 21C12.3076 21 11.9261 20.842 11.6448 20.5607C11.3635 20.2794 11.2054 19.8978 11.2054 19.5C11.2054 19.1022 11.3635 18.7207 11.6448 18.4393C11.9261 18.158 12.3076 18 12.7054 18C13.1033 18 13.4848 18.158 13.7661 18.4393C14.0474 18.7207 14.2054 19.1022 14.2054 19.5ZM18.0004 7.50001C17.6026 7.50001 17.2211 7.34197 16.9398 7.06067C16.6585 6.77936 16.5004 6.39783 16.5004 6.00001C16.5004 5.60218 16.6585 5.22065 16.9398 4.93934C17.2211 4.65804 17.6026 4.5 18.0004 4.5C18.3983 4.5 18.7798 4.65804 19.0611 4.93934C19.3424 5.22065 19.5004 5.60218 19.5004 6.00001C19.5004 6.39783 19.3424 6.77936 19.0611 7.06067C18.7798 7.34197 18.3983 7.50001 18.0004 7.50001Z" fill="currentColor"/>
</svg>
