<svg xmlns="http://www.w3.org/2000/svg" width="24" height="24" viewBox="0 0 24 24" fill="none">
  <path d="M21 6.00001C21.0011 5.43668 20.8436 4.88442 20.5455 4.40644C20.2474 3.92846 19.8207 3.54406 19.3143 3.29726C18.8079 3.05046 18.2423 2.95122 17.6822 3.0109C17.122 3.07059 16.59 3.28678 16.1469 3.63473C15.7039 3.98269 15.3678 4.44835 15.1771 4.97841C14.9864 5.50848 14.9488 6.08152 15.0686 6.63197C15.1884 7.18241 15.4607 7.688 15.8545 8.09088C16.2482 8.49375 16.7474 8.77762 17.295 8.91001V10.5C17.2974 10.6372 17.2605 10.7722 17.1888 10.8891C17.117 11.006 17.0134 11.1 16.89 11.16L12.735 13.32L8.59498 11.22C8.4631 11.1544 8.35398 11.0507 8.28176 10.9223C8.20954 10.7939 8.17757 10.6468 8.18998 10.5V8.91001C8.89698 8.72746 9.51313 8.29333 9.92293 7.689C10.3327 7.08467 10.5081 6.35161 10.4161 5.62725C10.3241 4.90289 9.97104 4.23695 9.42316 3.75426C8.87528 3.27157 8.17016 3.00527 7.43998 3.00527C6.7098 3.00527 6.00469 3.27157 5.45681 3.75426C4.90893 4.23695 4.5559 4.90289 4.46389 5.62725C4.37189 6.35161 4.54722 7.08467 4.95703 7.689C5.36684 8.29333 5.98299 8.72746 6.68998 8.91001V10.5C6.69085 10.9156 6.80606 11.323 7.02301 11.6776C7.23996 12.0321 7.55028 12.3201 7.91998 12.51L12 14.61V16.59C11.293 16.7726 10.6768 17.2067 10.267 17.811C9.85722 18.4153 9.68189 19.1484 9.77389 19.8728C9.8659 20.5971 10.2189 21.2631 10.7668 21.7457C11.3147 22.2284 12.0198 22.4947 12.75 22.4947C13.4802 22.4947 14.1853 22.2284 14.7332 21.7457C15.281 21.2631 15.6341 20.5971 15.7261 19.8728C15.8181 19.1484 15.6427 18.4153 15.2329 17.811C14.8231 17.2067 14.207 16.7726 13.5 16.59V14.61L17.55 12.57C17.9312 12.3784 18.2496 12.0816 18.4676 11.7148C18.6855 11.348 18.7939 10.9265 18.78 10.5V8.88001C19.4143 8.70922 19.975 8.33496 20.3761 7.81469C20.7771 7.29442 20.9963 6.6569 21 6.00001ZM5.99998 6.00001C5.99998 5.60218 6.15802 5.22065 6.43932 4.93934C6.72063 4.65804 7.10216 4.5 7.49998 4.5C7.89781 4.5 8.27934 4.65804 8.56064 4.93934C8.84195 5.22065 8.99998 5.60218 8.99998 6.00001C8.99998 6.39783 8.84195 6.77936 8.56064 7.06067C8.27934 7.34197 7.89781 7.50001 7.49998 7.50001C7.10216 7.50001 6.72063 7.34197 6.43932 7.06067C6.15802 6.77936 5.99998 6.39783 5.99998 6.00001ZM14.205 19.5C14.205 19.8978 14.0469 20.2794 13.7656 20.5607C13.4843 20.842 13.1028 21 12.705 21C12.3072 21 11.9256 20.842 11.6443 20.5607C11.363 20.2794 11.205 19.8978 11.205 19.5C11.205 19.1022 11.363 18.7207 11.6443 18.4393C11.9256 18.158 12.3072 18 12.705 18C13.1028 18 13.4843 18.158 13.7656 18.4393C14.0469 18.7207 14.205 19.1022 14.205 19.5ZM18 7.50001C17.6022 7.50001 17.2206 7.34197 16.9393 7.06067C16.658 6.77936 16.5 6.39783 16.5 6.00001C16.5 5.60218 16.658 5.22065 16.9393 4.93934C17.2206 4.65804 17.6022 4.5 18 4.5C18.3978 4.5 18.7793 4.65804 19.0606 4.93934C19.3419 5.22065 19.5 5.60218 19.5 6.00001C19.5 6.39783 19.3419 6.77936 19.0606 7.06067C18.7793 7.34197 18.3978 7.50001 18 7.50001Z" fill="currentColor"/>
</svg>
