<svg xmlns="http://www.w3.org/2000/svg" width="24" height="24" viewBox="0 0 24 24" fill="none">
  <path fill-rule="evenodd" clip-rule="evenodd" d="M21 15V2.25L20.25 1.5H5.60999C5.26596 1.50381 4.92547 1.56987 4.60499 1.695C4.28194 1.83856 3.99081 2.0452 3.74868 2.30278C3.50656 2.56036 3.31831 2.8637 3.19499 3.195C3.07229 3.49004 3.00614 3.80552 2.99999 4.125V18.375C2.99638 18.7197 3.06272 19.0616 3.19499 19.38C3.46049 20.0205 3.96749 20.532 4.60499 20.805C4.92547 20.9301 5.26596 20.9962 5.60999 21H5.99999V19.5H5.60999C5.46032 19.5005 5.31218 19.4698 5.17499 19.41C4.90342 19.2974 4.68763 19.0816 4.57499 18.81C4.52706 18.6699 4.50174 18.5231 4.49999 18.375V17.625C4.50174 17.4769 4.52706 17.3301 4.57499 17.19C4.68763 16.9184 4.90342 16.7026 5.17499 16.59C5.31033 16.531 5.45634 16.5004 5.60399 16.5H19.5V19.5H13.5V21H20.25L21 20.25V15ZM5.99999 15V3H19.5V15H5.99999ZM7.49999 4.5H8.99999V6H7.49999V4.5ZM7.49999 7.5H8.99999V9H7.49999V7.5ZM8.99999 10.5H7.49999V12H8.99999V10.5ZM9.74999 20.235L7.91999 22.5H7.49999V18H12V22.5H11.58L9.74999 20.235Z" fill="currentColor"/>
</svg>
