<svg width="47" height="42" viewBox="0 0 47 42" fill="none" xmlns="http://www.w3.org/2000/svg">
<path d="M2.58409 21.782C2.01747 21.782 1.48418 22.0153 1.11755 22.3819C0.750916 22.7486 0.517578 23.3152 0.517578 23.8485V28.0148C0.517578 28.5814 0.750916 29.1147 1.11755 29.4813C1.51751 29.8813 2.05081 30.0813 2.58409 30.0813C3.11737 30.0813 3.684 29.8479 4.05063 29.4813C4.45059 29.0814 4.65055 28.5481 4.65055 28.0148V23.8485C4.65055 23.2819 4.41726 22.7486 4.05063 22.3819C3.684 22.0153 3.11737 21.782 2.58409 21.782ZM44.2802 21.782C43.7136 21.782 43.1803 22.0153 42.8137 22.3819C42.4471 22.7486 42.2138 23.3152 42.2138 23.8485V28.0148C42.2138 28.5814 42.4471 29.1147 42.8137 29.4813C43.2137 29.8813 43.747 30.0813 44.2802 30.0813C44.8135 30.0813 45.3801 29.8479 45.7468 29.4813C46.1467 29.0814 46.3467 28.5481 46.3467 28.0148V23.8485C46.3467 23.2819 46.1134 22.7486 45.7468 22.3819C45.3801 22.0153 44.8135 21.782 44.2802 21.782ZM21.349 10.3164H13.0164C11.3499 10.3164 9.75011 10.983 8.58355 12.1496C7.41699 13.3161 6.75037 14.916 6.75037 16.5825V35.3474C6.75037 37.0139 7.41699 38.6138 8.58355 39.7804C9.75011 40.9469 11.3499 41.6135 13.0164 41.6135H33.8812C35.5477 41.6135 37.1476 40.9469 38.3141 39.7804C39.4807 38.6138 40.1473 37.0139 40.1473 35.3474V16.5825C40.1473 14.916 39.4807 13.3161 38.3141 12.1496C37.1476 10.983 35.5477 10.3164 33.8812 10.3164H25.5486M19.8491 14.4827H27.0152ZM31.3148 14.4827H33.8478C34.4145 14.4827 34.9478 14.716 35.3144 15.0826C35.7144 15.4826 35.9144 16.0159 35.9144 16.5492V35.3141C35.9144 35.8807 35.681 36.3807 35.3144 36.7806C34.9144 37.1806 34.3811 37.3806 33.8478 37.3806H12.9831C12.4165 37.3806 11.8832 37.1473 11.5166 36.7806C11.1166 36.3807 10.9167 35.8474 10.9167 35.3141V16.5492C10.9167 15.9825 11.1499 15.4493 11.5166 15.0826C11.9165 14.6827 12.4498 14.4827 12.9831 14.4827H15.5162M17.7494 21.782C17.1828 21.782 16.6495 22.0153 16.2828 22.3819C15.9162 22.7486 15.6829 23.3152 15.6829 23.8485V28.0148C15.6829 28.5814 15.9162 29.1147 16.2828 29.4813C16.6828 29.8813 17.2161 30.0813 17.7494 30.0813C18.2827 30.0813 18.8492 29.8479 19.2159 29.4813C19.6158 29.0814 19.8158 28.5481 19.8158 28.0148V23.8485C19.8158 23.2819 19.5825 22.7486 19.2159 22.3819C18.8492 22.0153 18.2827 21.782 17.7494 21.782ZM29.0816 21.782C28.515 21.782 27.9817 22.0153 27.6151 22.3819C27.2485 22.7486 27.0152 23.3152 27.0152 23.8485V28.0148C27.0152 28.5814 27.2485 29.1147 27.6151 29.4813C28.0151 29.8813 28.5484 30.0813 29.0816 30.0813C29.6149 30.0813 30.1816 29.8479 30.5482 29.4813C30.9481 29.0814 31.1481 28.5481 31.1481 28.0148V23.8485C31.1481 23.2819 30.9148 22.7486 30.5482 22.3819C30.1816 22.0153 29.6149 21.782 29.0816 21.782Z" fill="currentColor"/>
<path d="M23.4122 0.851806C22.7122 0.851806 22.0123 1.05179 21.4123 1.45175C20.8124 1.85171 20.3791 2.41834 20.0791 3.05162C19.8125 3.71822 19.7458 4.41814 19.8792 5.11808C20.0125 5.81801 20.3458 6.4513 20.8457 6.95125C21.3457 7.45121 21.979 7.78451 22.6789 7.91783C23.3788 8.05115 24.1121 7.98448 24.7454 7.71783C25.412 7.45119 25.9452 6.98459 26.3452 6.38464C26.7452 5.7847 26.9452 5.11807 26.9452 4.38481C26.9452 3.41823 26.5785 2.51833 25.8786 1.85172C25.1786 1.18512 24.2787 0.785156 23.3455 0.785156L23.4122 0.851806Z" fill="currentColor"/>
</svg>
