<svg width="24" height="24" viewBox="0 0 24 24" fill="none" xmlns="http://www.w3.org/2000/svg">
  <g clip-path="url(#clip0_8467_10437)">
    <path fill-rule="evenodd" clip-rule="evenodd"
      d="M17.5304 9.46978L16.4697 10.5304L12.7501 6.81077L12.7501 20.0001H11.2501L11.2501 6.81077L7.53039 10.5304L6.46973 9.46978L12.0001 3.93945L17.5304 9.46978Z"
      fill="white" />
  </g>
  <path
    d="M0.5 8C0.5 3.85786 3.85786 0.5 8 0.5H16C20.1421 0.5 23.5 3.85786 23.5 8V16C23.5 20.1421 20.1421 23.5 16 23.5H8C3.85786 23.5 0.5 20.1421 0.5 16V8Z"
    stroke="white" />
  <defs>
    <clipPath id="clip0_8467_10437">
      <path
        d="M0 8C0 3.58172 3.58172 0 8 0H16C20.4183 0 24 3.58172 24 8V16C24 20.4183 20.4183 24 16 24H8C3.58172 24 0 20.4183 0 16V8Z"
        fill="white" />
    </clipPath>
  </defs>
</svg>
