<svg xmlns="http://www.w3.org/2000/svg" width="24" height="24" viewBox="0 0 24 24" fill="none">
  <path fill-rule="evenodd" clip-rule="evenodd" d="M2.25 3H21.75L22.5 3.75V13.5H21V9H3V19.5H13.5V21H2.25L1.5 20.25V3.75L2.25 3ZM3 7.5H21V4.5H3V7.5ZM10.5 18V16.359C10.2451 16.2664 10.0074 16.132 9.7965 15.9615L8.379 16.77L7.629 15.48L9.0345 14.6595C8.98649 14.3881 8.98649 14.1104 9.0345 13.839L7.629 13.02L8.379 11.73L9.7965 12.54C10.023 12.36 10.2585 12.2265 10.5 12.141V10.5H12V12.141C12.2568 12.2293 12.4953 12.3641 12.7035 12.5385L14.121 11.73L14.871 13.02L13.4655 13.8405C13.5133 14.1114 13.5133 14.3886 13.4655 14.6595L14.871 15.48L14.121 16.77L12.7035 15.96C12.4903 16.1274 12.2531 16.2619 12 16.359V18H10.5ZM10.125 14.25C10.125 14.562 10.2345 14.8275 10.4535 15.0465C10.5568 15.1528 10.6807 15.2367 10.8177 15.2932C10.9547 15.3497 11.1018 15.3776 11.25 15.375C11.3982 15.3776 11.5453 15.3497 11.6823 15.2932C11.8193 15.2367 11.9432 15.1528 12.0465 15.0465C12.1528 14.9432 12.2367 14.8193 12.2932 14.6823C12.3497 14.5453 12.3776 14.3982 12.375 14.25C12.3776 14.1018 12.3497 13.9547 12.2932 13.8177C12.2367 13.6807 12.1528 13.5568 12.0465 13.4535C11.9432 13.3472 11.8193 13.2633 11.6823 13.2068C11.5453 13.1503 11.3982 13.1224 11.25 13.125C11.1018 13.1224 10.9547 13.1503 10.8177 13.2068C10.6807 13.2633 10.5568 13.3472 10.4535 13.4535C10.3472 13.5568 10.2633 13.6807 10.2068 13.8177C10.1503 13.9547 10.1224 14.1018 10.125 14.25ZM18.126 22.5V20.859C17.8711 20.7663 17.6334 20.632 17.4225 20.4615L16.005 21.27L15.255 19.98L16.662 19.1595C16.614 18.8881 16.614 18.6104 16.662 18.339L15.255 17.52L16.005 16.23L17.4225 17.04C17.649 16.86 17.8845 16.7265 18.1275 16.641V15H19.6275V16.641C19.8837 16.7297 20.1216 16.8644 20.3295 17.0385L21.747 16.23L22.497 17.52L21.0915 18.3405C21.1396 18.6114 21.1396 18.8886 21.0915 19.1595L22.497 19.98L21.747 21.27L20.3295 20.46C20.1163 20.6275 19.8791 20.762 19.626 20.859V22.5H18.126ZM17.751 18.75C17.751 19.062 17.8605 19.3275 18.0795 19.5465C18.1828 19.6528 18.3067 19.7367 18.4437 19.7932C18.5807 19.8497 18.7278 19.8776 18.876 19.875C19.0242 19.8776 19.1713 19.8497 19.3083 19.7932C19.4453 19.7367 19.5692 19.6528 19.6725 19.5465C19.779 19.4434 19.8633 19.3195 19.9201 19.1825C19.9768 19.0455 20.0049 18.8983 20.0025 18.75C20.0049 18.6017 19.9768 18.4545 19.9201 18.3175C19.8633 18.1805 19.779 18.0566 19.6725 17.9535C19.5694 17.8474 19.4457 17.7636 19.309 17.7071C19.1722 17.6506 19.0254 17.6226 18.8775 17.625C18.7291 17.6222 18.5817 17.65 18.4444 17.7065C18.3072 17.763 18.183 17.847 18.0795 17.9535C17.9732 18.0568 17.8893 18.1807 17.8328 18.3177C17.7763 18.4547 17.7484 18.6018 17.751 18.75Z" fill="currentColor"/>
</svg>
