<svg  viewBox="0 0 18 18" fill="none" xmlns="http://www.w3.org/2000/svg">
<path d="M8.25 9.75C8.10166 9.75 7.95666 9.79399 7.83332 9.8764C7.70999 9.95881 7.61386 10.0759 7.55709 10.213C7.50032 10.35 7.48547 10.5008 7.51441 10.6463C7.54335 10.7918 7.61478 10.9254 7.71967 11.0303C7.82456 11.1352 7.9582 11.2066 8.10368 11.2356C8.24917 11.2645 8.39997 11.2497 8.53701 11.1929C8.67406 11.1361 8.79119 11.04 8.8736 10.9167C8.95601 10.7933 9 10.6483 9 10.5C9 10.3011 8.92098 10.1103 8.78033 9.96967C8.63968 9.82902 8.44891 9.75 8.25 9.75ZM5.25 9.75C5.10166 9.75 4.95666 9.79399 4.83332 9.8764C4.70999 9.95881 4.61386 10.0759 4.55709 10.213C4.50032 10.35 4.48547 10.5008 4.51441 10.6463C4.54335 10.7918 4.61478 10.9254 4.71967 11.0303C4.82456 11.1352 4.9582 11.2066 5.10368 11.2356C5.24917 11.2645 5.39997 11.2497 5.53701 11.1929C5.67406 11.1361 5.79119 11.04 5.8736 10.9167C5.95601 10.7933 6 10.6483 6 10.5C6 10.3011 5.92098 10.1103 5.78033 9.96967C5.63968 9.82902 5.44891 9.75 5.25 9.75ZM16.5 3C16.5 2.40326 16.2629 1.83097 15.841 1.40901C15.419 0.987053 14.8467 0.75 14.25 0.75H3.75C3.15326 0.75 2.58097 0.987053 2.15901 1.40901C1.73705 1.83097 1.5 2.40326 1.5 3V6C1.50331 6.55504 1.71166 7.08927 2.085 7.5C1.71166 7.91073 1.50331 8.44496 1.5 9V12C1.5 12.5967 1.73705 13.169 2.15901 13.591C2.58097 14.0129 3.15326 14.25 3.75 14.25H8.25V15.75H2.25C2.05109 15.75 1.86032 15.829 1.71967 15.9697C1.57902 16.1103 1.5 16.3011 1.5 16.5C1.5 16.6989 1.57902 16.8897 1.71967 17.0303C1.86032 17.171 2.05109 17.25 2.25 17.25H15.75C15.9489 17.25 16.1397 17.171 16.2803 17.0303C16.421 16.8897 16.5 16.6989 16.5 16.5C16.5 16.3011 16.421 16.1103 16.2803 15.9697C16.1397 15.829 15.9489 15.75 15.75 15.75H9.75V14.25H14.25C14.8467 14.25 15.419 14.0129 15.841 13.591C16.2629 13.169 16.5 12.5967 16.5 12V9C16.4967 8.44496 16.2883 7.91073 15.915 7.5C16.2883 7.08927 16.4967 6.55504 16.5 6V3ZM15 12C15 12.1989 14.921 12.3897 14.7803 12.5303C14.6397 12.671 14.4489 12.75 14.25 12.75H3.75C3.55109 12.75 3.36032 12.671 3.21967 12.5303C3.07902 12.3897 3 12.1989 3 12V9C3 8.80109 3.07902 8.61032 3.21967 8.46967C3.36032 8.32902 3.55109 8.25 3.75 8.25H14.25C14.4489 8.25 14.6397 8.32902 14.7803 8.46967C14.921 8.61032 15 8.80109 15 9V12ZM15 6C15 6.19891 14.921 6.38968 14.7803 6.53033C14.6397 6.67098 14.4489 6.75 14.25 6.75H3.75C3.55109 6.75 3.36032 6.67098 3.21967 6.53033C3.07902 6.38968 3 6.19891 3 6V3C3 2.80109 3.07902 2.61032 3.21967 2.46967C3.36032 2.32902 3.55109 2.25 3.75 2.25H14.25C14.4489 2.25 14.6397 2.32902 14.7803 2.46967C14.921 2.61032 15 2.80109 15 3V6ZM8.25 3.75C8.10166 3.75 7.95666 3.79399 7.83332 3.8764C7.70999 3.95881 7.61386 4.07594 7.55709 4.21299C7.50032 4.35003 7.48547 4.50083 7.51441 4.64632C7.54335 4.7918 7.61478 4.92544 7.71967 5.03033C7.82456 5.13522 7.9582 5.20665 8.10368 5.23559C8.24917 5.26453 8.39997 5.24968 8.53701 5.19291C8.67406 5.13614 8.79119 5.04001 8.8736 4.91668C8.95601 4.79334 9 4.64834 9 4.5C9 4.30109 8.92098 4.11032 8.78033 3.96967C8.63968 3.82902 8.44891 3.75 8.25 3.75ZM5.25 3.75C5.10166 3.75 4.95666 3.79399 4.83332 3.8764C4.70999 3.95881 4.61386 4.07594 4.55709 4.21299C4.50032 4.35003 4.48547 4.50083 4.51441 4.64632C4.54335 4.7918 4.61478 4.92544 4.71967 5.03033C4.82456 5.13522 4.9582 5.20665 5.10368 5.23559C5.24917 5.26453 5.39997 5.24968 5.53701 5.19291C5.67406 5.13614 5.79119 5.04001 5.8736 4.91668C5.95601 4.79334 6 4.64834 6 4.5C6 4.30109 5.92098 4.11032 5.78033 3.96967C5.63968 3.82902 5.44891 3.75 5.25 3.75Z" fill="currentColor"/>
</svg>
