<svg width="29" height="28" viewBox="0 0 29 28" fill="none" xmlns="http://www.w3.org/2000/svg">
<path d="M14.5 18.375C12.085 18.375 10.125 16.415 10.125 14C10.125 11.585 12.085 9.625 14.5 9.625C16.915 9.625 18.875 11.585 18.875 14C18.875 16.415 16.915 18.375 14.5 18.375ZM14.5 11.375C13.0533 11.375 11.875 12.5533 11.875 14C11.875 15.4467 13.0533 16.625 14.5 16.625C15.9467 16.625 17.125 15.4467 17.125 14C17.125 12.5533 15.9467 11.375 14.5 11.375Z" fill="currentColor"/>
<path d="M18.245 25.8883C18 25.8883 17.755 25.8533 17.51 25.795C16.7867 25.5967 16.18 25.1417 15.795 24.5L15.655 24.2667C14.9667 23.0767 14.0217 23.0767 13.3333 24.2667L13.205 24.4883C12.82 25.1417 12.2133 25.6083 11.49 25.795C10.755 25.9933 9.99668 25.8883 9.35501 25.5033L7.34834 24.3483C6.63668 23.94 6.12334 23.275 5.90168 22.47C5.69168 21.665 5.79668 20.8367 6.20501 20.125C6.54334 19.53 6.63668 18.9933 6.43834 18.655C6.24001 18.3167 5.73834 18.1183 5.05001 18.1183C3.34668 18.1183 1.95834 16.73 1.95834 15.0267V12.9733C1.95834 11.27 3.34668 9.88168 5.05001 9.88168C5.73834 9.88168 6.24001 9.68334 6.43834 9.34501C6.63668 9.00668 6.55501 8.47001 6.20501 7.87501C5.79668 7.16334 5.69168 6.32334 5.90168 5.53001C6.11168 4.72501 6.62501 4.06001 7.34834 3.65168L9.36668 2.49668C10.685 1.71501 12.4233 2.17001 13.2167 3.51168L13.3567 3.74501C14.045 4.93501 14.99 4.93501 15.6783 3.74501L15.8067 3.52334C16.6 2.17001 18.3383 1.71501 19.6683 2.50834L21.675 3.66334C22.3867 4.07168 22.9 4.73668 23.1217 5.54168C23.3317 6.34668 23.2267 7.17501 22.8183 7.88668C22.48 8.48168 22.3867 9.01834 22.585 9.35668C22.7833 9.69501 23.285 9.89334 23.9733 9.89334C25.6767 9.89334 27.065 11.2817 27.065 12.985V15.0383C27.065 16.7417 25.6767 18.13 23.9733 18.13C23.285 18.13 22.7833 18.3283 22.585 18.6667C22.3867 19.005 22.4683 19.5417 22.8183 20.1367C23.2267 20.8483 23.3433 21.6883 23.1217 22.4817C22.9117 23.2867 22.3983 23.9517 21.675 24.36L19.6567 25.515C19.2133 25.76 18.735 25.8883 18.245 25.8883ZM14.5 21.5717C15.5383 21.5717 16.5067 22.225 17.1717 23.38L17.3 23.6017C17.44 23.8467 17.6733 24.0217 17.9533 24.0917C18.2333 24.1617 18.5133 24.1267 18.7467 23.9867L20.765 22.82C21.0683 22.645 21.3017 22.3533 21.395 22.0033C21.4883 21.6533 21.4417 21.2917 21.2667 20.9883C20.6017 19.845 20.52 18.6667 21.0333 17.7683C21.5467 16.87 22.6083 16.3567 23.9383 16.3567C24.685 16.3567 25.28 15.7617 25.28 15.015V12.9617C25.28 12.2267 24.685 11.62 23.9383 11.62C22.6083 11.62 21.5467 11.1067 21.0333 10.2083C20.52 9.31001 20.6017 8.13168 21.2667 6.98834C21.4417 6.68501 21.4883 6.32334 21.395 5.97334C21.3017 5.62334 21.08 5.34334 20.7767 5.15668L18.7583 4.00168C18.2567 3.69834 17.5917 3.87334 17.2883 4.38668L17.16 4.60834C16.495 5.76334 15.5267 6.41668 14.4883 6.41668C13.45 6.41668 12.4817 5.76334 11.8167 4.60834L11.6883 4.37501C11.3967 3.88501 10.7433 3.71001 10.2417 4.00168L8.22334 5.16834C7.92001 5.34334 7.68668 5.63501 7.59334 5.98501C7.50001 6.33501 7.54668 6.69668 7.72168 7.00001C8.38668 8.14334 8.46834 9.32168 7.95501 10.22C7.44168 11.1183 6.38001 11.6317 5.05001 11.6317C4.30334 11.6317 3.70834 12.2267 3.70834 12.9733V15.0267C3.70834 15.7617 4.30334 16.3683 5.05001 16.3683C6.38001 16.3683 7.44168 16.8817 7.95501 17.78C8.46834 18.6783 8.38668 19.8567 7.72168 21C7.54668 21.3033 7.50001 21.665 7.59334 22.015C7.68668 22.365 7.90834 22.645 8.21168 22.8317L10.23 23.9867C10.475 24.1383 10.7667 24.1733 11.035 24.1033C11.315 24.0333 11.5483 23.8467 11.7 23.6017L11.8283 23.38C12.4933 22.2367 13.4617 21.5717 14.5 21.5717Z" fill="currentColor"/>
</svg>
