<svg xmlns="http://www.w3.org/2000/svg" width="24" height="24" viewBox="0 0 24 24" fill="none">
  <g clip-path="url(#clip0_7985_8061)">
    <path fill-rule="evenodd" clip-rule="evenodd" d="M19.85 8.75L24 9.58V14.42L19.85 15.25L22.2 18.77L18.77 22.2L15.25 19.85L14.42 24H9.58L8.75 19.85L5.23 22.2L1.8 18.77L4.15 15.25L0 14.42V9.58L4.15 8.75L1.8 5.23L5.23 1.8L8.75 4.15L9.58 0H14.42L15.25 4.15L18.77 1.8L22.2 5.23L19.85 8.75ZM18.28 13.82L22.28 13.01V11.01L18.28 10.2L17.74 8.9L20.03 5.47L18.6 4.04L15.17 6.33L13.87 5.79L13.06 1.79H11.06L10.25 5.79L8.95 6.33L5.52 4.04L4.09 5.47L6.38 8.9L5.84 10.2L1.84 11.01V13.01L5.84 13.82L6.38 15.12L4.09 18.55L5.52 19.98L8.95 17.69L10.25 18.23L11.06 22.23H13.06L13.87 18.23L15.17 17.69L18.6 19.98L20.03 18.55L17.74 15.12L18.28 13.82ZM10.094 9.148C10.6582 8.77105 11.3215 8.5699 12 8.57C12.9089 8.57264 13.7798 8.93486 14.4225 9.57754C15.0651 10.2202 15.4274 11.0911 15.43 12C15.4299 12.5925 15.2764 13.175 14.9843 13.6905C14.6922 14.2061 14.2715 14.6371 13.7633 14.9417C13.255 15.2464 12.6765 15.4141 12.0842 15.4286C11.4918 15.4432 10.9058 15.304 10.3832 15.0247C9.86059 14.7454 9.41928 14.3355 9.10225 13.8349C8.78521 13.3343 8.60327 12.7601 8.57415 12.1683C8.54502 11.5764 8.66972 10.9871 8.93607 10.4578C9.20243 9.92854 9.60136 9.47727 10.094 9.148ZM11.05 13.422C11.331 13.61 11.662 13.71 12 13.71C12.2249 13.7113 12.4479 13.668 12.656 13.5825C12.864 13.4971 13.0531 13.3712 13.2121 13.2121C13.3712 13.0531 13.4971 12.864 13.5825 12.656C13.668 12.4479 13.7113 12.2249 13.71 12C13.71 11.7046 13.6334 11.4142 13.4878 11.1572C13.3421 10.9002 13.1324 10.6852 12.879 10.5334C12.6256 10.3815 12.3372 10.2979 12.0418 10.2907C11.7465 10.2835 11.4544 10.3529 11.1938 10.4921C10.9333 10.6314 10.7133 10.8358 10.5553 11.0854C10.3972 11.335 10.3065 11.6213 10.2921 11.9163C10.2776 12.2114 10.3398 12.5052 10.4726 12.769C10.6054 13.0329 10.8044 13.2579 11.05 13.422Z" fill="currentColor"/>
  </g>
  <defs>
    <clipPath id="clip0_7985_8061">
      <rect width="24" height="24" fill="currentColor"/>
    </clipPath>
  </defs>
</svg>
