<svg xmlns="http://www.w3.org/2000/svg" width="32" height="32" viewBox="0 0 32 32" fill="none">
  <g clip-path="url(#clip0_16087_343256)">
    <path d="M15.3857 0.64563L19.852 10.8682L30.0746 15.3345L19.8508 19.8008L15.3845 30.0247L10.9182 19.8008L0.695557 15.3345L10.9194 10.8682L15.3857 0.64563ZM27.2938 4.89822L25.2846 5.89642L27.2938 6.8959L28.292 8.9051L29.2927 6.8959L31.2994 5.8977L29.2927 4.89822L28.2932 2.88902L27.2938 4.89822ZM24.7471 19.5257L26.4107 22.8671L29.7509 24.5308L26.4107 26.1932L24.7471 29.5333L23.0847 26.1932L19.7445 24.5295L23.0847 22.8671L24.7471 19.5257Z" fill="#040e19"/>
  </g>
  <defs>
    <clipPath id="clip0_16087_343256">
      <rect width="32" height="30.7139" fill="white" transform="translate(0 0.643066)"/>
    </clipPath>
  </defs>
</svg>
