<svg xmlns="http://www.w3.org/2000/svg" width="24" height="25" viewBox="0 0 24 25" fill="none">
  <path d="M15.29 10.79L12.51 13.57C12.3436 13.5257 12.1723 13.5022 12 13.5C11.4696 13.5 10.9609 13.7107 10.5858 14.0858C10.2107 14.4609 10 14.9696 10 15.5C10.0023 15.6722 10.0258 15.8435 10.07 16.01L9.29003 16.79C9.1963 16.883 9.12191 16.9936 9.07114 17.1154C9.02037 17.2373 8.99423 17.368 8.99423 17.5C8.99423 17.632 9.02037 17.7627 9.07114 17.8846C9.12191 18.0064 9.1963 18.117 9.29003 18.21C9.38299 18.3037 9.49359 18.3781 9.61545 18.4289C9.73731 18.4797 9.86802 18.5058 10 18.5058C10.132 18.5058 10.2627 18.4797 10.3846 18.4289C10.5065 18.3781 10.6171 18.3037 10.71 18.21L11.49 17.43C11.6565 17.4743 11.8278 17.4978 12 17.5C12.5305 17.5 13.0392 17.2893 13.4142 16.9142C13.7893 16.5391 14 16.0304 14 15.5C13.9978 15.3278 13.9743 15.1565 13.93 14.99L16.71 12.21C16.8983 12.0217 17.0041 11.7663 17.0041 11.5C17.0041 11.2337 16.8983 10.9783 16.71 10.79C16.5217 10.6017 16.2663 10.4959 16 10.4959C15.7337 10.4959 15.4783 10.6017 15.29 10.79ZM12 4.5C10.6868 4.5 9.38645 4.75866 8.1732 5.2612C6.95994 5.76375 5.85755 6.50035 4.92896 7.42893C3.0536 9.3043 2.00003 11.8478 2.00003 14.5C1.99511 16.4806 2.58375 18.4172 3.69003 20.06C3.83855 20.2801 4.06844 20.4322 4.32911 20.4829C4.58979 20.5335 4.8599 20.4785 5.08003 20.33C5.30016 20.1815 5.45227 19.9516 5.50291 19.6909C5.55354 19.4302 5.49855 19.1601 5.35003 18.94C4.54455 17.7355 4.08131 16.3349 4.00978 14.8877C3.93826 13.4405 4.26113 12.001 4.94392 10.723C5.62671 9.44501 6.64378 8.37643 7.88653 7.63139C9.12928 6.88634 10.5511 6.49281 12 6.49281C13.449 6.49281 14.8708 6.88634 16.1135 7.63139C17.3563 8.37643 18.3734 9.44501 19.0561 10.723C19.7389 12.001 20.0618 13.4405 19.9903 14.8877C19.9188 16.3349 19.4555 17.7355 18.65 18.94C18.5763 19.0489 18.5248 19.1714 18.4985 19.3002C18.4722 19.4291 18.4716 19.5619 18.4966 19.691C18.5217 19.8201 18.572 19.943 18.6447 20.0527C18.7173 20.1623 18.8109 20.2566 18.92 20.33C19.0856 20.4412 19.2806 20.5004 19.48 20.5C19.6438 20.5002 19.8052 20.4603 19.9499 20.3835C20.0946 20.3068 20.2183 20.1957 20.31 20.06C21.4163 18.4172 22.005 16.4806 22 14.5C22 11.8478 20.9465 9.3043 19.0711 7.42893C17.1957 5.55357 14.6522 4.5 12 4.5Z" fill="currentColor"/>
</svg>
