<svg width="24" height="24" viewBox="0 0 24 24" fill="none" xmlns="http://www.w3.org/2000/svg">
  <path d="M5 6C4.44772 6 4 6.44772 4 7V17C4 17.5523 4.44772 18 5 18H19C19.5523 18 20 17.5523 20 17V7C20 6.44772 19.5523 6 19 6H5ZM5 7H19V17H5V7Z" fill="currentColor"/>
  <path d="M7.14645 9.64645C6.95118 9.84171 6.95118 10.1583 7.14645 10.3536L9.79289 13L7.14645 15.6464C6.95118 15.8417 6.95118 16.1583 7.14645 16.3536C7.34171 16.5488 7.65829 16.5488 7.85355 16.3536L10.8536 13.3536C11.0488 13.1583 11.0488 12.8417 10.8536 12.6464L7.85355 9.64645C7.65829 9.45118 7.34171 9.45118 7.14645 9.64645Z" fill="currentColor"/>
  <path d="M12 16C11.7239 16 11.5 16.2239 11.5 16.5C11.5 16.7761 11.7239 17 12 17H17C17.2761 17 17.5 16.7761 17.5 16.5C17.5 16.2239 17.2761 16 17 16H12Z" fill="currentColor"/>
</svg>
