<svg width="24" height="24" viewBox="0 0 24 24" fill="none" xmlns="http://www.w3.org/2000/svg">
  <path d="M6 5C5.44772 5 5 5.44772 5 6V18C5 18.5523 5.44772 19 6 19H18C18.5523 19 19 18.5523 19 18V6C19 5.44772 18.5523 5 18 5H6ZM6 6H18V18H6V6Z" fill="currentColor"/>
  <path d="M8.14645 9.64645C7.95118 9.84171 7.95118 10.1583 8.14645 10.3536L10.7929 13L8.14645 15.6464C7.95118 15.8417 7.95118 16.1583 8.14645 16.3536C8.34171 16.5488 8.65829 16.5488 8.85355 16.3536L11.8536 13.3536C12.0488 13.1583 12.0488 12.8417 11.8536 12.6464L8.85355 9.64645C8.65829 9.45118 8.34171 9.45118 8.14645 9.64645Z" fill="currentColor"/>
  <path d="M13 16C12.7239 16 12.5 16.2239 12.5 16.5C12.5 16.7761 12.7239 17 13 17H16C16.2761 17 16.5 16.7761 16.5 16.5C16.5 16.2239 16.2761 16 16 16H13Z" fill="currentColor"/>
</svg>
