<svg width="15" height="16" viewBox="0 0 15 16" fill="none" xmlns="http://www.w3.org/2000/svg">
  <path
    d="M11.8749 1.75H3.91861C3.47998 1.75015 3.05528 1.90407 2.71841 2.18499C2.38154 2.4659 2.15382 2.85603 2.07486 3.2875L1.28111 7.6625C1.23166 7.93277 1.2422 8.21062 1.31201 8.47636C1.38182 8.74211 1.50917 8.98927 1.68507 9.20035C1.86097 9.41142 2.08111 9.58126 2.32991 9.69785C2.57872 9.81443 2.8501 9.87491 3.12486 9.875H5.97486L5.62486 10.7688C5.47928 11.1601 5.4308 11.5809 5.48357 11.995C5.53635 12.4092 5.68881 12.8044 5.92787 13.1467C6.16694 13.489 6.48547 13.7683 6.85615 13.9604C7.22683 14.1526 7.63859 14.2519 8.05611 14.25C8.17634 14.2497 8.29394 14.2148 8.39482 14.1494C8.4957 14.084 8.57557 13.9909 8.62486 13.8813L10.4061 9.875H11.8749C12.3721 9.875 12.8491 9.67746 13.2007 9.32583C13.5523 8.97419 13.7499 8.49728 13.7499 8V3.625C13.7499 3.12772 13.5523 2.65081 13.2007 2.29917C12.8491 1.94754 12.3721 1.75 11.8749 1.75ZM9.37486 9.11875L7.67486 12.9438C7.50092 12.8911 7.3396 12.8034 7.20083 12.6861C7.06206 12.5688 6.94878 12.4242 6.86798 12.2615C6.78717 12.0987 6.74055 11.9211 6.73099 11.7396C6.72143 11.5581 6.74912 11.3766 6.81236 11.2062L7.14361 10.3125C7.2142 10.1236 7.23803 9.92041 7.21307 9.72029C7.18811 9.52018 7.1151 9.32907 7.00028 9.16329C6.88546 8.9975 6.73223 8.86196 6.55367 8.76823C6.37511 8.67449 6.17653 8.62535 5.97486 8.625H3.12486C3.03304 8.62515 2.94232 8.60507 2.85914 8.56618C2.77597 8.52729 2.70238 8.47055 2.64361 8.4C2.58341 8.33042 2.5393 8.24841 2.51445 8.15982C2.4896 8.07123 2.48462 7.97824 2.49986 7.8875L3.29361 3.5125C3.32024 3.3669 3.39767 3.23548 3.51212 3.14162C3.62657 3.04777 3.77062 2.99759 3.91861 3H9.37486V9.11875ZM12.4999 8C12.4999 8.16576 12.434 8.32473 12.3168 8.44194C12.1996 8.55915 12.0406 8.625 11.8749 8.625H10.6249V3H11.8749C12.0406 3 12.1996 3.06585 12.3168 3.18306C12.434 3.30027 12.4999 3.45924 12.4999 3.625V8Z"
    fill="white" />
</svg>
