<svg xmlns="http://www.w3.org/2000/svg" width="24" height="24" viewBox="0 0 24 24" fill="none">
  <path fill-rule="evenodd" clip-rule="evenodd" d="M22.1595 5.22752L20.9895 4.95152L17.8275 8.09552L16.0365 6.27152L19.1205 3.03602L18.8505 1.84802C18.1988 1.62999 17.5172 1.51461 16.83 1.50602C16.0804 1.49449 15.3365 1.63746 14.6445 1.92602C13.9764 2.22843 13.3725 2.65616 12.8655 3.18602C12.3011 3.72063 11.8542 4.36683 11.553 5.08352C10.9732 6.50984 10.9732 8.10619 11.553 9.53252C8.42587 12.609 5.3391 15.7263 2.29351 18.8835C1.97851 19.296 1.82851 19.8105 1.86751 20.328C1.89825 20.8846 2.14856 21.4063 2.56351 21.7785C2.74951 21.981 2.97151 22.149 3.21901 22.2705C3.47401 22.383 3.74851 22.4475 4.02601 22.461C4.50001 22.452 4.95451 22.272 5.30701 21.9555C7.62901 19.77 12.078 15.2805 14.6055 12.6495C15.291 12.9405 16.0275 13.0905 16.7715 13.089C17.5204 13.0884 18.2616 12.9377 18.9513 12.6458C19.641 12.3539 20.2652 11.9267 20.787 11.3895C21.8588 10.2964 22.4575 8.82543 22.4535 7.29452C22.4708 6.59398 22.3715 5.89544 22.1595 5.22752ZM4.39951 20.892C4.34178 20.9433 4.27218 20.9794 4.19701 20.997C4.12306 21.0098 4.04746 21.0098 3.97351 20.997C3.89598 20.9852 3.82213 20.956 3.75751 20.9115C3.68817 20.8709 3.62955 20.8144 3.58651 20.7465C3.37651 20.532 3.18001 20.124 3.37651 19.8945C5.43151 17.709 9.66301 13.437 12.309 10.8255C12.459 11.0235 12.624 11.2125 12.801 11.3895C12.978 11.574 13.1685 11.745 13.371 11.901C10.812 14.526 6.63901 18.747 4.40101 20.892H4.39951ZM21.0765 7.29452C21.0795 8.44202 20.6325 9.54452 19.8285 10.3665C19.0262 11.1536 17.9472 11.5944 16.8233 11.5944C15.6994 11.5944 14.6203 11.1536 13.818 10.3665C13.23 9.75286 12.8283 8.98485 12.6597 8.15183C12.4911 7.31882 12.5624 6.45505 12.8655 5.66102C13.0673 5.12062 13.3802 4.62858 13.784 4.21671C14.1879 3.80485 14.6737 3.48233 15.21 3.27002C15.7192 3.05688 16.266 2.94774 16.818 2.94902H17.199L14.4735 5.75852V6.80252L17.316 9.63152H18.306L21.0765 6.90752V7.29452ZM4.86001 10.032H7.15651L8.21401 11.1075L9.23101 10.0965L8.23351 9.07952V9.01502L8.31901 6.54152L7.98901 5.88602L3.69901 3.06302L2.81251 3.16202L1.56601 4.43552L1.46701 5.33402L4.22401 9.71102L4.86001 10.0335V10.032ZM3.44251 4.58402L6.91351 6.87002L6.85501 8.55452H5.24101L3.00301 5.01152L3.44251 4.58402ZM14.1 15.024L15.111 14.0145L19.77 18.792C20.1624 19.2045 20.3813 19.752 20.3813 20.3213C20.3813 20.8906 20.1624 21.4381 19.77 21.8505C19.4749 22.1535 19.0955 22.3605 18.6811 22.4448C18.2667 22.5291 17.8365 22.4866 17.4465 22.323C17.1976 22.2126 16.9744 22.0517 16.791 21.8505L12.078 17.046L13.0965 16.029L17.7945 20.82C17.8577 20.8897 17.9363 20.9436 18.024 20.9775C18.1967 21.0476 18.3899 21.0476 18.5625 20.9775C18.6502 20.9436 18.7288 20.8897 18.792 20.82C18.8577 20.755 18.9088 20.6768 18.942 20.5905C18.9764 20.5025 18.9947 20.409 18.996 20.3145C18.9945 20.2202 18.9767 20.1268 18.9435 20.0385C18.9103 19.9523 18.8592 19.8741 18.7935 19.809L14.1 15.024Z" fill="currentColor"/>
</svg>
