<svg xmlns="http://www.w3.org/2000/svg" width="24" height="24" viewBox="0 0 24 24" fill="none">
  <path d="M10 13C9.80222 13 9.60888 13.0586 9.44443 13.1685C9.27998 13.2784 9.15181 13.4346 9.07612 13.6173C9.00043 13.8 8.98063 14.0011 9.01921 14.1951C9.0578 14.3891 9.15304 14.5673 9.29289 14.7071C9.43275 14.847 9.61093 14.9422 9.80491 14.9808C9.99889 15.0194 10.2 14.9996 10.3827 14.9239C10.5654 14.8482 10.7216 14.72 10.8315 14.5556C10.9414 14.3911 11 14.1978 11 14C11 13.7348 10.8946 13.4804 10.7071 13.2929C10.5196 13.1054 10.2652 13 10 13ZM10 9C9.80222 9 9.60888 9.05865 9.44443 9.16853C9.27998 9.27841 9.15181 9.43459 9.07612 9.61732C9.00043 9.80004 8.98063 10.0011 9.01921 10.1951C9.0578 10.3891 9.15304 10.5673 9.29289 10.7071C9.43275 10.847 9.61093 10.9422 9.80491 10.9808C9.99889 11.0194 10.2 10.9996 10.3827 10.9239C10.5654 10.8482 10.7216 10.72 10.8315 10.5556C10.9414 10.3911 11 10.1978 11 10C11 9.73478 10.8946 9.48043 10.7071 9.29289C10.5196 9.10536 10.2652 9 10 9ZM14 9C13.8022 9 13.6089 9.05865 13.4444 9.16853C13.28 9.27841 13.1518 9.43459 13.0761 9.61732C13.0004 9.80004 12.9806 10.0011 13.0192 10.1951C13.0578 10.3891 13.153 10.5673 13.2929 10.7071C13.4327 10.847 13.6109 10.9422 13.8049 10.9808C13.9989 11.0194 14.2 10.9996 14.3827 10.9239C14.5654 10.8482 14.7216 10.72 14.8315 10.5556C14.9414 10.3911 15 10.1978 15 10C15 9.73478 14.8946 9.48043 14.7071 9.29289C14.5196 9.10536 14.2652 9 14 9ZM21 13C21.2652 13 21.5196 12.8946 21.7071 12.7071C21.8946 12.5196 22 12.2652 22 12C22 11.7348 21.8946 11.4804 21.7071 11.2929C21.5196 11.1054 21.2652 11 21 11H19V9H21C21.2652 9 21.5196 8.89464 21.7071 8.70711C21.8946 8.51957 22 8.26522 22 8C22 7.73478 21.8946 7.48043 21.7071 7.29289C21.5196 7.10536 21.2652 7 21 7H18.82C18.6707 6.5806 18.4299 6.19969 18.1151 5.8849C17.8003 5.57011 17.4194 5.32932 17 5.18V3C17 2.73478 16.8946 2.48043 16.7071 2.29289C16.5196 2.10536 16.2652 2 16 2C15.7348 2 15.4804 2.10536 15.2929 2.29289C15.1054 2.48043 15 2.73478 15 3V5H13V3C13 2.73478 12.8946 2.48043 12.7071 2.29289C12.5196 2.10536 12.2652 2 12 2C11.7348 2 11.4804 2.10536 11.2929 2.29289C11.1054 2.48043 11 2.73478 11 3V5H9V3C9 2.73478 8.89464 2.48043 8.70711 2.29289C8.51957 2.10536 8.26522 2 8 2C7.73478 2 7.48043 2.10536 7.29289 2.29289C7.10536 2.48043 7 2.73478 7 3V5.18C6.5806 5.32932 6.19969 5.57011 5.8849 5.8849C5.57011 6.19969 5.32932 6.5806 5.18 7H3C2.73478 7 2.48043 7.10536 2.29289 7.29289C2.10536 7.48043 2 7.73478 2 8C2 8.26522 2.10536 8.51957 2.29289 8.70711C2.48043 8.89464 2.73478 9 3 9H5V11H3C2.73478 11 2.48043 11.1054 2.29289 11.2929C2.10536 11.4804 2 11.7348 2 12C2 12.2652 2.10536 12.5196 2.29289 12.7071C2.48043 12.8946 2.73478 13 3 13H5V15H3C2.73478 15 2.48043 15.1054 2.29289 15.2929C2.10536 15.4804 2 15.7348 2 16C2 16.2652 2.10536 16.5196 2.29289 16.7071C2.48043 16.8946 2.73478 17 3 17H5.18C5.32932 17.4194 5.57011 17.8003 5.8849 18.1151C6.19969 18.4299 6.5806 18.6707 7 18.82V21C7 21.2652 7.10536 21.5196 7.29289 21.7071C7.48043 21.8946 7.73478 22 8 22C8.26522 22 8.51957 21.8946 8.70711 21.7071C8.89464 21.5196 9 21.2652 9 21V19H11V21C11 21.2652 11.1054 21.5196 11.2929 21.7071C11.4804 21.8946 11.7348 22 12 22C12.2652 22 12.5196 21.8946 12.7071 21.7071C12.8946 21.5196 13 21.2652 13 21V19H15V21C15 21.2652 15.1054 21.5196 15.2929 21.7071C15.4804 21.8946 15.7348 22 16 22C16.2652 22 16.5196 21.8946 16.7071 21.7071C16.8946 21.5196 17 21.2652 17 21V18.82C17.4194 18.6707 17.8003 18.4299 18.1151 18.1151C18.4299 17.8003 18.6707 17.4194 18.82 17H21C21.2652 17 21.5196 16.8946 21.7071 16.7071C21.8946 16.5196 22 16.2652 22 16C22 15.7348 21.8946 15.4804 21.7071 15.2929C21.5196 15.1054 21.2652 15 21 15H19V13H21ZM17 16C17 16.2652 16.8946 16.5196 16.7071 16.7071C16.5196 16.8946 16.2652 17 16 17H8C7.73478 17 7.48043 16.8946 7.29289 16.7071C7.10536 16.5196 7 16.2652 7 16V8C7 7.73478 7.10536 7.48043 7.29289 7.29289C7.48043 7.10536 7.73478 7 8 7H16C16.2652 7 16.5196 7.10536 16.7071 7.29289C16.8946 7.48043 17 7.73478 17 8V16ZM14 13C13.8022 13 13.6089 13.0586 13.4444 13.1685C13.28 13.2784 13.1518 13.4346 13.0761 13.6173C13.0004 13.8 12.9806 14.0011 13.0192 14.1951C13.0578 14.3891 13.153 14.5673 13.2929 14.7071C13.4327 14.847 13.6109 14.9422 13.8049 14.9808C13.9989 15.0194 14.2 14.9996 14.3827 14.9239C14.5654 14.8482 14.7216 14.72 14.8315 14.5556C14.9414 14.3911 15 14.1978 15 14C15 13.7348 14.8946 13.4804 14.7071 13.2929C14.5196 13.1054 14.2652 13 14 13Z" fill="currentColor"/>
</svg>
