<svg width="24" height="24" viewBox="0 0 24 24" fill="none" xmlns="http://www.w3.org/2000/svg">
<path d="M17 6.05994C16.3065 6.0604 15.6345 6.30114 15.0985 6.74118C14.5625 7.18123 14.1954 7.7934 14.0599 8.47355C13.9243 9.1537 14.0286 9.85981 14.355 10.4717C14.6813 11.0837 15.2097 11.5636 15.85 11.8299C15.6978 12.1949 15.4408 12.5065 15.1115 12.7254C14.7822 12.9444 14.3954 13.0608 14 13.0599H10C9.29505 13.0629 8.604 13.2564 8.00001 13.6199V7.87994C8.66722 7.64405 9.22956 7.17987 9.58764 6.56946C9.94571 5.95905 10.0765 5.2417 9.9568 4.54421C9.83713 3.84671 9.47473 3.21398 8.93367 2.75784C8.3926 2.30169 7.70769 2.05151 7.00001 2.05151C6.29232 2.05151 5.60741 2.30169 5.06635 2.75784C4.52528 3.21398 4.16288 3.84671 4.04321 4.54421C3.92354 5.2417 4.0543 5.95905 4.41237 6.56946C4.77045 7.17987 5.33279 7.64405 6.00001 7.87994V16.2399C5.34099 16.4769 4.78566 16.937 4.43026 17.5405C4.07485 18.1439 3.94176 18.8527 4.05406 19.544C4.16635 20.2352 4.51695 20.8654 5.0451 21.3254C5.57325 21.7853 6.24567 22.0459 6.94581 22.0621C7.64596 22.0783 8.32971 21.8491 8.87857 21.4141C9.42744 20.9791 9.80683 20.3658 9.95099 19.6805C10.0952 18.9951 9.995 18.281 9.6679 17.6617C9.34079 17.0425 8.80735 16.5572 8.16001 16.2899C8.31158 15.9266 8.56704 15.616 8.89436 15.3972C9.22168 15.1784 9.60629 15.0611 10 15.0599H14C14.9148 15.0598 15.802 14.746 16.5135 14.171C17.225 13.5959 17.7179 12.7944 17.91 11.8999C18.5786 11.6728 19.1456 11.217 19.5113 10.613C19.8769 10.0089 20.0178 9.29524 19.9091 8.59754C19.8004 7.89984 19.449 7.26285 18.9169 6.79869C18.3848 6.33452 17.706 6.07292 17 6.05994ZM7.00001 4.05994C7.19779 4.05994 7.39113 4.11859 7.55558 4.22847C7.72003 4.33835 7.8482 4.49453 7.92389 4.67726C7.99957 4.85998 8.01938 5.06105 7.98079 5.25503C7.94221 5.44901 7.84697 5.6272 7.70711 5.76705C7.56726 5.9069 7.38908 6.00214 7.1951 6.04073C7.00112 6.07931 6.80005 6.05951 6.61732 5.98382C6.4346 5.90813 6.27842 5.77996 6.16854 5.61551C6.05866 5.45106 6.00001 5.25772 6.00001 5.05994C6.00001 4.79472 6.10536 4.54037 6.2929 4.35283C6.48044 4.1653 6.73479 4.05994 7.00001 4.05994ZM7.00001 20.0599C6.80222 20.0599 6.60889 20.0013 6.44444 19.8914C6.27999 19.7815 6.15181 19.6254 6.07613 19.4426C6.00044 19.2599 5.98064 19.0588 6.01922 18.8649C6.05781 18.6709 6.15305 18.4927 6.2929 18.3528C6.43275 18.213 6.61093 18.1177 6.80492 18.0792C6.9989 18.0406 7.19996 18.0604 7.38269 18.1361C7.56542 18.2117 7.72159 18.3399 7.83148 18.5044C7.94136 18.6688 8.00001 18.8622 8.00001 19.0599C8.00001 19.3252 7.89465 19.5795 7.70711 19.767C7.51958 19.9546 7.26522 20.0599 7.00001 20.0599ZM17 10.0599C16.8022 10.0599 16.6089 10.0013 16.4444 9.89141C16.28 9.78153 16.1518 9.62535 16.0761 9.44262C16.0004 9.2599 15.9806 9.05883 16.0192 8.86485C16.0578 8.67087 16.153 8.49269 16.2929 8.35283C16.4328 8.21298 16.6109 8.11774 16.8049 8.07916C16.9989 8.04057 17.2 8.06037 17.3827 8.13606C17.5654 8.21175 17.7216 8.33992 17.8315 8.50437C17.9414 8.66882 18 8.86216 18 9.05994C18 9.32516 17.8947 9.57951 17.7071 9.76705C17.5196 9.95458 17.2652 10.0599 17 10.0599Z" fill="currentColor"/>
</svg>
