<svg xmlns="http://www.w3.org/2000/svg" width="24" height="24" viewBox="0 0 24 24" fill="none">
  <path d="M9.29 13.29L4 18.59V17C4 16.7348 3.89464 16.4804 3.70711 16.2929C3.51957 16.1054 3.26522 16 3 16C2.73478 16 2.48043 16.1054 2.29289 16.2929C2.10536 16.4804 2 16.7348 2 17V21C2.00158 21.1307 2.02876 21.2598 2.08 21.38C2.18147 21.6243 2.37565 21.8185 2.62 21.92C2.74022 21.9712 2.86932 21.9984 3 22H7C7.26522 22 7.51957 21.8946 7.70711 21.7071C7.89464 21.5196 8 21.2652 8 21C8 20.7348 7.89464 20.4804 7.70711 20.2929C7.51957 20.1054 7.26522 20 7 20H5.41L10.71 14.71C10.8983 14.5217 11.0041 14.2663 11.0041 14C11.0041 13.7337 10.8983 13.4783 10.71 13.29C10.5217 13.1017 10.2663 12.9959 10 12.9959C9.7337 12.9959 9.4783 13.1017 9.29 13.29ZM5.41 4H7C7.26522 4 7.51957 3.89464 7.70711 3.70711C7.89464 3.51957 8 3.26522 8 3C8 2.73478 7.89464 2.48043 7.70711 2.29289C7.51957 2.10536 7.26522 2 7 2H3C2.86932 2.00158 2.74022 2.02876 2.62 2.08C2.37565 2.18147 2.18147 2.37565 2.08 2.62C2.02876 2.74022 2.00158 2.86932 2 3V7C2 7.26522 2.10536 7.51957 2.29289 7.70711C2.48043 7.89464 2.73478 8 3 8C3.26522 8 3.51957 7.89464 3.70711 7.70711C3.89464 7.51957 4 7.26522 4 7V5.41L9.29 10.71C9.38296 10.8037 9.49356 10.8781 9.61542 10.9289C9.73728 10.9797 9.86799 11.0058 10 11.0058C10.132 11.0058 10.2627 10.9797 10.3846 10.9289C10.5064 10.8781 10.617 10.8037 10.71 10.71C10.8037 10.617 10.8781 10.5064 10.9289 10.3846C10.9797 10.2627 11.0058 10.132 11.0058 10C11.0058 9.86799 10.9797 9.73728 10.9289 9.61542C10.8781 9.49356 10.8037 9.38296 10.71 9.29L5.41 4ZM21 16C20.7348 16 20.4804 16.1054 20.2929 16.2929C20.1054 16.4804 20 16.7348 20 17V18.59L14.71 13.29C14.5217 13.1017 14.2663 12.9959 14 12.9959C13.7337 12.9959 13.4783 13.1017 13.29 13.29C13.1017 13.4783 12.9959 13.7337 12.9959 14C12.9959 14.2663 13.1017 14.5217 13.29 14.71L18.59 20H17C16.7348 20 16.4804 20.1054 16.2929 20.2929C16.1054 20.4804 16 20.7348 16 21C16 21.2652 16.1054 21.5196 16.2929 21.7071C16.4804 21.8946 16.7348 22 17 22H21C21.1307 21.9984 21.2598 21.9712 21.38 21.92C21.6243 21.8185 21.8185 21.6243 21.92 21.38C21.9712 21.2598 21.9984 21.1307 22 21V17C22 16.7348 21.8946 16.4804 21.7071 16.2929C21.5196 16.1054 21.2652 16 21 16ZM21.92 2.62C21.8185 2.37565 21.6243 2.18147 21.38 2.08C21.2598 2.02876 21.1307 2.00158 21 2H17C16.7348 2 16.4804 2.10536 16.2929 2.29289C16.1054 2.48043 16 2.73478 16 3C16 3.26522 16.1054 3.51957 16.2929 3.70711C16.4804 3.89464 16.7348 4 17 4H18.59L13.29 9.29C13.1963 9.38296 13.1219 9.49356 13.0711 9.61542C13.0203 9.73728 12.9942 9.86799 12.9942 10C12.9942 10.132 13.0203 10.2627 13.0711 10.3846C13.1219 10.5064 13.1963 10.617 13.29 10.71C13.383 10.8037 13.4936 10.8781 13.6154 10.9289C13.7373 10.9797 13.868 11.0058 14 11.0058C14.132 11.0058 14.2627 10.9797 14.3846 10.9289C14.5064 10.8781 14.617 10.8037 14.71 10.71L20 5.41V7C20 7.26522 20.1054 7.51957 20.2929 7.70711C20.4804 7.89464 20.7348 8 21 8C21.2652 8 21.5196 7.89464 21.7071 7.70711C21.8946 7.51957 22 7.26522 22 7V3C21.9984 2.86932 21.9712 2.74022 21.92 2.62Z" fill="currentColor"/>
</svg>
