<svg xmlns="http://www.w3.org/2000/svg" width="24" height="24" viewBox="0 0 25 25" fill="none">
  <path d="M10.8696 23.3696V1.63043C10.8696 0.729971 11.5995 0 12.5 0C13.4005 0 14.1304 0.729971 14.1304 1.63043V23.3696C14.1304 24.27 13.4005 25 12.5 25C11.5995 25 10.8696 24.27 10.8696 23.3696Z" fill="currentColor"/>
  <path d="M1.63043 10.8641L23.3696 10.8641C24.27 10.8641 25 11.5941 25 12.4946C25 13.395 24.27 14.125 23.3696 14.125L1.63043 14.125C0.729971 14.125 -3.93605e-08 13.395 0 12.4946C3.93605e-08 11.5941 0.729971 10.8641 1.63043 10.8641Z" fill="currentColor"/>
</svg>
