<svg xmlns="http://www.w3.org/2000/svg" width="24" height="24" viewBox="0 0 12 14" fill="none">
  <path d="M9.79249 10.1936C10.2876 10.1936 10.6902 10.5962 10.6902 11.0913C10.6902 11.5864 10.2876 11.989 9.79249 11.989C9.29739 11.989 8.89478 11.5864 8.89478 11.0913C8.89478 10.5962 9.29739 10.1936 9.79249 10.1936ZM9.79249 9.10547C8.69891 9.10547 7.80664 9.99774 7.80664 11.0913C7.80664 12.1849 8.69891 13.0772 9.79249 13.0772C10.8861 13.0772 11.7783 12.1849 11.7783 11.0913C11.7783 9.99774 10.8861 9.10547 9.79249 9.10547Z" fill="currentColor"/>
  <path d="M2.23585 10.1936C2.73095 10.1936 3.13356 10.5962 3.13356 11.0913C3.13356 11.5864 2.73095 11.989 2.23585 11.989C1.74075 11.989 1.33814 11.5864 1.33814 11.0913C1.33814 10.5962 1.74075 10.1936 2.23585 10.1936ZM2.23585 9.10547C1.14227 9.10547 0.25 9.99774 0.25 11.0913C0.25 12.1849 1.14227 13.0772 2.23585 13.0772C3.32943 13.0772 4.2217 12.1849 4.2217 11.0913C4.2217 9.99774 3.32943 9.10547 2.23585 9.10547Z" fill="currentColor"/>
  <path d="M2.23585 2.16846C2.73095 2.16846 3.13356 2.57107 3.13356 3.06617C3.13356 3.56128 2.73095 3.96389 2.23585 3.96389C1.74075 3.96389 1.33814 3.56128 1.33814 3.06617C1.33814 2.57107 1.74075 2.16846 2.23585 2.16846ZM2.23585 1.08032C1.14227 1.08032 0.25 1.97259 0.25 3.06617C0.25 4.15975 1.14227 5.05202 2.23585 5.05202C3.32943 5.05202 4.2217 4.15975 4.2217 3.06617C4.2217 1.97259 3.32943 1.08032 2.23585 1.08032Z" fill="currentColor"/>
  <path d="M2.23633 9.17627V4.55713" stroke="currentColor" stroke-miterlimit="10"/>
  <path d="M9.79304 9.17605V4.33928C9.79304 3.63743 9.22176 3.06616 8.51992 3.06616H7.38281" stroke="currentColor" stroke-miterlimit="10"/>
  <path d="M7.38191 5.21531L5.23828 3.06624L7.38191 0.922607V5.21531Z" fill="currentColor"/>
</svg>
