<svg xmlns="http://www.w3.org/2000/svg" width="24" height="24" viewBox="0 0 24 24" fill="none">
  <path d="M17 22H5C4.20435 22 3.44129 21.6839 2.87868 21.1213C2.31607 20.5587 2 19.7956 2 19V8.99997C2 8.20432 2.31607 7.44125 2.87868 6.87864C3.44129 6.31604 4.20435 5.99997 5 5.99997H6C6.01682 5.1526 6.30235 4.33248 6.81541 3.65789C7.32848 2.98331 8.04255 2.48911 8.85464 2.2466C9.66673 2.00408 10.5349 2.02578 11.3338 2.30856C12.1328 2.59134 12.8213 3.12059 13.3 3.81997C13.7484 4.45911 13.9925 5.21923 14 5.99997H17C17.2652 5.99997 17.5196 6.10532 17.7071 6.29286C17.8946 6.48039 18 6.73475 18 6.99997V9.99997C18.8474 10.0168 19.6675 10.3023 20.3421 10.8154C21.0167 11.3284 21.5109 12.0425 21.7534 12.8546C21.9959 13.6667 21.9742 14.5348 21.6914 15.3338C21.4086 16.1328 20.8794 16.8212 20.18 17.3C19.5409 17.7484 18.7807 17.9925 18 18V21C18 21.2652 17.8946 21.5195 17.7071 21.7071C17.5196 21.8946 17.2652 22 17 22ZM5 7.99997C4.73478 7.99997 4.48043 8.10532 4.29289 8.29286C4.10536 8.48039 4 8.73475 4 8.99997V19C4 19.2652 4.10536 19.5195 4.29289 19.7071C4.48043 19.8946 4.73478 20 5 20H16V16.82C15.9991 16.6596 16.0368 16.5014 16.1099 16.3587C16.183 16.216 16.2894 16.093 16.42 16C16.5502 15.9071 16.7008 15.8468 16.8592 15.8242C17.0175 15.8016 17.179 15.8173 17.33 15.87C17.615 15.9862 17.9254 16.0262 18.2305 15.9858C18.5357 15.9455 18.825 15.8263 19.07 15.64C19.3139 15.4913 19.523 15.292 19.6834 15.0557C19.8439 14.8194 19.9518 14.5515 20 14.27C20.0386 13.986 20.0157 13.6971 19.9329 13.4228C19.85 13.1485 19.7092 12.8951 19.52 12.68C19.2641 12.3691 18.9155 12.1481 18.5252 12.0491C18.1349 11.9502 17.7231 11.9785 17.35 12.13C17.199 12.1827 17.0375 12.1983 16.8792 12.1757C16.7208 12.1531 16.5702 12.0928 16.44 12C16.3094 11.907 16.203 11.7839 16.1299 11.6412C16.0568 11.4985 16.0191 11.3403 16.02 11.18V7.99997H12.82C12.6557 8.00928 12.4915 7.97788 12.3422 7.90855C12.1929 7.83922 12.0631 7.7341 11.9641 7.60253C11.8652 7.47096 11.8003 7.317 11.7752 7.15432C11.75 6.99164 11.7654 6.82526 11.82 6.66997C11.9363 6.38497 11.9762 6.07459 11.9359 5.76945C11.8955 5.46431 11.7763 5.17496 11.59 4.92997C11.4424 4.67913 11.2402 4.46473 10.9984 4.30266C10.7566 4.14058 10.4815 4.03499 10.1934 3.99369C9.90527 3.95239 9.61155 3.97645 9.33399 4.06409C9.05644 4.15173 8.80216 4.3007 8.59 4.49997C8.39298 4.69538 8.23877 4.92966 8.1372 5.1879C8.03562 5.44614 7.9889 5.72269 8 5.99997C8.00232 6.22934 8.04637 6.45637 8.13 6.66997C8.18287 6.82118 8.19863 6.98289 8.17597 7.14147C8.1533 7.30005 8.09287 7.45087 7.99976 7.58122C7.90665 7.71158 7.78358 7.81765 7.64093 7.89053C7.49827 7.9634 7.34019 8.00093 7.18 7.99997H5Z" fill="currentColor"/>
</svg>
