<svg xmlns="http://www.w3.org/2000/svg" width="24" height="24" viewBox="0 0 24 24" fill="none">
  <path d="M9 15C8.80222 15 8.60888 15.0586 8.44443 15.1685C8.27998 15.2784 8.15181 15.4346 8.07612 15.6173C8.00043 15.8 7.98063 16.0011 8.01921 16.1951C8.0578 16.3891 8.15304 16.5673 8.29289 16.7071C8.43275 16.847 8.61093 16.9422 8.80491 16.9808C8.99889 17.0194 9.19996 16.9996 9.38268 16.9239C9.56541 16.8482 9.72159 16.72 9.83147 16.5556C9.94135 16.3911 10 16.1978 10 16C10 15.7348 9.89464 15.4804 9.70711 15.2929C9.51957 15.1054 9.26522 15 9 15ZM2 14C1.73478 14 1.48043 14.1054 1.29289 14.2929C1.10536 14.4804 1 14.7348 1 15V17C1 17.2652 1.10536 17.5196 1.29289 17.7071C1.48043 17.8946 1.73478 18 2 18C2.26522 18 2.51957 17.8946 2.70711 17.7071C2.89464 17.5196 3 17.2652 3 17V15C3 14.7348 2.89464 14.4804 2.70711 14.2929C2.51957 14.1054 2.26522 14 2 14ZM22 14C21.7348 14 21.4804 14.1054 21.2929 14.2929C21.1054 14.4804 21 14.7348 21 15V17C21 17.2652 21.1054 17.5196 21.2929 17.7071C21.4804 17.8946 21.7348 18 22 18C22.2652 18 22.5196 17.8946 22.7071 17.7071C22.8946 17.5196 23 17.2652 23 17V15C23 14.7348 22.8946 14.4804 22.7071 14.2929C22.5196 14.1054 22.2652 14 22 14ZM17 7H13V5.72C13.3023 5.54549 13.5536 5.29491 13.7291 4.99317C13.9045 4.69143 13.9979 4.34903 14 4C14 3.46957 13.7893 2.96086 13.4142 2.58579C13.0391 2.21071 12.5304 2 12 2C11.4696 2 10.9609 2.21071 10.5858 2.58579C10.2107 2.96086 10 3.46957 10 4C10.0021 4.34903 10.0955 4.69143 10.2709 4.99317C10.4464 5.29491 10.6977 5.54549 11 5.72V7H7C6.20435 7 5.44129 7.31607 4.87868 7.87868C4.31607 8.44129 4 9.20435 4 10V19C4 19.7956 4.31607 20.5587 4.87868 21.1213C5.44129 21.6839 6.20435 22 7 22H17C17.7956 22 18.5587 21.6839 19.1213 21.1213C19.6839 20.5587 20 19.7956 20 19V10C20 9.20435 19.6839 8.44129 19.1213 7.87868C18.5587 7.31607 17.7956 7 17 7ZM13.72 9L13.22 11H10.78L10.28 9H13.72ZM18 19C18 19.2652 17.8946 19.5196 17.7071 19.7071C17.5196 19.8946 17.2652 20 17 20H7C6.73478 20 6.48043 19.8946 6.29289 19.7071C6.10536 19.5196 6 19.2652 6 19V10C6 9.73478 6.10536 9.48043 6.29289 9.29289C6.48043 9.10536 6.73478 9 7 9H8.22L9 12.24C9.05475 12.4619 9.18385 12.6583 9.36579 12.7966C9.54774 12.9349 9.77157 13.0067 10 13H14C14.2284 13.0067 14.4523 12.9349 14.6342 12.7966C14.8162 12.6583 14.9452 12.4619 15 12.24L15.78 9H17C17.2652 9 17.5196 9.10536 17.7071 9.29289C17.8946 9.48043 18 9.73478 18 10V19ZM15 15C14.8022 15 14.6089 15.0586 14.4444 15.1685C14.28 15.2784 14.1518 15.4346 14.0761 15.6173C14.0004 15.8 13.9806 16.0011 14.0192 16.1951C14.0578 16.3891 14.153 16.5673 14.2929 16.7071C14.4327 16.847 14.6109 16.9422 14.8049 16.9808C14.9989 17.0194 15.2 16.9996 15.3827 16.9239C15.5654 16.8482 15.7216 16.72 15.8315 16.5556C15.9414 16.3911 16 16.1978 16 16C16 15.7348 15.8946 15.4804 15.7071 15.2929C15.5196 15.1054 15.2652 15 15 15Z" fill="currentColor"/>
</svg>
