<svg width="24" height="24" viewBox="0 0 24 24" fill="none" xmlns="http://www.w3.org/2000/svg">
<path d="M2.71996 7.64998C2.91552 7.7074 3.10351 7.78797 3.27996 7.88998C3.89978 8.25991 4.60814 8.45523 5.32996 8.45523C6.05178 8.45523 6.76015 8.25991 7.37996 7.88998C7.77042 7.66914 8.21137 7.55307 8.65996 7.55307C9.10855 7.55307 9.5495 7.66914 9.93996 7.88998C10.5673 8.24867 11.2773 8.43735 12 8.43735C12.7226 8.43735 13.4327 8.24867 14.06 7.88998C14.4504 7.66914 14.8914 7.55307 15.34 7.55307C15.7885 7.55307 16.2295 7.66914 16.62 7.88998C17.2537 8.25217 17.97 8.44503 18.7 8.44998C19.4051 8.44852 20.0966 8.25492 20.7 7.88998C20.8764 7.78797 21.0644 7.7074 21.26 7.64998C21.5146 7.57572 21.7292 7.40336 21.8568 7.17081C21.9843 6.93827 22.0142 6.66459 21.94 6.40998C21.8657 6.15537 21.6933 5.94069 21.4608 5.81317C21.2282 5.68564 20.9546 5.65572 20.7 5.72998C20.3494 5.83818 20.0135 5.98932 19.7 6.17998C19.3814 6.36627 19.019 6.46446 18.65 6.46446C18.2809 6.46446 17.9185 6.36627 17.6 6.17998C16.9066 5.79105 16.1249 5.58679 15.33 5.58679C14.535 5.58679 13.7533 5.79105 13.06 6.17998C12.738 6.36703 12.3723 6.46556 12 6.46556C11.6276 6.46556 11.2619 6.36703 10.94 6.17998C10.2466 5.79105 9.46495 5.58679 8.66996 5.58679C7.87497 5.58679 7.09332 5.79105 6.39996 6.17998C6.08139 6.36627 5.719 6.46446 5.34996 6.46446C4.98092 6.46446 4.61853 6.36627 4.29996 6.17998C3.98645 5.98932 3.65057 5.83818 3.29996 5.72998C3.04535 5.65572 2.77167 5.68564 2.53913 5.81317C2.30658 5.94069 2.13422 6.15537 2.05996 6.40998C1.9857 6.66459 2.01562 6.93827 2.14315 7.17081C2.27067 7.40336 2.48535 7.57572 2.73996 7.64998H2.71996ZM20.72 15.73C20.3694 15.8382 20.0335 15.9893 19.72 16.18C19.4014 16.3663 19.039 16.4645 18.67 16.4645C18.3009 16.4645 17.9385 16.3663 17.62 16.18C16.9266 15.7911 16.1449 15.5868 15.35 15.5868C14.555 15.5868 13.7733 15.7911 13.08 16.18C12.758 16.367 12.3923 16.4656 12.02 16.4656C11.6476 16.4656 11.2819 16.367 10.96 16.18C10.2666 15.7911 9.48495 15.5868 8.68996 15.5868C7.89497 15.5868 7.11332 15.7911 6.41996 16.18C6.10139 16.3663 5.739 16.4645 5.36996 16.4645C5.00092 16.4645 4.63853 16.3663 4.31996 16.18C4.00645 15.9893 3.67057 15.8382 3.31996 15.73C3.19389 15.6932 3.06182 15.6816 2.93127 15.6959C2.80073 15.7102 2.67427 15.75 2.55913 15.8132C2.44398 15.8763 2.3424 15.9615 2.26019 16.0639C2.17797 16.1663 2.11673 16.2839 2.07996 16.41C2.04319 16.536 2.03161 16.6681 2.04589 16.7987C2.06016 16.9292 2.1 17.0557 2.16315 17.1708C2.22629 17.286 2.3115 17.3875 2.4139 17.4698C2.5163 17.552 2.63389 17.6132 2.75996 17.65C2.95552 17.7074 3.14351 17.788 3.31996 17.89C3.93978 18.2599 4.64814 18.4552 5.36996 18.4552C6.09178 18.4552 6.80015 18.2599 7.41996 17.89C7.81042 17.6691 8.25137 17.5531 8.69996 17.5531C9.14855 17.5531 9.5895 17.6691 9.97996 17.89C10.6073 18.2487 11.3173 18.4374 12.04 18.4374C12.7626 18.4374 13.4727 18.2487 14.1 17.89C14.4904 17.6691 14.9314 17.5531 15.38 17.5531C15.8285 17.5531 16.2695 17.6691 16.66 17.89C17.2937 18.2522 18.01 18.445 18.74 18.45C19.4451 18.4485 20.1366 18.2549 20.74 17.89C20.9164 17.788 21.1044 17.7074 21.3 17.65C21.5546 17.5757 21.7692 17.4034 21.8968 17.1708C22.0243 16.9383 22.0542 16.6646 21.98 16.41C21.9057 16.1554 21.7333 15.9407 21.5008 15.8132C21.2682 15.6856 20.9946 15.6557 20.74 15.73H20.72ZM20.72 10.73C20.3694 10.8382 20.0335 10.9893 19.72 11.18C19.4014 11.3663 19.039 11.4645 18.67 11.4645C18.3009 11.4645 17.9385 11.3663 17.62 11.18C16.9266 10.7911 16.1449 10.5868 15.35 10.5868C14.555 10.5868 13.7733 10.7911 13.08 11.18C12.758 11.367 12.3923 11.4656 12.02 11.4656C11.6476 11.4656 11.2819 11.367 10.96 11.18C10.2666 10.7911 9.48495 10.5868 8.68996 10.5868C7.89497 10.5868 7.11332 10.7911 6.41996 11.18C6.10139 11.3663 5.739 11.4645 5.36996 11.4645C5.00092 11.4645 4.63853 11.3663 4.31996 11.18C4.00645 10.9893 3.67057 10.8382 3.31996 10.73C3.18902 10.6805 3.04917 10.6591 2.90944 10.6672C2.76971 10.6752 2.63322 10.7125 2.5088 10.7766C2.38438 10.8406 2.2748 10.9301 2.18715 11.0393C2.0995 11.1484 2.03573 11.2747 1.99996 11.41C1.96319 11.536 1.95161 11.6681 1.96589 11.7987C1.98016 11.9292 2.02 12.0557 2.08315 12.1708C2.14629 12.286 2.2315 12.3875 2.3339 12.4698C2.4363 12.552 2.55389 12.6132 2.67996 12.65C2.87552 12.7074 3.06351 12.788 3.23996 12.89C3.85978 13.2599 4.56814 13.4552 5.28996 13.4552C6.01178 13.4552 6.72015 13.2599 7.33996 12.89C7.73042 12.6691 8.17137 12.5531 8.61996 12.5531C9.06855 12.5531 9.5095 12.6691 9.89996 12.89C10.5273 13.2487 11.2373 13.4374 11.96 13.4374C12.6826 13.4374 13.3927 13.2487 14.02 12.89C14.4104 12.6691 14.8514 12.5531 15.3 12.5531C15.7485 12.5531 16.1895 12.6691 16.58 12.89C17.2137 13.2522 17.93 13.445 18.66 13.45C19.3651 13.4485 20.0566 13.2549 20.66 12.89C20.8364 12.788 21.0244 12.7074 21.22 12.65C21.4746 12.5757 21.6892 12.4034 21.8168 12.1708C21.9443 11.9383 21.9742 11.6646 21.9 11.41C21.8257 11.1554 21.6533 10.9407 21.4208 10.8132C21.1882 10.6856 20.9146 10.6557 20.66 10.73H20.72Z" fill="currentColor"/>
</svg>
