<svg xmlns="http://www.w3.org/2000/svg" width="24" height="21" viewBox="0 0 24 21" fill="none">
  <path d="M3 1.5C2.17157 1.5 1.5 2.17157 1.5 3V15C1.5 15.8284 2.17157 16.5 3 16.5H11.25C11.6642 16.5 12 16.8358 12 17.25C12 17.6642 11.6642 18 11.25 18H3C1.34315 18 0 16.6569 0 15V3C0 1.34315 1.34315 0 3 0H19.5C21.1569 0 22.5 1.34315 22.5 3V9C22.5 9.41421 22.1642 9.75 21.75 9.75C21.3358 9.75 21 9.41421 21 9V3C21 2.17157 20.3284 1.5 19.5 1.5H3Z" fill="currentColor"/>
  <path d="M4.71967 4.71967C5.01256 4.42678 5.48744 4.42678 5.78033 4.71967L7.76517 6.7045C8.2045 7.14384 8.2045 7.85616 7.76517 8.2955L5.78033 10.2803C5.48744 10.5732 5.01256 10.5732 4.71967 10.2803C4.42678 9.98744 4.42678 9.51256 4.71967 9.21967L6.43934 7.5L4.71967 5.78033C4.42678 5.48744 4.42678 5.01256 4.71967 4.71967Z" fill="currentColor"/>
  <path d="M8.25 10.5C8.25 10.0858 8.58579 9.75 9 9.75H12C12.4142 9.75 12.75 10.0858 12.75 10.5C12.75 10.9142 12.4142 11.25 12 11.25H9C8.58579 11.25 8.25 10.9142 8.25 10.5Z" fill="currentColor"/>
  <path d="M24 15.75C24 18.6495 21.6495 21 18.75 21C15.8505 21 13.5 18.6495 13.5 15.75C13.5 12.8505 15.8505 10.5 18.75 10.5C21.6495 10.5 24 12.8505 24 15.75ZM18.75 12.75C18.3358 12.75 18 13.0858 18 13.5V15H16.5C16.0858 15 15.75 15.3358 15.75 15.75C15.75 16.1642 16.0858 16.5 16.5 16.5H18V18C18 18.4142 18.3358 18.75 18.75 18.75C19.1642 18.75 19.5 18.4142 19.5 18V16.5H21C21.4142 16.5 21.75 16.1642 21.75 15.75C21.75 15.3358 21.4142 15 21 15H19.5V13.5C19.5 13.0858 19.1642 12.75 18.75 12.75Z" fill="currentColor"/>
</svg>
