<svg width="103" height="126" viewBox="0 0 103 126" fill="none" xmlns="http://www.w3.org/2000/svg">
<path d="M91.2971 58.4712C87.0201 58.7319 83.5645 59.6575 76.4645 71.6195C74.699 74.5942 74.3402 76.7332 73.075 79.4383C72.518 75.5199 70.7335 48.109 76.7194 25.2187C78.6266 17.9301 74.5101 14.3172 70.7902 13.8679C66.6926 13.3736 61.0372 13.6702 57.1284 28.3822H57.0812L57.1378 27.9598C57.4683 21.2014 58.7334 12.7085 58.7334 12.7085C59.8759 4.55717 55.9671 3.45174 53.1063 3.01137C44.2125 2.65188 38.151 10.7493 36.9803 36.938H36.9614C36.5554 27.4565 37.7167 19.9073 37.7167 19.9073C38.7647 12.6187 36.4044 9.85061 33.8457 8.96088C28.0203 6.92978 25.1785 11.5043 23.7906 14.2813C19.8629 22.1181 18.8149 31.7344 19.0037 40.425L18.9471 40.3621C19.3342 32.031 14.6795 25.9826 7.95722 30.0987C1.2349 34.2238 2.92492 49.4481 4.0579 58.633C4.79433 64.5555 5.77624 70.3253 4.73768 77.2544C0.810031 117.104 27.9543 122.685 46.063 122.945C68.4204 123.889 80.4677 112.466 84.9618 102.176C90.3812 89.7556 91.061 82.9523 93.7707 77.7308C97.2452 71.0173 99.7755 70.1815 99.9927 65.4093C100.21 60.6371 95.574 58.2106 91.3254 58.4622L91.2971 58.4712Z" fill="#FFE165"/>
<path d="M100.173 58.5206C97.9124 56.4081 94.5117 55.2843 91.0546 55.4821C85.5156 55.8147 81.5874 57.7475 75.5492 67.1868C75.389 56.3901 76.0202 40.1815 79.7317 25.9238C81.1259 20.5659 79.7223 17.0689 78.2904 15.0821C76.6231 12.7628 74.0326 11.2345 71.1689 10.8929C68.5595 10.5783 65.1495 10.5603 61.8242 13.1673C61.8242 13.1314 61.8336 13.0864 61.8336 13.0864C62.9075 5.42715 60.138 1.04015 53.6099 0.0512766L53.2519 0.0153176C49.2296 -0.155488 45.7818 1.10308 43.0029 3.74607C41.5146 5.15746 40.224 6.98238 39.103 9.23881C37.8502 7.4858 36.2393 6.59582 34.9676 6.14633C27.1961 3.42243 22.9006 9.25679 21.0354 12.9785C18.8688 17.3116 17.5217 22.1661 16.7681 27.1194C16.608 27.0205 16.4572 26.9217 16.2971 26.8318C14.5827 25.8878 11.0125 24.7371 6.3778 27.5869C-1.47852 32.4234 -0.47999 46.3215 1.08374 58.9791C1.16852 59.6533 1.2533 60.3186 1.33808 60.9928C2.0069 66.1799 2.63804 71.0793 1.7714 76.8418L1.75256 76.9856C0.179413 92.9784 3.33513 105.285 11.1349 113.583C18.6333 121.566 30.3801 125.719 45.9514 125.944C47.0912 125.989 48.2028 126.007 49.2861 125.998C75.8883 125.764 85.4308 108.728 87.7764 103.335C90.8097 96.3585 92.3828 91.1535 93.6357 86.9642C94.6059 83.7279 95.3784 81.1748 96.4711 79.0532C97.7146 76.644 98.8073 75.0798 99.7681 73.6953C101.407 71.34 102.82 69.3083 102.99 65.5326C103.112 62.7998 102.133 60.3725 100.145 58.5206H100.173ZM47.4209 7.97125C48.9187 6.55087 50.6426 5.92159 52.828 5.96654C54.7215 6.2632 56.4359 6.7037 55.6541 12.2773C55.5975 12.6279 54.3729 20.9974 54.0432 27.8116C54.0432 27.8566 54.0432 27.9015 54.0432 27.9465C52.3194 34.5989 50.8781 44.182 50.1056 58.188C46.7615 58.3858 43.4268 58.7274 40.1863 59.1769C39.1407 30.7603 41.5617 13.5269 47.4115 7.97125H47.4209ZM26.6874 15.5496C29.033 10.8749 31.0018 11.1087 32.8293 11.7469C35.3633 12.6369 34.9676 17.4644 34.6756 19.4691C34.6285 19.7928 33.4981 27.3172 33.8937 36.8913C33.6017 43.6066 33.6394 51.3468 33.988 60.2017C30.8888 60.7861 27.9497 61.4603 25.265 62.1885C23.9933 58.1071 18.3695 32.1807 26.6874 15.5586V15.5496ZM94.5871 70.3961C93.5697 71.8524 92.3074 73.6684 90.885 76.4192C89.538 79.0173 88.709 81.8041 87.6445 85.3191C86.4293 89.3555 84.9127 94.3808 82.0208 101.042C79.9672 105.753 71.3384 121.053 46.1398 119.975C32.0945 119.777 22.1658 116.379 15.7884 109.591C9.21323 102.597 6.58504 91.8277 7.96979 77.5969C8.93063 71.0883 8.22413 65.5776 7.53647 60.2557C7.45169 59.5904 7.36691 58.9342 7.28213 58.2689C6.52852 52.1289 4.51263 35.8125 9.7596 32.5852C11.1726 31.7132 12.3313 31.5154 13.1885 31.9829C14.6486 32.783 16.1181 35.6957 15.9109 40.2085C15.9015 40.4512 15.9297 40.685 15.9768 40.9187C16.2406 51.4367 18.2094 60.5883 19.3304 64.0224C17.4935 64.6786 15.8732 65.3618 14.5167 66.0451C12.9907 66.8182 12.4161 68.6161 13.2262 70.0725C13.7914 71.0883 14.8841 71.6637 16.0145 71.6547C16.4949 71.6547 16.9848 71.5378 17.4464 71.3041C25.0672 67.4475 43.1442 63.5279 59.0735 63.9505C60.8068 63.9774 62.2292 62.7009 62.2763 61.0558C62.3234 59.4106 60.967 58.0442 59.2431 57.9992C58.2917 57.9723 57.3308 57.9723 56.37 57.9723C57.962 29.7265 62.3423 20.512 65.7523 17.7881C67.1654 16.6643 68.5124 16.5744 70.3776 16.7992C70.8957 16.8621 72.1956 17.1498 73.1282 18.4443C74.1362 19.8557 74.3246 21.9413 73.6652 24.4764C67.9001 46.6002 69.2001 72.6166 69.8595 78.9274C69.7464 79.1431 69.6428 79.3589 69.5204 79.5836C68.1733 82.0019 65.6676 84.519 62.6814 84.3482C60.9764 84.2673 59.4786 85.5079 59.375 87.144C59.2714 88.7891 60.5807 90.2005 62.3046 90.2994C67.3538 90.5871 72.1109 87.6295 75.0311 82.3884C75.3419 81.8311 75.6057 81.3007 75.8412 80.7883C75.8601 80.7523 75.8789 80.7074 75.8977 80.6714C76.4441 79.5027 76.8397 78.433 77.1883 77.471C77.7346 75.9787 78.2056 74.6842 79.1476 73.084C85.8359 61.7749 88.5489 61.6131 91.422 61.4423C93.1082 61.3434 94.7849 61.8558 95.774 62.7908C96.4805 63.447 96.7914 64.2651 96.7443 65.2899C96.6501 67.4025 96.0378 68.2835 94.5588 70.4051L94.5871 70.3961Z" fill="#1A1C21"/>
</svg>
