<svg width="88" height="104" viewBox="0 0 88 104" fill="none" xmlns="http://www.w3.org/2000/svg">
  <g clip-path="url(#clip0_8467_30797)">
    <path
      d="M74.1747 56.6311C73.5609 56.6016 72.9881 56.2174 72.7425 55.6026C72.4064 54.7604 72.8098 53.7999 73.6428 53.457C76.361 52.3488 79.3422 51.7784 82.2621 51.8109C83.1594 51.8227 83.8843 52.5675 83.8726 53.4777C83.8609 54.388 83.1244 55.118 82.2241 55.1061C79.731 55.0766 77.1852 55.5642 74.8616 56.51C74.6365 56.6016 74.3998 56.64 74.1718 56.6282L74.1747 56.6311Z"
      fill="white" />
    <path
      d="M70.8756 52.133C70.5424 52.1152 70.2092 51.997 69.9315 51.7665C69.2329 51.1931 69.1248 50.1558 69.6918 49.4495C72.1294 46.4084 74.8184 43.5387 77.6916 40.9143C78.358 40.3055 79.3897 40.3557 79.9918 41.0325C80.5939 41.7064 80.5413 42.7496 79.8749 43.3584C77.1274 45.8675 74.5525 48.6131 72.223 51.5212C71.8839 51.9468 71.3783 52.1536 70.8756 52.13V52.133Z"
      fill="white" />
    <path
      d="M66.1371 48.9823C65.8916 48.9704 65.646 48.9025 65.4181 48.7695C64.6347 48.3232 64.36 47.3154 64.8013 46.5234C66.1868 44.0438 67.0344 41.2391 67.2507 38.4108C67.3208 37.5035 68.11 36.8238 69.0014 36.8947C69.8987 36.9657 70.571 37.7577 70.5008 38.665C70.2465 41.9721 69.2586 45.2496 67.6394 48.1459C67.3267 48.7074 66.7362 49.0118 66.14 48.9823H66.1371Z"
      fill="white" />
    <path
      d="M29.8105 34.0286C30.5938 34.4394 31.269 35.1191 31.8944 35.7722L38.1902 43.3085C36.8749 44.7211 35.545 46.1575 34.639 47.8686C34.2473 48.6104 33.9141 49.4291 33.2535 49.9433C32.5433 50.493 31.5963 50.5817 30.7136 50.7265C29.4802 50.9334 28.276 51.2939 27.1332 51.8052C27.1332 51.8052 19.7297 45.395 19.4023 43.8818C19.4023 43.8818 29.2142 33.7182 29.8105 34.0315V34.0286Z"
      fill="#CF8329" />
    <path
      d="M29.1701 35.1662C29.3776 35.2785 29.5676 35.4085 29.7634 35.5385C29.9593 35.6686 29.5413 35.3376 29.8453 35.6065C29.9447 35.6922 30.044 35.7779 30.1405 35.8666C30.4298 36.1296 30.7192 36.4074 30.9793 36.7C31.0582 36.7887 31.1313 36.8803 31.2073 36.9719L32.5693 38.6033C33.8232 40.1046 35.08 41.6089 36.3339 43.1102C36.6467 43.4856 36.9594 43.8609 37.2751 44.2362V42.3832C36.3485 43.3792 35.4395 44.387 34.627 45.4834C34.2441 46.0006 33.8875 46.5355 33.5806 47.1C33.4316 47.3749 33.2942 47.6586 33.1481 47.9364C33.075 48.0753 33.0019 48.2112 32.9201 48.3442C32.8938 48.3885 32.6512 48.7461 32.7973 48.554C32.7184 48.6575 32.6219 48.7462 32.5343 48.8437C32.4115 48.9501 32.4057 48.9619 32.5196 48.8703C32.4553 48.9146 32.391 48.956 32.3238 48.9944C32.2566 49.0328 32.0082 49.1481 32.2186 49.0624C32.0754 49.1215 31.9263 49.1629 31.7773 49.2013C31.2365 49.3431 30.6783 49.3993 30.1317 49.5027C28.872 49.7362 27.6649 50.147 26.4928 50.6642L28.0507 50.877C25.7767 48.9087 23.4852 46.8813 21.4831 44.6263C21.3399 44.4638 21.1967 44.2983 21.0593 44.1298C20.9979 44.053 20.9395 43.9762 20.8781 43.8993C20.7758 43.7752 21.1061 44.2126 20.9833 44.0412C20.957 44.0028 20.9278 43.9643 20.9015 43.9289C20.8167 43.8077 20.7349 43.6836 20.6647 43.5535C20.6413 43.5092 20.6238 43.4501 20.5917 43.4087C20.7963 43.6954 20.6998 43.7279 20.6589 43.5476L20.3228 44.8066C21.4013 43.6895 22.4915 42.5812 23.5875 41.4789C25.3734 39.682 27.1592 37.8762 29.0473 36.1887C29.2373 36.0173 29.4302 35.8488 29.6261 35.6833C29.7108 35.6095 29.7985 35.5385 29.8862 35.4676C29.9213 35.4381 29.9563 35.4115 29.9914 35.3849C30.1639 35.24 29.6816 35.6124 29.854 35.4912C29.971 35.4085 30.0879 35.3287 30.2048 35.2489C30.4181 35.107 30.0849 35.2903 30.0353 35.308C30.0499 35.3021 30.0645 35.2991 30.0762 35.2962C29.7664 35.3789 29.4916 35.311 29.173 35.1721C29.7927 35.444 30.5994 35.3553 30.9413 34.6785C31.2336 34.1022 31.1196 33.186 30.4532 32.8905C29.477 32.459 28.7785 33.0294 28.0507 33.6175C27.3697 34.1672 26.7296 34.7701 26.0924 35.3701C24.403 36.9601 22.7633 38.6033 21.1324 40.2553C20.2497 41.1479 19.3261 42.0197 18.4902 42.9566C17.4964 44.0737 18.762 45.4539 19.4898 46.2991C20.2585 47.1887 21.0973 48.0162 21.942 48.8289C23.3333 50.1677 24.7625 51.471 26.221 52.7359C26.7003 53.1497 27.2147 53.197 27.7788 52.9487C27.8578 52.9132 27.9367 52.8778 28.0156 52.8453C27.9045 52.8896 27.9191 52.8837 28.0624 52.8275C28.2027 52.7743 28.343 52.7182 28.4862 52.6679C28.7697 52.5645 29.0561 52.4729 29.3484 52.3872C29.9447 52.2128 30.5526 52.0798 31.1635 51.9793C32.4086 51.7754 33.6771 51.5183 34.5539 50.5135C35.4308 49.5086 35.878 48.2024 36.6437 47.1148C36.67 47.0764 36.9652 46.6774 36.8425 46.8399C36.9272 46.7306 37.012 46.6212 37.0997 46.5148C37.3014 46.2636 37.5089 46.0154 37.7193 45.773C38.1724 45.2499 38.6429 44.7446 39.1135 44.2392C39.625 43.6895 39.5782 42.9418 39.1135 42.3862C37.1172 39.9982 35.1239 37.6103 33.1276 35.2223C32.3706 34.318 31.4937 33.4579 30.4561 32.8935C29.8599 32.5684 29.0123 32.7457 28.6878 33.387C28.3634 34.0283 28.5359 34.8263 29.176 35.175L29.1701 35.1662Z"
      fill="#231F20" />
    <path
      d="M29.2868 6.20326C28.7373 6.80615 28.5094 7.66322 28.749 8.44639C29.7779 11.786 26.4108 17.5342 23.7072 17.4692C19.3873 17.3687 3.92852 19.7714 1.53766 40.4148C0.982323 45.2025 2.83246 56.1847 3.70931 60.3755C3.91683 61.3626 4.7206 62.1073 5.70851 62.2314C7.16407 62.4147 8.42088 61.2148 8.33319 59.7341C7.83047 51.3615 8.29227 37.9086 19.9426 47.3865C20.8662 48.1372 22.2019 48.0604 23.0466 47.2181L32.7007 37.5658C33.5161 36.7501 33.6272 35.4586 32.9608 34.5129C31.0493 31.791 28.3106 25.9245 35.2347 20.7851C35.9304 20.2679 37.6519 19.0119 39.5722 19.532C40.3321 19.7389 41.1447 19.5793 41.7351 19.0503L45.8884 15.3295C46.7214 14.5847 46.9172 13.3553 46.3677 12.3771C44.1932 8.52028 39.8674 4.06947 35.7521 1.74358C34.8139 1.21161 33.633 1.41553 32.9053 2.21644L29.2839 6.19734L29.2868 6.20326Z"
      fill="#C9C7C7" />
    <path
      d="M28.2728 5.17518C27.3462 6.23912 27.0247 7.5454 27.393 8.9167C27.4368 9.0822 27.4661 9.25066 27.4982 9.41911C27.5274 9.56688 27.4777 9.21815 27.4748 9.23588C27.4748 9.28317 27.4865 9.34227 27.4894 9.3866C27.4982 9.49004 27.5011 9.59053 27.5041 9.69396C27.507 9.86538 27.5041 10.0368 27.4924 10.2082C27.4865 10.3028 27.4748 10.3973 27.469 10.4919C27.4573 10.6131 27.393 10.6456 27.4865 10.3678C27.469 10.418 27.469 10.4801 27.4602 10.5333C27.3959 10.9264 27.3024 11.3135 27.1855 11.6948C27.127 11.8898 27.0598 12.0819 26.9896 12.274C26.9721 12.3243 26.9341 12.3893 26.9253 12.4395C26.9253 12.4454 27.0481 12.1528 26.9838 12.2947C26.9341 12.4011 26.8903 12.5104 26.8435 12.6168C26.6681 13.004 26.4694 13.3793 26.2531 13.7428C26.1566 13.9024 26.0573 14.0591 25.952 14.2157C25.8965 14.2985 25.841 14.3783 25.7825 14.458C25.7504 14.5024 25.7124 14.5467 25.6831 14.594C25.7094 14.5526 25.8936 14.3251 25.765 14.4817C25.5282 14.7684 25.2886 15.0491 25.0197 15.3062C24.9349 15.386 24.6631 15.5456 24.6309 15.6491C24.6339 15.6402 24.9524 15.4156 24.7683 15.5427C24.7391 15.5634 24.7128 15.584 24.6835 15.6047C24.6075 15.6579 24.5345 15.7082 24.4556 15.7555C24.327 15.8353 24.1808 15.8885 24.0551 15.9712C23.9441 16.0421 24.2743 15.8855 24.2568 15.8914C24.2188 15.9003 24.1808 15.921 24.1428 15.9357C24.0668 15.9594 23.9908 15.986 23.9148 16.0037C23.8593 16.0185 23.8008 16.0244 23.7453 16.0392C23.5612 16.0894 24.1136 16.0274 23.8564 16.0214C23.757 16.0214 23.6576 16.0214 23.5583 16.0214C22.6522 16.0126 21.752 16.1101 20.8547 16.2313C18.3644 16.5711 15.9356 17.3543 13.6821 18.4685C10.733 19.9255 8.08197 22.0652 6.04769 24.6689C3.27687 28.2124 1.54656 32.4268 0.660951 36.8392C0.25468 38.8193 -0.0229867 40.8289 0.000395797 42.8563C0.0208555 44.6325 0.169919 46.4058 0.359902 48.1701C0.754481 51.8555 1.31566 55.5261 2.00544 59.1642C2.13113 59.8262 2.21004 60.5502 2.45556 61.1797C3.01381 62.622 4.23555 63.5411 5.75833 63.6859C6.91869 63.7952 8.17258 63.2396 8.89159 62.3146C9.29201 61.7974 9.60768 61.2152 9.70413 60.5561C9.77428 60.0715 9.75966 59.6252 9.73336 59.1405C9.66029 57.7278 9.62229 56.3122 9.6486 54.8966C9.66321 54.1755 9.69244 53.4514 9.74505 52.7332C9.77135 52.3875 9.80058 52.0387 9.83858 51.6929C9.84735 51.6072 9.85612 51.5215 9.86781 51.4358C9.89704 51.1964 9.89704 51.2851 9.86196 51.4772C9.89411 51.2999 9.91165 51.1196 9.93795 50.9423C10.0373 50.295 10.163 49.6537 10.3325 49.0213C10.4115 48.7316 10.4962 48.445 10.5956 48.1613C10.6424 48.0253 10.7037 47.8923 10.7447 47.7564C10.7447 47.7475 10.5868 48.1287 10.6716 47.9366C10.6833 47.91 10.695 47.8805 10.7067 47.8539C10.7388 47.78 10.771 47.7091 10.8031 47.6382C10.9142 47.3958 11.0369 47.1594 11.1743 46.9318C11.2386 46.8225 11.3088 46.7161 11.3818 46.6097C11.4169 46.5594 11.4578 46.5092 11.49 46.459C11.5134 46.4205 11.2415 46.7663 11.3351 46.6629C11.3643 46.6304 11.3906 46.5949 11.4169 46.5594C11.5689 46.3762 11.7326 46.2048 11.9109 46.0482C11.9547 46.0097 12.0015 45.9743 12.0453 45.9358C12.1242 45.862 11.6858 46.19 11.9167 46.0393C12.019 45.9713 12.1213 45.9033 12.2294 45.8442C12.323 45.791 12.4194 45.7497 12.5159 45.7024C12.6854 45.6167 12.1359 45.8383 12.3785 45.7615C12.4428 45.7408 12.5042 45.7172 12.5685 45.6994C12.6825 45.664 12.7965 45.6374 12.9134 45.6137C12.9718 45.6019 13.0361 45.5989 13.0946 45.5842C12.9368 45.6255 12.7322 45.6226 12.9952 45.6019C13.2583 45.5812 13.5242 45.6019 13.7902 45.6196C13.9977 45.6344 13.4219 45.5576 13.6967 45.6078C13.7698 45.6196 13.8428 45.6314 13.913 45.6462C14.0767 45.6787 14.2374 45.7172 14.3952 45.7615C14.5414 45.8029 14.6875 45.8501 14.8337 45.8974C14.9155 45.927 14.9973 45.9565 15.0763 45.9861C15.123 46.0038 15.1698 46.0245 15.2166 46.0422C15.3832 46.1043 14.9243 45.9122 15.0879 45.989C15.4562 46.1664 15.8274 46.3319 16.184 46.5299C16.5757 46.7486 16.9585 46.985 17.3327 47.2362C17.5373 47.3722 17.7419 47.514 17.9435 47.6588C18.0488 47.7357 18.154 47.8096 18.2563 47.8894C18.303 47.9219 18.3469 47.9573 18.3936 47.9898C18.4287 48.0164 18.6859 48.2145 18.5164 48.0844C18.3673 47.9692 18.5252 48.0933 18.5486 48.111C18.6099 48.1613 18.6742 48.2115 18.7356 48.2617C18.8262 48.3327 18.9168 48.4066 19.0074 48.4775C19.3348 48.7346 19.6212 48.9178 20.0012 49.0745C20.6588 49.3464 21.3311 49.3966 22.0296 49.2961C22.8188 49.1838 23.5349 48.7671 24.099 48.2085C24.5637 47.7505 25.0197 47.2865 25.4815 46.8284C27.3141 44.996 29.1467 43.1667 30.9764 41.3343L33.148 39.1621C33.8436 38.4646 34.5159 37.7701 34.7292 36.7476C34.9689 35.6038 34.7 34.5369 34.057 33.5853C33.7735 33.1656 33.5104 32.7312 33.2737 32.282C33.1422 32.0308 33.0165 31.7736 32.8996 31.5106C32.8703 31.4456 32.844 31.3806 32.8148 31.3156C32.7213 31.0998 32.8265 31.3333 32.8616 31.4367C32.8119 31.289 32.7505 31.1441 32.6979 30.9964C32.4933 30.4083 32.3618 29.8142 32.2536 29.2025C32.2127 28.9719 32.2887 29.5601 32.2624 29.2704C32.2536 29.1906 32.2449 29.1138 32.239 29.034C32.2244 28.8626 32.2156 28.6941 32.2127 28.5227C32.2069 28.1947 32.2244 27.8725 32.2536 27.5445C32.2828 27.2164 32.2069 27.8253 32.2478 27.5918C32.2624 27.509 32.2741 27.4263 32.2887 27.3406C32.3208 27.1603 32.3618 26.98 32.4056 26.7997C32.4465 26.6401 32.4933 26.4835 32.543 26.3269C32.5722 26.2412 32.6014 26.1555 32.6307 26.0727C32.6482 26.0254 32.6745 25.9752 32.6862 25.9249C32.6745 25.9663 32.5547 26.2353 32.6336 26.055C32.7943 25.6885 32.9697 25.3309 33.1772 24.9851C33.2737 24.8226 33.3789 24.663 33.4841 24.5034C33.5426 24.4147 33.6069 24.332 33.6683 24.2433C33.7764 24.0808 33.4754 24.4827 33.601 24.332C33.642 24.2847 33.677 24.2345 33.7179 24.1842C34.019 23.8089 34.3464 23.4513 34.6912 23.1173C34.8578 22.9548 35.0303 22.7952 35.2057 22.6415C35.4015 22.4701 35.6295 22.21 35.8604 22.0948C35.8195 22.1154 35.6061 22.2869 35.837 22.1154C35.875 22.0859 35.913 22.0563 35.9539 22.0297C36.0036 21.9943 36.0504 21.9588 36.1 21.9233C36.2286 21.8317 36.3572 21.7401 36.4859 21.6544C36.7957 21.4505 37.1143 21.2791 37.4445 21.1165C37.731 20.9747 37.2224 21.1875 37.4621 21.1047C37.5614 21.0692 37.6608 21.0338 37.7602 21.0013C37.9063 20.9569 38.2922 20.7885 38.4412 20.8476C38.4588 20.8535 38.1489 20.8476 38.3155 20.8683C38.3594 20.8742 38.4149 20.8594 38.4588 20.8594C38.5727 20.8535 38.6867 20.8535 38.8036 20.8594C39.1544 20.8771 38.6429 20.8092 38.8913 20.8624C39.0287 20.8919 39.1661 20.9274 39.3034 20.9569C40.569 21.2347 41.7732 20.9097 42.7524 20.0615C43.0183 19.8309 43.2755 19.5916 43.5386 19.3581C44.4856 18.5099 45.4355 17.6617 46.3825 16.8105C46.6397 16.58 46.9232 16.3584 47.1424 16.0924C47.9871 15.0757 48.3583 13.669 47.917 12.3834C47.5604 11.349 46.8618 10.4033 46.2276 9.52551C45.5203 8.54432 44.7662 7.5986 43.9595 6.70016C42.3578 4.91511 40.5749 3.30442 38.64 1.89766C37.7368 1.24156 36.7518 0.496806 35.6821 0.151026C34.4107 -0.259772 32.9931 0.145115 32.0227 1.0406C31.3183 1.68783 30.7075 2.471 30.0644 3.17734C29.4594 3.83935 28.8573 4.50431 28.2523 5.16631C27.7437 5.72488 27.6619 6.67356 28.2523 7.21735C28.8076 7.73159 29.7371 7.81434 30.2807 7.21735C30.9004 6.53466 31.52 5.85492 32.1426 5.17223C32.7651 4.48953 33.3526 3.76251 34.0132 3.12414C34.2762 2.87294 33.8495 3.20098 34.0658 3.0739C34.1155 3.04435 34.434 2.84338 34.247 2.95864C34.0862 3.05913 34.3288 2.935 34.4019 2.91727C34.4574 2.90249 34.6474 2.82565 34.4633 2.89362C34.3025 2.95273 34.4574 2.89362 34.5276 2.89362C34.5773 2.89362 34.6269 2.89362 34.6766 2.89362C34.928 2.88476 34.6445 2.90545 34.6094 2.87294C34.6532 2.91431 34.8958 2.94387 34.9514 2.95569C35.1034 2.98524 34.852 2.92613 34.8432 2.90545C34.8491 2.92022 34.966 2.96455 34.9835 2.97342C35.1121 3.04139 35.2378 3.11528 35.3635 3.18916C35.8195 3.4581 36.2637 3.74477 36.6992 4.04622C36.9067 4.19104 37.1143 4.33585 37.3159 4.48658C37.427 4.56933 37.5381 4.65208 37.6462 4.73483C37.693 4.77029 37.7427 4.80576 37.7865 4.84418C37.5293 4.63435 37.7544 4.82053 37.8099 4.86487C39.5723 6.25685 41.1887 7.84389 42.6354 9.56688C42.8137 9.77967 42.9862 9.99246 43.1586 10.2082C43.2434 10.3146 43.3282 10.421 43.41 10.5303C43.4421 10.5747 43.4918 10.619 43.5152 10.6692C43.4655 10.5717 43.3837 10.4919 43.4889 10.6367C43.7987 11.0564 44.0998 11.482 44.3862 11.9194C44.6551 12.3331 44.9065 12.7557 45.1491 13.1843C45.2514 13.3616 45.0906 13.2079 45.1315 13.1193C45.1228 13.137 45.1725 13.2434 45.1783 13.2641C45.1929 13.3114 45.2017 13.3616 45.2163 13.4118C45.266 13.5951 45.1549 13.4414 45.2163 13.3409C45.19 13.3852 45.2221 13.5833 45.2251 13.6394C45.228 13.8167 45.152 13.6749 45.2426 13.5685C45.2163 13.601 45.2134 13.7192 45.2017 13.7635C45.19 13.8108 45.1695 13.8581 45.1608 13.9054C45.1228 14.0945 45.2864 13.666 45.1929 13.8345C45.1374 13.9379 45.0848 14.0413 45.0234 14.1418C44.8889 14.3664 45.2046 13.9763 45.0058 14.1536C44.9532 14.2009 44.9065 14.2541 44.8539 14.3014C44.7808 14.3694 44.7077 14.4314 44.6347 14.4965L43.4772 15.5309C42.615 16.3052 41.7498 17.0765 40.8876 17.8508C40.8262 17.907 40.7648 17.9602 40.7035 18.0163C40.4959 18.2055 40.911 17.9099 40.6655 18.0311C40.6216 18.0518 40.569 18.0784 40.5281 18.105C40.3673 18.2114 40.7707 18.04 40.5866 18.0843C40.4872 18.1079 40.3849 18.1345 40.2855 18.1641C40.1014 18.2173 40.531 18.1641 40.341 18.1552C40.2709 18.1523 40.2007 18.1611 40.1306 18.1552C40.1189 18.1552 39.9728 18.1523 39.9728 18.1464C39.9698 18.1198 40.2446 18.2055 40.0225 18.1434C39.9202 18.1139 39.8179 18.0902 39.7126 18.0695C39.3794 18.0016 39.0345 17.9572 38.6955 17.9484C38.1694 17.9365 37.6199 18.0163 37.1113 18.1611C35.384 18.6576 33.8378 19.8812 32.5781 21.1313C31.3183 22.3814 30.231 23.9921 29.6991 25.7654C28.8924 28.4636 29.5033 31.3451 30.8039 33.7744C31.0377 34.2118 31.2949 34.6345 31.5726 35.0423C31.6515 35.1576 31.7334 35.2699 31.8035 35.3881C31.7977 35.3792 31.9029 35.5565 31.897 35.5654C31.8824 35.5831 31.821 35.2758 31.8503 35.4442C31.8707 35.5595 31.9058 35.7132 31.9496 35.8196C32.014 35.9762 31.9058 35.6807 31.935 35.6925C31.9438 35.6954 31.9409 35.8964 31.9409 35.8846C31.9409 35.9289 31.9263 35.988 31.935 36.0294C31.9672 36.1979 31.9263 35.8757 31.9555 35.8994C31.9876 35.926 31.8824 36.1831 31.8766 36.2274C31.8561 36.4018 31.9175 36.0767 31.9321 36.1062C31.9438 36.1299 31.8415 36.2924 31.824 36.3249C31.8006 36.3693 31.7743 36.4077 31.748 36.452C31.6515 36.6175 31.6837 36.4225 31.8035 36.3811C31.7655 36.3929 31.6983 36.4993 31.6661 36.5289C31.6574 36.5377 31.6486 36.5466 31.6398 36.5555C31.5901 36.6057 31.5375 36.6559 31.4878 36.7062L30.8477 37.3475C29.1262 39.0675 27.4047 40.7905 25.6802 42.5106C24.4614 43.7282 23.2601 44.9665 22.0209 46.1664C21.9916 46.193 21.9624 46.2196 21.9361 46.2491C21.7549 46.4353 22.1699 46.1073 21.8835 46.2816C21.8426 46.3082 21.7987 46.3289 21.7578 46.3555C21.5386 46.4915 21.9507 46.3141 21.7929 46.3496C21.7023 46.3703 21.6087 46.4058 21.5152 46.4294C21.4217 46.453 21.296 46.4117 21.4626 46.4442C21.6204 46.4767 21.5181 46.4412 21.4538 46.4383C21.3837 46.4353 21.0534 46.4087 21.2551 46.4412C21.4684 46.4767 21.0651 46.3762 21.0154 46.3703C20.8751 46.3526 21.1177 46.4028 21.1352 46.4235C21.1148 46.3969 21.0329 46.3732 21.0037 46.3585C20.9453 46.3289 20.8927 46.2875 20.8342 46.258C20.691 46.1871 20.9394 46.323 20.9365 46.3467C20.9511 46.2728 20.1152 45.6994 20.0655 45.661C19.6563 45.3477 19.2413 45.0404 18.8145 44.7537C17.5051 43.87 16.0057 43.0455 14.4332 42.7854C13.1355 42.5726 11.7881 42.6731 10.6424 43.3883C9.62521 44.0237 8.85067 44.999 8.33625 46.0807C7.14082 48.5898 6.86608 51.4861 6.77547 54.2316C6.72871 55.6354 6.74917 57.0422 6.81055 58.446C6.82516 58.777 6.8427 59.111 6.86023 59.442C6.869 59.6193 6.86316 59.7996 6.87777 59.9739C6.89239 60.1631 6.945 59.7227 6.89239 59.903C6.87777 59.9503 6.87485 60.0005 6.86316 60.0478C6.85147 60.0951 6.83685 60.1424 6.82516 60.1867C6.74624 60.497 6.83978 60.1483 6.84562 60.1513C6.85731 60.1601 6.72286 60.3788 6.71117 60.4025C6.60595 60.6093 6.91869 60.2015 6.69071 60.432C6.65856 60.4645 6.45104 60.6418 6.45689 60.6596C6.45104 60.63 6.71702 60.5059 6.57672 60.565C6.5095 60.5916 6.43935 60.6537 6.37797 60.6891C6.33997 60.7098 6.28736 60.7276 6.25229 60.7542C6.12076 60.8517 6.37505 60.6714 6.37797 60.7039C6.38089 60.7276 6.08569 60.7808 6.05646 60.7926C5.92201 60.8428 6.15876 60.766 6.18214 60.7808C6.16168 60.7689 6.02139 60.7896 5.98631 60.7896C5.93663 60.7896 5.88694 60.7896 5.83725 60.7837C5.62389 60.7719 5.68234 60.6684 5.93663 60.8014C5.89863 60.7837 5.61219 60.7601 5.60635 60.7187C5.60635 60.7128 5.91909 60.8842 5.64142 60.7335C5.59173 60.7069 5.54497 60.6803 5.49528 60.6537C5.48651 60.6478 5.35499 60.565 5.35499 60.565C5.3696 60.5443 5.62389 60.8192 5.40467 60.5946C5.36668 60.5561 5.32576 60.5177 5.28776 60.4763C5.26146 60.4497 5.23807 60.4231 5.21469 60.3936C5.14454 60.3079 5.165 60.3374 5.28192 60.4823C5.28776 60.4793 5.09778 60.2133 5.11532 60.1897C5.12116 60.1808 5.21469 60.5355 5.12993 60.2222C5.11532 60.166 5.09778 60.1128 5.08609 60.0567C5.05101 59.9148 5.02471 59.7671 4.99548 59.6222C4.86395 58.9691 4.73827 58.316 4.61844 57.6628C4.30862 55.9694 4.02803 54.273 3.77375 52.5707C3.7036 52.1008 3.63637 51.6309 3.57207 51.161C3.54284 50.9393 3.51069 50.7206 3.48146 50.499C3.46685 50.3807 3.44931 50.2596 3.4347 50.1414C3.42885 50.0911 3.42301 50.0379 3.41424 49.9877C3.43178 50.0793 3.44347 50.2271 3.42301 50.0497C3.3061 49.104 3.19795 48.1583 3.10734 47.2096C2.94659 45.5191 2.82091 43.8168 2.84721 42.1204C2.85306 41.7717 2.86475 41.423 2.88813 41.0772C2.8969 40.9294 2.90859 40.7817 2.92321 40.6339C2.93198 40.5571 2.93782 40.4832 2.94659 40.4093C2.95536 40.3354 2.96413 40.2645 2.97289 40.1906C2.98459 40.0931 2.98459 40.0931 2.97289 40.1965L2.99043 40.0517C3.16288 38.7779 3.39086 37.513 3.68898 36.2629C3.95496 35.1517 4.27647 34.0522 4.66228 32.9794C4.75581 32.7223 4.85226 32.4652 4.95164 32.2081C4.9721 32.1549 4.99548 32.1017 5.01594 32.0455C5.01009 32.0574 4.91949 32.279 4.98379 32.1283C5.04225 31.9894 5.1007 31.8475 5.15916 31.7086C5.36375 31.2328 5.58004 30.7659 5.81387 30.3048C6.24937 29.4359 6.73748 28.5937 7.27527 27.7868C7.39511 27.6095 7.51494 27.4322 7.64062 27.2549C7.70785 27.1603 7.77215 27.0687 7.83938 26.9771C7.8686 26.9386 7.89783 26.9002 7.92706 26.8588C8.12289 26.5929 7.778 27.0509 7.89783 26.8973C8.17258 26.5515 8.4444 26.2057 8.73083 25.8717C9.27155 25.2482 9.84735 24.6571 10.4553 24.0985C10.7505 23.8266 11.0545 23.5665 11.3643 23.3124C11.4403 23.2503 11.5163 23.1883 11.5952 23.1291C11.8495 22.9252 11.3818 23.2887 11.5864 23.1351C11.7413 23.0198 11.8933 22.9045 12.0511 22.7922C13.2232 21.9499 14.4829 21.2288 15.7982 20.6378C15.9414 20.5727 16.0846 20.5107 16.2278 20.4516C16.4617 20.3511 16.3535 20.4279 16.1782 20.4693C16.2658 20.4486 16.3564 20.3984 16.4383 20.3659C16.7364 20.2476 17.0375 20.1383 17.3385 20.0349C17.9085 19.8398 18.4843 19.6654 19.0688 19.5177C19.5862 19.3847 20.1093 19.2694 20.6384 19.1748C20.8839 19.1305 21.1294 19.0921 21.3749 19.0566C21.4334 19.0478 21.4918 19.0418 21.5503 19.033C21.752 19.0034 21.1411 19.0832 21.41 19.0507C21.5211 19.0389 21.6321 19.0241 21.7461 19.0123C22.6113 18.9207 23.5027 18.9916 24.3591 18.8527C25.9725 18.5926 27.2205 17.2804 28.1558 16.0214C29.1584 14.6708 29.9095 13.0158 30.2018 11.349C30.3596 10.4476 30.3947 9.58462 30.2544 8.68027C30.2281 8.51181 30.193 8.34335 30.1492 8.17785C30.12 8.07441 30.0907 7.97098 30.0674 7.86754C30.0089 7.62224 30.0498 8.0685 30.0703 7.82025C30.0703 7.79661 30.0761 7.61042 30.0791 7.61337C30.0995 7.62224 30.0206 7.87936 30.0703 7.72568C30.082 7.6843 30.1813 7.39468 30.1697 7.37399C30.1813 7.39468 30.0469 7.61337 30.1346 7.48334C30.1638 7.44196 30.1813 7.38876 30.2077 7.34443C30.2252 7.31488 30.3216 7.18189 30.3216 7.16711C30.3246 7.19075 30.0966 7.44787 30.2866 7.22917C30.7805 6.66174 30.8828 5.73079 30.2866 5.17814C29.7429 4.67572 28.7872 4.56933 28.2581 5.17814L28.2728 5.17518Z"
      fill="#231F20" />
    <path
      d="M73.8511 93.2459C76.3501 90.5949 78.6357 87.6218 80.3543 84.3886C81.9327 81.4244 83.3648 77.6828 82.3331 74.293C81.655 72.0647 80.0328 70.0964 78.1973 68.7339C77.2649 68.0424 76.1572 67.5163 75.0231 67.2799C74.5847 67.1883 74.1492 67.1439 73.7166 67.1292C73.8657 65.5155 73.629 63.8812 72.983 62.3828C72.1559 60.4677 70.6009 58.8541 68.8122 57.8345C67.3683 57.0099 65.7754 56.5844 64.1561 56.4927C64.083 53.0674 61.9085 49.787 58.9711 48.1556C57.875 47.5468 56.6737 47.1419 55.4374 46.9321C54.8528 43.4743 51.9066 40.6607 48.6623 39.6352C44.9357 38.459 40.7269 39.384 37.6053 41.6774C35.6499 43.1108 34.0804 44.9165 32.6921 46.8907C32.2069 46.8907 31.7246 46.9084 31.2453 46.9646C30.0001 47.1094 28.8427 47.4049 27.6853 47.8926C26.6711 48.3181 25.6948 48.8767 24.7625 49.4589C21.3837 51.5661 18.4258 54.5067 16.7773 58.2039C15.2516 61.6233 14.8103 65.3944 15.2692 69.1063C15.7777 73.232 17.1953 77.1716 19.1156 80.8362C21.2259 84.8615 23.9499 88.5675 26.9955 91.9189C29.1613 94.301 31.5492 96.4614 34.171 98.3173C36.8308 100.203 39.7536 101.719 42.8488 102.724C46.1165 103.785 49.6181 104.213 53.0407 103.906C57.1238 103.537 61.0433 102.227 64.6442 100.262C68.0259 98.4149 71.203 96.0683 73.8569 93.2489L73.8511 93.2459ZM78.3259 72.8449C78.3259 72.8449 78.3464 72.8685 78.3551 72.8833C78.5071 73.0724 78.3668 72.9099 78.3259 72.8449ZM76.7534 71.2372C76.8177 71.2844 76.8733 71.3229 76.7534 71.2372V71.2372Z"
      fill="#FFE165" />
    <path
      d="M31.0027 59.1286C30.3333 61.8092 30.9384 64.6877 32.3588 67.0166C33.9664 69.6498 36.4712 71.7215 39.0667 73.3056C41.4137 74.736 44.1904 75.7379 46.9671 75.469C49.7437 75.2 52.4766 73.8819 53.9526 71.3817C55.2503 69.1858 55.5104 66.0649 54.0081 63.8957C53.1137 62.6042 51.816 61.818 50.4715 61.0733C50.1909 60.9166 49.9103 60.76 49.6356 60.5945C49.4894 60.5058 49.3462 60.4142 49.203 60.3197C49.1329 60.2724 49.0627 60.2221 48.9926 60.1748C48.6535 59.9414 49.2059 60.3699 48.8961 60.098C48.6535 59.8852 48.4197 59.6695 48.2034 59.4271C48.0894 59.3 47.9842 59.1641 47.8731 59.037C47.7241 58.8656 48.0017 59.2262 47.8731 59.037C47.8117 58.9483 47.7474 58.8626 47.689 58.774C46.8735 57.5741 46.2977 56.2294 45.6226 54.9497C45.0234 53.8148 44.3102 52.748 43.4509 51.7934C41.8755 50.0408 39.8763 48.7493 37.7076 47.8834C35.6821 47.0736 33.4081 46.7101 31.2394 46.9613C29.9943 47.1061 28.8369 47.4017 27.6794 47.8893C26.6652 48.3149 25.689 48.8734 24.7566 49.4557C21.3778 51.5628 18.42 54.5034 16.7715 58.2006C15.2458 61.62 14.8044 65.3911 15.2633 69.1031C15.7719 73.2288 17.1894 77.1683 19.1097 80.833C21.22 84.8582 23.9441 88.5643 26.9896 91.9157C29.1554 94.2977 31.5434 96.4581 34.1651 98.3141C36.7869 100.17 39.7477 101.716 42.843 102.721C46.1107 103.782 49.6122 104.21 53.0348 103.903C57.118 103.533 61.0375 102.224 64.6384 100.259C68.0201 98.4116 71.1972 96.065 73.8511 93.2456C76.3501 90.5946 78.6357 87.6215 80.3543 84.3883C81.9327 81.4241 83.3648 77.6825 82.3331 74.2927C81.655 72.0644 80.0328 70.0961 78.1973 68.7336C77.2649 68.0421 76.1572 67.516 75.0231 67.2796C73.6669 66.9988 72.3575 67.117 71.0189 67.4303C66.357 68.5268 62.2241 71.4083 59.0616 74.9784C56.6971 77.65 54.3004 80.8803 54.8177 84.6809C55.148 87.1073 56.9835 89.2499 59.0207 90.4557C60.0671 91.0763 61.2479 91.4635 62.4638 91.5315C63.6125 91.5965 64.805 91.2773 65.863 90.8458C68.2685 89.8617 70.2531 88.1446 72.036 86.2709C72.5563 85.7241 72.6176 84.7548 72.036 84.2198C71.4544 83.6849 70.5629 83.6347 70.0076 84.2198C69.5399 84.7104 69.0635 85.1922 68.5637 85.6503C68.3591 85.8394 68.1487 86.0256 67.9382 86.2059C67.8213 86.3064 67.7015 86.4068 67.5816 86.5044C67.5232 86.5517 67.4618 86.5989 67.4034 86.6492C67.1812 86.8295 67.5436 86.5487 67.3946 86.6551C66.9386 86.9831 66.4827 87.3053 65.9946 87.586C65.7695 87.7161 65.5386 87.8372 65.3048 87.9495C65.1966 88.0027 65.0885 88.05 64.9803 88.1003C64.7465 88.2067 65.0066 88.0884 65.0446 88.0766C64.9657 88.0973 64.8868 88.1387 64.8079 88.1682C64.3227 88.3515 63.82 88.4904 63.3114 88.5849C63.2442 88.5968 63.1799 88.6086 63.1127 88.6204C62.8262 88.6736 63.1916 88.5997 63.1974 88.6115C63.1974 88.6086 62.8671 88.6352 62.8321 88.6352C62.7239 88.6352 62.6187 88.6352 62.5106 88.6322C62.4492 88.6322 62.3878 88.6234 62.3264 88.6204C62.0634 88.6056 62.3644 88.6382 62.3703 88.6293C62.344 88.6766 61.7419 88.4963 61.6834 88.4815C61.5782 88.452 61.47 88.4194 61.3677 88.384C61.3064 88.3633 61.2479 88.3397 61.1865 88.319C60.9352 88.2333 61.3794 88.4135 61.2187 88.3337C60.7627 88.1032 60.3185 87.8816 59.9005 87.5831C59.9005 87.5831 59.7456 87.4856 59.7397 87.4649C59.7397 87.4737 60.0291 87.7013 59.8099 87.5181C59.7222 87.4442 59.6316 87.3703 59.5439 87.2934C59.3335 87.1073 59.1318 86.9122 58.9389 86.7053C58.8804 86.6433 58.4683 86.2443 58.4946 86.1793C58.4917 86.1881 58.6817 86.4423 58.5531 86.2532C58.518 86.2 58.4771 86.1468 58.442 86.0936C58.3602 85.9753 58.2842 85.8512 58.2111 85.7271C58.0913 85.5232 57.9802 85.3133 57.8838 85.0976C57.8721 85.074 57.8165 84.9291 57.8107 84.9262C57.8224 84.9262 57.9159 85.2188 57.8633 85.0533C57.8165 84.8966 57.7581 84.7459 57.7172 84.5863C57.6821 84.4445 57.6529 84.3026 57.6265 84.1607C57.6207 84.1282 57.5973 83.945 57.6207 84.1282C57.6441 84.3233 57.6207 84.0898 57.6149 84.0396C57.5915 83.747 57.5915 83.4515 57.6149 83.1589C57.6207 83.085 57.6295 83.0111 57.6353 82.9372C57.6499 82.7303 57.5915 83.1766 57.6324 82.9727C57.6587 82.8456 57.6762 82.7156 57.7025 82.5885C57.7639 82.2959 57.8458 82.0063 57.9393 81.7225C57.9627 81.6516 57.989 81.5807 58.0153 81.5098C58.1059 81.2556 58.0124 81.5009 57.9977 81.5452C58.0357 81.4063 58.1205 81.2645 58.1819 81.1374C58.2374 81.0221 58.2988 80.9069 58.3602 80.7946C58.5765 80.4015 58.8161 80.0232 59.0616 79.6508C59.237 79.3878 59.4153 79.1307 59.6024 78.8736C59.7017 78.7347 59.807 78.5987 59.9063 78.4598C59.6053 78.8765 59.8216 78.5721 59.8917 78.4805C59.9531 78.4007 60.0145 78.3239 60.0759 78.2441C60.6224 77.5525 61.2041 76.8846 61.812 76.2462C62.5164 75.5103 63.2588 74.8129 64.0392 74.1656C64.2233 74.0119 64.4104 73.8612 64.6004 73.7135C64.8108 73.548 64.5741 73.7401 64.5419 73.7578C64.5975 73.7282 64.6559 73.6721 64.7085 73.6307C64.8342 73.5361 64.9628 73.4416 65.0914 73.3499C65.5444 73.0249 66.0092 72.7175 66.4856 72.4279C66.962 72.1382 67.4793 71.8486 67.9908 71.5915C68.2451 71.4644 68.4994 71.3432 68.7595 71.225C68.8998 71.163 69.0401 71.1039 69.1804 71.0418C68.894 71.1659 69.274 71.0034 69.3704 70.9679C69.9579 70.7433 70.5541 70.5453 71.1621 70.3798C71.4544 70.3 71.7467 70.2291 72.0419 70.164C72.1821 70.1345 72.3195 70.1049 72.4598 70.0783C72.5358 70.0636 72.6118 70.0517 72.6849 70.037C72.9479 69.9808 72.5153 70.0488 72.6849 70.034C72.9421 70.0133 73.1993 69.9926 73.4565 69.9956C73.5909 69.9956 73.7254 70.0044 73.8598 70.0133C73.9095 70.0163 73.9592 70.0251 74.0089 70.0281C74.1843 70.0399 73.7312 69.9808 73.9914 70.0281C74.2369 70.0724 74.4795 70.1197 74.7192 70.1877C74.8448 70.2231 74.9734 70.2645 75.0962 70.3059C75.143 70.3236 75.1897 70.3384 75.2365 70.3561C75.558 70.4684 74.9471 70.2202 75.2599 70.365C75.7334 70.5807 76.1835 70.832 76.6073 71.1334C76.6482 71.163 76.6891 71.1925 76.73 71.2221C76.9434 71.3757 76.692 71.1984 76.6687 71.1718C76.7534 71.2694 76.8879 71.3491 76.9843 71.4319C77.1919 71.6122 77.3935 71.8043 77.5864 72.0023C77.7793 72.2003 77.9459 72.3865 78.1125 72.5875C78.1914 72.682 78.2674 72.7796 78.3464 72.8741C78.5188 73.0899 78.3171 72.8505 78.3054 72.818C78.3259 72.883 78.4194 72.9746 78.4604 73.0337C78.7702 73.4741 79.0566 73.9381 79.3021 74.4168C79.3401 74.4937 79.3781 74.5705 79.4132 74.6503C79.4804 74.801 79.4863 75.005 79.3986 74.5971C79.4336 74.7597 79.5155 74.9222 79.5652 75.0848C79.6149 75.2473 79.6499 75.3951 79.6821 75.5547C79.6967 75.6285 79.7113 75.7024 79.7259 75.7793C79.7376 75.8443 79.7873 76.2019 79.7493 75.9182C79.7113 75.6345 79.7493 75.933 79.7551 75.995C79.7639 76.0837 79.7698 76.1723 79.7727 76.261C79.7815 76.4413 79.7844 76.6215 79.7815 76.7989C79.7785 76.9762 79.7698 77.1417 79.7581 77.3131C79.7522 77.4047 79.7435 77.4993 79.7347 77.5909C79.7318 77.6264 79.7259 77.6619 79.723 77.6944C79.6996 77.9663 79.7785 77.3368 79.7347 77.6087C79.609 78.3682 79.4424 79.1129 79.2057 79.8459C79.1443 80.0321 79.0829 80.2153 79.0157 80.3985C78.9835 80.4842 78.9514 80.57 78.9192 80.6586C78.8929 80.7266 78.7468 81.096 78.8432 80.8537C78.9397 80.6113 78.7935 80.966 78.776 81.0133C78.738 81.099 78.7029 81.1876 78.665 81.2733C78.5773 81.4743 78.4867 81.6723 78.3931 81.8674C78.0161 82.6653 77.5923 83.4396 77.1422 84.1992C76.692 84.9587 76.1922 85.7241 75.6778 86.46C75.4265 86.8206 75.1693 87.1752 74.9062 87.5269C74.7104 87.79 75.0699 87.3141 74.9121 87.521C74.8448 87.6097 74.7776 87.6983 74.7075 87.787C74.573 87.9614 74.4356 88.1357 74.2983 88.3101C73.3162 89.5455 72.2728 90.7365 71.1621 91.8595C70.7178 92.3087 70.2648 92.7461 69.7942 93.1658C69.5984 93.3402 69.3996 93.5116 69.195 93.68C68.9524 93.881 68.7069 94.0761 68.4585 94.2711C68.4117 94.3066 68.365 94.342 68.3211 94.3775C68.1516 94.5135 68.5228 94.2238 68.3533 94.3539C68.2159 94.4573 68.0785 94.5637 67.9412 94.6671C66.1699 95.9941 64.2993 97.191 62.3294 98.1929C61.8822 98.4205 61.4291 98.6392 60.9702 98.846C60.754 98.9436 60.5377 99.0381 60.3185 99.1327C60.26 99.1564 60.2015 99.18 60.146 99.2066C59.9999 99.2687 60.2746 99.1505 60.2746 99.1534C60.2746 99.1889 59.9326 99.2894 59.8859 99.3071C59.0061 99.6499 58.1088 99.9514 57.1998 100.206C56.3493 100.442 55.487 100.637 54.619 100.785C54.4144 100.82 54.2098 100.853 54.0052 100.882C53.9584 100.888 53.5638 100.941 53.821 100.909C54.0783 100.876 53.6661 100.927 53.596 100.936C53.181 100.983 52.7659 101.018 52.348 101.045C51.5354 101.095 50.7199 101.104 49.9045 101.071C49.507 101.057 49.1066 101.03 48.709 100.995C48.5045 100.977 48.3028 100.956 48.1011 100.933C48.0427 100.927 47.7211 100.882 47.9813 100.918C48.2414 100.953 47.8497 100.9 47.7854 100.891C46.2451 100.67 44.7253 100.3 43.2492 99.8006C42.8897 99.6795 42.5302 99.5494 42.1766 99.4135C42.0041 99.3485 41.8346 99.2775 41.6651 99.2096C41.4956 99.1416 41.969 99.3366 41.8054 99.2687C41.7732 99.2539 41.7381 99.2391 41.7031 99.2273C41.6008 99.1859 41.5014 99.1416 41.3991 99.0973C40.6976 98.7929 40.0078 98.4619 39.3327 98.1043C38.0203 97.4097 36.7548 96.6236 35.5418 95.7636C35.232 95.5449 34.928 95.3203 34.6269 95.0927C34.5626 95.0425 34.4954 94.9922 34.4311 94.942C34.2879 94.8356 34.7088 95.1607 34.5685 95.0484C34.5305 95.0188 34.4954 94.9893 34.4574 94.9627C34.3084 94.8474 34.1622 94.7322 34.0161 94.6139C33.4491 94.1559 32.8908 93.683 32.3472 93.1954C31.254 92.2142 30.2164 91.1739 29.2197 90.0922C28.4715 89.2795 27.7466 88.446 27.0481 87.589C26.709 87.1723 26.3729 86.7526 26.0456 86.327C25.9608 86.2177 25.879 86.1083 25.7942 85.999C25.6305 85.7862 25.955 86.2147 25.7474 85.9369C25.5721 85.7035 25.3996 85.47 25.2301 85.2335C24.0201 83.5578 22.9035 81.8112 21.9156 79.9937C21.4334 79.107 20.9803 78.2056 20.5653 77.2836C20.3636 76.8403 20.1736 76.394 19.9895 75.9477C19.8931 75.7113 20.0246 76.0127 20.0246 76.0364C20.0246 75.995 19.969 75.8945 19.9574 75.865C19.9164 75.7645 19.8784 75.664 19.8404 75.5635C19.7469 75.3212 19.6563 75.0759 19.5686 74.8306C18.9548 73.1106 18.4755 71.3373 18.192 69.5286C18.1569 69.304 18.1394 69.0765 18.0955 68.8548C18.0955 68.843 18.1335 69.1681 18.116 69.0114C18.1101 68.9553 18.1014 68.8991 18.0955 68.843C18.0809 68.7189 18.0663 68.5918 18.0546 68.4647C18.0137 68.0362 17.9815 67.6047 17.964 67.1761C17.9289 66.3191 17.9435 65.4591 18.0137 64.605C18.0283 64.4188 18.0488 64.2296 18.0692 64.0434C18.1101 63.6711 18.0371 64.2503 18.0692 64.0139C18.0868 63.8957 18.1014 63.7774 18.1218 63.6563C18.1832 63.2484 18.2621 62.8435 18.3527 62.4416C18.5339 61.6407 18.7707 60.8516 19.0659 60.0862C19.2003 59.7374 18.9899 60.2605 19.0717 60.0655C19.1068 59.9798 19.1419 59.8941 19.1799 59.8084C19.2705 59.6015 19.364 59.3946 19.4605 59.1907C19.6417 58.8154 19.8346 58.4459 20.045 58.0854C20.2555 57.7248 20.4805 57.3613 20.7202 57.0126C20.8371 56.8412 20.957 56.6727 21.0797 56.5072C21.2902 56.2205 20.9131 56.72 21.0739 56.5161C21.1528 56.4156 21.2288 56.3181 21.3077 56.2205C21.8806 55.5112 22.506 54.8463 23.1754 54.2316C23.5203 53.9124 23.8768 53.608 24.2422 53.3124C24.3211 53.2474 24.4263 53.1854 24.4965 53.1115C24.2276 53.404 24.4497 53.1469 24.5637 53.0642C24.7683 52.9135 24.9758 52.7627 25.1833 52.6179C26.0514 52.015 26.9575 51.4742 27.8928 50.9836C28.1237 50.8624 28.3575 50.7412 28.5943 50.6289C28.6966 50.5787 28.8018 50.5314 28.907 50.4841C28.9567 50.4634 29.1554 50.3748 28.9596 50.4605C28.7492 50.5521 29.0151 50.4398 29.059 50.4221C29.5266 50.2447 30.0089 50.1029 30.4999 49.9935C30.7367 49.9403 30.9734 49.9019 31.2102 49.8605C31.4469 49.8192 31.1634 49.8605 31.1342 49.8694C31.1897 49.8546 31.2686 49.8546 31.3271 49.8458C31.4557 49.831 31.5843 49.8192 31.7129 49.8103C32.2273 49.7719 32.7447 49.7719 33.2591 49.8014C33.5017 49.8162 33.7413 49.8428 33.9839 49.8665C34.1447 49.8812 33.8582 49.8517 33.8612 49.8517C33.9109 49.8458 33.9985 49.8724 34.0541 49.8812C34.1973 49.9049 34.3434 49.9285 34.4866 49.9551C34.9835 50.0497 35.4746 50.1738 35.9568 50.3245C36.1906 50.3984 36.4245 50.4782 36.6525 50.5639C36.6963 50.5817 37.1026 50.7324 36.8921 50.6555C36.7051 50.5846 36.8658 50.6437 36.9009 50.6614C36.9915 50.6999 37.0821 50.7383 37.1727 50.7797C37.6374 50.9895 38.0905 51.223 38.5289 51.483C38.9673 51.7431 39.3882 52.0298 39.8003 52.3283C39.9523 52.4376 39.8529 52.2928 39.7302 52.2721C39.7623 52.278 39.8705 52.3815 39.8851 52.3933C39.9757 52.4642 40.0634 52.5381 40.1511 52.612C40.3498 52.7805 40.5456 52.9578 40.7356 53.1381C41.101 53.4868 41.4488 53.8592 41.7703 54.2493C41.8521 54.3498 41.934 54.4532 42.0158 54.5537C42.159 54.734 41.972 54.4739 41.9603 54.4769C41.9661 54.4769 42.083 54.6453 42.0743 54.6364C42.2379 54.867 42.3929 55.1034 42.5419 55.3428C43.258 56.5102 43.7987 57.7721 44.4534 58.9749C45.1666 60.2842 46.0376 61.5077 47.2213 62.4209C48.3086 63.2603 49.5771 63.7863 50.6995 64.5695C50.7346 64.5961 50.9538 64.7498 50.8018 64.6375C50.6498 64.5252 50.8602 64.6877 50.8953 64.7143C51.0064 64.8089 51.1174 64.9064 51.2197 65.0098C51.3396 65.131 51.4506 65.2581 51.5617 65.3852C51.6728 65.5123 51.5413 65.4738 51.512 65.3202C51.5208 65.3704 51.5968 65.4443 51.6231 65.4886C51.6962 65.6009 51.7605 65.7191 51.8218 65.8403C51.8511 65.8994 51.8803 65.9615 51.9095 66.0206C51.9826 66.1713 51.8774 66.1122 51.8832 65.9526C51.8803 66.0413 51.9709 66.2038 51.9943 66.2866C52.0381 66.4314 52.0732 66.5821 52.1024 66.7299C52.117 66.8038 52.1463 67.1407 52.1404 66.9515C52.1346 66.7417 52.1521 67.1791 52.1521 67.2293C52.1609 67.5101 52.1434 67.785 52.1229 68.0628C52.1083 68.2637 52.1697 67.8116 52.1287 68.0066C52.1171 68.0568 52.1112 68.11 52.1024 68.1632C52.0761 68.3021 52.0469 68.441 52.0148 68.577C51.9855 68.6982 51.9504 68.8164 51.9154 68.9346C51.8949 69.0026 51.8715 69.0705 51.8481 69.1356C51.7897 69.307 51.8043 69.3011 51.8569 69.1356C51.7809 69.3809 51.6348 69.6262 51.5091 69.8508C51.4477 69.9572 51.3834 70.0636 51.3162 70.167C51.2782 70.2261 51.2373 70.2822 51.1993 70.3414C51.0093 70.631 51.3425 70.1759 51.211 70.3266C51.0298 70.5364 50.8515 70.7433 50.6498 70.9354C50.5387 71.0418 50.4247 71.1393 50.3078 71.2398C50.2055 71.3314 50.2318 71.3905 50.3458 71.2162C50.3137 71.2664 50.2114 71.3137 50.1617 71.3491C49.9132 71.5235 49.656 71.6802 49.3901 71.822C49.2732 71.8841 49.1562 71.9432 49.0364 71.9993C48.9692 72.0318 48.899 72.0614 48.8289 72.0909C48.6389 72.1796 49.1504 71.9786 48.8055 72.0969C48.2443 72.2949 47.689 72.422 47.1073 72.5372C46.9028 72.5786 47.3412 72.5165 47.1337 72.5372C47.0781 72.5431 47.0197 72.549 46.9641 72.5549C46.8151 72.5697 46.6631 72.5815 46.5111 72.5875C46.21 72.6022 45.909 72.5993 45.6079 72.5875C45.4589 72.5786 45.3098 72.5668 45.1608 72.552C45.0965 72.5461 44.8919 72.5136 45.19 72.5579C45.1286 72.549 45.0672 72.5402 45.0058 72.5313C44.661 72.4781 44.3161 72.4042 43.977 72.3156C43.6994 72.2446 43.4217 72.1589 43.1499 72.0673C42.995 72.0141 42.84 71.958 42.6851 71.8988C42.6091 71.8693 42.5302 71.8397 42.4542 71.8072C42.6442 71.8841 42.5156 71.8309 42.4016 71.7806C41.8141 71.5206 41.2471 71.2221 40.6947 70.897C40.1423 70.5719 39.6045 70.2143 39.0784 69.8389C38.9439 69.7414 38.8095 69.6439 38.678 69.5464C38.6137 69.4991 38.2834 69.2449 38.4967 69.4134C38.2074 69.1858 37.9239 68.9553 37.6462 68.7159C37.0909 68.2371 36.5589 67.7288 36.065 67.185C35.8341 66.9308 35.6178 66.6619 35.4015 66.3959C35.2933 66.2629 35.4103 66.4107 35.4278 66.4314C35.3752 66.3575 35.3197 66.2836 35.267 66.2068C35.1472 66.0383 35.0332 65.864 34.9221 65.6896C34.7585 65.4266 34.6036 65.1576 34.4603 64.8828C34.3931 64.7498 34.3259 64.6168 34.2645 64.4808C34.2411 64.4276 34.0833 64.0671 34.1564 64.2444C34.2294 64.4217 34.0862 64.0553 34.0658 63.9991C34.0161 63.8572 33.9693 63.7154 33.9255 63.5706C33.8436 63.3016 33.7735 63.0268 33.7179 62.7519C33.6916 62.6219 33.6683 62.4948 33.6449 62.3648C33.6332 62.2909 33.6215 62.217 33.6127 62.1431C33.6566 62.4475 33.6244 62.2407 33.6215 62.1756C33.604 61.8949 33.5806 61.6141 33.5835 61.3333C33.5864 61.0526 33.604 60.7718 33.6332 60.4911C33.5981 60.8073 33.6536 60.3965 33.6712 60.299C33.7004 60.1512 33.7355 60.0034 33.7706 59.8557C33.9547 59.1198 33.5075 58.2509 32.7476 58.0824C31.9876 57.914 31.1926 58.3307 30.9939 59.1168L31.0027 59.1286Z"
      fill="#231F20" />
    <path
      d="M54.0603 64.8212C54.1363 64.7118 54.2152 64.6054 54.2942 64.4961C54.5484 64.1355 54.11 64.7236 54.3818 64.3779C54.5192 64.2035 54.6595 64.0291 54.8027 63.8577C55.1476 63.4499 55.5101 63.0568 55.89 62.6844C56.2086 62.3741 56.5389 62.0756 56.8809 61.7948C56.9101 61.7712 57.255 61.4993 56.9919 61.7003C57.0796 61.6323 57.1702 61.5673 57.2579 61.5023C57.4917 61.3338 57.7285 61.1713 57.9711 61.0176C58.3452 60.7812 58.731 60.5654 59.1285 60.3674C59.3536 60.258 59.5815 60.1398 59.8154 60.0541C59.5202 60.1635 59.7189 60.0925 59.7803 60.0719C59.9206 60.0216 60.058 59.9684 60.1982 59.9182C60.587 59.7852 60.9786 59.6729 61.3791 59.5842C61.5603 59.5428 61.7444 59.5074 61.9256 59.4749C62.0162 59.4601 62.1098 59.4483 62.2004 59.4305C62.3027 59.4158 62.2734 59.4187 62.1127 59.4394C62.1858 59.4305 62.2618 59.4217 62.3348 59.4128C62.7411 59.3714 63.1503 59.3507 63.5595 59.3567C63.7436 59.3567 63.9307 59.3655 64.1148 59.3773C64.2259 59.3833 64.3369 59.3921 64.448 59.4039C64.5035 59.4098 64.8689 59.469 64.524 59.4099C64.9274 59.4808 65.3249 59.5517 65.7194 59.6611C65.8977 59.7113 66.076 59.7674 66.2514 59.8266C66.3595 59.862 66.4647 59.9034 66.57 59.9448C66.2455 59.8266 66.643 59.9773 66.7103 60.0098C67.0815 60.1812 67.4439 60.3792 67.7888 60.6009C67.9525 60.7073 68.1132 60.8196 68.271 60.9348C68.5896 61.1624 68.0401 60.728 68.3354 60.988C68.4523 61.0915 68.575 61.189 68.689 61.2954C68.9754 61.5584 69.2473 61.8421 69.4957 62.1436C69.5337 62.1909 69.7909 62.4953 69.5512 62.2027C69.6243 62.2913 69.6886 62.3918 69.7529 62.4894C69.8844 62.6815 70.0072 62.8824 70.1212 63.0834C70.2352 63.2844 70.3316 63.4971 70.4339 63.707C70.6034 64.0528 70.3404 63.4262 70.469 63.7897C70.507 63.8991 70.5479 64.0084 70.583 64.1207C70.659 64.3601 70.7233 64.6054 70.7759 64.8537C70.7964 64.9482 70.811 65.0458 70.8285 65.1403C70.8519 65.2999 70.8519 65.297 70.8314 65.1256C70.8402 65.2054 70.849 65.2852 70.8548 65.3679C70.8987 65.8644 70.8987 66.3639 70.8607 66.8604C70.8607 66.8958 70.811 67.3125 70.8548 66.9963C70.8373 67.1204 70.8197 67.2475 70.7964 67.3717C70.7437 67.6613 70.6765 67.945 70.5976 68.2287C70.393 68.9587 70.8753 69.8364 71.6206 70.0019C72.3659 70.1674 73.1551 69.7478 73.3743 68.9676C73.9822 66.7894 73.8712 64.4576 72.9768 62.383C72.1496 60.4679 70.5947 58.8542 68.8059 57.8346C65.2401 55.7984 60.7623 56.1589 57.2374 58.0917C54.9372 59.3537 53.0666 61.2451 51.5613 63.3848C51.1258 64.0055 51.459 65.031 52.1021 65.3649C52.8532 65.7521 53.5927 65.4832 54.0603 64.8182V64.8212Z"
      fill="#231F20" />
    <path
      d="M64.1126 57.5835C64.5393 53.7799 62.2157 49.9586 58.9684 48.1558C57.3054 47.2337 55.3968 46.7697 53.5028 46.7608C51.4276 46.752 49.4342 47.3342 47.5812 48.2533C45.3248 49.3734 43.4162 51.1378 42.174 53.3514C41.8028 54.0104 42.022 54.9739 42.7147 55.3315C43.4074 55.6891 44.2755 55.494 44.673 54.7847C44.8074 54.5453 44.9477 54.3089 45.0968 54.0813C45.1465 54.0074 45.1962 53.9306 45.2488 53.8567C45.2692 53.8272 45.5352 53.4725 45.3306 53.7326C45.6258 53.3484 45.9473 52.9878 46.2951 52.648C46.45 52.4943 46.6108 52.3465 46.7774 52.2047C46.8768 52.119 46.9791 52.0362 47.0784 51.9535C47.4 51.6875 46.9265 52.0539 47.134 51.9091C47.5519 51.6224 47.9641 51.3358 48.4083 51.0875C48.8 50.8688 49.2062 50.6767 49.6125 50.4905C50.0188 50.3043 49.3553 50.5851 49.7733 50.4226C49.858 50.3901 49.9457 50.3546 50.0305 50.325C50.2789 50.2305 50.5303 50.1448 50.7846 50.065C51.1499 49.9527 51.524 49.861 51.9011 49.7931C51.9742 49.7783 52.5499 49.6778 52.1875 49.7399C52.4009 49.7044 52.6259 49.6926 52.8451 49.6808C53.231 49.6571 53.6168 49.6571 53.9997 49.6749C54.2013 49.6837 54.403 49.7044 54.6047 49.7221C54.8677 49.7487 54.6134 49.7192 54.5696 49.7162C54.7128 49.7221 54.8648 49.7606 55.0051 49.7872C55.3646 49.8551 55.7241 49.9408 56.0749 50.0472C56.2678 50.1063 56.4607 50.1714 56.6477 50.2423C56.7266 50.2718 56.9722 50.3546 56.6623 50.2423C56.7822 50.2837 56.8991 50.3457 57.016 50.3989C57.3667 50.5644 57.7058 50.7506 58.0331 50.9604C58.188 51.058 58.3342 51.1644 58.4833 51.2678C58.7872 51.4806 58.2377 51.058 58.5212 51.2974C58.6031 51.3683 58.6879 51.4363 58.7697 51.5072C59.0678 51.7702 59.3513 52.0539 59.6115 52.3554C59.7284 52.4913 59.854 52.6273 59.9534 52.778C59.7518 52.4795 59.892 52.7012 59.9447 52.778C60.0177 52.8814 60.0879 52.9878 60.1551 53.0942C60.3889 53.4577 60.5935 53.8419 60.7718 54.235C60.801 54.303 60.9735 54.6133 60.7981 54.2853C60.8478 54.3769 60.8741 54.4892 60.9092 54.5867C60.9793 54.7906 61.0407 54.9945 61.0962 55.2014C61.1518 55.4083 61.1956 55.6181 61.2336 55.828C61.2453 55.893 61.3155 56.2506 61.2482 55.8812C61.2658 55.9846 61.2716 56.0939 61.2804 56.1974C61.3155 56.6584 61.3038 57.1195 61.2512 57.5776C61.1664 58.3341 61.9702 59.0582 62.6863 59.0286C63.5368 58.9932 64.0308 58.3873 64.1214 57.5776L64.1126 57.5835Z"
      fill="#231F20" />
    <path
      d="M55.5453 48.2413C55.5833 44.1954 52.3068 40.7878 48.6621 39.6382C44.9355 38.4619 40.7266 39.3869 37.6051 41.6803C35.4743 43.2437 33.7966 45.2475 32.3148 47.4345C31.891 48.061 32.2037 49.0777 32.8555 49.4146C33.595 49.7958 34.3578 49.5416 34.8138 48.8678C35.0944 48.4541 35.3808 48.0462 35.6789 47.6472C35.486 47.9073 35.7578 47.5468 35.7754 47.5231C35.8309 47.4522 35.8864 47.3813 35.9449 47.3074C36.129 47.0769 36.3161 46.8493 36.509 46.6247C37.1608 45.8681 37.8652 45.1529 38.6339 44.5145C38.7216 44.4407 38.8093 44.3697 38.8969 44.2988C38.6456 44.4998 38.9992 44.222 39.0255 44.2042C39.2097 44.0683 39.3967 43.9382 39.5867 43.8141C40.0281 43.5215 40.4869 43.2555 40.9634 43.0221C41.1212 42.9452 41.2819 42.8743 41.4427 42.8004C41.773 42.6497 41.1504 42.9068 41.4895 42.7797C41.5567 42.7561 41.621 42.7295 41.6882 42.7029C42.0916 42.5522 42.5037 42.4251 42.9187 42.3216C43.2695 42.2359 43.626 42.168 43.9826 42.1089C44.3392 42.0497 43.6845 42.1325 44.0499 42.1C44.158 42.0911 44.2661 42.0763 44.3772 42.0675C44.5964 42.0497 44.8127 42.0379 45.0319 42.035C45.3973 42.0261 45.7655 42.0379 46.1309 42.0675C46.2361 42.0763 46.356 42.0763 46.4612 42.1C46.1192 42.0172 46.4699 42.1 46.5342 42.1118C46.7535 42.1473 46.9697 42.1887 47.186 42.2389C47.566 42.3276 47.943 42.4369 48.3113 42.5699C48.399 42.6024 48.4925 42.629 48.5744 42.6704C48.2529 42.5108 48.5919 42.6822 48.6474 42.7058C48.8491 42.7975 49.0449 42.895 49.2378 43.0043C49.3986 43.093 49.5564 43.1876 49.7084 43.2881C49.8019 43.3472 49.8926 43.4092 49.9832 43.4742C49.9978 43.4831 50.293 43.6929 50.0971 43.5511C49.9013 43.4092 50.1878 43.625 50.2024 43.6397C50.2871 43.7107 50.3719 43.7816 50.4537 43.8555C50.6174 44.0033 50.7752 44.154 50.9302 44.3136C51.0851 44.4732 51.2283 44.6357 51.3686 44.8042C51.4358 44.8869 51.5147 44.9697 51.5732 45.0583C51.3657 44.7362 51.5439 45.0258 51.5936 45.0997C51.8567 45.481 52.0876 45.8829 52.2776 46.3025C52.298 46.3469 52.3536 46.4385 52.3623 46.4946C52.2893 46.3055 52.2805 46.2878 52.336 46.4355C52.3594 46.5006 52.3828 46.5656 52.4062 46.6306C52.4705 46.8256 52.5289 47.0207 52.5757 47.2217C52.5991 47.3192 52.6195 47.4197 52.6371 47.5202C52.6605 47.6443 52.7628 47.8423 52.6488 47.5497C52.7218 47.7389 52.6838 48.0433 52.6809 48.2442C52.6751 49.0038 53.3473 49.7278 54.116 49.6953C54.8847 49.6628 55.5423 49.057 55.5511 48.2442L55.5453 48.2413Z"
      fill="#231F20" />
    <path
      d="M45.2517 74.8135C45.1201 77.3817 46.5318 79.9499 48.4872 81.5192C50.5799 83.1979 53.1929 84.0106 55.8527 83.6383C56.598 83.5348 57.0861 82.5536 56.8757 81.865C56.6243 81.0375 55.9199 80.7183 55.122 80.8306C55.499 80.7774 55.0226 80.8336 54.9495 80.8395C54.8414 80.8454 54.7303 80.8513 54.6222 80.8513C54.3825 80.8513 54.1428 80.8425 53.9032 80.8218C53.5349 80.7893 54.0464 80.8602 53.7658 80.807C53.6547 80.7863 53.5407 80.7686 53.4297 80.7479C53.1666 80.6947 52.9065 80.6297 52.6493 80.5499C52.4272 80.4819 52.2079 80.4021 51.9917 80.3194C52.3161 80.4464 51.9186 80.2809 51.8543 80.2514C51.7315 80.1923 51.6088 80.1332 51.486 80.0682C51.2785 79.9588 51.0739 79.8406 50.8781 79.7135C50.7465 79.6278 50.6179 79.5362 50.4893 79.4475C50.2292 79.2702 50.6852 79.6189 50.4221 79.3973C50.0188 79.0545 49.6417 78.688 49.3027 78.2772C49.2121 78.1678 49.0601 78.0319 49.2442 78.2033C49.139 78.1028 49.0572 77.9314 48.9782 77.8073C48.8526 77.6093 48.7356 77.4024 48.6304 77.1926C48.569 77.0714 48.5193 76.9473 48.458 76.8261C48.4171 76.7286 48.4258 76.7552 48.4872 76.9089C48.4609 76.8379 48.4346 76.767 48.4083 76.6961C48.3352 76.4833 48.2709 76.2705 48.2183 76.0518C48.1832 75.9099 48.1598 75.7651 48.1306 75.6203C48.0751 75.3277 48.1423 75.8804 48.1248 75.5582C48.1102 75.31 48.1043 75.0647 48.116 74.8135C48.154 74.0539 47.4291 73.3299 46.6809 73.3624C45.8713 73.3978 45.2867 74.0037 45.2458 74.8135H45.2517Z"
      fill="#231F20" />
    <path
      d="M51.9237 66.1125C51.9062 66.0652 51.8916 66.0238 51.8887 65.9854V65.9795C51.8887 66.0534 51.9091 66.1007 51.9237 66.1125Z"
      fill="#231F20" />
    <path
      d="M19.9688 75.8741C19.9688 75.8741 19.9775 75.8918 19.9834 75.9036C19.9746 75.8859 19.9717 75.877 19.9688 75.8711V75.8741Z"
      fill="#231F20" />
    <path
      d="M64.5596 73.7491C64.5596 73.7491 64.5566 73.7491 64.5537 73.7521C64.5596 73.7491 64.5654 73.7432 64.5712 73.7402C64.5683 73.7402 64.5625 73.7461 64.5596 73.7491Z"
      fill="#231F20" />
    <path d="M59.8413 78.5459C59.6718 78.7794 59.7653 78.6493 59.8413 78.5459V78.5459Z"
      fill="#231F20" />
    <path
      d="M79.4657 74.7805C79.454 74.7479 79.4452 74.7154 79.4336 74.6859C79.4306 74.677 79.4277 74.6681 79.4219 74.6593C79.4219 74.6563 79.4189 74.6534 79.416 74.6475C79.4715 74.8928 79.4832 74.8691 79.4628 74.7805H79.4657Z"
      fill="#231F20" />
    <path
      d="M51.6053 65.4747C51.576 65.4363 51.5351 65.389 51.5205 65.3506C51.5205 65.3506 51.5205 65.3477 51.5176 65.3477C51.541 65.4393 51.5965 65.4866 51.6082 65.4777L51.6053 65.4747Z"
      fill="#231F20" />
    <path d="M24.4206 53.2158C24.3592 53.2808 24.3767 53.2602 24.4206 53.2158V53.2158Z"
      fill="#231F20" />
    <path d="M36.8629 50.6501C36.7781 50.6176 36.819 50.6324 36.8629 50.6501V50.6501Z"
      fill="#231F20" />
    <path
      d="M74.997 100.895C74.047 100.315 67.8858 93.5387 64.9834 89.9863C66.0444 87.8673 71.7643 80.1685 75.9323 80.8926C75.9323 80.8926 85.6769 88.7273 86.5684 90.3646C87.7726 92.5723 80.6964 101.613 74.994 100.895H74.997Z"
      fill="#CF8329" />
    <path
      d="M75.637 99.7537C75.6107 99.736 75.5844 99.7182 75.5581 99.7005C75.3974 99.5941 75.8884 99.9724 75.716 99.8217C75.6341 99.7508 75.5494 99.6798 75.4704 99.6089C75.2337 99.3961 75.0057 99.1715 74.7807 98.9469C74.1376 98.3056 73.5122 97.6465 72.8925 96.9845C71.2937 95.2733 69.7271 93.5297 68.1897 91.7623C67.4152 90.8728 66.6494 89.9743 65.9012 89.0611L66.1116 90.6363C66.4156 90.0305 66.7985 89.4631 67.1843 88.9104C67.31 88.7331 67.4356 88.5558 67.5642 88.3784C67.6344 88.2809 67.7016 88.1775 67.7805 88.0858C67.7718 88.0977 67.5701 88.3607 67.7045 88.1863C67.7513 88.1272 67.7981 88.0652 67.8448 88.0061C68.1722 87.5834 68.5112 87.1697 68.859 86.7648C69.581 85.9255 70.3468 85.1246 71.1681 84.3857C71.3785 84.1995 71.589 84.0163 71.8082 83.839C71.89 83.771 71.9952 83.7119 72.0683 83.6321C71.8315 83.8892 71.9602 83.7148 72.0537 83.6469C72.118 83.5996 72.1852 83.5493 72.2495 83.502C72.6616 83.2065 73.0884 82.9317 73.5355 82.6952C73.6554 82.6332 73.7752 82.5711 73.898 82.5149C73.9418 82.4943 73.9857 82.4765 74.0295 82.4558C74.3101 82.3258 73.9418 82.4854 74.0149 82.4617C74.2546 82.3849 74.4855 82.2933 74.731 82.2342C74.8479 82.2046 74.9677 82.1869 75.0846 82.1633C75.2805 82.1219 74.959 82.1899 74.9473 82.181C74.9706 82.2017 75.1314 82.1633 75.1694 82.1633C75.2834 82.1573 75.3974 82.1544 75.5114 82.1603C75.5523 82.1603 75.5932 82.1662 75.6341 82.1662C75.9615 82.178 75.3974 82.1278 75.6107 82.1603L75.0233 81.8204C77.9987 84.2143 80.9741 86.6436 83.7654 89.2562C84.3587 89.8118 84.9257 90.3822 85.4577 90.9969C85.5337 91.0856 85.2209 90.6275 85.3729 90.8876C85.3963 90.9289 85.4226 90.9733 85.4489 91.0117C85.6068 91.2363 85.3671 90.6748 85.4051 90.8964C85.4109 90.926 85.4197 90.9614 85.4285 90.991C85.4723 91.124 85.3437 91.1388 85.408 90.793C85.3846 90.9201 85.3992 91.1181 85.3992 91.2511C85.3905 90.7989 85.4255 91.0619 85.3905 91.2186C85.3671 91.3279 85.3379 91.4343 85.3057 91.5407C85.2765 91.6382 85.2443 91.7358 85.2093 91.8333C85.1976 91.8658 85.1829 91.8983 85.1713 91.9338C85.0953 92.1495 85.3115 91.6116 85.2151 91.8244C85.1099 92.0608 85.0047 92.2943 84.8848 92.5219C84.6335 93.0007 84.3441 93.4617 84.0343 93.905C83.9495 94.0262 83.8648 94.1444 83.7771 94.2626C83.7215 94.3365 83.5432 94.5375 83.8092 94.2242C83.7595 94.2833 83.7157 94.3454 83.6689 94.4045C83.4702 94.6586 83.2627 94.9098 83.0493 95.1522C82.6167 95.6516 82.1578 96.1275 81.6756 96.5767C81.4154 96.819 81.1495 97.0554 80.8747 97.283C80.7286 97.4042 80.5678 97.5165 80.4275 97.6436C80.714 97.3835 80.5181 97.5726 80.4421 97.6288C80.3545 97.6938 80.2668 97.7588 80.1791 97.8209C79.5945 98.2376 78.9807 98.6159 78.3377 98.9321C78.177 99.0119 78.0133 99.0828 77.8496 99.1567C77.5953 99.269 78.139 99.0474 77.8788 99.1449C77.7853 99.1804 77.6918 99.2158 77.5982 99.2483C77.2972 99.3547 76.9932 99.4434 76.6834 99.5143C76.5197 99.5498 76.3561 99.5764 76.1924 99.6059C75.9352 99.6532 76.5022 99.5853 76.2421 99.5971C76.1485 99.603 76.055 99.6148 75.9644 99.6178C75.6429 99.6355 75.3185 99.6237 74.9999 99.5852C74.3247 99.5055 73.6758 100.244 73.7051 100.894C73.7372 101.672 74.2779 102.118 74.9999 102.204C76.9085 102.431 78.8668 101.704 80.486 100.738C82.2104 99.7094 83.7625 98.3292 85.0631 96.7924C86.1855 95.4654 87.2406 93.9789 87.7813 92.3002C87.9888 91.6589 88.0824 90.9437 87.9216 90.2787C87.7784 89.6965 87.3838 89.2266 86.9922 88.7922C85.9955 87.6839 84.8497 86.6998 83.7303 85.7186C82.3654 84.5217 80.9741 83.3513 79.577 82.1928C78.7148 81.4776 77.8467 80.7683 76.9757 80.062C76.888 79.991 76.8032 79.9231 76.7126 79.8551C76.2538 79.5005 75.5377 79.4945 74.9736 79.5507C73.974 79.6512 73.0387 79.9822 72.156 80.4639C70.3701 81.4362 68.8269 82.8962 67.4707 84.4034C66.2782 85.7274 65.1529 87.1579 64.2235 88.6858C64.0949 88.8986 63.9692 89.1114 63.8581 89.333C63.5775 89.8916 63.6886 90.4413 64.0686 90.9082C65.4949 92.6519 66.9826 94.3424 68.4849 96.0181C69.8966 97.5933 71.323 99.1626 72.8165 100.661C73.293 101.137 73.784 101.669 74.3569 102.026C74.9297 102.384 75.8153 102.148 76.1252 101.533C76.4554 100.88 76.2567 100.132 75.637 99.7448V99.7537Z"
      fill="#231F20" />
  </g>
  <defs>
    <clipPath id="clip0_8467_30797">
      <rect width="88" height="104" fill="white" />
    </clipPath>
  </defs>
</svg>
