<svg width="24" height="24" viewBox="0 0 24 24" fill="none" xmlns="http://www.w3.org/2000/svg">
  <path fill-rule="evenodd" clip-rule="evenodd"
    d="M10.5 3.75C9.25736 3.75 8.25 4.75736 8.25 6V16.5C8.25 18.5711 9.92893 20.25 12 20.25C14.0711 20.25 15.75 18.5711 15.75 16.5V7H17.25V16.5C17.25 19.3995 14.8995 21.75 12 21.75C9.1005 21.75 6.75 19.3995 6.75 16.5V6C6.75 3.92893 8.42893 2.25 10.5 2.25C12.5711 2.25 14.25 3.92893 14.25 6V16C14.25 17.2426 13.2426 18.25 12 18.25C10.7574 18.25 9.75 17.2426 9.75 16V7H11.25V16C11.25 16.4142 11.5858 16.75 12 16.75C12.4142 16.75 12.75 16.4142 12.75 16V6C12.75 4.75736 11.7426 3.75 10.5 3.75Z"
    fill="white" />
</svg>
