<svg width="16" height="16" viewBox="0 0 16 16" fill="none" xmlns="http://www.w3.org/2000/svg">
  <path fill-rule="evenodd" clip-rule="evenodd"
    d="M6.5625 2.34375C5.78585 2.34375 5.15625 2.97335 5.15625 3.75V10.3125C5.15625 11.6069 6.20558 12.6562 7.5 12.6562C8.79442 12.6562 9.84375 11.6069 9.84375 10.3125V4.375H10.7812V10.3125C10.7812 12.1247 9.31218 13.5938 7.5 13.5938C5.68782 13.5938 4.21875 12.1247 4.21875 10.3125V3.75C4.21875 2.45558 5.26808 1.40625 6.5625 1.40625C7.85692 1.40625 8.90625 2.45558 8.90625 3.75V10C8.90625 10.7767 8.27665 11.4062 7.5 11.4062C6.72335 11.4062 6.09375 10.7767 6.09375 10V4.375H7.03125V10C7.03125 10.2589 7.24112 10.4688 7.5 10.4688C7.75888 10.4688 7.96875 10.2589 7.96875 10V3.75C7.96875 2.97335 7.33915 2.34375 6.5625 2.34375Z"
    fill="white" />
</svg>
