<svg width="54" height="75" viewBox="0 0 54 75" fill="none" xmlns="http://www.w3.org/2000/svg">
  <g clip-path="url(#clip0_8467_33273)">
    <path
      d="M46.1333 12.5059H40.4225C40.8389 13.2676 41.0769 14.1395 41.0769 15.0676V17.6738H46.3308V67.4855H7.66654V17.6762H12.9204V15.0699C12.9204 14.1418 13.1584 13.2699 13.5748 12.5082H7.86404C4.83496 12.5082 2.37695 14.927 2.37695 17.9129V67.2535C2.37695 70.2395 4.83496 72.6582 7.86404 72.6582H46.1309C49.1624 72.6582 51.618 70.2371 51.618 67.2535V17.9105C51.618 14.9246 49.16 12.5059 46.1309 12.5059H46.1333Z"
      fill="#CF8329" />
    <path d="M12.9199 20.1072V17.6768H7.66602V67.4861H46.3302V17.6768H41.0763V20.1072H12.9199Z"
      fill="white" />
    <path
      d="M40.422 12.5062C39.4964 10.8141 37.6784 9.66328 35.5916 9.66328H31.399C31.7916 8.95781 32.0177 8.14922 32.0177 7.28672C32.0177 4.55625 29.7714 2.34375 26.9993 2.34375C24.2272 2.34375 21.981 4.55625 21.981 7.28672C21.981 8.14922 22.207 8.95781 22.5997 9.66328H18.407C16.3178 9.66328 14.5023 10.8141 13.5743 12.5062C13.1579 13.268 12.9199 14.1398 12.9199 15.068V20.107H41.0763V15.068C41.0763 14.1398 40.8384 13.268 40.422 12.5062ZM26.9993 5.11172C28.2176 5.11172 29.2075 6.08672 29.2075 7.28672C29.2075 8.48672 28.2176 9.46172 26.9993 9.46172C25.781 9.46172 24.7912 8.48672 24.7912 7.28672C24.7912 6.08672 25.781 5.11172 26.9993 5.11172Z"
      fill="#C9C7C7" />
    <path
      d="M27 2.34375C29.7721 2.34375 32.0183 4.55625 32.0183 7.28672C32.0183 8.14922 31.7923 8.95781 31.3997 9.66328H35.5923C37.6815 9.66328 39.497 10.8141 40.4227 12.5063H46.1334C49.1649 12.5063 51.6205 14.925 51.6205 17.9109V67.2516C51.6205 70.2375 49.1625 72.6562 46.1334 72.6562H7.86657C4.83749 72.6562 2.37948 70.2352 2.37948 67.2516V17.9109C2.37948 14.9273 4.83749 12.5063 7.86657 12.5063H13.5773C14.503 10.8141 16.3209 9.66328 18.4101 9.66328H22.6027C22.2101 8.95781 21.984 8.14922 21.984 7.28672C21.984 4.55625 24.2303 2.34375 27.0024 2.34375M27 0C22.9216 0 19.6022 3.26953 19.6022 7.28672C19.6022 7.29844 19.6022 7.30781 19.6022 7.31953H18.4077C16.0187 7.31953 13.7962 8.38125 12.3186 10.1625H7.86657C3.52877 10.1625 0 13.6383 0 17.9109V67.2516C0 71.5242 3.52877 75 7.86657 75H46.1334C50.4712 75 54 71.5242 54 67.2516V17.9109C54 13.6383 50.4712 10.1625 46.1334 10.1625H41.6814C40.2038 8.38125 37.9813 7.31953 35.5923 7.31953H34.3978C34.3978 7.31953 34.3978 7.29844 34.3978 7.28672C34.3978 3.26953 31.0784 0 27 0Z"
      fill="black" />
    <path
      d="M39.7465 27.0066H14.2504C13.4604 27.0066 12.8203 26.3762 12.8203 25.598C12.8203 24.8199 13.4604 24.1895 14.2504 24.1895H39.7465C40.5365 24.1895 41.1766 24.8199 41.1766 25.598C41.1766 26.3762 40.5365 27.0066 39.7465 27.0066Z"
      fill="#C9C7C7" />
    <path
      d="M39.7465 35.6131H14.2504C13.4604 35.6131 12.8203 34.9826 12.8203 34.2045C12.8203 33.4264 13.4604 32.7959 14.2504 32.7959H39.7465C40.5365 32.7959 41.1766 33.4264 41.1766 34.2045C41.1766 34.9826 40.5365 35.6131 39.7465 35.6131Z"
      fill="#C9C7C7" />
    <path
      d="M39.7465 44.2195H14.2504C13.4604 44.2195 12.8203 43.5891 12.8203 42.8109C12.8203 42.0328 13.4604 41.4023 14.2504 41.4023H39.7465C40.5365 41.4023 41.1766 42.0328 41.1766 42.8109C41.1766 43.5891 40.5365 44.2195 39.7465 44.2195Z"
      fill="#C9C7C7" />
    <path
      d="M39.7465 52.826H14.2504C13.4604 52.826 12.8203 52.1955 12.8203 51.4174C12.8203 50.6393 13.4604 50.0088 14.2504 50.0088H39.7465C40.5365 50.0088 41.1766 50.6393 41.1766 51.4174C41.1766 52.1955 40.5365 52.826 39.7465 52.826Z"
      fill="#C9C7C7" />
    <path
      d="M39.7465 61.4324H14.2504C13.4604 61.4324 12.8203 60.802 12.8203 60.0238C12.8203 59.2457 13.4604 58.6152 14.2504 58.6152H39.7465C40.5365 58.6152 41.1766 59.2457 41.1766 60.0238C41.1766 60.802 40.5365 61.4324 39.7465 61.4324Z"
      fill="#C9C7C7" />
  </g>
  <defs>
    <clipPath id="clip0_8467_33273">
      <rect width="54" height="75" fill="white" />
    </clipPath>
  </defs>
</svg>
