<svg width="16" height="16" viewBox="0 0 16 16" fill="none" xmlns="http://www.w3.org/2000/svg">
  <path
    d="M11.3931 1.88021C10.78 1.37593 10.062 1.01489 9.29157 0.823438C8.52113 0.631981 7.71767 0.614934 6.9398 0.773542C5.90405 0.982756 4.95379 1.49492 4.20959 2.24506C3.46538 2.9952 2.96078 3.9495 2.7598 4.98688C2.61303 5.76469 2.6397 6.56531 2.83791 7.33163C3.03611 8.09795 3.40097 8.8111 3.90647 9.42021C4.37559 9.94959 4.64449 10.6266 4.66647 11.3335V13.3335C4.66647 13.864 4.87718 14.3727 5.25225 14.7478C5.62732 15.1228 6.13603 15.3335 6.66647 15.3335H9.33313C9.86356 15.3335 10.3723 15.1228 10.7473 14.7478C11.1224 14.3727 11.3331 13.864 11.3331 13.3335V11.4602C11.3555 10.6797 11.6423 9.92983 12.1465 9.33354C13.0299 8.24073 13.4463 6.84342 13.3052 5.44529C13.1642 4.04716 12.477 2.7612 11.3931 1.86687V1.88021ZM9.9998 13.3335C9.9998 13.5104 9.92956 13.6799 9.80454 13.8049C9.67951 13.93 9.50994 14.0002 9.33313 14.0002H6.66647C6.48965 14.0002 6.32009 13.93 6.19506 13.8049C6.07004 13.6799 5.9998 13.5104 5.9998 13.3335V12.6669H9.9998V13.3335ZM11.1131 8.50688C10.4428 9.30194 10.0517 10.2949 9.9998 11.3335H8.66647V9.33354C8.66647 9.15673 8.59623 8.98716 8.4712 8.86214C8.34618 8.73711 8.17661 8.66688 7.9998 8.66688C7.82299 8.66688 7.65342 8.73711 7.52839 8.86214C7.40337 8.98716 7.33313 9.15673 7.33313 9.33354V11.3335H5.9998C5.98221 10.3123 5.60443 9.33005 4.93313 8.56021C4.49023 8.02954 4.19239 7.39316 4.06867 6.71311C3.94495 6.03306 3.99957 5.33255 4.22719 4.6799C4.45481 4.02724 4.84768 3.4447 5.36748 2.98909C5.88728 2.53348 6.51627 2.22034 7.19313 2.08021C7.77483 1.96044 8.37591 1.9717 8.95271 2.11319C9.52952 2.25467 10.0676 2.52282 10.5278 2.89818C10.9881 3.27353 11.359 3.74666 11.6136 4.28322C11.8682 4.81978 12.0001 5.4063 11.9998 6.00021C12.0047 6.91345 11.6912 7.79985 11.1131 8.50688Z"
    fill="white" />
</svg>
