<svg width="15" height="16" viewBox="0 0 15 16" fill="none" xmlns="http://www.w3.org/2000/svg">
  <path
    d="M13.3125 6.80003C13.1369 6.58918 12.9171 6.41945 12.6687 6.30282C12.4204 6.18619 12.1494 6.1255 11.875 6.12503H9.025L9.375 5.23128C9.52058 4.83995 9.56907 4.41916 9.51629 4.00498C9.46351 3.5908 9.31106 3.19561 9.07199 2.8533C8.83293 2.51099 8.51439 2.23178 8.14371 2.03962C7.77303 1.84746 7.36127 1.74809 6.94375 1.75003C6.82352 1.75028 6.70592 1.7852 6.60504 1.8506C6.50417 1.91601 6.42429 2.00912 6.375 2.11878L4.59375 6.12503H3.125C2.62772 6.12503 2.15081 6.32257 1.79917 6.6742C1.44754 7.02583 1.25 7.50275 1.25 8.00003V12.375C1.25 12.8723 1.44754 13.3492 1.79917 13.7009C2.15081 14.0525 2.62772 14.25 3.125 14.25H11.0812C11.5199 14.2499 11.9446 14.096 12.2815 13.815C12.6183 13.5341 12.846 13.144 12.925 12.7125L13.7188 8.33753C13.7678 8.06714 13.7569 7.78927 13.6867 7.52358C13.6165 7.25788 13.4887 7.01087 13.3125 6.80003ZM4.375 13H3.125C2.95924 13 2.80027 12.9342 2.68306 12.817C2.56585 12.6998 2.5 12.5408 2.5 12.375V8.00003C2.5 7.83427 2.56585 7.6753 2.68306 7.55809C2.80027 7.44088 2.95924 7.37503 3.125 7.37503H4.375V13ZM12.5 8.11253L11.7062 12.4875C11.6796 12.6331 11.6022 12.7646 11.4877 12.8584C11.3733 12.9523 11.2292 13.0024 11.0812 13H5.625V6.88128L7.325 3.05628C7.49999 3.10729 7.6625 3.19403 7.80229 3.31102C7.94207 3.428 8.05608 3.57269 8.13712 3.73596C8.21817 3.89923 8.26449 4.07752 8.27316 4.25959C8.28183 4.44166 8.25266 4.62355 8.1875 4.79378L7.85625 5.68753C7.78567 5.87644 7.76184 6.07962 7.7868 6.27973C7.81176 6.47985 7.88476 6.67095 7.99958 6.83674C8.11441 7.00253 8.26763 7.13807 8.44619 7.2318C8.62475 7.32554 8.82333 7.37468 9.025 7.37503H11.875C11.9668 7.37488 12.0575 7.39496 12.1407 7.43385C12.2239 7.47274 12.2975 7.52948 12.3563 7.60003C12.4165 7.66961 12.4606 7.75162 12.4854 7.84021C12.5103 7.9288 12.5152 8.02179 12.5 8.11253Z"
    fill="white" />
</svg>
