<?xml version="1.0" encoding="us-ascii" standalone="no"?><svg xmlns="http://www.w3.org/2000/svg" xmlns:xlink="http://www.w3.org/1999/xlink" contentStyleType="text/css" height="763px" preserveAspectRatio="none" style="width:756px;height:763px;background:#003153;" version="1.1" viewBox="0 0 756 763" width="756px" zoomAndPan="magnify"><defs/><g><rect fill="#003153" height="763" style="stroke:none;stroke-width:1.0;" width="756" x="0" y="0"/><!--cluster frontend--><g id="cluster_frontend"><polygon fill="#003153" points="32,21,42,11,657,11,657,418,647,428,32,428,32,21" style="stroke:#D9D3D0;stroke-width:1.0;"/><line style="stroke:#D9D3D0;stroke-width:1.0;" x1="647" x2="657" y1="21" y2="11"/><line style="stroke:#D9D3D0;stroke-width:1.0;" x1="32" x2="647" y1="21" y2="21"/><line style="stroke:#D9D3D0;stroke-width:1.0;" x1="647" x2="647" y1="21" y2="428"/><text fill="#D9D3D0" font-family="Verdana" font-size="14" font-weight="bold" lengthAdjust="spacing" textLength="71" x="305" y="36.9951">frontend</text></g><!--cluster components--><g id="cluster_components"><path d="M192.5,75 L293.5,75 A3.75,3.75 0 0 1 296,77.5 L303,97.2969 L371.5,97.2969 A2.5,2.5 0 0 1 374,99.7969 L374,401.5 A2.5,2.5 0 0 1 371.5,404 L192.5,404 A2.5,2.5 0 0 1 190,401.5 L190,77.5 A2.5,2.5 0 0 1 192.5,75 " fill="#003153" style="stroke:#D9D3D0;stroke-width:1.0;"/><line style="stroke:#D9D3D0;stroke-width:1.0;" x1="190" x2="303" y1="97.2969" y2="97.2969"/><text fill="#D9D3D0" font-family="Verdana" font-size="14" font-weight="bold" lengthAdjust="spacing" textLength="100" x="194" y="89.9951">components</text></g><!--cluster services--><g id="cluster_services"><path d="M408.5,67 L475.5,67 A3.75,3.75 0 0 1 478,69.5 L485,89.2969 L622.5,89.2969 A2.5,2.5 0 0 1 625,91.7969 L625,284.5 A2.5,2.5 0 0 1 622.5,287 L408.5,287 A2.5,2.5 0 0 1 406,284.5 L406,69.5 A2.5,2.5 0 0 1 408.5,67 " fill="#003153" style="stroke:#D9D3D0;stroke-width:1.0;"/><line style="stroke:#D9D3D0;stroke-width:1.0;" x1="406" x2="485" y1="89.2969" y2="89.2969"/><text fill="#D9D3D0" font-family="Verdana" font-size="14" font-weight="bold" lengthAdjust="spacing" textLength="66" x="410" y="81.9951">services</text></g><!--cluster backend--><g id="cluster_backend"><polygon fill="#003153" points="518,502,528,492,739,492,739,736,729,746,518,746,518,502" style="stroke:#D9D3D0;stroke-width:1.0;"/><line style="stroke:#D9D3D0;stroke-width:1.0;" x1="729" x2="739" y1="502" y2="492"/><line style="stroke:#D9D3D0;stroke-width:1.0;" x1="518" x2="729" y1="502" y2="502"/><line style="stroke:#D9D3D0;stroke-width:1.0;" x1="729" x2="729" y1="502" y2="746"/><text fill="#D9D3D0" font-family="Verdana" font-size="14" font-weight="bold" lengthAdjust="spacing" textLength="67" x="591" y="517.9951">backend</text></g><!--cluster serverpackage--><g id="cluster_serverpackage"><path d="M544.5,540 L595.5,540 A3.75,3.75 0 0 1 598,542.5 L605,562.2969 L712.5,562.2969 A2.5,2.5 0 0 1 715,564.7969 L715,634.5 A2.5,2.5 0 0 1 712.5,637 L544.5,637 A2.5,2.5 0 0 1 542,634.5 L542,542.5 A2.5,2.5 0 0 1 544.5,540 " fill="#003153" style="stroke:#D9D3D0;stroke-width:1.0;"/><line style="stroke:#D9D3D0;stroke-width:1.0;" x1="542" x2="605" y1="562.2969" y2="562.2969"/><text fill="#D9D3D0" font-family="Verdana" font-size="14" font-weight="bold" lengthAdjust="spacing" textLength="50" x="546" y="554.9951">server</text></g><!--entity App--><g id="elem_App"><rect fill="#003153" height="46.2969" rx="2.5" ry="2.5" style="stroke:#D9D3D0;stroke-width:1.0;" width="70" x="101" y="110"/><rect fill="#003153" height="10" style="stroke:#D9D3D0;stroke-width:1.0;" width="15" x="151" y="115"/><rect fill="#003153" height="2" style="stroke:#D9D3D0;stroke-width:1.0;" width="4" x="149" y="117"/><rect fill="#003153" height="2" style="stroke:#D9D3D0;stroke-width:1.0;" width="4" x="149" y="121"/><text fill="#D9D3D0" font-family="Verdana" font-size="14" lengthAdjust="spacing" textLength="30" x="116" y="142.9951">App</text></g><!--entity socket--><g id="elem_socket"><path d="M521.5,345.5 L588.5,345.5 A3.75,3.75 0 0 1 591,348 L598,367.7969 L612.5,367.7969 A2.5,2.5 0 0 1 615,370.2969 L615,382.2969 A2.5,2.5 0 0 1 612.5,384.7969 L521.5,384.7969 A2.5,2.5 0 0 1 519,382.2969 L519,348 A2.5,2.5 0 0 1 521.5,345.5 " fill="#003153" style="stroke:#D9D3D0;stroke-width:1.0;"/><line style="stroke:#D9D3D0;stroke-width:1.0;" x1="519" x2="598" y1="367.7969" y2="367.7969"/><text fill="#D9D3D0" font-family="Verdana" font-size="14" font-weight="bold" lengthAdjust="spacing" textLength="54" x="529" y="361.4951">socket</text></g><!--entity HTTP--><g id="elem_HTTP"><ellipse cx="57" cy="133" fill="#003153" rx="8" ry="8" style="stroke:#D9D3D0;stroke-width:1.0;"/><text fill="#D9D3D0" font-family="Verdana" font-size="14" lengthAdjust="spacing" textLength="92" x="11" y="162.9951">HTTP (:3001)</text></g><!--entity Terminal--><g id="elem_Terminal"><rect fill="#003153" height="46.2969" rx="2.5" ry="2.5" style="stroke:#D9D3D0;stroke-width:1.0;" width="103" x="230.5" y="342"/><rect fill="#003153" height="10" style="stroke:#D9D3D0;stroke-width:1.0;" width="15" x="313.5" y="347"/><rect fill="#003153" height="2" style="stroke:#D9D3D0;stroke-width:1.0;" width="4" x="311.5" y="349"/><rect fill="#003153" height="2" style="stroke:#D9D3D0;stroke-width:1.0;" width="4" x="311.5" y="353"/><text fill="#D9D3D0" font-family="Verdana" font-size="14" lengthAdjust="spacing" textLength="63" x="245.5" y="374.9951">Terminal</text></g><!--entity ChatInterface--><g id="elem_ChatInterface"><rect fill="#003153" height="46.2969" rx="2.5" ry="2.5" style="stroke:#D9D3D0;stroke-width:1.0;" width="140" x="212" y="217"/><rect fill="#003153" height="10" style="stroke:#D9D3D0;stroke-width:1.0;" width="15" x="332" y="222"/><rect fill="#003153" height="2" style="stroke:#D9D3D0;stroke-width:1.0;" width="4" x="330" y="224"/><rect fill="#003153" height="2" style="stroke:#D9D3D0;stroke-width:1.0;" width="4" x="330" y="228"/><text fill="#D9D3D0" font-family="Verdana" font-size="14" lengthAdjust="spacing" textLength="100" x="227" y="249.9951">ChatInterface</text></g><!--entity BannerSettings--><g id="elem_BannerSettings"><rect fill="#003153" height="46.2969" rx="2.5" ry="2.5" style="stroke:#D9D3D0;stroke-width:1.0;" width="152" x="206" y="110"/><rect fill="#003153" height="10" style="stroke:#D9D3D0;stroke-width:1.0;" width="15" x="338" y="115"/><rect fill="#003153" height="2" style="stroke:#D9D3D0;stroke-width:1.0;" width="4" x="336" y="117"/><rect fill="#003153" height="2" style="stroke:#D9D3D0;stroke-width:1.0;" width="4" x="336" y="121"/><text fill="#D9D3D0" font-family="Verdana" font-size="14" lengthAdjust="spacing" textLength="112" x="221" y="142.9951">BannerSettings</text></g><!--entity chatService--><g id="elem_chatService"><rect fill="#003153" height="46.2969" rx="2.5" ry="2.5" style="stroke:#D9D3D0;stroke-width:1.0;" width="125" x="430.5" y="217"/><rect fill="#003153" height="10" style="stroke:#D9D3D0;stroke-width:1.0;" width="15" x="535.5" y="222"/><rect fill="#003153" height="2" style="stroke:#D9D3D0;stroke-width:1.0;" width="4" x="533.5" y="224"/><rect fill="#003153" height="2" style="stroke:#D9D3D0;stroke-width:1.0;" width="4" x="533.5" y="228"/><text fill="#D9D3D0" font-family="Verdana" font-size="14" lengthAdjust="spacing" textLength="85" x="445.5" y="249.9951">chatService</text></g><!--entity settingsService--><g id="elem_settingsService"><rect fill="#003153" height="46.2969" rx="2.5" ry="2.5" style="stroke:#D9D3D0;stroke-width:1.0;" width="152" x="430" y="110"/><rect fill="#003153" height="10" style="stroke:#D9D3D0;stroke-width:1.0;" width="15" x="562" y="115"/><rect fill="#003153" height="2" style="stroke:#D9D3D0;stroke-width:1.0;" width="4" x="560" y="117"/><rect fill="#003153" height="2" style="stroke:#D9D3D0;stroke-width:1.0;" width="4" x="560" y="121"/><text fill="#D9D3D0" font-family="Verdana" font-size="14" lengthAdjust="spacing" textLength="112" x="445" y="142.9951">settingsService</text></g><!--entity Server--><g id="elem_Server"><rect fill="#003153" height="46.2969" rx="2.5" ry="2.5" style="stroke:#D9D3D0;stroke-width:1.0;" width="87" x="611.5" y="575"/><rect fill="#003153" height="10" style="stroke:#D9D3D0;stroke-width:1.0;" width="15" x="678.5" y="580"/><rect fill="#003153" height="2" style="stroke:#D9D3D0;stroke-width:1.0;" width="4" x="676.5" y="582"/><rect fill="#003153" height="2" style="stroke:#D9D3D0;stroke-width:1.0;" width="4" x="676.5" y="586"/><text fill="#D9D3D0" font-family="Verdana" font-size="14" lengthAdjust="spacing" textLength="47" x="626.5" y="607.9951">Server</text></g><!--entity client_socket--><g id="elem_client_socket"><ellipse cx="567" cy="598" fill="#003153" rx="8" ry="8" style="stroke:#D9D3D0;stroke-width:1.0;"/><text fill="#D9D3D0" font-family="Verdana" font-size="14" lengthAdjust="spacing" textLength="70" x="530" y="627.9951">Client WS</text><text fill="#D9D3D0" font-family="Verdana" font-size="14" lengthAdjust="spacing" textLength="74" x="530" y="644.292">(:3000/ws)</text></g><!--entity AgentController--><g id="elem_AgentController"><polygon fill="#003153" points="565.5,694,575.5,684,722.5,684,722.5,720.2969,712.5,730.2969,565.5,730.2969,565.5,694" style="stroke:#D9D3D0;stroke-width:1.0;"/><line style="stroke:#D9D3D0;stroke-width:1.0;" x1="712.5" x2="722.5" y1="694" y2="684"/><line style="stroke:#D9D3D0;stroke-width:1.0;" x1="565.5" x2="712.5" y1="694" y2="694"/><line style="stroke:#D9D3D0;stroke-width:1.0;" x1="712.5" x2="712.5" y1="694" y2="730.2969"/><text fill="#D9D3D0" font-family="Verdana" font-size="14" lengthAdjust="spacing" textLength="117" x="580.5" y="716.9951">AgentController</text></g><!--reverse link settingsService to chatService--><!--link App to Terminal--><g id="link_App_Terminal"><path d="M139.058,156.063 C144.749,190.456 159.659,257.604 194,303 C205.888,318.715 217.9343,328.6872 233.9283,338.7132 " fill="none" id="App-to-Terminal" style="stroke:#D9D3D0;stroke-width:1.0;"/><polygon fill="#D9D3D0" points="239.012,341.9,233.5109,333.7307,234.7756,339.2443,229.2619,340.509,239.012,341.9" style="stroke:#D9D3D0;stroke-width:1.0;"/></g><!--link App to ChatInterface--><g id="link_App_ChatInterface"><path d="M166.606,156.011 C191.441,173.872 221.4209,195.4328 246.3119,213.3338 " fill="none" id="App-to-ChatInterface" style="stroke:#D9D3D0;stroke-width:1.0;"/><polygon fill="#D9D3D0" points="251.183,216.837,246.2118,208.3348,247.1237,213.9177,241.5409,214.8296,251.183,216.837" style="stroke:#D9D3D0;stroke-width:1.0;"/></g><!--link App to BannerSettings--><g id="link_App_BannerSettings"><path d="M171.074,133 C182.629,133 188.184,133 199.739,133 " fill="none" id="App-to-BannerSettings" style="stroke:#D9D3D0;stroke-width:1.0;"/><polygon fill="#D9D3D0" points="205.739,133,196.739,129,200.739,133,196.739,137,205.739,133" style="stroke:#D9D3D0;stroke-width:1.0;"/></g><!--link ChatInterface to chatService--><g id="link_ChatInterface_chatService"><path d="M352.059,240 C378.118,240 398.178,240 424.237,240 " fill="none" id="ChatInterface-to-chatService" style="stroke:#D9D3D0;stroke-width:1.0;"/><polygon fill="#D9D3D0" points="430.237,240,421.237,236,425.237,240,421.237,244,430.237,240" style="stroke:#D9D3D0;stroke-width:1.0;"/></g><!--link BannerSettings to settingsService--><g id="link_BannerSettings_settingsService"><path d="M358.125,133 C382.001,133 399.876,133 423.752,133 " fill="none" id="BannerSettings-to-settingsService" style="stroke:#D9D3D0;stroke-width:1.0;"/><polygon fill="#D9D3D0" points="429.752,133,420.752,129,424.752,133,420.752,137,429.752,133" style="stroke:#D9D3D0;stroke-width:1.0;"/></g><!--link Terminal to socket--><g id="link_Terminal_socket"><path d="M333.768,365 C395.416,365 451.065,365 512.714,365 " fill="none" id="Terminal-to-socket" style="stroke:#D9D3D0;stroke-width:1.0;"/><polygon fill="#D9D3D0" points="518.714,365,509.714,361,513.714,365,509.714,369,518.714,365" style="stroke:#D9D3D0;stroke-width:1.0;"/></g><!--link chatService to socket--><g id="link_chatService_socket"><path d="M506.401,263.274 C520.479,286.674 539.2859,317.9347 552.5449,339.9737 " fill="none" id="chatService-to-socket" style="stroke:#D9D3D0;stroke-width:1.0;"/><polygon fill="#D9D3D0" points="555.638,345.115,554.4259,335.341,553.0604,340.8306,547.5709,339.4651,555.638,345.115" style="stroke:#D9D3D0;stroke-width:1.0;"/></g><!--link settingsService to socket--><g id="link_settingsService_socket"><path d="M531.174,156.3 C546.496,171.635 564.673,193.427 573,217 C588.484,260.832 580.3113,310.8028 573.4883,339.4038 " fill="none" id="settingsService-to-socket" style="stroke:#D9D3D0;stroke-width:1.0;"/><polygon fill="#D9D3D0" points="572.096,345.24,578.0752,337.4138,573.2562,340.3765,570.2936,335.5575,572.096,345.24" style="stroke:#D9D3D0;stroke-width:1.0;"/></g><!--link services to socket--><!--reverse link ChatInterface to Terminal--><!--reverse link BannerSettings to ChatInterface--><!--link HTTP to App--><g id="link_HTTP_App"><path d="M66.2578,133 C77.7907,133 89.3236,133 100.8565,133 " fill="none" id="HTTP-App" style="stroke:#D9D3D0;stroke-width:1.0;"/></g><!--link client_socket to Server--><g id="link_client_socket_Server"><path d="M576.281,598 C587.966,598 599.651,598 611.336,598 " fill="none" id="client_socket-Server" style="stroke:#D9D3D0;stroke-width:1.0;"/></g><!--link Server to AgentController--><g id="link_Server_AgentController"><path d="M652.721,621.17 C650.833,639.534 648.7766,659.5334 646.8896,677.8894 " fill="none" id="Server-to-AgentController" style="stroke:#D9D3D0;stroke-width:1.0;"/><polygon fill="#D9D3D0" points="646.276,683.8579,651.1754,675.3141,646.7873,678.8841,643.2173,674.496,646.276,683.8579" style="stroke:#D9D3D0;stroke-width:1.0;"/></g><!--link socket to client_socket--><g id="link_socket_client_socket"><path d="M567,384.513 C567,431.834 567,549.809 567,582.824 " fill="none" id="socket-to-client_socket" style="stroke:#D9D3D0;stroke-width:1.0;"/><polygon fill="#D9D3D0" points="567,588.824,571,579.824,567,583.824,563,579.824,567,588.824" style="stroke:#D9D3D0;stroke-width:1.0;"/><text fill="#D9D3D0" font-family="Verdana" font-size="13" lengthAdjust="spacing" textLength="75" x="609.5" y="457.0669">connects to</text><text fill="#D9D3D0" font-family="Verdana" font-size="13" lengthAdjust="spacing" textLength="158" x="572" y="472.1997">VITE_TERMINAL_WS_URL</text></g><!--SRC=[VLHDJy904BttLunSr4G4uys32H8IIT0OMkKWXYpj01lARhDT98RmtzsFqkwsrHwsctdlpSwyplP2Rd27i4ptc0dAP104Z2S8Ay6PH9O0oSlzCG3rc2NckumpP186MHQOK4RYBLbZ1UMMNsfyNOHYHnb9_-CCDqIErT5YHM8CMWXFX34K8Kf9sJgtZ9DVJexYcyRe55F9OvK_j7XRzhp8swHKEkX-RcYI8FlQTnyRYhPwUBn5QMFAEr0gpueYvhVk0BMMDU9nDSVjInDy3VnHwBaCWzig6yqcFbPBqu9RyokN74BjKDV7PlUr7broYoDsCIijHPtdA7g3guVxVl_kkgC7MmSCoI1TEykduWOirGShXzwT9XHQQtT5l6suGaEeXkOomHLbcAYA2d7Flcwpdnl8k910SpYJY1e_IOJSPt2WSWDxvICNhCpcj3LCgJvl5iwPQQxVE-IslzWW2-ktSy6ySBTHQJ6sUZLE3DQAFbJ_0C7J5CMnSMCTWSrb1w6cqyu6vqCrxjNneAnJtp6MEKWESmOVusYqY4RJb_7hOBAOXOltwUGN]--></g></svg>
