<svg width="70" height="46" viewBox="0 0 70 46" fill="none" xmlns="http://www.w3.org/2000/svg">
  <g clip-path="url(#clip0_8467_33285)">
    <g clip-path="url(#clip1_8467_33285)">
      <path
        d="M66.7813 13.7968C64.5776 12.4773 63.1054 14.4995 63.286 17.2452L63.2677 17.2659C63.2738 14.3987 62.8759 11.232 61.5537 8.67021C61.0854 7.7629 60.1366 6.27147 58.2604 6.97419C57.4371 7.28256 56.6903 8.21062 57.0759 10.6064C57.0759 10.6064 57.5044 13.1208 57.4248 16.2815V16.326C56.8892 7.60872 54.8692 4.94905 51.9799 5.12103C51.0555 5.28114 49.7915 5.66956 50.2169 8.34998C50.2169 8.34998 50.6791 11.146 50.8291 13.3728L50.8382 13.4855H50.8291C49.4701 8.6791 47.6398 8.61387 46.3146 8.80067C45.1117 8.96968 43.7987 10.1854 44.4628 12.5811C46.5472 20.0976 46.1401 29.1499 45.984 30.4456C45.5586 29.5591 45.427 28.8564 44.8362 27.8838C42.4612 23.9788 41.3318 23.6912 39.9453 23.6319C38.568 23.5726 37.0805 24.3999 37.1784 25.9743C37.2794 27.5488 38.1027 27.8097 39.2719 30.0038C40.184 31.7117 40.4442 33.9503 42.2806 38.0184C43.8017 41.3867 47.7776 45.0812 55.0191 44.6424C60.8865 44.4526 69.6492 42.4541 68.125 29.3308C67.7454 27.0506 68.0301 25.1411 68.229 23.1842C68.5382 20.148 68.9911 15.1163 66.7844 13.7938L66.7813 13.7968Z"
        fill="#FFE165" />
      <path
        d="M30.1451 23.724C28.7586 23.81 27.6384 24.1154 25.3368 28.0619C24.7644 29.0433 24.6481 29.749 24.238 30.6415C24.0574 29.3487 23.479 20.3053 25.4194 12.7533C26.0377 10.3486 24.7032 9.15665 23.4973 9.0084C22.169 8.84532 20.3356 8.94317 19.0685 13.797H19.0532L19.0716 13.6576C19.1787 11.4279 19.5888 8.62591 19.5888 8.62591C19.9592 5.93659 18.6921 5.57189 17.7647 5.4266C14.8815 5.308 12.9165 7.97952 12.537 16.6197H12.5309C12.3993 13.4916 12.7758 11.0009 12.7758 11.0009C13.1155 8.59626 12.3503 7.68302 11.5209 7.38948C9.63244 6.71937 8.71117 8.22859 8.26125 9.14479C6.98801 11.7303 6.64827 14.9029 6.70949 17.7702L6.69112 17.7494C6.81661 15.0008 5.30769 13.0053 3.12849 14.3633C0.949283 15.7243 1.49715 20.7471 1.86443 23.7774C2.10316 25.7314 2.42147 27.6349 2.0848 29.921C0.811553 43.0681 9.61101 44.9094 15.4814 44.9954C22.7291 45.3067 26.6345 41.5381 28.0914 38.1431C29.8482 34.0454 30.0686 31.8008 30.947 30.0781C32.0734 27.8632 32.8936 27.5875 32.964 26.013C33.0344 24.4386 31.5316 23.638 30.1543 23.721L30.1451 23.724Z"
        fill="#FFE165" />
      <path
        d="M33.0474 23.7441C32.3129 23.0473 31.208 22.6766 30.0847 22.7419C28.285 22.8516 27.0087 23.4891 25.0468 26.6024C24.9948 23.0413 25.1998 17.6953 26.4057 12.9927C26.8587 11.2256 26.4027 10.0722 25.9375 9.41688C25.3957 8.6519 24.554 8.14783 23.6236 8.03516C22.7758 7.93139 21.6678 7.92545 20.5874 8.78532C20.5874 8.77346 20.5905 8.75864 20.5905 8.75864C20.9394 6.2324 20.0395 4.78545 17.9185 4.4593L17.8022 4.44743C16.4953 4.3911 15.3751 4.80621 14.4722 5.67794C13.9886 6.14345 13.5692 6.74536 13.205 7.48959C12.798 6.9114 12.2746 6.61786 11.8614 6.46961C9.33633 5.57119 7.94066 7.49552 7.33464 8.72306C6.63068 10.1522 6.19301 11.7534 5.94815 13.3871C5.89612 13.3545 5.84715 13.3219 5.79512 13.2922C5.23807 12.9809 4.07808 12.6014 2.57222 13.5413C0.0196132 15.1365 0.344046 19.7205 0.852119 23.8953C0.879665 24.1177 0.907211 24.3371 0.934757 24.5595C1.15207 26.2703 1.35713 27.8863 1.07555 29.7869L1.06943 29.8343C0.558293 35.1092 1.58362 39.1683 4.11787 41.9051C6.55417 44.5381 10.3708 45.9079 15.4301 45.9821C15.8005 45.9969 16.1616 46.0028 16.5136 45.9998C25.157 45.9227 28.2575 40.3039 29.0196 38.5249C30.0051 36.224 30.5162 34.5073 30.9233 33.1255C31.2386 32.0581 31.4895 31.216 31.8446 30.5163C32.2486 29.7216 32.6036 29.2057 32.9158 28.7491C33.4484 27.9722 33.9075 27.3021 33.9626 26.0568C34.0024 25.1554 33.684 24.3549 33.0382 23.7441H33.0474ZM15.9076 7.07152C16.3943 6.60304 16.9544 6.39548 17.6644 6.41031C18.2796 6.50815 18.8367 6.65344 18.5826 8.49178C18.5643 8.60742 18.1664 11.3679 18.0593 13.6154C18.0593 13.6302 18.0593 13.6451 18.0593 13.6599C17.4992 15.854 17.0309 19.0148 16.7799 23.6344C15.6934 23.6996 14.6099 23.8123 13.557 23.9605C13.2173 14.588 14.0039 8.90393 15.9045 7.07152H15.9076ZM9.17105 9.57106C9.93316 8.02923 10.5728 8.10632 11.1666 8.31684C11.9899 8.61038 11.8614 10.2026 11.7665 10.8638C11.7512 10.9706 11.3839 13.4523 11.5125 16.6101C11.4176 18.825 11.4298 21.3779 11.5431 24.2985C10.5361 24.4913 9.58118 24.7136 8.70889 24.9538C8.2957 23.6077 6.46847 15.0564 9.17105 9.57403V9.57106ZM31.2324 27.6609C30.9019 28.1413 30.4918 28.7402 30.0296 29.6475C29.5919 30.5044 29.3226 31.4236 28.9767 32.5829C28.5819 33.9142 28.0891 35.5717 27.1495 37.7688C26.4823 39.3225 23.6787 44.3691 15.4914 44.0132C10.9279 43.948 7.70192 42.8272 5.62984 40.5886C3.49349 38.2818 2.63956 34.7296 3.08948 30.0359C3.40167 27.8892 3.17212 26.0716 2.94869 24.3163C2.92114 24.0969 2.89359 23.8805 2.86605 23.661C2.62119 21.6359 1.96621 16.2543 3.67101 15.1899C4.13011 14.9022 4.50657 14.837 4.78509 14.9912C5.2595 15.2551 5.73697 16.2158 5.66963 17.7042C5.66657 17.7843 5.67575 17.8614 5.69106 17.9385C5.77675 21.4076 6.41644 24.426 6.78066 25.5587C6.18383 25.7751 5.65739 26.0005 5.21665 26.2258C4.72082 26.4808 4.53412 27.0738 4.79734 27.5542C4.98098 27.8892 5.33602 28.079 5.7033 28.076C5.85939 28.076 6.01855 28.0375 6.16852 27.9604C8.64461 26.6884 14.5181 25.3956 19.6937 25.535C20.2568 25.5439 20.719 25.1228 20.7343 24.5802C20.7496 24.0376 20.3089 23.5869 19.7488 23.5721C19.4396 23.5632 19.1274 23.5632 18.8153 23.5632C19.3325 14.247 20.7557 11.2078 21.8637 10.3094C22.3228 9.93873 22.7605 9.90908 23.3665 9.98321C23.5348 10.004 23.9572 10.0988 24.2602 10.5258C24.5877 10.9913 24.6489 11.6792 24.4347 12.5154C22.5615 19.8124 22.9839 28.3933 23.1982 30.4748C23.1614 30.5459 23.1278 30.6171 23.088 30.6912C22.6503 31.4888 21.8361 32.319 20.8659 32.2627C20.3119 32.236 19.8253 32.6452 19.7916 33.1848C19.7579 33.7274 20.1834 34.193 20.7435 34.2256C22.384 34.3205 23.9297 33.3449 24.8785 31.6163C24.9795 31.4325 25.0652 31.2575 25.1417 31.0885C25.1478 31.0767 25.1539 31.0618 25.16 31.05C25.3376 30.6645 25.4661 30.3117 25.5794 29.9944C25.7569 29.5022 25.9099 29.0753 26.216 28.5475C28.3891 24.8174 29.2705 24.7641 30.2041 24.7077C30.7519 24.6751 31.2967 24.8441 31.6181 25.1525C31.8476 25.3689 31.9486 25.6387 31.9333 25.9768C31.9027 26.6736 31.7038 26.9641 31.2233 27.6639L31.2324 27.6609Z"
        fill="black" />
      <path
        d="M69.1207 29.176C68.8055 27.2813 68.9799 25.6624 69.1636 23.9485C69.188 23.7262 69.2125 23.5068 69.234 23.2844C69.6625 19.1036 69.9012 14.5107 67.3149 12.963C65.7907 12.0497 64.6368 12.45 64.0859 12.7703C64.0339 12.7999 63.9849 12.8355 63.9329 12.8681C63.6543 11.2403 63.1891 9.64804 62.4576 8.23074C61.8302 7.01506 60.4008 5.11446 57.8911 6.05735C57.4809 6.21153 56.9667 6.51397 56.5689 7.10105C56.1893 6.36275 55.7578 5.76974 55.265 5.31312C54.3468 4.45918 53.2174 4.06186 51.9136 4.14192L51.7973 4.15378C49.6823 4.51848 48.81 5.98026 49.2079 8.50649C49.2079 8.50649 49.2079 8.51835 49.211 8.52725C48.1152 7.68517 47.0073 7.71185 46.1625 7.83046C45.2352 7.96092 44.4026 8.47981 43.8762 9.25369C43.4263 9.91786 42.9886 11.0772 43.4753 12.8355C44.773 17.5173 45.0791 22.8604 45.0944 26.4214C43.0743 23.3437 41.7858 22.7299 39.9861 22.6528C38.8659 22.6054 37.761 22.9997 37.0417 23.7084C36.4081 24.331 36.1051 25.1375 36.1633 26.036C36.2429 27.2783 36.7142 27.9425 37.2621 28.7075C37.5834 29.1582 37.9477 29.6682 38.367 30.4539C38.7373 31.1477 39.0036 31.9839 39.3403 33.0454C39.7749 34.4182 40.3166 36.1261 41.3481 38.4092C42.1439 40.1734 45.3515 45.7388 53.9703 45.6587C54.3193 45.6558 54.6804 45.6439 55.0477 45.6202C60.1345 45.4571 63.9237 44.0161 66.311 41.3416C68.7902 38.5604 69.739 34.4834 69.1299 29.2175L69.1238 29.17L69.1207 29.176ZM58.0747 10.4575C57.9676 9.7874 57.8054 8.19813 58.6256 7.89272C59.2133 7.67034 59.856 7.58436 60.6457 9.11136C63.4523 14.5463 61.7904 23.1302 61.4017 24.4823C60.5233 24.2569 59.5653 24.0523 58.5552 23.8774C58.6103 20.9568 58.5736 18.4009 58.4389 16.189C58.5063 13.0312 58.0931 10.5554 58.0747 10.4575ZM52.0911 6.10182C52.8042 6.07217 53.3674 6.27083 53.8601 6.73338C55.7945 8.53318 56.6913 14.1994 56.5291 23.5779C55.4731 23.4474 54.3896 23.3555 53.3 23.3081C52.9634 18.6915 52.4339 15.5426 51.8309 13.3573C51.8309 13.3425 51.8309 13.3277 51.8309 13.3129C51.6809 11.0653 51.228 8.31376 51.2096 8.20702C50.9188 6.36572 51.4728 6.21153 52.088 6.10182H52.0911ZM67.116 29.4665C67.6546 34.1513 66.868 37.7183 64.7776 40.0637C62.7484 42.3379 59.5438 43.518 54.9528 43.6662C46.8114 44.1644 43.9038 39.1712 43.209 37.6294C42.2234 35.4471 41.7001 33.8015 41.2808 32.4761C40.9135 31.3197 40.6258 30.4094 40.1728 29.5584C39.6953 28.66 39.2729 28.07 38.9332 27.5956C38.4404 26.9047 38.2354 26.6171 38.1895 25.9203C38.168 25.5823 38.266 25.3095 38.4894 25.0901C38.8077 24.7758 39.3464 24.5949 39.8973 24.6216C40.8308 24.6631 41.7123 24.6987 43.9588 28.3902C44.2772 28.9121 44.4363 29.3361 44.623 29.8253C44.7454 30.1426 44.8801 30.4954 45.0668 30.8779C45.0729 30.8898 45.076 30.9016 45.0821 30.9105C45.1648 31.0795 45.2535 31.2515 45.3576 31.4353C46.3401 33.1462 47.9041 34.095 49.5415 33.9705C50.0986 33.929 50.5179 33.4545 50.475 32.9149C50.4322 32.3753 49.9455 31.975 49.3854 32.0106C48.4152 32.0817 47.5858 31.2663 47.1328 30.4776C47.0899 30.4035 47.0563 30.3353 47.0195 30.2641C47.194 28.1827 47.4541 19.5929 45.4402 12.3314C45.2076 11.4982 45.2566 10.8103 45.5749 10.3389C45.8718 9.906 46.2911 9.80222 46.4594 9.7785C47.0624 9.69252 47.5031 9.71624 47.9683 10.078C49.0947 10.9586 50.576 13.9711 51.2678 23.2755C50.9556 23.2784 50.6434 23.2873 50.3373 23.3022C49.7772 23.3259 49.3456 23.7855 49.3701 24.3281C49.3946 24.8707 49.8598 25.2799 50.4291 25.265C55.5986 25.0338 61.4996 26.2198 63.9971 27.4503C64.1471 27.5244 64.3063 27.557 64.4654 27.557C64.8327 27.5541 65.1847 27.3584 65.3622 27.0174C65.6162 26.5341 65.4173 25.9411 64.9153 25.695C64.4715 25.4756 63.939 25.2621 63.3391 25.0545C63.6819 23.9159 64.2665 20.8856 64.2848 17.4165C64.3001 17.3394 64.3063 17.2623 64.3001 17.1823C64.2022 15.6968 64.6644 14.7272 65.1326 14.4544C65.4081 14.2943 65.7846 14.3536 66.2498 14.6323C67.976 15.6671 67.4251 21.0576 67.217 23.0887C67.1955 23.3081 67.1711 23.5245 67.1466 23.744C66.9568 25.5052 66.7609 27.3228 67.116 29.4665Z"
        fill="black" />
      <path
        d="M38.7381 10.5084C38.5759 10.5084 38.4106 10.4788 38.2545 10.4076C37.6821 10.1526 37.4312 9.49736 37.6944 8.94289C38.5453 7.1431 39.791 5.48266 41.2938 4.14245C41.7559 3.73031 42.4782 3.75699 42.9037 4.20768C43.3291 4.65541 43.3016 5.35516 42.8363 5.76731C41.5539 6.91182 40.4919 8.32912 39.7634 9.86502C39.5737 10.2653 39.1666 10.5055 38.7381 10.5084Z"
        fill="black" />
      <path
        d="M34.898 9.87074C34.3073 9.87667 33.8023 9.43784 33.7533 8.85669C33.536 6.25633 33.5268 3.62039 33.7319 1.02003C33.7808 0.412188 34.3287 -0.0414663 34.9531 0.00300963C35.5805 0.0504507 36.0488 0.578232 36.0029 1.18607C35.807 3.67079 35.8162 6.1911 36.0243 8.67582C36.0763 9.28366 35.6081 9.81737 34.9806 9.86481C34.9531 9.86481 34.9255 9.86778 34.898 9.86778V9.87074Z"
        fill="black" />
      <path
        d="M30.976 10.5558C30.4649 10.5618 29.9935 10.2267 29.8619 9.7256C29.3783 7.88726 28.4632 6.14084 27.2175 4.67906C26.8165 4.20762 26.8869 3.51379 27.3705 3.12537C27.8572 2.73695 28.5734 2.80514 28.9743 3.27362C30.4312 4.98743 31.5024 7.03036 32.0656 9.18003C32.2217 9.77008 31.8514 10.372 31.2423 10.5232C31.1505 10.5469 31.0617 10.5558 30.9699 10.5588L30.976 10.5558Z"
        fill="black" />
    </g>
  </g>
  <defs>
    <clipPath id="clip0_8467_33285">
      <rect width="69" height="46" fill="white" transform="translate(0.5)" />
    </clipPath>
    <clipPath id="clip1_8467_33285">
      <rect width="69" height="46" fill="white" transform="translate(0.5)" />
    </clipPath>
  </defs>
</svg>
