<svg width="32" height="32" viewBox="0 0 32 32" fill="none" xmlns="http://www.w3.org/2000/svg">
<path d="M16 0C7.16328 0 0 7.16328 0 16C0 24.8367 7.16328 32 16 32C24.8367 32 32 24.8367 32 16C32 7.16328 24.8367 0 16 0ZM16 22.9508C9.75607 22.9508 4.69508 18.5469 4.69508 13.1148C4.69508 7.68262 9.75607 3.27869 16 3.27869C22.2439 3.27869 27.3049 7.68262 27.3049 13.1148C27.3049 18.5469 22.2439 22.9508 16 22.9508Z" fill="white"/>
<path d="M18.7806 8.4502H13.22C12.4232 8.4502 11.7773 9.09579 11.7773 9.89216C11.7773 10.6885 12.4232 11.3341 13.22 11.3341H18.7806C19.5774 11.3341 20.2232 10.6885 20.2232 9.89216C20.2232 9.09579 19.5774 8.4502 18.7806 8.4502Z" fill="white"/>
</svg>
