<svg width="39" height="26" viewBox="0 0 39 26" fill="none" xmlns="http://www.w3.org/2000/svg">
  <g clip-path="url(#clip0_12391_446)">
    <g clip-path="url(#clip1_12391_446)">
      <path
        d="M37.4642 7.79821C36.2186 7.05244 35.3865 8.1954 35.4886 9.74729L35.4782 9.75902C35.4816 8.13842 35.2567 6.34856 34.5094 4.90057C34.2447 4.38775 33.7084 3.54477 32.648 3.94196C32.1826 4.11625 31.7605 4.64081 31.9785 5.99494C31.9785 5.99494 32.2207 7.41611 32.1757 9.20262V9.22776C31.873 4.3006 30.7312 2.79731 29.0981 2.89451C28.5757 2.98501 27.8612 3.20456 28.1017 4.71958C28.1017 4.71958 28.3629 6.29995 28.4477 7.55856L28.4529 7.62224H28.4477C27.6796 4.9056 26.6451 4.86873 25.896 4.97431C25.2161 5.06984 24.474 5.75696 24.8494 7.11109C26.0275 11.3595 25.7974 16.4761 25.7092 17.2084C25.4687 16.7073 25.3943 16.3101 25.0604 15.7604C23.718 13.5533 23.0796 13.3907 22.296 13.3572C21.5175 13.3237 20.6767 13.7913 20.7321 14.6812C20.7892 15.5711 21.2545 15.7185 21.9154 16.9587C22.4309 17.924 22.5779 19.1893 23.6159 21.4887C24.4757 23.3925 26.7229 25.4807 30.816 25.2327C34.1323 25.1254 39.0851 23.9958 38.2236 16.5783C38.0091 15.2895 38.17 14.2102 38.2824 13.1041C38.4572 11.388 38.7132 8.54399 37.4659 7.79654L37.4642 7.79821Z"
        fill="#FFE165" />
      <path
        d="M16.7567 13.4091C15.973 13.4577 15.3399 13.6303 14.039 15.8609C13.7155 16.4157 13.6497 16.8145 13.4179 17.319C13.3158 16.5883 12.9889 11.4768 14.0857 7.20822C14.4351 5.84906 13.6809 5.17535 12.9993 5.09156C12.2485 4.99938 11.2122 5.05469 10.496 7.79814H10.4874L10.4977 7.71938C10.5583 6.4591 10.7901 4.87536 10.7901 4.87536C10.9994 3.35532 10.2832 3.14918 9.75905 3.06706C8.12944 3.00003 7.01881 4.51002 6.8043 9.3936H6.80084C6.72645 7.62552 6.93923 6.21776 6.93923 6.21776C7.13126 4.8586 6.69877 4.34243 6.22995 4.17651C5.16258 3.79776 4.64186 4.65079 4.38756 5.16865C3.6679 6.63004 3.47587 8.42326 3.51047 10.0439L3.50009 10.0321C3.57102 8.47856 2.71816 7.35068 1.48643 8.11824C0.254707 8.88748 0.564368 11.7265 0.771962 13.4392C0.906898 14.5437 1.08681 15.6196 0.896519 16.9117C0.176859 24.3427 5.15047 25.3834 8.46851 25.432C12.565 25.608 14.7725 23.4779 15.5959 21.559C16.5889 19.2429 16.7135 17.9742 17.2099 17.0005C17.8466 15.7486 18.3102 15.5928 18.35 14.7029C18.3898 13.813 17.5404 13.3605 16.7619 13.4074L16.7567 13.4091Z"
        fill="#FFE165" />
      <path
        d="M18.3964 13.4209C17.9812 13.027 17.3567 12.8176 16.7218 12.8544C15.7046 12.9164 14.9832 13.2768 13.8743 15.0365C13.8449 13.0237 13.9608 10.002 14.6424 7.34405C14.8984 6.34521 14.6406 5.69328 14.3777 5.3229C14.0715 4.89052 13.5958 4.60562 13.0699 4.54193C12.5907 4.48328 11.9644 4.47992 11.3537 4.96594C11.3537 4.95923 11.3555 4.95085 11.3555 4.95085C11.5527 3.52298 11.0441 2.70514 9.84523 2.52079L9.77949 2.51409C9.0408 2.48224 8.40764 2.71687 7.8973 3.20959C7.62397 3.4727 7.38697 3.81291 7.1811 4.23357C6.95102 3.90676 6.6552 3.74085 6.42165 3.65705C4.99445 3.14925 4.20559 4.23692 3.86306 4.93074C3.46517 5.73853 3.21779 6.64352 3.07939 7.56694C3.04998 7.54851 3.0223 7.53007 2.99289 7.51331C2.67804 7.33734 2.02239 7.12283 1.17126 7.65409C-0.271523 8.55573 -0.0881482 11.1467 0.199024 13.5064C0.214593 13.632 0.230163 13.7561 0.245732 13.8818C0.368559 14.8488 0.484465 15.7621 0.32531 16.8364L0.32185 16.8632C0.0329484 19.8446 0.612482 22.1389 2.04488 23.6858C3.42192 25.174 5.57917 25.9483 8.43878 25.9902C8.6481 25.9986 8.85223 26.0019 9.05118 26.0002C13.9366 25.9567 15.689 22.7808 16.1198 21.7753C16.6768 20.4748 16.9657 19.5044 17.1958 18.7234C17.374 18.1201 17.5158 17.6442 17.7165 17.2486C17.9449 16.7995 18.1455 16.5079 18.322 16.2498C18.623 15.8107 18.8825 15.432 18.9136 14.7281C18.9361 14.2186 18.7562 13.7661 18.3912 13.4209H18.3964ZM8.70865 3.99726C8.98371 3.73247 9.30029 3.61516 9.70164 3.62354C10.0494 3.67884 10.3642 3.76096 10.2206 4.80002C10.2102 4.86538 9.98535 6.42565 9.9248 7.69599C9.9248 7.70437 9.9248 7.71275 9.9248 7.72113C9.60822 8.9613 9.34354 10.7478 9.20168 13.3589C8.58755 13.3957 7.97515 13.4594 7.38005 13.5432C7.18802 8.24568 7.63262 5.03297 8.70692 3.99726H8.70865ZM4.90103 5.41005C5.33179 4.53858 5.69335 4.58215 6.02896 4.70114C6.49431 4.86706 6.42166 5.76702 6.36803 6.14075C6.35938 6.20108 6.15178 7.60381 6.22444 9.38865C6.17081 10.6406 6.17773 12.0835 6.24174 13.7343C5.67259 13.8432 5.13284 13.9689 4.63981 14.1047C4.40626 13.3438 3.37348 8.51048 4.90103 5.41173V5.41005ZM17.3705 15.6348C17.1837 15.9062 16.9519 16.2448 16.6906 16.7576C16.4433 17.2419 16.291 17.7615 16.0955 18.4168C15.8724 19.1692 15.5939 20.1061 15.0628 21.3479C14.6856 22.2261 13.101 25.0785 8.47338 24.8774C5.89402 24.8405 4.07065 24.207 2.89948 22.9417C1.69197 21.6378 1.20931 19.6301 1.46362 16.9772C1.64007 15.7638 1.51033 14.7365 1.38404 13.7443C1.36847 13.6203 1.3529 13.498 1.33733 13.374C1.19893 12.2293 0.828725 9.18754 1.79231 8.58589C2.0518 8.42333 2.26458 8.38646 2.42201 8.47361C2.69015 8.62276 2.96002 9.16576 2.92197 10.0071C2.92024 10.0523 2.92543 10.0959 2.93407 10.1395C2.98251 12.1003 3.34407 13.8063 3.54994 14.4465C3.2126 14.5689 2.91505 14.6962 2.66593 14.8236C2.38568 14.9677 2.28015 15.3029 2.42893 15.5744C2.53273 15.7638 2.7334 15.8711 2.94099 15.8694C3.02922 15.8694 3.11918 15.8476 3.20395 15.804C4.60348 15.0851 7.92325 14.3544 10.8486 14.4331C11.1669 14.4382 11.4281 14.2002 11.4368 13.8935C11.4454 13.5868 11.1963 13.3321 10.8797 13.3237C10.705 13.3187 10.5286 13.3187 10.3521 13.3187C10.6445 8.05295 11.4489 6.33515 12.0751 5.82735C12.3346 5.61786 12.582 5.6011 12.9245 5.643C13.0197 5.65473 13.2584 5.70836 13.4297 5.94969C13.6148 6.21281 13.6494 6.60162 13.5283 7.07423C12.4696 11.1986 12.7083 16.0487 12.8294 17.2252C12.8086 17.2654 12.7896 17.3056 12.7671 17.3475C12.5197 17.7983 12.0596 18.2676 11.5112 18.2358C11.198 18.2207 10.923 18.4519 10.904 18.757C10.8849 19.0637 11.1254 19.3268 11.442 19.3452C12.3692 19.3988 13.2428 18.8475 13.7791 17.8704C13.8362 17.7665 13.8847 17.6676 13.9279 17.5721C13.9314 17.5654 13.9348 17.557 13.9383 17.5503C14.0386 17.3324 14.1113 17.133 14.1753 16.9537C14.2756 16.6755 14.3621 16.4342 14.5351 16.1358C15.7634 14.0276 16.2616 13.9974 16.7892 13.9655C17.0989 13.9471 17.4068 14.0426 17.5885 14.2169C17.7182 14.3393 17.7753 14.4918 17.7667 14.6828C17.7494 15.0767 17.6369 15.2409 17.3653 15.6364L17.3705 15.6348Z"
        fill="black" />
      <path
        d="M38.7854 16.4908C38.6072 15.4199 38.7058 14.5049 38.8096 13.5362C38.8235 13.4105 38.8373 13.2865 38.8494 13.1608C39.0916 10.7978 39.2265 8.20179 37.7647 7.32697C36.9032 6.81079 36.251 7.03704 35.9396 7.21803C35.9102 7.23479 35.8825 7.2549 35.8531 7.27334C35.6957 6.35327 35.4328 5.4533 35.0193 4.65222C34.6647 3.9651 33.8568 2.89084 32.4382 3.42378C32.2064 3.51093 31.9158 3.68187 31.6909 4.0137C31.4764 3.5964 31.2324 3.26122 30.9539 3.00313C30.4349 2.52047 29.7966 2.2959 29.0596 2.34115L28.9939 2.34785C27.7985 2.55399 27.3055 3.38021 27.5303 4.80808C27.5303 4.80808 27.5303 4.81478 27.5321 4.81981C26.9128 4.34385 26.2865 4.35894 25.809 4.42597C25.2849 4.49971 24.8143 4.793 24.5168 5.23041C24.2625 5.60581 24.0151 6.26109 24.2902 7.2549C25.0236 9.90116 25.1966 12.9211 25.2053 14.9339C24.0635 13.1943 23.3352 12.8474 22.318 12.8038C21.6848 12.777 21.0603 12.9999 20.6538 13.4004C20.2957 13.7524 20.1244 14.2082 20.1573 14.716C20.2023 15.4182 20.4687 15.7936 20.7784 16.226C20.96 16.4808 21.1659 16.769 21.4029 17.2131C21.6122 17.6053 21.7627 18.0779 21.953 18.6779C22.1986 19.4538 22.5048 20.4191 23.0878 21.7096C23.5376 22.7068 25.3506 25.8524 30.2221 25.8072C30.4194 25.8055 30.6235 25.7988 30.8311 25.7854C33.7063 25.6932 35.8479 24.8787 37.1973 23.3671C38.5986 21.7951 39.1349 19.4907 38.7906 16.5143L38.7871 16.4875L38.7854 16.4908ZM32.542 5.91083C32.4815 5.53207 32.3898 4.63379 32.8534 4.46117C33.1856 4.33548 33.5488 4.28687 33.9952 5.14997C35.5815 8.2219 34.6422 13.0736 34.4225 13.8379C33.926 13.7105 33.3845 13.5949 32.8136 13.496C32.8448 11.8452 32.824 10.4006 32.7479 9.15035C32.7859 7.36551 32.5524 5.96613 32.542 5.91083ZM29.16 3.44892C29.563 3.43216 29.8813 3.54445 30.1599 3.80589C31.2532 4.82316 31.7601 8.02582 31.6684 13.3267C31.0716 13.253 30.4592 13.201 29.8433 13.1742C29.653 10.5648 29.3537 8.78501 29.0129 7.54986C29.0129 7.54148 29.0129 7.5331 29.0129 7.52472C28.9281 6.25439 28.6721 4.69915 28.6617 4.63881C28.4974 3.59808 28.8105 3.51093 29.1582 3.44892H29.16ZM37.6523 16.6551C37.9568 19.303 37.5122 21.3191 36.3306 22.6447C35.1836 23.9302 33.3724 24.5972 30.7775 24.681C26.1758 24.9625 24.5323 22.1403 24.1396 21.2688C23.5826 20.0354 23.2868 19.1052 23.0498 18.3561C22.8422 17.7025 22.6796 17.188 22.4235 16.707C22.1537 16.1992 21.9149 15.8657 21.7229 15.5976C21.4444 15.2071 21.3285 15.0445 21.3025 14.6507C21.2904 14.4596 21.3458 14.3054 21.4721 14.1814C21.652 14.0038 21.9564 13.9015 22.2678 13.9166C22.7955 13.9401 23.2937 13.9602 24.5635 16.0467C24.7434 16.3417 24.8334 16.5813 24.9389 16.8578C25.0081 17.0372 25.0842 17.2366 25.1897 17.4528C25.1932 17.4595 25.1949 17.4662 25.1984 17.4712C25.2451 17.5668 25.2953 17.664 25.3541 17.7679C25.9094 18.7349 26.7934 19.2711 27.7189 19.2008C28.0338 19.1773 28.2708 18.9092 28.2465 18.6041C28.2223 18.2991 27.9473 18.0729 27.6307 18.093C27.0823 18.1332 26.6135 17.6723 26.3574 17.2265C26.3332 17.1846 26.3142 17.1461 26.2934 17.1059C26.392 15.9294 26.5391 11.0743 25.4008 6.97C25.2693 6.49907 25.297 6.11026 25.4769 5.84379C25.6447 5.59911 25.8817 5.54045 25.9769 5.52704C26.3177 5.47844 26.5668 5.49185 26.8297 5.69631C27.4663 6.19406 28.3036 7.89678 28.6946 13.1558C28.5181 13.1574 28.3417 13.1625 28.1687 13.1708C27.8521 13.1843 27.6082 13.444 27.622 13.7507C27.6359 14.0574 27.8988 14.2887 28.2206 14.2803C31.1425 14.1496 34.4778 14.8199 35.8895 15.5154C35.9742 15.5573 36.0642 15.5758 36.1541 15.5758C36.3617 15.5741 36.5607 15.4635 36.661 15.2708C36.8046 14.9976 36.6922 14.6624 36.4085 14.5233C36.1576 14.3993 35.8566 14.2786 35.5175 14.1613C35.7113 13.5178 36.0417 11.805 36.0521 9.84418C36.0607 9.8006 36.0642 9.75703 36.0607 9.71178C36.0054 8.87215 36.2666 8.32413 36.5313 8.16995C36.687 8.07945 36.8998 8.11297 37.1627 8.2705C38.1384 8.85539 37.827 11.9022 37.7094 13.0502C37.6973 13.1742 37.6834 13.2965 37.6696 13.4206C37.5623 14.416 37.4516 15.4434 37.6523 16.6551Z"
        fill="black" />
      <path
        d="M21.6129 5.93941C21.5212 5.93941 21.4278 5.92265 21.3395 5.88242C21.016 5.7383 20.8742 5.36792 21.023 5.05453C21.5039 4.03725 22.208 3.09875 23.0574 2.34124C23.3186 2.10829 23.7269 2.12337 23.9673 2.37811C24.2078 2.63117 24.1922 3.02668 23.9293 3.25963C23.2044 3.90653 22.6041 4.70762 22.1924 5.57573C22.0851 5.80198 21.8551 5.93773 21.6129 5.93941Z"
        fill="black" />
      <path
        d="M19.4429 5.57912C19.109 5.58247 18.8236 5.33443 18.7959 5.00596C18.6731 3.53619 18.6679 2.04631 18.7838 0.576537C18.8115 0.232976 19.1211 -0.0234375 19.474 0.0017011C19.8287 0.0285156 20.0934 0.326827 20.0674 0.670387C19.9567 2.0748 19.9619 3.49932 20.0795 4.90373C20.1089 5.24729 19.8442 5.54895 19.4896 5.57576C19.474 5.57576 19.4585 5.57744 19.4429 5.57744V5.57912Z"
        fill="black" />
      <path
        d="M17.2247 5.96646C16.9358 5.96981 16.6694 5.78044 16.595 5.49721C16.3217 4.45815 15.8044 3.47104 15.1003 2.64482C14.8737 2.37835 14.9135 1.98618 15.1868 1.76664C15.4619 1.5471 15.8667 1.58564 16.0933 1.85044C16.9168 2.81911 17.5223 3.97381 17.8406 5.18884C17.9288 5.52235 17.7195 5.86255 17.3752 5.94803C17.3233 5.96143 17.2732 5.96646 17.2213 5.96814L17.2247 5.96646Z"
        fill="black" />
    </g>
  </g>
  <defs>
    <clipPath id="clip0_12391_446">
      <rect width="39" height="26" fill="white" />
    </clipPath>
    <clipPath id="clip1_12391_446">
      <rect width="39" height="26" fill="white" />
    </clipPath>
  </defs>
</svg>
