<svg width="46" height="30" viewBox="0 0 46 30" fill="none" xmlns="http://www.w3.org/2000/svg">
<g clip-path="url(#clip0_9694_18145)">
<path d="M21.5635 15.4854C21.0768 15.031 20.3448 14.7892 19.6006 14.8318C18.4083 14.9033 17.5627 15.3191 16.2629 17.3495C16.2284 15.0271 16.3643 11.5406 17.1632 8.47366C17.4633 7.32116 17.1612 6.56893 16.853 6.14158C16.4941 5.64267 15.9364 5.31394 15.32 5.24046C14.7583 5.17278 14.0242 5.16891 13.3084 5.72969C13.3084 5.72196 13.3104 5.71229 13.3104 5.71229C13.5416 4.06474 12.9454 3.12108 11.5402 2.90837L11.4631 2.90063C10.5973 2.86389 9.85511 3.13462 9.25691 3.70313C8.93652 4.00673 8.65872 4.39928 8.41741 4.88465C8.14771 4.50757 7.80096 4.31613 7.52721 4.21944C5.85429 3.63352 4.92963 4.88852 4.52813 5.68908C4.06174 6.62114 3.77176 7.66536 3.60954 8.73085C3.57507 8.70958 3.54262 8.68831 3.50815 8.66897C3.1391 8.46593 2.37057 8.21841 1.3729 8.83141C-0.318269 9.87176 -0.103324 12.8613 0.233288 15.584C0.251538 15.729 0.269788 15.8721 0.288038 16.0172C0.43201 17.1329 0.567871 18.1868 0.381316 19.4263L0.37726 19.4573C0.0386208 22.8974 0.717927 25.5447 2.39693 27.3295C4.01104 29.0467 6.53968 29.9401 9.89161 29.9884C10.137 29.9981 10.3762 30.002 10.6094 30C16.3359 29.9497 18.39 26.2853 18.895 25.1251C19.5479 23.6245 19.8865 22.5049 20.1562 21.6037C20.3651 20.9076 20.5314 20.3584 20.7666 19.9021C21.0343 19.3838 21.2695 19.0473 21.4763 18.7495C21.8291 18.2429 22.1333 17.8059 22.1698 16.9937C22.1962 16.4059 21.9853 15.8837 21.5574 15.4854H21.5635ZM10.2079 4.61199C10.5304 4.30646 10.9014 4.1711 11.3719 4.18077C11.7795 4.24458 12.1485 4.33933 11.9802 5.53825C11.9681 5.61367 11.7044 7.41398 11.6335 8.87975C11.6335 8.88942 11.6335 8.89909 11.6335 8.90875C11.2624 10.3397 10.9521 12.4011 10.7859 15.4138C10.066 15.4564 9.34816 15.5299 8.6506 15.6266C8.42552 9.51401 8.94666 5.80704 10.2059 4.61199H10.2079ZM5.74479 6.24213C6.24971 5.23659 6.67352 5.28687 7.06691 5.42416C7.61238 5.6156 7.52721 6.65402 7.46435 7.08524C7.45421 7.15486 7.21088 8.77339 7.29605 10.8328C7.23319 12.2773 7.2413 13.9423 7.31632 15.847C6.64919 15.9727 6.01652 16.1177 5.4386 16.2744C5.16485 15.3964 3.95426 9.81955 5.74479 6.24407V6.24213ZM20.361 18.0399C20.142 18.3531 19.8703 18.7437 19.5641 19.3355C19.2741 19.8943 19.0957 20.4938 18.8666 21.2499C18.605 22.1181 18.2785 23.1991 17.656 24.632C17.2139 25.6452 15.3565 28.9365 9.93216 28.7044C6.90874 28.6619 4.77146 27.9309 3.39865 26.471C1.98326 24.9665 1.41751 22.6499 1.7156 19.5888C1.92243 18.1888 1.77035 17.0034 1.62232 15.8586C1.60407 15.7155 1.58582 15.5743 1.56757 15.4313C1.40534 14.1105 0.9714 10.6008 2.10087 9.90656C2.40504 9.71899 2.65446 9.67645 2.83899 9.777C3.15329 9.94911 3.46962 10.5756 3.42501 11.5464C3.42299 11.5986 3.42907 11.6489 3.43921 11.6991C3.49599 13.9616 3.91979 15.9302 4.1611 16.6688C3.76568 16.81 3.4169 16.957 3.1249 17.1039C2.7964 17.2702 2.67271 17.657 2.8471 17.9702C2.96876 18.1888 3.20399 18.3125 3.44732 18.3106C3.55074 18.3106 3.65618 18.2854 3.75554 18.2352C5.39602 17.4056 9.28733 16.5625 12.7163 16.6534C13.0894 16.6592 13.3956 16.3846 13.4057 16.0307C13.4159 15.6768 13.1239 15.3829 12.7528 15.3732C12.548 15.3674 12.3412 15.3674 12.1343 15.3674C12.477 9.29163 13.4199 7.30955 14.154 6.72363C14.4582 6.48191 14.7481 6.46258 15.1496 6.51092C15.2612 6.52446 15.541 6.58634 15.7418 6.86479C15.9587 7.16839 15.9993 7.61702 15.8573 8.16233C14.6163 12.9213 14.8962 18.5175 15.0381 19.875C15.0138 19.9214 14.9915 19.9678 14.9651 20.0161C14.6751 20.5363 14.1357 21.0778 13.4929 21.041C13.1259 21.0236 12.8035 21.2905 12.7812 21.6424C12.7589 21.9963 13.0407 22.2999 13.4118 22.3212C14.4987 22.383 15.5228 21.7468 16.1514 20.6195C16.2183 20.4996 16.2751 20.3855 16.3258 20.2753C16.3298 20.2675 16.3339 20.2579 16.3379 20.2501C16.4555 19.9987 16.5407 19.7686 16.6157 19.5617C16.7333 19.2407 16.8347 18.9623 17.0375 18.618C18.4772 16.1854 19.0612 16.1506 19.6797 16.1139C20.0427 16.0926 20.4036 16.2028 20.6165 16.4039C20.7686 16.5451 20.8355 16.7211 20.8254 16.9415C20.8051 17.3959 20.6733 17.5854 20.355 18.0418L20.361 18.0399Z" fill="#F9F7F2"/>
<path d="M45.4609 19.0284C45.252 17.7928 45.3676 16.7369 45.4893 15.6193C45.5055 15.4742 45.5217 15.3311 45.5359 15.1861C45.8198 12.4595 45.978 9.46417 44.2645 8.45476C43.2547 7.85916 42.4902 8.12022 42.1252 8.32906C42.0907 8.3484 42.0583 8.3716 42.0238 8.39288C41.8393 7.33125 41.5311 6.29284 41.0464 5.36851C40.6307 4.57568 39.6838 3.33615 38.021 3.95108C37.7493 4.05164 37.4086 4.24888 37.145 4.63176C36.8935 4.15026 36.6076 3.76351 36.2811 3.46571C35.6728 2.9088 34.9246 2.64968 34.0607 2.70189L33.9837 2.70962C32.5825 2.94747 32.0045 3.9008 32.2682 5.54835C32.2682 5.54835 32.2682 5.55608 32.2702 5.56188C31.5442 5.0127 30.8102 5.03011 30.2505 5.10746C29.6361 5.19254 29.0845 5.53094 28.7358 6.03565C28.4377 6.46881 28.1477 7.2249 28.4701 8.3716C29.3299 11.425 29.5327 14.9096 29.5428 17.232C28.2045 15.2248 27.3508 14.8245 26.1585 14.7742C25.4163 14.7433 24.6843 15.0005 24.2077 15.4626C23.788 15.8687 23.5872 16.3947 23.6258 16.9806C23.6785 17.7908 23.9908 18.224 24.3537 18.7229C24.5666 19.0168 24.808 19.3494 25.0858 19.8619C25.3311 20.3144 25.5075 20.8597 25.7306 21.552C26.0185 22.4473 26.3775 23.5611 27.0608 25.0501C27.588 26.2007 29.7132 29.8303 35.4234 29.7781C35.6546 29.7761 35.8938 29.7684 36.1372 29.7529C39.5073 29.6466 42.0177 28.7068 43.5994 26.9625C45.2419 25.1487 45.8705 22.4898 45.467 19.0555L45.4629 19.0246L45.4609 19.0284ZM38.1426 6.82075C38.0717 6.38372 37.9642 5.34724 38.5076 5.14806C38.897 5.00303 39.3228 4.94696 39.846 5.94283C41.7055 9.48737 40.6044 15.0855 40.3468 15.9673C39.7649 15.8204 39.1302 15.6869 38.461 15.5728C38.4975 13.6681 38.4732 12.0012 38.3839 10.5587C38.4286 8.49923 38.1548 6.88456 38.1426 6.82075ZM34.1783 3.98009C34.6508 3.96075 35.0239 4.09031 35.3504 4.39197C36.6319 5.56575 37.2261 9.26112 37.1186 15.3775C36.419 15.2924 35.7012 15.2325 34.9793 15.2016C34.7562 12.1907 34.4054 10.1371 34.006 8.71194C34.006 8.70227 34.006 8.69261 34.006 8.68294C33.9066 7.21716 33.6065 5.42266 33.5943 5.35304C33.4017 4.15219 33.7687 4.05164 34.1763 3.98009H34.1783ZM44.1327 19.2179C44.4896 22.2732 43.9685 24.5995 42.5835 26.1291C41.2391 27.6123 39.116 28.3819 36.0743 28.4786C30.6804 28.8035 28.754 25.5471 28.2937 24.5415C27.6408 23.1183 27.294 22.0451 27.0162 21.1807C26.7729 20.4265 26.5823 19.8329 26.2821 19.2779C25.9658 18.692 25.686 18.3071 25.4609 17.9977C25.1344 17.5472 24.9986 17.3596 24.9681 16.9052C24.954 16.6847 25.0188 16.5068 25.1669 16.3637C25.3778 16.1588 25.7347 16.0408 26.0997 16.0582C26.7181 16.0853 27.3021 16.1085 28.7905 18.516C29.0014 18.8563 29.1069 19.1329 29.2305 19.4519C29.3117 19.6588 29.4009 19.8889 29.5246 20.1384C29.5286 20.1461 29.5307 20.1539 29.5347 20.1597C29.5895 20.2699 29.6483 20.382 29.7172 20.5019C30.3681 21.6177 31.4043 22.2365 32.4892 22.1553C32.8582 22.1282 33.1361 21.8188 33.1077 21.4669C33.0793 21.1149 32.7569 20.8539 32.3858 20.8771C31.743 20.9235 31.1934 20.3917 30.8933 19.8773C30.8649 19.829 30.8426 19.7845 30.8183 19.7381C30.9339 18.3806 31.1062 12.7786 29.772 8.04287C29.6179 7.49949 29.6503 7.05086 29.8612 6.7434C30.0579 6.46107 30.3357 6.39339 30.4472 6.37792C30.8467 6.32184 31.1387 6.33731 31.4469 6.57323C32.1931 7.14755 33.1746 9.11223 33.6329 15.1803C33.426 15.1822 33.2192 15.188 33.0164 15.1977C32.6453 15.2132 32.3594 15.5129 32.3756 15.8668C32.3919 16.2206 32.7001 16.4875 33.0772 16.4778C36.5022 16.327 40.4117 17.1005 42.0664 17.903C42.1658 17.9513 42.2712 17.9726 42.3766 17.9726C42.62 17.9707 42.8532 17.843 42.9708 17.6207C43.1391 17.3055 43.0073 16.9187 42.6747 16.7582C42.3807 16.6151 42.0279 16.4759 41.6304 16.3405C41.8575 15.598 42.2448 13.6217 42.257 11.3592C42.2671 11.309 42.2712 11.2587 42.2671 11.2065C42.2023 10.2377 42.5085 9.60533 42.8187 9.42742C43.0012 9.323 43.2506 9.36168 43.5588 9.54345C44.7025 10.2183 44.3375 13.7339 44.1996 15.0585C44.1854 15.2016 44.1692 15.3427 44.153 15.4858C44.0273 16.6345 43.8975 17.8198 44.1327 19.2179Z" fill="#F9F7F2"/>
<path d="M25.3325 6.85319C25.225 6.85319 25.1155 6.83386 25.0121 6.78745C24.6329 6.62114 24.4666 6.19379 24.641 5.83218C25.2047 4.6584 26.03 3.57551 27.0257 2.70146C27.3319 2.43267 27.8104 2.45007 28.0923 2.744C28.3741 3.036 28.3559 3.49236 28.0477 3.76115C27.198 4.50757 26.4944 5.4319 26.0118 6.43357C25.8861 6.69463 25.6164 6.85126 25.3325 6.85319Z" fill="#F9F7F2"/>
<path d="M22.7896 6.43744C22.3983 6.44131 22.0637 6.15511 22.0313 5.7761C21.8873 4.08021 21.8812 2.36112 22.0171 0.665235C22.0495 0.268818 22.4125 -0.0270433 22.8261 0.0019628C23.2418 0.0329026 23.5521 0.377108 23.5217 0.773524C23.3919 2.394 23.398 4.03767 23.5359 5.65814C23.5703 6.05456 23.2601 6.40263 22.8444 6.43357C22.8261 6.43357 22.8079 6.4355 22.7896 6.4355V6.43744Z" fill="#F9F7F2"/>
<path d="M20.19 6.88414C19.8514 6.888 19.5391 6.66949 19.4519 6.34269C19.1315 5.14377 18.5252 4.0048 17.6999 3.05147C17.4343 2.74401 17.4809 2.29151 17.8013 2.03819C18.1237 1.78487 18.5982 1.82935 18.8639 2.13488C19.8291 3.25258 20.5388 4.58492 20.9119 5.98688C21.0153 6.3717 20.77 6.76425 20.3664 6.86287C20.3056 6.87834 20.2468 6.88414 20.186 6.88607L20.19 6.88414Z" fill="#F9F7F2"/>
</g>
<defs>
<clipPath id="clip0_9694_18145">
<rect width="45.7143" height="30" fill="white"/>
</clipPath>
</defs>
</svg>
