<svg width="22" height="22" viewBox="0 0 22 22" fill="none" xmlns="http://www.w3.org/2000/svg">
  <path d="M12 2.25C6.624 2.25 2.25 6.624 2.25 12C2.25 16.376 5.115 20.073 9.057 21.428C9.563 21.514 9.747 21.211 9.747 20.95C9.747 20.713 9.738 19.991 9.738 19.153C7 19.713 6.4 18.45 6.4 18.45C5.952 17.387 5.328 17.084 5.328 17.084C4.476 16.487 5.387 16.487 5.387 16.487C6.328 16.546 6.85 17.481 6.85 17.481C7.675 18.862 9.057 18.487 9.776 18.226C9.867 17.603 10.133 17.179 10.419 16.94C8.287 16.713 6.05 15.85 6.05 11.9C6.05 10.837 6.4 9.975 6.859 9.3C6.759 9.05 6.45 8.038 6.95 6.65C6.95 6.65 7.734 6.4 9.738 7.775C10.483 7.534 11.25 7.413 12.017 7.413C12.784 7.413 13.55 7.534 14.296 7.775C16.3 6.4 17.084 6.65 17.084 6.65C17.584 8.038 17.275 9.05 17.175 9.3C17.634 9.975 17.984 10.837 17.984 11.9C17.984 15.85 15.747 16.7 13.615 16.94C13.975 17.237 14.296 17.813 14.296 18.7C14.296 19.975 14.287 20.6 14.287 20.95C14.287 21.211 14.471 21.514 14.977 21.428C18.919 20.073 21.784 16.376 21.784 12C21.784 6.624 17.376 2.25 12 2.25Z" fill="currentColor"/>
</svg>
