<svg width="22" height="22" viewBox="0 0 22 22" fill="none" xmlns="http://www.w3.org/2000/svg">
  <path
    d="M15.359 21V17.319C15.3974 16.8654 15.3314 16.4095 15.1651 15.9814C14.9989 15.5534 14.7363 15.1631 14.3949 14.8364C17.6154 14.5035 21 13.3716 21 8.17826C20.9997 6.85027 20.4489 5.57321 19.4615 4.61139C19.9291 3.44954 19.896 2.16532 19.3692 1.02548C19.3692 1.02548 18.159 0.692576 15.359 2.43321C13.0082 1.84237 10.5302 1.84237 8.17949 2.43321C5.37949 0.692576 4.16923 1.02548 4.16923 1.02548C3.64244 2.16532 3.60938 3.44954 4.07692 4.61139C3.08218 5.58034 2.53079 6.86895 2.53846 8.2068C2.53846 13.3621 5.92308 14.494 9.14359 14.865C8.80615 15.1883 8.54591 15.574 8.3798 15.9968C8.2137 16.4196 8.14544 16.8701 8.17949 17.319V21M8.17949 18.1465C3.05128 19.5732 3.05128 15.7686 1 15.293L8.17949 18.1465Z"
    stroke="white" stroke-linecap="round" stroke-linejoin="round" />
</svg>