<svg width="22" height="22" viewBox="0 0 22 22" fill="none" xmlns="http://www.w3.org/2000/svg">
  <path d="M11 2C6.03 2 2 6.03 2 11C2 14.97 4.58 18.35 8.16 19.54C8.61 19.62 8.77 19.35 8.77 19.12C8.77 18.91 8.76 18.28 8.76 17.55C6.5 18.01 6 16.46 6 16.46C5.61 15.56 5.06 15.3 5.06 15.3C4.31 14.8 5.1 14.8 5.1 14.8C5.92 14.85 6.37 15.65 6.37 15.65C7.08 16.85 8.27 16.49 8.79 16.27C8.87 15.74 9.1 15.38 9.35 15.17C7.56 14.97 5.68 14.25 5.68 10.8C5.68 9.87 6 9.12 6.38 8.55C6.29 8.33 6 7.5 6.44 6.38C6.44 6.38 7.13 6.15 8.76 7.2C9.49 6.99 10.24 6.89 11 6.89C11.76 6.89 12.51 6.99 13.24 7.2C14.87 6.15 15.56 6.38 15.56 6.38C16 7.5 15.71 8.33 15.62 8.55C16.01 9.12 16.32 9.87 16.32 10.8C16.32 14.26 14.44 14.97 12.64 15.17C12.95 15.42 13.23 15.91 13.23 16.67C13.23 17.77 13.22 18.84 13.22 19.12C13.22 19.35 13.38 19.63 13.84 19.54C17.42 18.35 20 14.96 20 11C20 6.03 15.97 2 11 2Z" fill="currentColor"/>
</svg>
