<svg xmlns="http://www.w3.org/2000/svg" width="47" height="30" viewBox="0 0 47 30" fill="none">
  <g clip-path="url(#clip0_10905_18559)">
    <path d="M44.731 8.9991C43.271 8.13859 42.2956 9.4574 42.4152 11.248L42.4031 11.2616C42.4071 9.39165 42.1435 7.32642 41.2675 5.65567C40.9573 5.06395 40.3287 4.09128 39.0856 4.54957C38.5402 4.75068 38.0454 5.35594 38.3009 6.9184C38.3009 6.9184 38.5848 8.55821 38.532 10.6196V10.6486C38.1772 4.96339 36.8388 3.22883 34.9246 3.34099C34.3122 3.44541 33.4748 3.69873 33.7566 5.44683C33.7566 5.44683 34.0628 7.27034 34.1622 8.72258L34.1683 8.79606H34.1622C33.2618 5.66147 32.0492 5.61893 31.1712 5.74076C30.3743 5.85098 29.5044 6.64381 29.9444 8.20627C31.3253 13.1083 31.0556 19.012 30.9522 19.857C30.6703 19.2789 30.5831 18.8206 30.1918 18.1863C28.6182 15.6396 27.87 15.452 26.9514 15.4133C26.0389 15.3746 25.0534 15.9141 25.1183 16.941C25.1852 17.9678 25.7307 18.1379 26.5053 19.5689C27.1096 20.6827 27.2819 22.1427 28.4986 24.7958C29.5064 26.9925 32.1405 29.402 36.9382 29.1158C40.8255 28.992 46.631 27.6887 45.6212 19.13C45.3697 17.6429 45.5583 16.3976 45.6901 15.1213C45.8949 13.1412 46.195 9.85962 44.733 8.99717L44.731 8.9991Z" fill="#FFE165"/>
    <path d="M20.458 15.4707C19.5395 15.5268 18.7973 15.7259 17.2724 18.2998C16.8932 18.9398 16.8161 19.4 16.5444 19.9821C16.4248 19.139 16.0415 13.2411 17.3272 8.31587C17.7368 6.74761 16.8526 5.97024 16.0537 5.87356C15.1736 5.7672 13.959 5.83101 13.1195 8.99654H13.1094L13.1215 8.90566C13.1925 7.45149 13.4642 5.62411 13.4642 5.62411C13.7096 3.87021 12.8701 3.63236 12.2557 3.5376C10.3455 3.46025 9.04367 5.20255 8.79222 10.8375H8.78817C8.70097 8.79737 8.95039 7.17303 8.95039 7.17303C9.17547 5.60477 8.66853 5.00918 8.119 4.81774C6.86786 4.38071 6.25749 5.36498 5.95941 5.96251C5.11585 7.64873 4.89077 9.71783 4.93133 11.5878L4.91916 11.5742C5.0023 9.78164 4.0026 8.48023 2.55882 9.36589C1.11504 10.2535 1.47802 13.5292 1.72135 15.5055C1.87952 16.7798 2.09041 18.0213 1.86735 19.5122C1.02379 28.0864 6.85366 29.2872 10.7429 29.3433C15.5447 29.5464 18.1322 27.0886 19.0974 24.8745C20.2613 22.202 20.4074 20.7382 20.9893 19.6147C21.7355 18.1702 22.279 17.9904 22.3256 16.9635C22.3723 15.9367 21.3766 15.4146 20.4641 15.4688L20.458 15.4707Z" fill="#FFE165"/>
    <path d="M22.3819 15.4845C21.8952 15.0301 21.1632 14.7884 20.419 14.8309C19.2266 14.9025 18.3811 15.3182 17.0813 17.3487C17.0468 15.0262 17.1826 11.5397 17.9816 8.47281C18.2817 7.3203 17.9796 6.56808 17.6713 6.14072C17.3124 5.64182 16.7548 5.31308 16.1383 5.2396C15.5766 5.17192 14.8426 5.16805 14.1268 5.72884C14.1268 5.7211 14.1288 5.71143 14.1288 5.71143C14.36 4.06389 13.7638 3.12023 12.3586 2.90751L12.2815 2.89978C11.4156 2.86304 10.6735 3.13376 10.0753 3.70228C9.75488 4.00588 9.47707 4.39843 9.23577 4.88379C8.96607 4.50672 8.61932 4.31527 8.34557 4.21859C6.67265 3.63267 5.74799 4.88766 5.34649 5.68823C4.8801 6.62029 4.59012 7.66451 4.4279 8.73C4.39343 8.70873 4.36098 8.68746 4.32651 8.66812C3.95746 8.46508 3.18893 8.21756 2.19126 8.83055C0.500091 9.8709 0.715036 12.8605 1.05165 15.5832C1.0699 15.7282 1.08815 15.8713 1.1064 16.0163C1.25037 17.1321 1.38623 18.186 1.19968 19.4255L1.19562 19.4564C0.85698 22.8966 1.53629 25.5438 3.21529 27.3287C4.8294 29.0458 7.35804 29.9392 10.71 29.9876C10.9553 29.9972 11.1946 30.0011 11.4278 29.9992C17.1543 29.9489 19.2084 26.2845 19.7133 25.1242C20.3663 23.6236 20.7049 22.504 20.9746 21.6029C21.1835 20.9067 21.3497 20.3576 21.585 19.9012C21.8526 19.383 22.0878 19.0465 22.2947 18.7487C22.6475 18.2421 22.9517 17.805 22.9882 16.9929C23.0145 16.405 22.8036 15.8829 22.3758 15.4845H22.3819ZM11.0263 4.61114C11.3487 4.30561 11.7198 4.17024 12.1902 4.17991C12.5978 4.24373 12.9669 4.33848 12.7986 5.5374C12.7864 5.61281 12.5228 7.41312 12.4518 8.87889C12.4518 8.88856 12.4518 8.89823 12.4518 8.9079C12.0807 10.3389 11.7705 12.4002 11.6042 15.413C10.8844 15.4555 10.1665 15.529 9.46896 15.6257C9.24388 9.51316 9.76502 5.80619 11.0243 4.61114H11.0263ZM6.56315 6.24128C7.06807 5.23573 7.49188 5.28601 7.88527 5.42331C8.43074 5.61475 8.34557 6.65316 8.28271 7.08439C8.27257 7.154 8.02924 8.77254 8.11441 10.832C8.05155 12.2765 8.05966 13.9414 8.13468 15.8462C7.46754 15.9718 6.83488 16.1169 6.25696 16.2735C5.98321 15.3956 4.77262 9.81869 6.56315 6.24321V6.24128ZM21.1794 18.039C20.9604 18.3523 20.6887 18.7429 20.3825 19.3346C20.0925 19.8935 19.9141 20.4929 19.6849 21.249C19.4233 22.1173 19.0969 23.1982 18.4743 24.6311C18.0323 25.6444 16.1748 28.9356 10.7505 28.7036C7.7271 28.661 5.58982 27.9301 4.21701 26.4701C2.80162 24.9657 2.23587 22.649 2.53395 19.5879C2.74079 18.1879 2.5887 17.0025 2.44068 15.8578C2.42243 15.7147 2.40418 15.5735 2.38593 15.4304C2.2237 14.1097 1.78976 10.5999 2.91923 9.90571C3.2234 9.71814 3.47282 9.6756 3.65735 9.77615C3.97165 9.94825 4.28798 10.5748 4.24337 11.5455C4.24135 11.5977 4.24743 11.648 4.25757 11.6983C4.31435 13.9608 4.73815 15.9293 4.97946 16.668C4.58404 16.8092 4.23526 16.9561 3.94326 17.1031C3.61476 17.2694 3.49107 17.6561 3.66546 17.9694C3.78712 18.1879 4.02235 18.3117 4.26568 18.3097C4.3691 18.3097 4.47454 18.2846 4.5739 18.2343C6.21438 17.4047 10.1057 16.5616 13.5347 16.6525C13.9078 16.6583 14.214 16.3837 14.2241 16.0299C14.2342 15.676 13.9422 15.3821 13.5712 15.3724C13.3664 15.3666 13.1595 15.3666 12.9527 15.3666C13.2954 9.29078 14.2383 7.3087 14.9724 6.72278C15.2765 6.48106 15.5665 6.46172 15.968 6.51007C16.0795 6.5236 16.3594 6.58548 16.5601 6.86394C16.7771 7.16754 16.8176 7.61616 16.6757 8.16148C15.4347 12.9204 15.7145 18.5166 15.8565 19.8741C15.8321 19.9205 15.8098 19.9669 15.7835 20.0153C15.4935 20.5355 14.9541 21.0769 14.3113 21.0402C13.9443 21.0228 13.6219 21.2896 13.5996 21.6416C13.5772 21.9954 13.8591 22.299 14.2302 22.3203C15.3171 22.3822 16.3411 21.746 16.9697 20.6186C17.0366 20.4987 17.0934 20.3846 17.1441 20.2744C17.1482 20.2667 17.1522 20.257 17.1563 20.2493C17.2739 19.9979 17.3591 19.7678 17.4341 19.5609C17.5517 19.2399 17.6531 18.9614 17.8559 18.6172C19.2956 16.1846 19.8796 16.1497 20.4981 16.113C20.861 16.0917 21.222 16.202 21.4349 16.4031C21.587 16.5442 21.6539 16.7202 21.6438 16.9406C21.6235 17.3951 21.4917 17.5846 21.1733 18.0409L21.1794 18.039Z" fill="#0D0F11"/>
    <path d="M46.2793 19.0284C46.0704 17.7928 46.186 16.7369 46.3077 15.6193C46.3239 15.4742 46.3401 15.3311 46.3543 15.1861C46.6382 12.4595 46.7964 9.46417 45.0829 8.45476C44.073 7.85916 43.3086 8.12022 42.9436 8.32906C42.9091 8.3484 42.8766 8.3716 42.8422 8.39288C42.6576 7.33125 42.3494 6.29284 41.8648 5.36851C41.4491 4.57568 40.5021 3.33615 38.8393 3.95108C38.5676 4.05164 38.2269 4.24888 37.9633 4.63176C37.7119 4.15026 37.426 3.76351 37.0995 3.46571C36.4912 2.9088 35.7429 2.64968 34.8791 2.70189L34.802 2.70962C33.4008 2.94747 32.8229 3.9008 33.0865 5.54835C33.0865 5.54835 33.0865 5.55608 33.0885 5.56188C32.3626 5.0127 31.6285 5.03011 31.0689 5.10746C30.4545 5.19254 29.9029 5.53094 29.5541 6.03565C29.256 6.46881 28.9661 7.2249 29.2885 8.3716C30.1483 11.425 30.351 14.9096 30.3612 17.232C29.0228 15.2248 28.1692 14.8245 26.9768 14.7742C26.2346 14.7433 25.5026 15.0005 25.0261 15.4626C24.6063 15.8687 24.4056 16.3947 24.4441 16.9806C24.4968 17.7908 24.8091 18.224 25.1721 18.7229C25.385 19.0168 25.6263 19.3494 25.9041 19.8619C26.1495 20.3144 26.3259 20.8597 26.549 21.552C26.8369 22.4473 27.1958 23.5611 27.8792 25.0501C28.4064 26.2007 30.5315 29.8303 36.2417 29.7781C36.4729 29.7761 36.7122 29.7684 36.9555 29.7529C40.3257 29.6466 42.8361 28.7068 44.4178 26.9625C46.0603 25.1487 46.6889 22.4898 46.2853 19.0555L46.2813 19.0246L46.2793 19.0284ZM38.961 6.82075C38.89 6.38372 38.7826 5.34724 39.326 5.14806C39.7153 5.00303 40.1412 4.94696 40.6643 5.94283C42.5238 9.48737 41.4227 15.0855 41.1652 15.9673C40.5832 15.8204 39.9485 15.6869 39.2794 15.5728C39.3159 13.6681 39.2915 12.0012 39.2023 10.5587C39.2469 8.49923 38.9732 6.88456 38.961 6.82075ZM34.9967 3.98009C35.4692 3.96075 35.8423 4.09031 36.1687 4.39197C37.4503 5.56575 38.0444 9.26112 37.937 15.3775C37.2374 15.2924 36.5196 15.2325 35.7977 15.2016C35.5746 12.1907 35.2238 10.1371 34.8243 8.71194C34.8243 8.70227 34.8243 8.69261 34.8243 8.68294C34.725 7.21716 34.4249 5.42266 34.4127 5.35304C34.22 4.15219 34.5871 4.05164 34.9947 3.98009H34.9967ZM44.9511 19.2179C45.308 22.2732 44.7868 24.5995 43.4018 26.1291C42.0574 27.6123 39.9343 28.3819 36.8927 28.4786C31.4988 28.8035 29.5724 25.5471 29.1121 24.5415C28.4591 23.1183 28.1124 22.0451 27.8346 21.1807C27.5912 20.4265 27.4006 19.8329 27.1005 19.2779C26.7842 18.692 26.5043 18.3071 26.2793 17.9977C25.9528 17.5472 25.8169 17.3596 25.7865 16.9052C25.7723 16.6847 25.8372 16.5068 25.9852 16.3637C26.1961 16.1588 26.553 16.0408 26.918 16.0582C27.5365 16.0853 28.1205 16.1085 29.6089 18.516C29.8198 18.8563 29.9252 19.1328 30.0489 19.4519C30.13 19.6588 30.2192 19.8889 30.3429 20.1384C30.347 20.1461 30.349 20.1539 30.3531 20.1597C30.4078 20.2699 30.4666 20.382 30.5356 20.5019C31.1865 21.6177 32.2227 22.2365 33.3075 22.1553C33.6766 22.1282 33.9544 21.8188 33.926 21.4669C33.8976 21.1149 33.5752 20.8539 33.2041 20.8771C32.5613 20.9235 32.0118 20.3917 31.7117 19.8773C31.6833 19.829 31.661 19.7845 31.6367 19.7381C31.7522 18.3806 31.9246 12.7786 30.5903 8.04287C30.4362 7.49949 30.4687 7.05086 30.6795 6.7434C30.8762 6.46107 31.154 6.39339 31.2656 6.37792C31.665 6.32184 31.957 6.33731 32.2653 6.57323C33.0115 7.14755 33.9929 9.11223 34.4512 15.1803C34.2444 15.1822 34.0376 15.188 33.8348 15.1977C33.4637 15.2132 33.1778 15.5129 33.194 15.8668C33.2102 16.2206 33.5184 16.4875 33.8956 16.4778C37.3205 16.327 41.2301 17.1005 42.8848 17.903C42.9841 17.9513 43.0896 17.9726 43.195 17.9726C43.4383 17.9707 43.6715 17.843 43.7891 17.6207C43.9575 17.3055 43.8257 16.9187 43.4931 16.7582C43.1991 16.6151 42.8462 16.4759 42.4488 16.3405C42.6759 15.598 43.0632 13.6217 43.0754 11.3592C43.0855 11.309 43.0896 11.2587 43.0855 11.2065C43.0206 10.2377 43.3268 9.60533 43.6371 9.42742C43.8196 9.323 44.069 9.36168 44.3772 9.54345C45.5209 10.2183 45.1559 13.7339 45.018 15.0585C45.0038 15.2016 44.9876 15.3427 44.9713 15.4858C44.8456 16.6345 44.7158 17.8198 44.9511 19.2179Z" fill="#0D0F11"/>
    <path d="M26.1508 6.85319C26.0434 6.85319 25.9339 6.83386 25.8304 6.78745C25.4512 6.62114 25.285 6.19379 25.4594 5.83218C26.0231 4.6584 26.8484 3.57551 27.844 2.70146C28.1502 2.43267 28.6288 2.45007 28.9106 2.744C29.1925 3.036 29.1742 3.49236 28.866 3.76115C28.0164 4.50757 27.3127 5.4319 26.8301 6.43357C26.7044 6.69463 26.4347 6.85126 26.1508 6.85319Z" fill="#F9F7F2"/>
    <path d="M23.608 6.43744C23.2166 6.44131 22.8821 6.15511 22.8496 5.7761C22.7056 4.08021 22.6996 2.36112 22.8354 0.665235C22.8679 0.268818 23.2308 -0.0270433 23.6445 0.0019628C24.0602 0.0329026 24.3704 0.377108 24.34 0.773524C24.2103 2.394 24.2163 4.03767 24.3542 5.65814C24.3887 6.05456 24.0784 6.40263 23.6628 6.43357C23.6445 6.43357 23.6263 6.4355 23.608 6.4355V6.43744Z" fill="#F9F7F2"/>
    <path d="M21.0084 6.88414C20.6697 6.888 20.3575 6.66949 20.2703 6.34269C19.9499 5.14377 19.3436 4.0048 18.5183 3.05147C18.2526 2.74401 18.2993 2.29151 18.6197 2.03819C18.9421 1.78487 19.4166 1.82935 19.6822 2.13488C20.6474 3.25258 21.3572 4.58492 21.7303 5.98688C21.8337 6.3717 21.5883 6.76425 21.1848 6.86287C21.124 6.87834 21.0652 6.88414 21.0043 6.88607L21.0084 6.88414Z" fill="#F9F7F2"/>
  </g>
  <defs>
    <clipPath id="clip0_10905_18559">
      <rect width="45.7143" height="30" fill="white" transform="translate(0.818359)"/>
    </clipPath>
  </defs>
</svg>
