<svg version="1.2" xmlns="http://www.w3.org/2000/svg" viewBox="0 0 1024 1024" width="1024" height="1024">
	<title>safari-pinned-tab-svg</title>
	<defs>
		<clipPath clipPathUnits="userSpaceOnUse" id="cp1">
			<path d="m491.52 234.88v616.83h-467.13v-616.83z"/>
		</clipPath>
		<clipPath clipPathUnits="userSpaceOnUse" id="cp2">
			<path d="m981.87 228.05v621.54h-463.04v-621.54z"/>
		</clipPath>
	</defs>
	<style>
		.s0 { fill: #ffe165 } 
		.s1 { fill: #000000 } 
	</style>
	<g id="surface1">
		<path class="s0" d="m944.1 374.5c-30.5-19.6-51 10.4-48.4 51.1l-0.3 0.3c0.1-42.5-5.4-89.4-23.8-127.4-6.5-13.5-19.7-35.6-45.7-25.1-11.4 4.5-21.8 18.3-16.4 53.8 0 0 5.9 37.2 4.8 84.1v0.6c-7.4-129.1-35.4-168.6-75.5-166-12.9 2.4-30.4 8.1-24.5 47.8 0 0 6.4 41.5 8.5 74.5l0.1 1.6h-0.1c-18.9-71.2-44.3-72.2-62.7-69.4-16.6 2.5-34.9 20.5-25.6 56.1 28.9 111.3 23.2 245.5 21.1 264.7-5.9-13.1-7.8-23.6-16-38-32.9-57.8-48.6-62.1-67.8-63-19.2-0.9-39.8 11.4-38.4 34.7 1.4 23.4 12.8 27.2 29 59.7 12.7 25.3 16.3 58.5 41.8 118.8 21.1 49.9 76.2 104.7 176.7 98.2 81.4-2.8 203-32.4 181.9-226.9-5.3-33.8-1.3-62.1 1.4-91.1 4.3-45 10.6-119.6-20-139.2z"/>
		<path class="s0" d="m435.8 521.6c-19.3 1.3-34.8 5.8-66.8 64.3-7.9 14.5-9.5 25-15.2 38.2-2.5-19.2-10.5-153.2 16.4-265.1 8.6-35.6-9.9-53.3-26.7-55.5-18.4-2.4-43.9-1-61.4 71h-0.3l0.3-2.1c1.5-33.1 7.2-74.6 7.2-74.6 5.1-39.8-12.5-45.2-25.3-47.4-40-1.7-67.3 37.8-72.6 165.9h-0.1c-1.8-46.4 3.4-83.3 3.4-83.3 4.8-35.6-5.9-49.1-17.4-53.5-26.2-9.9-39 12.4-45.2 26-17.7 38.3-22.4 85.4-21.5 127.8l-0.3-0.3c1.7-40.7-19.2-70.3-49.4-50.1-30.3 20.1-22.7 94.6-17.6 139.5 3.3 28.9 7.8 57.1 3.1 91-17.7 194.8 104.4 222.1 185.9 223.4 100.6 4.6 154.8-51.2 175-101.5 24.3-60.8 27.4-94 39.6-119.5 15.6-32.9 27-37 28-60.3 1-23.3-19.9-35.2-39-34z"/>
		<g id="Clip-Path" clip-path="url(#cp1)">
			<g>
				<path fill-rule="evenodd" class="s1" d="m475.9 521.9c9 9 13.4 20.9 12.8 34.3-0.7 18.4-7.1 28.3-14.5 39.9-4.3 6.7-9.3 14.4-14.9 26.1-4.9 10.4-8.4 22.9-12.8 38.7-5.6 20.5-12.7 45.9-26.4 80-10.5 26.4-53.6 109.7-173.5 110.8q-7.3 0.1-15-0.2c-70.3-1.2-123.2-21.5-157-60.5-35.2-40.5-49.4-100.7-42.3-178.9l0.1-0.7c3.9-28.1 1-52.1-2-77.4-0.4-3.3-0.8-6.6-1.1-9.9-7.1-61.8-11.6-129.8 23.8-153.4 20.9-13.9 37-8.3 44.8-3.7 0.7 0.4 1.4 0.9 2.1 1.4 3.4-24.2 9.5-47.9 19.2-69.1 8.4-18.2 27.8-46.7 62.8-33.4 5.8 2.2 13 6.5 18.7 15.1 5-11 10.9-20 17.6-26.9 12.5-12.9 28-19 46.2-18.2l1.6 0.2c29.4 4.8 41.9 26.3 37.1 63.7 0 0-0.1 0.2-0.1 0.4 15-12.7 30.4-12.6 42.2-11.1 12.9 1.7 24.6 9.1 32.1 20.5 6.4 9.7 12.7 26.8 6.5 53-16.8 69.6-19.6 148.9-18.9 201.6 27.2-46.1 44.9-55.5 69.9-57.2 15.6-0.9 30.9 4.6 41.1 14.9zm-237.7-247.1c-26.4 27.2-37.3 111.4-32.6 250.3 14.6-2.2 29.6-3.9 44.7-4.8 3.5-68.5 10-115.3 17.8-147.9q0-0.3 0-0.6c1.5-33.3 7-74.2 7.2-76 3.6-27.2-4.2-29.3-12.7-30.8-9.9-0.2-17.6 2.9-24.4 9.8zm-93.4 37.1c-37.5 81.2-12.2 208-6.4 227.9 12.1-3.5 25.3-6.8 39.3-9.7-1.6-43.3-1.7-81.1-0.4-113.9-1.8-46.8 3.3-83.6 3.5-85.2 1.3-9.8 3.1-33.4-8.3-37.7-8.3-3.2-17.1-4.3-27.7 18.5zm306 268.1c6.7-10.3 9.4-14.7 9.8-25 0.2-5-1.2-9-4.3-12.2-4.5-4.6-12.1-7.1-19.7-6.6-12.9 0.9-25.1 1.6-55.3 56.9-4.2 7.8-6.4 14.2-8.8 21.5-1.6 4.7-3.4 9.9-5.9 15.6 0 0.2-0.1 0.4-0.2 0.6-1.1 2.5-2.3 5.1-3.7 7.8-13.1 25.6-34.6 40.1-57.3 38.7-7.8-0.5-13.7-7.4-13.2-15.5 0.4-8 7.2-14 14.9-13.6 13.4 0.8 24.7-11.5 30.8-23.3 0.5-1.1 1-2.2 1.5-3.2-3-30.9-8.8-158 17.2-266.2 3-12.4 2.1-22.6-2.4-29.5-4.2-6.3-10.1-7.7-12.4-8-8.4-1.1-14.5-0.7-20.9 4.8-15.4 13.4-35.1 58.4-42.3 196.5 4.3 0 8.7 0 13 0.1 7.7 0.2 13.8 6.9 13.6 14.9-0.2 8.1-6.6 14.3-14.4 14.2-71.8-2.1-153.3 17.1-187.7 35.9-2.1 1.2-4.3 1.7-6.4 1.7-5.1 0.1-10.1-2.7-12.6-7.7-3.7-7.1-1.1-15.9 5.8-19.7 6.1-3.3 13.4-6.7 21.7-9.9-5-16.8-13.9-61.5-15.1-112.9-0.2-1.2-0.4-2.3-0.3-3.5 0.9-22-5.7-36.3-12.3-40.2-3.9-2.3-9.1-1.3-15.4 3-23.7 15.7-14.6 95.5-11.2 125.5 0.4 3.3 0.7 6.5 1.1 9.7 3.1 26 6.3 53 2 84.8-6.3 69.5 5.6 122.2 35.2 156.4 28.8 33.1 73.6 49.8 136.9 50.7 113.6 5.3 152.5-69.5 161.8-92.5 13-32.6 19.8-57.1 25.3-76.9 4.8-17.2 8.6-30.8 14.6-43.5 6.4-13.4 12.1-22.3 16.7-29.4z"/>
			</g>
		</g>
		<g id="Clip-Path" clip-path="url(#cp2)">
			<g>
				<path fill-rule="evenodd" class="s1" d="m976.6 602.3l0.1 0.7c8.5 78-4.7 138.5-39.1 179.7-33.1 39.6-85.7 61-156.3 63.4q-7.7 0.5-14.9 0.6c-119.6 1.1-164.1-81.3-175.2-107.5-14.3-33.8-21.8-59.1-27.9-79.5-4.6-15.7-8.3-28.1-13.5-38.4-5.8-11.6-10.8-19.2-15.3-25.9-7.6-11.3-14.1-21.1-15.2-39.6-0.8-13.3 3.4-25.2 12.2-34.5 9.9-10.5 25.3-16.3 40.8-15.6 25 1.1 42.9 10.2 70.9 55.9-0.2-52.8-4.5-132-22.5-201.4-6.7-26-0.6-43.2 5.6-53.1 7.3-11.4 18.8-19.1 31.7-21.1 11.7-1.7 27.1-2.1 42.3 10.4 0-0.2 0-0.3 0-0.3-5.5-37.5 6.6-59.1 35.9-64.5l1.6-0.2c18.1-1.2 33.8 4.7 46.5 17.3 6.9 6.8 12.9 15.6 18.1 26.5 5.5-8.7 12.7-13.1 18.4-15.4 34.8-14 54.6 14.2 63.3 32.2 10.2 21 16.6 44.6 20.5 68.7 0.7-0.5 1.4-1 2.1-1.4 7.7-4.8 23.7-10.7 44.8 2.8 35.9 22.9 32.6 91 26.7 153-0.3 3.3-0.7 6.5-1 9.8-2.5 25.4-5 49.4-0.6 77.5zm-148.3-192.4c1.9 32.8 2.4 70.7 1.6 113.9 14.1 2.6 27.4 5.7 39.6 9 5.3-20 28.4-147.2-10.5-227.8-11-22.6-19.9-21.3-28.1-18-11.4 4.5-9.1 28-7.6 38 0.2 1.4 6 38.1 5 84.9zm-88.1-149.5c-8.5 1.7-16.2 3.9-12.2 31.2 0.3 1.6 6.6 42.4 8.6 75.7q0 0.3 0 0.6c8.4 32.4 15.8 79.1 20.4 147.5 15.1 0.7 30.2 2.1 44.8 4 2.3-139-10.2-222.9-37-249.6-6.8-6.9-14.7-9.8-24.5-9.4zm208.9 261.5c0.4-3.3 0.7-6.5 1-9.7 2.9-30.1 10.5-110-13.4-125.4-6.5-4.1-11.7-5-15.5-2.6-6.5 4-12.9 18.4-11.6 40.4q0.1 1.8-0.2 3.5c-0.2 51.4-8.4 96.3-13.1 113.2 8.3 3.1 15.7 6.2 21.9 9.5 6.9 3.6 9.7 12.4 6.2 19.6-2.5 5-7.4 7.9-12.5 8-2.2 0-4.4-0.5-6.5-1.6-34.6-18.2-116.5-35.8-188.3-32.4-7.9 0.2-14.3-5.8-14.7-13.9-0.3-8 5.7-14.8 13.5-15.2 4.2-0.2 8.5-0.3 12.9-0.4-9.6-137.9-30.2-182.5-45.8-195.6-6.5-5.3-12.6-5.7-20.9-4.4-2.4 0.4-8.2 1.9-12.3 8.3-4.4 7-5.1 17.2-1.9 29.5 28 107.6 24.3 235 21.9 265.8 0.5 1.1 1 2.1 1.6 3.2 6.3 11.7 17.8 23.7 31.3 22.7 7.7-0.5 14.5 5.4 15.1 13.4 0.6 8-5.2 15-13 15.6-22.7 1.9-44.4-12.2-58-37.5-1.5-2.8-2.7-5.3-3.9-7.8 0-0.1-0.1-0.3-0.2-0.5-2.6-5.7-4.4-10.9-6.1-15.6-2.6-7.3-4.8-13.5-9.2-21.3-31.2-54.7-43.4-55.2-56.4-55.8-7.6-0.4-15.1 2.3-19.5 6.9-3.1 3.3-4.5 7.3-4.2 12.3 0.6 10.4 3.5 14.6 10.3 24.9 4.7 7 10.6 15.7 17.2 29 6.3 12.7 10.3 26.1 15.4 43.3 5.8 19.6 13.1 44 26.8 76.4 9.6 22.8 49.9 96.8 162.9 89.4 63.7-2.2 108.2-19.7 136.3-53.4 29.1-34.7 40-87.6 32.5-157-4.9-31.8-2.2-58.7 0.4-84.8z"/>
			</g>
		</g>
		<path class="s1" d="m555 325.7c-2.3 0-4.6-0.4-6.7-1.5-8-3.7-11.5-13.5-7.8-21.7 11.8-26.6 29.1-51.2 49.9-71.1 6.5-6.1 16.5-5.7 22.4 1 5.9 6.6 5.5 17-0.9 23.1-17.8 16.9-32.6 37.9-42.7 60.7-2.6 5.9-8.3 9.5-14.2 9.5z"/>
		<path class="s1" d="m501.7 316.3c-8.2 0.1-15.2-6.4-15.9-15-3-38.6-3.1-77.6-0.3-116.2 0.7-9 8.3-15.7 17-15.1 8.7 0.7 15.2 8.6 14.6 17.6-2.8 36.8-2.6 74.2 0.2 111 0.8 9-5.7 16.9-14.4 17.6-0.4 0-0.8 0-1.2 0z"/>
		<path class="s1" d="m447.3 326.4c-7.1 0.1-13.7-4.8-15.5-12.3-6.7-27.2-19.4-53.1-36.7-74.8-5.5-6.9-4.6-17.2 2.1-23 6.8-5.7 16.7-4.7 22.3 2.2 20.2 25.4 35.1 55.7 42.9 87.5 2.2 8.8-3 17.7-11.4 19.9-1.3 0.4-2.5 0.5-3.8 0.6z"/>
	</g>
</svg>