<svg width="1365" height="1365" viewBox="0 -24 148 148" fill="none" xmlns="http://www.w3.org/2000/svg">
<path d="M71.7542 16.863V2.97414C71.7542 1.82355 72.6872 0.890503 73.8378 0.890503C74.9884 0.890503 75.9214 1.82355 75.9214 2.97414V16.863C75.9214 18.0136 74.9884 18.9466 73.8378 18.9466C72.6872 18.9466 71.7542 18.0136 71.7542 16.863Z" fill="black"/>
<path d="M82.5272 18.9329L89.4716 6.90477C90.0469 5.90832 91.3215 5.5668 92.3179 6.1421C93.3144 6.7174 93.6559 7.99197 93.0806 8.98841L86.1362 21.0165C85.5609 22.0129 84.2863 22.3545 83.2899 21.7792C82.2934 21.2039 81.9519 19.9293 82.5272 18.9329Z" fill="black"/>
<path d="M65.1481 18.9329L58.2037 6.90477C57.6284 5.90832 56.3538 5.5668 55.3574 6.1421C54.3609 6.7174 54.0194 7.99197 54.5947 8.98841L61.5391 21.0165C62.1144 22.0129 63.389 22.3545 64.3854 21.7792C65.3819 21.2039 65.7234 19.9293 65.1481 18.9329Z" fill="black"/>
<path d="M140.606 62.0292C140.606 58.409 141.583 47.6748 141.89 44.1323C142.097 41.7374 141.809 40.4247 141.424 39.7542C141.141 39.2626 140.699 38.915 139.634 38.8436C138.865 38.7921 138.027 39.0114 137.401 39.5761C136.814 40.1052 136.159 41.1682 136.159 43.3176L136.155 43.4388L135.198 59.758C135.164 60.3451 134.883 60.8911 134.424 61.2599C133.966 61.6284 133.374 61.7859 132.793 61.6941L122.764 60.1068L111.948 58.6703C110.949 58.5376 110.188 57.7084 110.142 56.7016L109.561 44.1323C109.535 43.621 109.51 43.1141 109.484 42.6146C109.241 37.9294 109.022 33.7805 109.022 32.4282C109.022 28.3859 108.338 26.6806 107.74 25.9634C107.263 25.3915 106.577 25.1402 105.11 25.1402C104.583 25.1402 104.212 25.2481 103.933 25.4111C103.659 25.5714 103.346 25.8587 103.049 26.4208C102.41 27.6257 101.945 29.891 102.118 33.8479C102.342 38.9804 102.692 42.8146 103.035 46.2718C103.377 49.7231 103.718 52.8561 103.908 56.4971C104.204 62.1966 104.178 66.1256 103.945 68.7924C103.828 70.124 103.656 71.1996 103.423 72.0501C103.202 72.8558 102.871 73.6757 102.296 74.2887C101.6 75.0303 100.608 75.3844 99.577 75.136C98.7592 74.9389 98.1847 74.4215 97.8706 74.0916C97.2141 73.4017 96.7501 72.5106 96.568 72.0512C95.5097 69.3812 92.2352 63.1808 87.8023 59.6811C86.5089 58.6599 85.5666 58.3652 84.9736 58.3204C84.4148 58.2783 84.0094 58.4436 83.6909 58.6967C83.34 58.9756 83.0781 59.3811 82.9479 59.7643C82.9019 59.8999 82.8823 59.9968 82.8741 60.0584C84.0759 62.0865 88.8421 69.5222 91.0896 77.069C92.7648 82.6941 96.8038 88.4259 99.8194 90.8809C102.74 93.258 107.988 94.7313 113.9 95.0218C119.756 95.3095 125.788 94.4121 130.033 92.5092C138.233 88.8334 139.903 80.7382 140.651 77.2292C141.232 74.5057 141.243 71.5987 141.087 68.9009C141.01 67.5551 140.894 66.2969 140.793 65.1373C140.695 64.0105 140.606 62.9215 140.606 62.0292ZM120.986 27.0953C120.986 25.8314 120.648 24.7049 120.089 23.9514C119.583 23.27 118.84 22.7987 117.646 22.7984C116.668 22.7982 116.011 22.9187 115.546 23.1167C115.13 23.2943 114.781 23.5699 114.463 24.0831C113.73 25.2671 113.192 27.6455 113.189 32.384L113.721 43.9088C113.91 47.5661 114.106 51.4922 114.235 54.7707L120.986 55.6666V27.0953ZM125.153 56.2652L131.172 57.218L131.992 43.267V32.5083C131.992 31.031 131.39 30.1275 130.678 29.5489C129.884 28.9039 128.957 28.6731 128.519 28.6731C127.722 28.6731 126.899 28.797 126.306 29.2179C125.849 29.5421 125.153 30.3087 125.153 32.5083V56.2652ZM136.159 35.4278C137.406 34.8069 138.74 34.6083 139.912 34.6868C142.037 34.8292 143.91 35.718 145.037 37.6779C146.06 39.4592 146.273 41.8136 146.041 44.4927C145.72 48.1949 144.772 58.6457 144.772 62.0292C144.772 62.708 144.843 63.6116 144.944 64.7758C145.042 65.907 145.165 67.2389 145.247 68.6606C145.411 71.4987 145.422 74.8383 144.727 78.0987C144.002 81.4953 142.041 91.6918 131.738 96.3108C126.731 98.5551 120.002 99.4936 113.696 99.1838C107.445 98.8767 101.128 97.3189 97.1887 94.1122C93.4809 91.0937 88.9938 84.6307 87.0962 78.2589C84.9529 71.0619 80.3109 63.9646 79.1527 61.9533C78.4706 60.7689 78.684 59.3628 79.0019 58.4258C79.3607 57.3688 80.0554 56.2631 81.0993 55.4337C82.1758 54.5784 83.6043 54.0377 85.2876 54.1647C86.9369 54.2893 88.6462 55.0393 90.3834 56.4107C94.8541 59.9401 98.1342 65.5082 99.7424 68.9231C99.759 68.7664 99.779 68.6024 99.7941 68.4298C100.003 66.0435 100.039 62.3344 99.7467 56.7132C99.5635 53.1942 99.2356 50.1809 98.8888 46.6828C98.5425 43.1904 98.184 39.2713 97.955 34.0302C97.7722 29.8481 98.2012 26.6722 99.3672 24.471C99.9716 23.3302 100.79 22.4223 101.83 21.814C102.866 21.2087 103.995 20.974 105.11 20.974C106.759 20.974 108.813 21.2062 110.448 22.7678C110.593 22.4576 110.75 22.1652 110.921 21.8899C111.676 20.6698 112.681 19.8084 113.912 19.2835C115.095 18.7791 116.378 18.6309 117.646 18.6311C120.195 18.6315 122.164 19.7567 123.434 21.4683C124.256 22.576 124.75 23.8775 124.985 25.1982C126.338 24.5876 127.691 24.5068 128.519 24.5068C129.933 24.5068 131.784 25.0791 133.305 26.3154C134.908 27.6179 136.159 29.6733 136.159 32.5083V35.4278Z" fill="black"/>
<path d="M7.15661 62.0292C7.15661 58.409 6.17994 47.6748 5.87291 44.1323C5.6654 41.7374 5.95357 40.4247 6.33875 39.7542C6.62116 39.2626 7.06336 38.915 8.12834 38.8436C8.89759 38.7921 9.73544 39.0114 10.3616 39.5761C10.9484 40.1052 11.6032 41.1682 11.6032 43.3176L11.6074 43.4388L12.5644 59.758C12.5988 60.3451 12.8798 60.8911 13.338 61.2599C13.7961 61.6284 14.3887 61.7859 14.9695 61.6941L24.9988 60.1068L35.8143 58.6703C36.8135 58.5376 37.5741 57.7084 37.6208 56.7016L38.2015 44.1323C38.2279 43.621 38.2525 43.1141 38.2784 42.6146C38.5218 37.9294 38.7401 33.7805 38.7401 32.4282C38.7401 28.3859 39.4246 26.6806 40.0227 25.9634C40.4996 25.3915 41.185 25.1402 42.6523 25.1402C43.1794 25.1402 43.5505 25.2481 43.8295 25.4111C44.1038 25.5714 44.416 25.8587 44.7138 26.4208C45.3521 27.6257 45.8173 29.891 45.6444 33.8479C45.4201 38.9804 45.0703 42.8146 44.7275 46.2718C44.3853 49.7231 44.0443 52.8561 43.8548 56.4971C43.5582 62.1966 43.5847 66.1256 43.8179 68.7924C43.9344 70.124 44.1069 71.1996 44.3396 72.0501C44.5601 72.8558 44.891 73.6757 45.4663 74.2887C46.1625 75.0303 47.1546 75.3844 48.1855 75.136C49.0033 74.9389 49.5778 74.4215 49.8918 74.0916C50.5484 73.4017 51.0123 72.5106 51.1945 72.0512C52.2527 69.3812 55.5272 63.1808 59.9601 59.6811C61.2536 58.6599 62.1958 58.3652 62.7889 58.3204C63.3476 58.2783 63.753 58.4436 64.0715 58.6967C64.4225 58.9756 64.6844 59.3811 64.8146 59.7643C64.8606 59.8999 64.8801 59.9968 64.8883 60.0584C63.6866 62.0865 58.9204 69.5222 56.6729 77.069C54.9977 82.6941 50.9586 88.4259 47.9431 90.8809C45.0229 93.258 39.7747 94.7313 33.8624 95.0218C28.0068 95.3095 21.9748 94.4121 17.7297 92.5092C9.52988 88.8334 7.85961 80.7382 7.11129 77.2292C6.53054 74.5057 6.5195 71.5987 6.67496 68.9009C6.75251 67.5551 6.86809 66.2969 6.96901 65.1373C7.06707 64.0105 7.1566 62.9215 7.15661 62.0292ZM26.7768 27.0953C26.7768 25.8314 27.1147 24.7049 27.6737 23.9514C28.1792 23.27 28.9221 22.7987 30.1167 22.7984C31.0942 22.7982 31.7518 22.9187 32.2162 23.1167C32.6326 23.2943 32.9817 23.5699 33.2996 24.0831C34.0328 25.2671 34.5705 27.6455 34.5738 32.384L34.0416 43.9088C33.8524 47.5661 33.6565 51.4922 33.5273 54.7707L26.7768 55.6666V27.0953ZM22.6095 56.2652L16.5904 57.218L15.7705 43.267V32.5083C15.7705 31.031 16.3726 30.1275 17.0847 29.5489C17.8785 28.9039 18.8058 28.6731 19.2432 28.6731C20.0404 28.6731 20.8634 28.797 21.4565 29.2179C21.9131 29.5421 22.6095 30.3087 22.6095 32.5083V56.2652ZM11.6032 35.4278C10.3568 34.8069 9.02265 34.6083 7.8501 34.6868C5.72541 34.8292 3.85197 35.718 2.72584 37.6779C1.70247 39.4592 1.48924 41.8136 1.72143 44.4927C2.0423 48.1949 2.99038 58.6457 2.99038 62.0292C2.99037 62.708 2.91991 63.6116 2.81859 64.7758C2.72014 65.907 2.59699 67.2389 2.51505 68.6606C2.3515 71.4987 2.34041 74.8383 3.0357 78.0987C3.76005 81.4953 5.72154 91.6918 16.0245 96.3108C21.0311 98.5551 27.7601 99.4936 34.0669 99.1838C40.3172 98.8767 46.6346 97.3189 50.5737 94.1122C54.2816 91.0937 58.7686 84.6307 60.6662 78.2589C62.8095 71.0619 67.4515 63.9646 68.6098 61.9533C69.2919 60.7689 69.0785 59.3628 68.7605 58.4258C68.4018 57.3688 67.707 56.2631 66.6632 55.4337C65.5867 54.5784 64.1582 54.0377 62.4748 54.1647C60.8256 54.2893 59.1162 55.0393 57.379 56.4107C52.9083 59.9401 49.6283 65.5082 48.02 68.9231C48.0034 68.7664 47.9835 68.6024 47.9684 68.4298C47.7597 66.0435 47.7232 62.3344 48.0158 56.7132C48.1989 53.1942 48.5269 50.1809 48.8737 46.6828C49.22 43.1904 49.5784 39.2713 49.8075 34.0302C49.9903 29.8481 49.5612 26.6722 48.3952 24.471C47.7909 23.3302 46.9729 22.4223 45.9321 21.814C44.8964 21.2087 43.7676 20.974 42.6523 20.974C41.0038 20.974 38.9497 21.2062 37.3141 22.7678C37.1698 22.4576 37.0124 22.1652 36.8419 21.8899C36.0863 20.6698 35.0817 19.8084 33.8508 19.2835C32.6679 18.7791 31.3849 18.6309 30.1167 18.6311C27.5677 18.6315 25.5986 19.7567 24.3285 21.4683C23.5066 22.576 23.0121 23.8775 22.7771 25.1982C21.4247 24.5876 20.0718 24.5068 19.2432 24.5068C17.8298 24.5068 15.9788 25.0791 14.4573 26.3154C12.8542 27.6179 11.6032 29.6733 11.6032 32.5083V35.4278Z" fill="black"/>
</svg>
