<?xml version="1.0" standalone="no"?>
<!DOCTYPE svg PUBLIC "-//W3C//DTD SVG 20010904//EN"
 "http://www.w3.org/TR/2001/REC-SVG-20010904/DTD/svg10.dtd">
<svg version="1.0" xmlns="http://www.w3.org/2000/svg"
 width="300.000000pt" height="300.000000pt" viewBox="0 0 300.000000 300.000000"
 preserveAspectRatio="xMidYMid meet">
<metadata>
Created by potrace 1.10, written by Peter Selinger 2001-2011
</metadata>
<g transform="translate(0.000000,300.000000) scale(0.100000,-0.100000)"
fill="#000000" stroke="none">
<path d="M525 2881 c-84 -51 -224 -244 -232 -318 -2 -18 -2 -33 1 -33 2 0 22
33 44 73 51 92 120 181 178 229 50 41 56 43 84 28 22 -12 110 -123 110 -140 0
-6 -19 -36 -42 -66 -34 -43 -48 -54 -67 -52 -33 4 -69 53 -55 75 18 29 31 25
27 -9 -4 -33 -4 -33 10 -9 8 13 28 30 46 37 19 8 31 20 30 31 0 11 -3 13 -6 6
-7 -18 -48 -16 -63 2 -7 8 -9 27 -5 47 6 31 5 32 -10 14 -8 -11 -15 -27 -15
-37 0 -9 -7 -22 -16 -30 -14 -11 -15 -9 -10 27 l6 39 -15 -45 c-10 -29 -14
-63 -10 -96 4 -42 1 -57 -16 -80 l-21 -29 26 28 c28 30 36 33 36 13 0 -25 -59
-66 -95 -66 -40 0 -53 14 -57 65 l-3 40 -22 -38 c-27 -45 -29 -54 -8 -37 22
18 20 -7 -5 -72 l-21 -53 35 40 c37 42 47 35 20 -16 -8 -17 -14 -33 -11 -35 5
-6 41 47 42 61 0 6 11 11 25 13 14 2 57 15 95 29 114 40 185 33 185 -20 0 -18
2 -19 18 -5 9 9 32 19 49 23 32 6 74 47 72 69 0 6 -5 1 -11 -11 -13 -28 -77
-51 -88 -33 -4 6 -18 17 -31 24 -17 8 -25 22 -27 46 -5 54 14 61 95 34 37 -13
72 -29 77 -37 15 -24 -3 -66 -48 -112 -54 -54 -103 -69 -200 -61 -69 6 -70 5
-39 -9 18 -8 35 -15 38 -16 2 0 18 -4 35 -9 52 -15 126 16 187 76 55 55 72 99
55 144 -10 28 -5 53 9 44 5 -3 9 8 9 24 0 54 -107 172 -156 172 -13 0 -35 6
-47 14 -12 7 -54 16 -92 20 -58 5 -76 2 -100 -13z m173 -28 c38 -32 102 -127
102 -151 0 -19 -4 -23 -27 -20 -22 2 -29 10 -34 35 -3 18 -25 57 -48 87 -22
31 -41 58 -41 61 0 11 29 4 48 -12z m116 -54 c70 -61 96 -139 46 -139 -37 0
-46 10 -42 43 3 26 -4 43 -32 80 -42 55 -26 64 28 16z m-145 -217 c9 -16 6
-18 -20 -14 -16 2 -29 0 -29 -6 0 -5 -18 -14 -40 -20 -44 -11 -45 -10 -29 19
7 14 19 19 44 17 19 -1 40 3 47 10 15 15 15 15 27 -6z"/>
<path d="M2640 2788 c-523 -168 -871 -283 -912 -300 -56 -24 -55 -17 -48 -266
3 -94 3 -172 0 -172 -4 0 -11 5 -18 12 -8 8 -12 8 -12 1 0 -6 7 -16 16 -24 19
-15 44 -63 43 -81 0 -7 -6 -1 -12 13 -7 14 -29 45 -50 69 -31 37 -37 49 -31
75 l6 30 -30 -31 c-16 -18 -44 -40 -63 -49 -33 -17 -34 -17 -18 1 9 11 22 30
29 44 9 19 5 17 -19 -10 l-30 -35 5 32 c6 32 -3 109 -12 101 -2 -3 -6 -26 -9
-52 -4 -43 -34 -118 -35 -88 0 7 -4 11 -9 8 -5 -3 -12 6 -16 21 -10 40 -50
105 -86 138 l-32 30 29 -45 c15 -25 37 -55 47 -67 11 -12 17 -27 15 -34 -2 -7
-38 17 -87 59 -46 40 -87 72 -93 72 -5 0 -35 12 -66 26 -83 38 -104 46 -97 34
10 -16 -4 -12 -35 12 -24 18 -34 20 -52 11 -13 -6 -45 -14 -71 -17 -28 -3 -60
-15 -75 -27 -20 -17 -22 -20 -7 -15 36 13 117 26 162 26 52 0 151 -26 174 -46
8 -8 26 -14 38 -14 27 0 78 -28 86 -48 3 -9 -5 -7 -23 6 -15 11 -38 22 -52 26
l-25 7 25 -16 c24 -15 24 -15 -22 -9 -53 7 -141 -3 -134 -15 3 -5 -7 -14 -22
-20 -32 -15 -123 -83 -118 -89 2 -2 18 4 35 13 46 23 38 6 -29 -60 -33 -32
-57 -61 -55 -64 3 -3 19 11 35 30 29 33 30 33 28 9 -2 -18 -16 -33 -53 -53
-27 -16 -43 -27 -35 -24 8 2 52 17 97 32 45 15 90 25 100 23 10 -2 -29 -19
-87 -37 -57 -19 -99 -36 -93 -38 7 -3 32 3 58 11 55 19 60 20 48 4 -9 -11 -8
-67 2 -76 7 -7 -39 -98 -64 -126 l-26 -29 35 19 c24 14 37 29 41 50 5 29 5 29
32 -24 15 -29 25 -57 22 -62 -3 -5 8 -4 25 2 30 10 30 11 11 24 -31 22 -54 96
-49 154 4 41 3 48 -8 39 -11 -9 -14 -8 -14 5 0 9 7 16 15 16 8 0 15 4 15 9 0
9 49 25 56 18 2 -2 -1 -29 -6 -62 -16 -101 14 -178 80 -200 l33 -11 -56 -29
c-41 -20 -62 -38 -74 -63 -21 -41 -68 -79 -57 -46 5 16 4 16 -5 4 -20 -28 -72
-171 -77 -213 -6 -55 -6 -159 1 -165 3 -3 5 17 5 45 0 98 69 267 144 350 64
71 134 106 208 104 32 -1 66 3 76 8 14 7 21 5 30 -10 7 -10 17 -19 24 -19 6 0
3 9 -7 20 -16 18 -17 21 -1 44 9 14 24 30 34 35 39 21 123 -62 94 -91 -18 -18
-14 -33 3 -18 10 8 15 25 13 44 -3 28 0 31 27 34 19 3 33 -2 42 -14 15 -21 17
-70 3 -79 -5 -3 -10 -12 -10 -18 0 -8 3 -7 9 2 12 18 25 8 45 -33 33 -71 13
-156 -37 -156 -25 0 -21 15 8 28 30 14 32 26 5 45 -11 8 -17 17 -12 22 4 5 1
5 -6 1 -7 -4 -26 -4 -44 -1 -23 6 -27 9 -17 17 10 7 8 8 -8 3 -23 -6 -83 19
-83 35 0 6 -3 9 -7 8 -11 -4 -73 23 -73 31 0 3 -30 7 -68 9 -61 3 -72 0 -122
-30 -145 -88 -237 -321 -185 -469 34 -95 63 -108 250 -110 135 -1 149 1 167
19 18 18 19 25 9 71 -19 90 -14 124 30 208 48 92 55 101 69 87 8 -8 -1 -34
-29 -85 -50 -94 -56 -124 -40 -209 11 -61 10 -72 -5 -94 -27 -42 -68 -58 -139
-52 -53 5 -57 4 -29 -5 29 -8 32 -12 21 -25 -16 -19 -62 -44 -114 -60 -33 -11
-36 -13 -14 -13 31 -1 92 23 133 52 16 11 36 21 45 22 30 3 86 32 106 55 17
19 20 36 20 134 0 94 3 118 22 156 12 25 28 62 37 82 13 32 20 38 55 44 22 4
43 6 46 5 3 -1 15 8 27 19 26 24 35 25 35 5 0 -8 -6 -15 -14 -15 -10 0 -9 -8
4 -35 14 -30 18 -33 26 -19 13 23 2 115 -18 154 -22 42 -2 29 37 -23 l31 -42
-6 87 c-6 87 -6 87 21 100 14 7 39 31 54 53 26 37 28 45 22 100 -5 50 -13 68
-45 106 -22 26 -42 62 -45 80 -4 19 -13 46 -20 61 -11 20 -14 78 -14 225 0
109 4 204 8 210 8 13 246 92 801 268 151 48 279 89 285 91 8 3 12 -131 14
-463 1 -258 3 -472 3 -478 0 -5 4 -1 9 10 5 11 9 225 9 476 1 422 0 457 -16
472 -17 14 -31 11 -173 -35z m-1393 -649 c33 -12 88 -62 114 -104 26 -41 24
-9 -2 35 -17 30 -11 26 36 -23 l57 -57 64 36 c63 35 64 35 94 18 33 -20 41
-37 13 -27 -23 8 -10 -7 18 -21 12 -6 29 -22 37 -34 l16 -24 -48 7 c-43 7 -51
5 -91 -24 -49 -35 -59 -30 -45 20 12 41 12 52 2 45 -5 -3 -14 -30 -21 -61 -10
-43 -16 -55 -32 -55 -10 0 -19 1 -19 3 0 1 4 17 9 35 12 41 5 41 -13 0 l-14
-33 5 51 c6 56 -11 83 -21 34 -7 -35 -18 -37 -56 -10 -55 39 -174 90 -211 90
-21 0 -62 -10 -93 -21 -31 -12 -60 -19 -64 -15 -3 4 4 26 16 49 21 38 21 40 2
17 -11 -14 -23 -37 -26 -52 -6 -25 -34 -49 -34 -28 0 45 55 113 115 141 45 21
147 25 192 8z m-72 -133 c69 -19 138 -50 192 -87 44 -31 45 -33 41 -74 -7 -54
-68 -148 -108 -165 -53 -22 -207 13 -235 53 -11 15 -15 44 -13 102 l1 80 6
-80 c3 -44 10 -86 14 -93 12 -18 66 -44 80 -38 7 2 5 5 -4 5 -9 1 -28 10 -42
21 -48 38 -45 204 4 230 12 7 38 8 67 4 l47 -7 -34 -12 c-18 -6 -44 -23 -57
-39 -13 -15 -24 -21 -25 -14 0 7 -5 2 -10 -12 -15 -36 -2 -104 24 -127 82 -75
162 -52 224 66 1 1 6 0 12 -4 14 -8 -8 -52 -44 -85 -20 -19 -42 -26 -88 -31
l-62 -6 68 -1 c66 -2 70 0 99 31 37 38 58 85 58 126 0 22 -9 37 -35 59 -47 38
-157 83 -223 89 -48 5 -54 4 -59 -16 -6 -23 -23 -29 -23 -8 1 44 44 55 125 33z
m166 -115 c35 -34 52 -72 32 -70 -13 1 -94 109 -82 109 6 0 29 -17 50 -39z
m-64 -4 c27 -26 36 -42 36 -66 0 -44 -38 -81 -91 -88 -34 -5 -44 -1 -66 20
-39 39 -36 89 8 133 43 43 67 43 113 1z m418 20 c6 -4 19 -14 30 -22 28 -19
12 -30 -17 -12 -22 15 -52 21 -90 18 -9 -1 -30 -12 -46 -26 -20 -17 -33 -22
-37 -15 -8 13 24 52 36 45 4 -3 13 0 20 8 13 14 88 17 104 4z m5 -52 c7 -8 18
-15 25 -15 7 0 16 -7 19 -16 8 -20 8 -88 0 -108 -13 -33 -24 -14 -24 39 0 46
-4 60 -25 80 -40 41 -94 25 -126 -36 -16 -30 -18 -31 -19 -11 0 13 13 37 29
53 23 22 39 29 69 29 23 0 45 -6 52 -15z m-178 -11 c5 -3 8 -12 8 -21 0 -11
-5 -13 -17 -8 -10 4 -30 10 -45 13 -16 2 -28 11 -28 19 0 12 8 14 37 8 21 -4
41 -9 45 -11z m152 -10 c8 -3 20 -21 26 -40 9 -27 8 -40 -5 -67 -22 -48 -56
-62 -88 -37 -26 21 -42 63 -31 81 10 16 23 -3 26 -37 1 -22 7 -30 22 -32 44
-3 75 65 44 96 -17 17 -45 15 -56 -4 -5 -10 -14 -14 -21 -9 -9 5 -6 14 10 31
22 24 44 29 73 18z m126 -45 c0 -14 -19 -39 -20 -27 -1 2 -3 21 -6 43 -4 37
-4 39 11 21 8 -11 15 -28 15 -37z m-340 17 c0 -2 3 -11 6 -20 5 -13 2 -13 -20
-3 -31 14 -34 27 -6 27 11 0 20 -2 20 -4z m68 -31 c5 -25 -29 -15 -39 12 -7
20 -6 21 14 14 12 -5 24 -16 25 -26z m127 -21 c0 -19 -6 -30 -17 -32 -21 -4
-34 34 -17 54 18 22 34 11 34 -22z m-185 -4 c19 -19 27 -40 14 -40 -3 0 -17 9
-31 20 -14 11 -32 20 -39 20 -8 0 -14 5 -14 10 0 18 49 11 70 -10z m320 -53
c0 -8 -11 -24 -25 -37 -29 -27 -31 -24 -9 18 16 33 34 42 34 19z m-65 -7 c3
-5 -5 -21 -19 -35 -32 -32 -76 -33 -95 -4 -11 18 -11 21 1 17 44 -17 60 -20
54 -9 -6 10 6 15 27 12 4 0 6 2 6 7 -4 23 14 31 26 12z m-29 -86 c-23 -16 -72
-19 -81 -4 -4 6 7 10 27 10 18 0 40 4 48 10 22 14 28 0 6 -16z m-446 -48 c0
-25 -23 -81 -38 -93 -22 -18 -42 2 -42 43 0 23 7 38 22 48 28 20 58 21 58 2z
m444 -8 c11 -43 6 -49 -18 -21 -25 28 -25 43 -2 43 8 0 16 -10 20 -22z m-356
3 c9 -6 11 -19 7 -44 -8 -40 -40 -56 -75 -37 -23 12 -25 28 -8 65 12 26 49 34
76 16z m90 -42 c13 -8 18 -19 14 -33 -4 -20 -4 -20 9 -3 13 16 18 16 44 5 30
-13 36 -39 15 -62 -11 -11 -81 15 -73 27 3 6 1 7 -5 3 -6 -4 -29 -2 -50 4
l-39 10 10 39 c10 35 13 38 33 31 13 -5 31 -14 42 -21z m-268 -5 c0 -21 -18
-54 -30 -54 -13 0 -13 12 0 44 10 29 30 35 30 10z m-48 -51 c14 -13 42 -17
121 -19 102 -2 207 -28 215 -53 2 -6 -15 -39 -38 -73 -23 -34 -44 -75 -47 -90
-10 -52 -26 -44 -21 10 3 28 2 50 -2 49 -4 -1 -19 13 -34 31 -15 17 -34 32
-41 32 -8 0 -1 -12 15 -28 53 -53 51 -147 -3 -165 -40 -13 -89 17 -135 83 -34
50 -41 55 -77 57 l-40 2 32 -12 c18 -7 48 -34 69 -62 21 -27 43 -53 48 -57 27
-19 -29 -5 -89 22 -37 17 -76 30 -87 30 -19 0 -20 4 -15 44 9 67 81 216 104
216 4 0 15 -8 25 -17z m442 -20 c-9 -38 -13 -43 -30 -43 -17 0 -17 0 2 38 19
39 37 42 28 5z m-522 -249 c11 -11 -17 -65 -32 -62 -16 4 -25 31 -16 54 5 14
37 20 48 8z m68 -62 c0 -15 -5 -33 -12 -40 -15 -15 -44 -16 -51 -2 -3 6 -4 5
-3 -2 1 -7 13 -15 26 -18 19 -5 20 -7 8 -17 -11 -10 -19 -9 -36 3 -29 20 -28
43 3 77 35 37 65 36 65 -1z m264 -8 c9 -22 3 -26 -30 -22 -27 3 -27 4 -10 21
22 21 32 22 40 1z m-176 -11 c26 -6 29 -29 5 -55 -14 -16 -14 -18 0 -18 9 0
18 12 22 31 6 28 9 30 38 23 41 -8 41 -8 33 -39 -6 -24 -9 -25 -90 -25 -101 0
-115 10 -92 65 14 32 19 36 38 30 13 -3 33 -9 46 -12z m157 -53 c0 -20 -6 -26
-27 -28 -32 -4 -32 -3 -18 33 13 34 45 30 45 -5z"/>
<path d="M1245 1819 c-5 -14 -1 -27 10 -38 15 -15 17 -15 31 4 19 26 14 49
-13 53 -15 2 -23 -4 -28 -19z"/>
<path d="M1049 1339 c-43 -40 -35 -45 13 -10 66 49 105 38 158 -45 27 -43 28
-44 34 -19 6 25 -10 72 -21 61 -3 -3 -19 6 -36 20 -41 34 -107 31 -148 -7z"/>
<path d="M2853 2796 c16 -13 17 -35 16 -282 -2 -397 1 -592 10 -569 12 30 1
837 -11 853 -6 6 -16 12 -22 12 -6 0 -3 -7 7 -14z"/>
<path d="M2710 2691 c-8 -5 -64 -23 -125 -40 -60 -18 -269 -82 -463 -143
l-352 -111 -25 23 c-14 13 -27 21 -30 18 -3 -3 8 -17 25 -31 l30 -26 2 -238 1
-238 11 231 c8 176 14 230 24 227 9 -3 12 -37 12 -119 0 -74 -4 -113 -10 -109
-6 4 -10 -28 -10 -88 0 -75 3 -96 15 -101 11 -4 15 -22 17 -63 l1 -58 7 60 c4
41 7 2 8 -120 1 -99 7 -187 12 -195 6 -10 10 119 10 373 0 213 3 387 7 387 10
0 347 -141 356 -149 4 -4 -1 -14 -10 -23 -16 -14 -30 -10 -158 44 -77 33 -148
67 -158 76 -17 15 -17 14 -2 -14 12 -24 15 -83 15 -371 0 -217 4 -344 10 -348
6 -4 10 10 10 34 0 23 4 41 9 41 6 0 47 -9 93 -20 45 -11 86 -16 90 -12 5 5
-37 19 -92 32 -93 22 -100 25 -100 48 0 15 5 22 13 19 6 -2 56 -15 109 -27 54
-13 99 -29 101 -34 2 -6 3 -3 2 6 -2 10 1 21 6 24 5 3 10 110 11 237 l1 232 8
-220 c11 -305 16 -311 18 -25 1 186 5 249 15 263 7 9 16 17 20 17 3 0 6 -94 6
-210 0 -133 4 -210 10 -210 6 0 10 83 10 229 l0 229 -107 45 c-60 25 -139 58
-178 73 -38 15 -73 30 -77 33 -4 4 74 31 175 61 405 120 563 167 585 174 l23
8 -1 -229 c-1 -441 -1 -448 12 -435 10 10 12 97 9 378 -2 276 0 368 9 379 14
17 12 18 -10 6z m-23 -65 c-3 -7 -26 -18 -50 -25 -78 -19 -546 -160 -674 -202
-104 -34 -125 -38 -145 -28 -22 12 -21 12 17 24 153 47 778 239 810 249 40 13
52 8 42 -18z m-827 -386 c0 -67 -4 -110 -10 -110 -6 0 -10 43 -10 110 0 67 4
110 10 110 6 0 10 -43 10 -110z m214 -61 c59 -24 103 -45 97 -47 -13 -4 -210
75 -226 91 -12 12 -14 13 129 -44z m86 -296 c0 -123 -2 -223 -5 -223 -3 0 -53
12 -110 26 l-105 26 0 243 0 243 110 -46 110 -47 0 -222z m-330 151 c0 -48 -4
-73 -10 -69 -5 3 -10 40 -10 81 0 48 4 73 10 69 6 -3 10 -40 10 -81z m30 1 c0
-41 -4 -75 -9 -75 -5 0 -9 34 -10 75 -1 44 3 75 9 75 6 0 10 -32 10 -75z"/>
<path d="M2030 2107 c-20 -15 -60 -72 -60 -84 0 -8 21 15 61 70 22 30 22 33
-1 14z"/>
<path d="M2055 2038 c-21 -29 -50 -69 -64 -88 l-25 -35 28 25 c32 28 110 139
103 146 -2 3 -22 -19 -42 -48z"/>
<path d="M2076 1962 c-27 -27 -51 -59 -53 -72 -2 -13 -8 -29 -14 -37 -6 -7 -9
-13 -6 -13 3 0 30 33 59 73 86 114 88 121 14 49z"/>
<path d="M2115 1856 c-6 -8 -25 -36 -43 -62 l-34 -49 36 37 c20 21 36 34 37
30 0 -4 5 6 10 22 10 34 8 41 -6 22z"/>
<path d="M720 2633 c0 -22 35 -54 52 -48 23 9 29 31 12 46 -12 10 -13 9 -9 -3
10 -25 -23 -30 -40 -5 -8 12 -15 16 -15 10z"/>
<path d="M257 2572 c-8 -9 -21 -31 -27 -47 -16 -41 -29 -125 -18 -119 4 3 8
11 8 17 0 7 15 47 34 90 33 76 34 94 3 59z"/>
<path d="M2744 2390 c0 -80 2 -112 3 -72 2 39 2 105 0 145 -1 39 -3 7 -3 -73z"/>
<path d="M188 2486 c-10 -7 -15 -16 -11 -19 3 -4 1 -7 -6 -7 -8 0 -11 -6 -7
-16 3 -8 2 -13 -3 -10 -12 8 -19 -23 -31 -116 -6 -54 -15 -83 -29 -97 -10 -10
-21 -18 -23 -16 -1 2 -3 -33 -2 -78 1 -70 14 -137 27 -137 3 0 2 52 -1 116 -4
87 -2 115 7 110 6 -4 11 -24 12 -44 1 -20 5 -48 9 -62 6 -18 8 -4 9 47 1 80
20 188 49 281 11 34 19 62 18 62 0 0 -9 -7 -18 -14z"/>
<path d="M1122 2481 c-7 -4 10 -17 41 -33 64 -31 160 -117 200 -178 26 -41 29
-42 23 -15 -4 17 -23 64 -43 105 -31 65 -37 72 -42 51 -6 -22 -7 -22 -20 -7
-31 37 -139 89 -159 77z"/>
<path d="M226 2384 c-20 -48 -34 -89 -32 -92 5 -4 36 64 36 79 0 5 5 9 12 9 6
0 9 3 6 6 -4 3 0 22 8 41 9 19 13 37 11 39 -2 2 -20 -35 -41 -82z"/>
<path d="M540 2460 c0 -13 50 -13 70 0 11 7 4 10 -27 10 -24 0 -43 -4 -43 -10z"/>
<path d="M1100 2452 c0 -4 7 -17 15 -29 14 -20 13 -20 -33 -16 l-47 4 68 -30
c38 -16 84 -42 103 -56 61 -47 33 6 -50 93 -38 40 -56 51 -56 34z"/>
<path d="M1352 2401 c44 -50 74 -104 94 -166 l13 -40 0 55 c1 63 -7 100 -21
100 -6 0 -29 22 -53 48 -24 27 -51 49 -59 49 -9 0 0 -17 26 -46z"/>
<path d="M371 2360 c-30 -45 -51 -83 -48 -87 4 -3 10 3 13 13 4 10 24 37 45
59 31 33 62 95 47 95 -2 0 -27 -36 -57 -80z"/>
<path d="M1037 2383 c-4 -3 -3 -11 2 -17 7 -8 -2 -10 -31 -8 -28 3 -39 1 -34
-7 4 -6 17 -11 29 -11 20 -1 88 -22 142 -45 11 -5 -6 15 -38 43 -62 56 -60 55
-70 45z"/>
<path d="M1468 2355 c-3 -4 5 -31 18 -60 14 -29 28 -77 31 -105 5 -43 8 -49
20 -38 7 8 17 28 22 45 7 25 6 30 -6 29 -10 -1 -20 15 -29 44 -15 48 -46 95
-56 85z"/>
<path d="M350 2263 c-28 -43 -50 -82 -50 -88 0 -18 79 79 80 98 0 10 7 29 16
42 9 14 13 25 10 25 -4 0 -29 -35 -56 -77z"/>
<path d="M2336 2331 c61 -56 154 -130 138 -109 -23 30 -128 118 -140 118 -5 0
-4 -4 2 -9z"/>
<path d="M1170 2313 c0 -15 14 -28 49 -46 29 -15 32 -15 21 -2 -19 23 -70 58
-70 48z"/>
<path d="M423 2275 c-9 -19 -20 -32 -24 -30 -21 14 -91 -160 -94 -235 l-2 -55
13 40 c7 22 13 50 13 62 1 12 13 48 27 80 23 49 28 55 35 38 5 -14 8 -15 8 -4
1 8 -5 21 -11 28 -11 10 -10 11 5 6 12 -5 17 -2 17 13 0 10 11 36 25 56 13 20
20 36 15 36 -6 0 -18 -16 -27 -35z"/>
<path d="M1270 2285 c13 -14 29 -24 34 -21 6 2 22 -6 35 -18 l25 -21 -23 33
c-12 18 -27 30 -32 26 -5 -3 -16 2 -25 10 -26 27 -39 18 -14 -9z"/>
<path d="M2310 2305 c0 -10 75 -76 110 -96 19 -12 31 -16 25 -11 -26 26 -135
112 -135 107z"/>
<path d="M815 2241 c18 -7 17 -9 -10 -27 -33 -21 -39 -25 -75 -54 -15 -12 -5
-9 25 8 28 16 73 37 100 47 75 27 76 35 4 34 -40 0 -57 -3 -44 -8z"/>
<path d="M1577 2198 c-21 -85 -17 -97 19 -57 12 14 15 22 7 27 -6 4 -13 18
-15 32 l-4 25 -7 -27z"/>
<path d="M1416 2175 c12 -67 25 -96 18 -40 -3 28 -10 57 -15 65 -6 10 -7 1 -3
-25z"/>
<path d="M875 2140 c-35 -16 -37 -19 -15 -19 14 0 36 8 50 19 31 24 17 24 -35
0z"/>
<path d="M2581 2124 c-21 -17 -31 -35 -31 -52 1 -26 1 -26 19 8 12 21 33 41
57 51 36 16 37 18 12 18 -15 1 -40 -10 -57 -25z"/>
<path d="M791 2101 c-19 -10 -29 -21 -23 -25 6 -3 23 5 39 19 33 29 30 30 -16
6z"/>
<path d="M533 2098 c-43 -11 -100 -81 -119 -145 -32 -109 1 -222 91 -321 25
-26 138 -76 143 -62 2 6 12 10 23 10 13 0 19 -7 19 -22 0 -16 11 -4 38 41 20
35 54 83 75 107 43 49 41 55 -6 22 l-30 -22 19 33 c24 42 86 94 94 80 4 -6 12
-4 20 6 11 13 8 15 -17 15 -16 0 -38 -7 -51 -15 -20 -15 -21 -15 -16 2 5 16 3
15 -11 -2 -17 -20 -59 -104 -89 -177 -12 -30 -21 -38 -50 -44 -47 -8 -89 9
-144 60 -61 56 -84 106 -90 193 -4 60 -1 79 18 117 71 147 255 115 316 -56 8
-24 13 -56 9 -72 l-5 -30 25 24 c14 13 25 18 25 11 0 -7 5 -9 11 -6 6 5 2 13
-11 22 -17 12 -19 17 -9 24 10 6 11 9 2 9 -7 0 -13 9 -13 19 0 11 -5 23 -11
27 -6 3 -9 15 -6 25 3 10 2 17 -2 16 -4 -1 -21 13 -36 31 -58 69 -140 100
-212 80z"/>
<path d="M2436 2038 c-22 -30 -135 -265 -197 -411 -16 -37 -31 -59 -44 -62
-11 -2 -103 -17 -204 -34 -101 -16 -188 -34 -194 -40 -5 -5 -10 -30 -11 -53
-1 -39 6 -53 68 -133 228 -293 312 -396 331 -401 11 -2 119 27 240 65 167 53
224 75 238 93 9 13 26 33 36 45 10 12 45 71 78 130 160 290 196 360 196 388 0
33 -57 91 -298 299 -192 166 -197 168 -239 114z m146 -75 c141 -117 359 -313
364 -328 7 -16 -254 -495 -269 -495 -10 0 -428 405 -435 422 -4 9 174 394 204
441 13 20 29 37 34 37 5 0 51 -35 102 -77z m-137 -635 c146 -143 212 -214 203
-219 -7 -3 -107 -35 -222 -69 -143 -42 -214 -59 -226 -54 -37 18 -396 472
-383 485 9 9 330 66 380 68 30 1 54 -20 248 -211z m-585 39 c81 -112 319 -404
334 -410 8 -3 36 0 63 7 42 12 333 100 373 114 10 3 12 2 5 -6 -14 -14 -426
-144 -441 -138 -13 5 -209 246 -314 386 -35 47 -68 91 -73 98 -5 6 -6 12 -1
12 5 0 29 -29 54 -63z"/>
<path d="M2475 2000 c-3 -5 -3 -10 2 -10 4 0 3 -4 -4 -8 -13 -8 -179 -348
-189 -386 -5 -19 23 -50 187 -209 105 -103 197 -187 203 -187 13 0 226 381
226 404 0 8 -94 99 -210 202 -115 102 -207 190 -204 195 3 5 3 9 0 9 -3 0 -8
-4 -11 -10z m170 -182 c66 -59 147 -131 179 -160 l59 -54 -56 -104 c-31 -58
-78 -144 -105 -192 l-49 -87 -169 162 c-93 89 -177 172 -187 184 -17 21 -16
26 73 209 l90 187 23 -20 c12 -10 76 -67 142 -125z"/>
<path d="M2550 1840 c30 -27 51 -52 48 -56 -4 -4 -34 17 -68 46 -40 34 -60 47
-60 36 0 -9 6 -16 13 -16 7 0 5 -4 -4 -10 -9 -5 -20 -26 -23 -45 -4 -19 -11
-35 -16 -35 -5 0 -14 -16 -21 -35 -7 -19 -20 -35 -28 -35 -7 0 4 -13 25 -29
46 -34 79 -69 72 -77 -3 -3 -29 15 -58 41 -53 47 -66 49 -79 11 -7 -16 -3 -25
17 -38 14 -9 31 -14 36 -11 6 3 8 2 3 -2 -4 -5 5 -21 20 -37 47 -50 14 -43
-37 7 -28 27 -50 44 -50 38 0 -16 80 -93 96 -93 8 0 14 -5 14 -12 0 -19 62
-68 85 -67 14 0 16 2 5 6 -19 7 -80 64 -80 76 0 4 20 -8 45 -29 25 -20 45 -31
45 -25 0 6 -7 14 -16 18 -8 3 -13 12 -10 20 3 8 2 11 -3 8 -16 -9 -22 12 -7
24 10 9 15 8 20 -4 6 -16 52 -20 74 -6 9 6 1 17 -30 44 -23 20 -39 39 -36 43
10 9 88 -57 89 -75 0 -11 2 -12 6 -3 3 7 -2 24 -11 37 -21 32 -20 34 9 45 28
11 32 31 10 50 -8 7 -12 17 -8 23 3 5 1 7 -5 3 -6 -3 -13 -2 -17 4 -3 5 -11
10 -18 10 -6 0 4 -16 23 -35 43 -45 31 -59 -14 -16 -20 20 -33 42 -33 57 0 14
-8 33 -18 44 -16 18 -14 40 6 40 5 0 23 -13 41 -30 17 -16 39 -30 49 -30 27 0
24 34 -3 53 -13 8 -48 38 -78 66 -30 28 -59 51 -65 51 -5 -1 15 -23 45 -50z
m-42 -29 c33 -29 27 -46 -8 -21 -16 12 -30 26 -30 31 0 14 13 10 38 -10z m15
-66 c40 -38 44 -45 24 -45 -7 0 -31 18 -52 40 -48 50 -25 53 28 5z m118 16
c13 -11 21 -22 17 -26 -8 -8 -58 23 -58 36 0 14 16 10 41 -10z m-141 -51 c24
-22 41 -42 38 -46 -7 -7 -98 65 -98 78 0 15 15 7 60 -32z m10 -65 c35 -37 14
-44 -23 -7 -22 22 -27 32 -16 32 9 0 26 -11 39 -25z m70 -10 c13 -14 20 -25
16 -25 -12 0 -56 32 -56 41 0 16 16 10 40 -16z m-185 -1 c14 -9 22 -20 19 -25
-6 -10 -54 19 -54 32 0 13 7 11 35 -7z m185 -116 c0 -14 -14 -8 -42 17 -41 35
-34 51 7 18 19 -15 35 -31 35 -35z"/>
<path d="M2718 1495 c2 -44 6 -82 8 -84 7 -8 2 114 -6 139 -4 14 -5 -11 -2
-55z"/>
<path d="M2682 1535 c-1 -16 3 -48 7 -70 8 -35 9 -36 9 -10 1 17 -3 48 -7 70
-8 35 -9 36 -9 10z"/>
<path d="M2060 1494 c-41 -7 -76 -13 -77 -13 -12 -3 12 -39 110 -158 61 -76
136 -168 165 -204 l53 -66 127 34 c70 19 131 39 137 44 6 6 -58 77 -175 194
-209 210 -184 197 -340 169z m117 -23 c10 -16 9 -20 -6 -24 -21 -5 -29 -1 -50
26 -12 15 -11 17 15 17 18 0 34 -7 41 -19z m-57 -16 l23 -25 -25 0 c-13 0 -35
11 -48 25 l-23 25 25 0 c13 0 35 -11 48 -25z m-70 0 c10 -12 9 -15 -8 -15 -11
0 -25 7 -32 15 -10 12 -9 15 8 15 11 0 25 -7 32 -15z m215 -15 c18 -19 17 -20
-1 -20 -20 0 -44 17 -44 32 0 15 27 8 45 -12z m-46 -13 c13 -16 5 -27 -19 -27
-20 0 -43 24 -33 33 11 12 40 8 52 -6z m-129 -17 c9 -17 8 -20 -8 -20 -18 0
-42 18 -42 32 0 17 40 7 50 -12z m80 -5 c10 -12 9 -16 -5 -21 -19 -8 -46 5
-53 24 -5 17 43 15 58 -3z m148 -7 c18 -18 14 -28 -11 -28 -23 0 -47 17 -47
32 0 12 45 9 58 -4z m-54 -17 c17 -18 16 -20 -4 -26 -14 -5 -28 -1 -41 11 -19
17 -19 19 -2 25 27 11 28 11 47 -10z m-81 -80 c57 -68 63 -80 47 -84 -15 -4
-32 9 -65 46 -81 90 -95 117 -60 117 7 0 42 -36 78 -79z m25 57 c18 -18 14
-28 -11 -28 -23 0 -47 17 -47 32 0 12 45 9 58 -4z m156 -17 c16 -17 16 -19 -3
-24 -18 -4 -51 19 -51 36 0 15 38 6 54 -12z m-52 -13 c19 -22 19 -23 1 -27
-10 -2 -27 -10 -38 -17 -11 -8 -27 -14 -36 -14 -16 0 -56 37 -48 44 13 13 50
8 70 -9 l24 -20 -20 23 c-16 20 -17 25 -5 32 22 14 31 12 52 -12z m96 -30 c17
-17 15 -28 -6 -28 -19 0 -42 18 -42 32 0 12 35 9 48 -4z m-44 -27 c17 -18 16
-20 -4 -26 -21 -7 -60 17 -60 37 0 16 47 8 64 -11z m-34 -52 c0 -3 -10 -9 -22
-13 -16 -4 -30 2 -47 19 l-25 24 25 10 c19 7 29 4 47 -12 12 -11 22 -24 22
-28z m132 24 c22 -20 23 -33 1 -33 -18 0 -53 28 -53 42 0 14 32 9 52 -9z m-43
-27 l22 -24 -27 -6 c-20 -5 -32 -2 -48 14 -18 18 -19 22 -6 30 23 15 35 12 59
-14z m-141 -29 c23 -25 20 -37 -9 -37 -18 0 -52 44 -42 54 12 12 30 6 51 -17z
m112 -34 l43 -46 -24 -9 c-21 -8 -30 -3 -67 36 -24 26 -40 51 -37 56 13 21 44
8 85 -37z m144 18 c24 -25 25 -29 10 -35 -13 -5 -28 4 -53 29 -36 35 -36 35
-10 35 15 0 37 -12 53 -29z m-57 -13 c30 -28 29 -34 -4 -43 -21 -5 -31 -1 -49
22 -20 25 -21 29 -6 35 27 11 34 9 59 -14z m-117 -70 c0 -4 -11 -8 -25 -8 -32
0 -66 47 -44 60 9 6 22 1 41 -17 16 -15 28 -30 28 -35z"/>
<path d="M2007 1313 c-35 -5 -32 -15 25 -88 35 -44 49 -54 73 -54 67 1 68 9 9
82 -30 37 -60 66 -67 66 -7 -1 -25 -4 -40 -6z m91 -64 c44 -54 46 -69 9 -68
-27 0 -114 105 -94 112 29 12 46 4 85 -44z"/>
<path d="M135 2023 c13 -81 17 -93 26 -87 5 3 9 0 9 -7 0 -7 2 -10 5 -8 5 6
-34 139 -41 139 -3 0 -2 -17 1 -37z"/>
<path d="M60 2007 c0 -10 9 -40 21 -66 11 -27 21 -55 22 -62 3 -19 17 -39 26
-39 5 0 0 17 -10 38 -11 21 -28 62 -39 92 -10 30 -19 47 -20 37z"/>
<path d="M533 1996 c-17 -8 -38 -25 -46 -38 -20 -31 -32 -88 -18 -88 6 0 11 9
11 21 0 23 51 79 72 79 8 0 5 -7 -8 -18 -12 -9 -24 -25 -28 -35 -5 -15 0 -14
25 7 17 14 40 26 52 26 43 0 107 -62 107 -104 0 -7 -14 -23 -32 -36 -31 -23
-31 -23 -25 -1 3 11 2 21 -2 21 -11 0 -31 -47 -31 -73 0 -30 27 -67 48 -67 15
-1 15 -2 -1 -11 -26 -15 -74 -1 -115 34 -33 29 -35 29 -21 7 39 -61 120 -87
167 -54 27 19 28 28 2 54 -26 26 -25 52 3 78 29 27 33 27 40 0 4 -12 9 -19 13
-16 10 11 -25 104 -56 147 -50 68 -102 91 -157 67z"/>
<path d="M330 1924 c0 -39 4 -63 8 -56 8 12 5 113 -4 121 -2 2 -4 -27 -4 -65z"/>
<path d="M220 1935 c0 -42 11 -76 21 -69 11 6 1 74 -12 89 -5 5 -9 -3 -9 -20z"/>
<path d="M281 1895 c0 -27 7 -63 15 -80 8 -16 12 -22 9 -12 -2 9 0 17 6 17 7
0 8 7 4 18 -4 9 -13 37 -20 62 l-13 45 -1 -50z"/>
<path d="M592 1904 c-12 -8 -29 -28 -37 -44 -17 -33 -20 -90 -5 -90 6 0 10 15
10 33 0 25 10 43 40 75 40 41 35 57 -8 26z"/>
<path d="M586 1848 c-9 -12 -16 -29 -16 -38 1 -8 7 -3 16 13 8 15 22 27 30 27
8 0 12 5 9 10 -10 16 -23 12 -39 -12z"/>
<path d="M478 1825 c7 -46 19 -50 25 -9 4 21 4 40 2 43 -3 2 -5 -3 -5 -12 0
-20 -17 -23 -23 -4 -2 6 -2 -1 1 -18z"/>
<path d="M170 1846 c0 -22 30 -73 44 -73 9 0 13 5 8 11 -39 52 -52 68 -52 62z"/>
<path d="M131 1744 c7 -8 22 -20 33 -26 20 -11 20 -10 5 12 -8 13 -23 24 -33
26 -14 2 -15 0 -5 -12z"/>
<path d="M927 1695 c-17 -35 -17 -36 3 -25 12 6 20 21 20 35 0 33 -3 32 -23
-10z"/>
<path d="M119 1704 c6 -12 36 -52 66 -90 31 -37 54 -73 51 -81 -3 -8 11 -21
37 -34 l41 -22 -60 69 c-33 38 -75 89 -94 114 -43 58 -55 70 -41 44z"/>
<path d="M1390 1684 c-16 -18 0 -37 38 -49 27 -8 29 10 6 43 -18 26 -27 27
-44 6z"/>
<path d="M1824 1605 c0 -49 1 -71 3 -48 2 23 2 64 0 90 -2 26 -3 8 -3 -42z"/>
<path d="M924 1626 c-40 -43 -41 -44 -13 -36 42 12 46 17 51 50 3 16 4 30 4
30 -1 0 -19 -20 -42 -44z"/>
<path d="M1017 1651 c-25 -5 -26 -7 -9 -17 14 -9 25 -8 52 7 32 17 33 18 10
17 -14 0 -38 -3 -53 -7z"/>
<path d="M1521 1636 c-13 -14 -21 -32 -18 -43 4 -15 5 -15 6 -1 1 10 11 18 29
20 19 2 27 9 27 22 0 29 -18 29 -44 2z"/>
<path d="M789 1591 c-52 -33 -105 -88 -76 -78 17 6 18 3 12 -35 l-6 -43 26 50
c15 28 42 69 62 93 19 23 33 42 31 42 -2 0 -24 -13 -49 -29z"/>
<path d="M1094 1591 c-40 -30 -72 -68 -93 -111 -10 -21 -8 -20 11 5 13 17 46
54 75 83 29 28 51 52 50 52 -2 0 -21 -13 -43 -29z"/>
<path d="M944 1577 c-11 -12 -28 -33 -39 -46 l-20 -24 22 12 c23 12 68 69 61
77 -3 2 -13 -6 -24 -19z"/>
<path d="M810 1448 c-40 -61 -49 -88 -30 -88 6 0 11 -24 11 -52 2 -51 2 -49
10 21 5 40 20 98 33 127 14 30 23 54 20 54 -2 0 -22 -28 -44 -62z"/>
<path d="M236 1468 c30 -35 76 -81 109 -108 17 -13 -4 10 -45 53 -71 73 -105
103 -64 55z"/>
<path d="M747 1443 c-9 -17 -11 -36 -7 -48 7 -18 9 -17 15 10 4 17 9 38 12 48
7 26 -5 20 -20 -10z"/>
<path d="M837 1351 c-4 -18 -6 -52 -6 -75 2 -34 3 -36 6 -11 3 16 9 33 14 36
6 3 6 21 1 45 l-8 39 -7 -34z"/>
<path d="M932 1349 c-17 -28 -40 -131 -48 -220 l-7 -77 61 -61 61 -61 58 1
c85 1 125 17 48 18 -79 2 -136 28 -158 72 -12 26 -17 29 -17 14 -1 -17 -3 -17
-12 5 -18 43 -13 188 10 260 23 69 23 81 4 49z"/>
<path d="M1615 1347 c-4 -14 -13 -28 -20 -31 -8 -3 -19 -14 -25 -26 -11 -21
-11 -21 13 -5 25 16 55 71 44 82 -3 3 -9 -6 -12 -20z"/>
<path d="M1689 1298 c-2 -18 -1 -51 2 -73 5 -32 6 -25 8 33 1 75 -4 96 -10 40z"/>
<path d="M1751 1199 c-74 -56 -121 -99 -121 -112 0 -9 147 102 175 133 34 37
10 28 -54 -21z"/>
<path d="M1853 1237 c-4 -7 -24 -25 -43 -41 -71 -58 -142 -127 -144 -139 -1
-6 -8 -23 -15 -36 l-14 -25 -23 45 c-27 55 -56 83 -46 47 5 -21 4 -22 -11 -9
-33 27 -18 -10 25 -59 l42 -49 40 32 c140 108 216 171 212 175 -3 2 -48 -26
-101 -62 -54 -36 -100 -66 -103 -66 -13 0 76 84 136 128 34 25 62 52 62 59 0
16 -7 17 -17 0z"/>
<path d="M2800 1198 c0 -34 -6 -58 -17 -72 -17 -20 -17 -20 0 -7 16 13 17 0
17 -240 l0 -254 -45 3 -45 4 0 213 c0 132 -4 216 -10 220 -7 4 -10 -64 -10
-196 l0 -202 -167 6 c-91 4 -260 7 -375 7 l-208 0 1 58 0 57 84 55 c46 30 82
56 80 58 -4 4 -85 -35 -151 -74 l-46 -27 4 -61 c3 -55 1 -61 -17 -61 -26 0
-32 44 -12 85 l15 29 -67 -41 c-36 -23 -73 -47 -81 -55 -13 -12 -12 -13 10
-11 14 2 30 10 37 18 10 13 12 11 13 -11 0 -24 -30 -49 -59 -49 -14 0 -46 81
-34 88 63 40 340 238 338 241 -10 10 -245 -141 -400 -258 -85 -64 -235 -193
-235 -203 0 -18 22 -4 116 77 54 47 102 85 106 85 8 0 38 -95 38 -122 0 -10 4
-18 10 -18 10 0 6 32 -11 103 -10 37 -6 57 11 57 15 0 50 -67 44 -83 -3 -9 -2
-22 2 -29 6 -9 10 -4 14 16 4 23 13 31 49 43 38 13 94 13 420 4 207 -6 397
-11 424 -11 33 0 47 -4 47 -14 0 -17 21 -26 68 -27 l37 0 -45 -14 c-25 -8 -61
-12 -80 -10 -19 3 -195 9 -390 15 -195 5 -389 13 -430 16 -58 4 -72 3 -64 -6
13 -13 142 -21 627 -41 l297 -12 0 -33 c0 -32 -2 -34 -37 -35 -26 -1 -30 -3
-14 -6 12 -3 34 -2 47 1 20 5 24 13 24 45 l0 38 60 17 c33 9 60 20 60 23 0 3
-11 2 -25 -1 -26 -7 -33 2 -15 20 7 7 11 102 10 271 l0 261 26 17 c15 9 23 22
20 31 -3 8 -1 14 4 14 6 0 10 5 10 12 0 6 -13 -1 -30 -17 l-30 -29 0 37 c0 20
-4 37 -10 37 -5 0 -10 -23 -10 -52z m-940 -484 c0 -21 -4 -34 -11 -32 -6 2
-10 7 -10 11 1 4 1 18 1 32 0 14 5 25 10 25 6 0 10 -16 10 -36z"/>
<path d="M1538 1203 c12 -17 22 -35 22 -40 0 -11 33 -43 44 -43 13 0 -22 55
-55 85 l-32 30 21 -32z"/>
<path d="M1854 1092 c-133 -89 -381 -302 -482 -413 -51 -56 -56 -76 -7 -29 29
28 38 32 45 21 6 -11 9 -7 12 15 4 41 20 36 34 -11 l11 -40 6 58 c3 32 11 65
18 73 14 18 54 41 46 26 -4 -5 1 -18 9 -28 14 -18 15 -17 9 17 -5 34 -2 40 41
78 53 46 59 44 70 -26 3 -24 8 -43 10 -43 2 0 28 19 57 43 28 23 105 80 170
126 64 46 117 85 117 87 0 16 -240 -131 -288 -176 -13 -12 -24 -20 -25 -19 -2
2 -10 19 -18 38 l-15 34 95 78 c183 147 206 172 85 91z"/>
<path d="M1515 1052 c4 -13 2 -29 -4 -36 -8 -10 -6 -18 10 -32 34 -30 42 -53
27 -72 -10 -13 -8 -13 9 2 l22 18 -24 54 c-13 29 -29 61 -35 71 -10 16 -10 15
-5 -5z"/>
<path d="M1488 950 c-3 -19 -1 -45 5 -57 7 -17 6 -27 -4 -39 -13 -16 -12 -16
8 -3 31 19 32 26 13 84 l-17 50 -5 -35z"/>
<path d="M2572 971 c20 -4 48 -15 62 -25 20 -13 26 -13 26 -3 0 19 -44 37 -88
36 l-37 -1 37 -7z"/>
<path d="M730 962 c0 -9 38 -72 44 -72 10 0 -18 70 -31 74 -7 3 -13 2 -13 -2z"/>
<path d="M2491 954 c-13 -9 -29 -32 -37 -50 -10 -23 -21 -34 -34 -34 -12 0
-32 -8 -47 -17 -14 -10 -40 -16 -57 -15 -48 5 -83 -13 -112 -58 -15 -22 -32
-40 -38 -40 -7 0 -20 -6 -29 -12 -15 -11 -12 -13 23 -13 35 0 40 3 45 27 13
59 88 98 134 69 9 -6 20 -1 35 16 21 24 48 31 76 19 12 -5 15 2 16 30 0 28 8
44 32 66 35 30 31 38 -7 12z"/>
<path d="M637 931 c-10 -17 -16 -48 -16 -73 l2 -43 7 40 c4 22 12 53 19 69 16
39 9 42 -12 7z"/>
<path d="M797 911 c22 -42 108 -138 137 -153 23 -12 -5 22 -75 92 -19 19 -45
49 -58 65 l-22 30 18 -34z"/>
<path d="M993 906 c29 -27 70 -33 97 -16 11 7 3 10 -30 10 -25 0 -57 7 -70 16
-22 14 -22 12 3 -10z"/>
<path d="M1462 891 c-2 -24 -46 -96 -109 -180 -33 -43 -57 -81 -50 -81 9 0
120 144 132 172 10 24 14 28 15 13 1 -18 1 -19 11 -2 6 9 8 36 6 60 -2 23 -4
31 -5 18z"/>
<path d="M1130 875 c-19 -7 -53 -14 -75 -15 l-40 -2 42 -10 c36 -8 48 -6 90
16 51 27 41 33 -17 11z"/>
<path d="M2135 827 c-80 -44 -105 -60 -105 -70 0 -8 118 51 165 82 47 33 6 24
-60 -12z"/>
<path d="M701 818 c-1 -14 -3 -32 -6 -40 -3 -7 7 -31 21 -53 14 -22 23 -31 19
-20 -4 11 -13 47 -20 80 -7 33 -14 48 -14 33z"/>
<path d="M2860 782 c0 -28 4 -53 9 -56 9 -6 7 91 -2 101 -4 3 -7 -17 -7 -45z"/>
<path d="M829 784 c10 -20 114 -109 151 -129 22 -12 3 5 -55 50 -27 21 -63 52
-78 69 -20 22 -25 25 -18 10z"/>
<path d="M991 730 l-23 -20 38 1 c22 1 31 3 21 6 -11 3 -16 11 -13 19 7 18 6
17 -23 -6z"/>
<path d="M600 735 c0 -11 41 -87 45 -83 9 8 -20 88 -32 88 -7 0 -13 -2 -13 -5z"/>
<path d="M760 736 c-1 -27 37 -119 57 -138 13 -12 24 -20 26 -17 1 2 -16 40
-40 84 -23 44 -42 76 -43 71z"/>
<path d="M1035 684 c-18 -14 -18 -14 1 -14 10 1 30 7 43 14 l24 14 -24 0 c-14
0 -34 -7 -44 -14z"/>
<path d="M1146 653 l-18 -38 36 34 c35 34 50 55 22 32 -10 -9 -15 -9 -18 -1
-2 7 -12 -6 -22 -27z"/>
<path d="M871 646 c11 -19 28 -40 37 -48 16 -12 16 -11 2 6 -14 18 -13 18 10
12 24 -7 24 -7 -5 18 -16 15 -38 31 -47 36 -15 9 -15 6 3 -24z"/>
<path d="M1470 627 c-39 -58 -38 -62 4 -18 15 16 24 31 19 34 -5 3 -16 -4 -23
-16z"/>
<path d="M1592 602 c0 -23 3 -29 14 -25 17 6 18 14 1 38 -13 16 -14 15 -15
-13z"/>
<path d="M1410 613 c-1 -5 -5 -27 -9 -51 -6 -29 -5 -40 1 -34 10 10 21 92 12
92 -2 0 -4 -3 -4 -7z"/>
<path d="M670 594 c0 -30 34 -104 47 -104 8 0 34 -19 58 -42 24 -24 58 -51 77
-61 29 -16 30 -16 8 0 -43 29 -129 121 -160 170 -17 26 -30 42 -30 37z"/>
<path d="M1629 447 l4 -112 9 70 c4 38 13 72 19 76 11 6 -11 62 -28 72 -5 3
-6 -45 -4 -106z"/>
<path d="M620 547 c0 -17 29 -63 51 -82 24 -20 24 -20 8 0 -9 11 -26 36 -38
55 -11 19 -21 31 -21 27z"/>
<path d="M1795 524 c48 -8 115 -9 115 -2 0 5 -30 7 -67 7 -38 -1 -59 -3 -48
-5z"/>
<path d="M1985 514 c95 -11 275 -19 275 -12 0 5 -19 8 -42 8 -24 0 -95 2 -158
4 -63 2 -97 2 -75 0z"/>
<path d="M899 490 c-7 -20 6 -79 21 -94 10 -8 10 -6 1 12 -10 20 -9 22 11 22
l22 0 -21 15 c-12 8 -23 25 -25 38 -3 16 -5 18 -9 7z"/>
<path d="M2338 493 c17 -2 47 -2 65 0 17 2 3 4 -33 4 -36 0 -50 -2 -32 -4z"/>
<path d="M2485 484 c46 -7 123 -8 118 -1 -2 4 -34 6 -71 6 -37 -1 -58 -3 -47
-5z"/>
<path d="M1370 451 c-12 -17 -17 -31 -11 -31 7 0 7 -8 0 -26 -5 -15 -8 -28 -6
-31 2 -2 14 22 25 54 12 31 20 59 18 61 -2 2 -14 -11 -26 -27z"/>
<path d="M1581 403 c-1 -12 -4 -28 -7 -37 -4 -11 -1 -16 10 -16 17 0 19 11 6
50 -7 23 -8 23 -9 3z"/>
<path d="M1526 354 c-4 -15 -16 -40 -27 -56 -11 -15 -16 -28 -11 -28 6 0 13 7
16 16 3 8 10 13 15 10 4 -3 11 13 14 37 7 48 2 60 -7 21z"/>
<path d="M1426 331 c-10 -11 -14 -26 -10 -37 4 -14 3 -15 -4 -6 -7 11 -15 8
-38 -13 l-29 -26 28 17 c23 14 30 15 37 5 5 -9 13 3 23 33 9 25 15 46 13 46
-2 0 -10 -8 -20 -19z"/>
</g>
</svg>
