<svg version="1.2" xmlns="http://www.w3.org/2000/svg" viewBox="0 0 1365 1365" width="1365" height="1365">
	<title>safari-pinned-tab-svg</title>
	<defs>
		<clipPath clipPathUnits="userSpaceOnUse" id="cp1">
			<path d="m655.2 313.1v822.23h-622.69v-822.23z"/>
		</clipPath>
		<clipPath clipPathUnits="userSpaceOnUse" id="cp2">
			<path d="m1308.84 304v828.5h-617.24v-828.5z"/>
		</clipPath>
	</defs>
	<style>
		.s0 { fill: none }
		.s1 { fill: #000000 }
	</style>
	<g id="surface1">
		<path class="s0" d="m1258.6 499.2c-40.8-26.1-68 13.8-64.7 68.1l-0.3 0.4c0.1-56.6-7.3-119.2-31.7-169.8-8.7-17.9-26.2-47.4-61-33.5-15.2 6.1-29 24.4-21.9 71.7 0 0 8 49.7 6.5 112.2v0.8c-9.9-172.2-47.3-224.7-100.7-221.3-17.1 3.1-40.5 10.8-32.6 63.8 0 0 8.5 55.2 11.3 99.2l0.2 2.2h-0.2c-25.2-94.9-59-96.2-83.5-92.5-22.3 3.3-46.6 27.3-34.3 74.7 38.6 148.4 31 327.2 28.2 352.9-7.9-17.6-10.3-31.4-21.3-50.7-43.9-77.1-64.8-82.8-90.4-84-25.5-1.1-53 15.2-51.2 46.3 1.9 31.1 17.1 36.3 38.7 79.6 16.9 33.8 21.7 78 55.7 158.4 28.1 66.5 101.6 139.5 235.6 130.8 108.5-3.7 270.6-43.2 242.4-302.5-7-45-1.7-82.7 1.9-121.4 5.8-60 14.1-159.4-26.7-185.5z"/>
		<path class="s0" d="m580.9 695.3c-25.7 1.7-46.4 7.7-89 85.7-10.6 19.4-12.7 33.3-20.3 50.9-3.3-25.5-14-204.2 21.9-353.4 11.4-47.5-13.3-71-35.6-73.9-24.6-3.3-58.5-1.3-81.9 94.6h-0.3l0.4-2.8c1.9-44 9.5-99.4 9.5-99.4 6.9-53.1-16.6-60.3-33.7-63.2-53.4-2.3-89.7 50.4-96.7 221.1h-0.2c-2.4-61.8 4.6-111 4.6-111 6.3-47.5-7.9-65.5-23.2-71.3-35-13.3-52 16.6-60.3 34.7-23.6 51-29.9 113.7-28.7 170.3l-0.4-0.4c2.4-54.2-25.6-93.7-65.9-66.9-40.3 26.9-30.1 126.2-23.4 186 4.5 38.6 10.4 76.2 4.1 121.4-23.5 259.7 139.3 296.1 247.8 297.8 134.1 6.1 206.3-68.3 233.3-135.4 32.5-80.9 36.6-125.3 52.8-159.3 20.8-43.8 36-49.2 37.3-80.3 1.3-31.1-26.5-46.9-52-45.3z"/>
		<g id="Clip-Path" clip-path="url(#cp1)">
			<g>
				<path fill-rule="evenodd" class="s1" d="m634.4 695.7c11.9 12 17.8 27.9 17.1 45.7-1 24.6-9.5 37.8-19.4 53.2-5.8 9-12.3 19.2-19.8 34.9-6.6 13.8-11.2 30.4-17 51.5-7.6 27.3-17 61.2-35.3 106.7-14.1 35.1-71.4 146.1-231.3 147.6q-9.8 0.1-20-0.3c-93.6-1.5-164.2-28.5-209.3-80.6-46.9-54-65.8-134.2-56.4-238.4l0.1-0.9c5.2-37.6 1.5-69.5-2.6-103.3-0.5-4.4-1-8.7-1.5-13.1-9.4-82.5-15.4-173.1 31.8-204.6 27.9-18.5 49.3-11.1 59.6-4.9 1 0.6 1.9 1.2 2.9 1.9 4.5-32.3 12.6-63.9 25.6-92.2 11.2-24.2 37.1-62.2 83.8-44.5 7.6 3 17.3 8.8 24.8 20.2 6.7-14.7 14.5-26.6 23.5-35.8 16.6-17.2 37.4-25.4 61.6-24.3l2.1 0.2c39.2 6.5 55.9 35 49.4 84.9 0 0 0 0.3 0 0.6 20-17 40.4-16.9 56.1-14.8 17.2 2.2 32.8 12.1 42.8 27.2 8.6 13 17.1 35.8 8.7 70.7-22.3 92.9-26.1 198.5-25.2 268.8 36.3-61.5 59.9-74.1 93.2-76.2 20.8-1.3 41.3 6 54.8 19.8zm-316.9-329.4c-35.1 36.2-49.7 148.5-43.4 333.7 19.5-3 39.5-5.2 59.6-6.5 4.7-91.2 13.3-153.7 23.7-197q0-0.5 0-0.9c2-44.4 9.3-98.9 9.7-101.2 4.7-36.3-5.7-39.2-17-41.1-13.2-0.3-23.5 3.8-32.5 13zm-124.6 49.5c-50 108.3-16.2 277.2-8.5 303.8 16.1-4.8 33.8-9.2 52.4-13-2.1-57.7-2.3-108.1-0.6-151.9-2.3-62.3 4.4-111.4 4.7-113.5 1.8-13 4.2-44.5-11.1-50.3-10.9-4.1-22.8-5.7-36.9 24.8zm407.9 357.3c8.9-13.8 12.6-19.5 13.2-33.3 0.2-6.7-1.6-12-5.9-16.3-5.9-6.1-16-9.4-26.1-8.8-17.3 1.2-33.6 2.2-73.8 75.9-5.6 10.4-8.5 18.9-11.8 28.6-2.1 6.3-4.4 13.2-7.7 20.8-0.1 0.3-0.2 0.6-0.4 0.8-1.4 3.3-3 6.8-4.8 10.4-17.6 34.2-46.2 53.4-76.5 51.6-10.4-0.7-18.2-9.9-17.6-20.6 0.6-10.7 9.6-18.7 19.8-18.2 18 1.1 33.1-15.3 41.2-31.1 0.7-1.4 1.3-2.8 2-4.2-4-41.1-11.8-210.7 22.9-354.8 3.9-16.5 2.8-30.1-3.3-39.3-5.6-8.4-13.4-10.3-16.5-10.7-11.2-1.5-19.3-0.9-27.8 6.4-20.5 17.8-46.8 77.8-56.4 261.8 5.8 0 11.6 0 17.3 0.2 10.3 0.3 18.5 9.2 18.2 19.9-0.3 10.7-8.8 19.1-19.2 18.9-95.8-2.8-204.4 22.8-250.2 47.9-2.8 1.5-5.7 2.3-8.6 2.3-6.8 0.1-13.4-3.7-16.8-10.3-4.8-9.5-1.4-21.2 7.8-26.3 8.1-4.4 17.9-8.9 28.9-13.1-6.7-22.4-18.6-82-20.1-150.6-0.3-1.5-0.5-3-0.4-4.6 1.2-29.4-7.6-48.4-16.4-53.6-5.2-3.1-12.1-1.8-20.6 3.9-31.6 21-19.4 127.4-14.9 167.4 0.5 4.3 1 8.6 1.5 12.9 4.1 34.7 8.4 70.6 2.6 113-8.3 92.7 7.5 162.9 47 208.5 38.4 44.2 98 66.3 182.4 67.6 151.5 7.1 203.3-92.6 215.7-123.3 17.4-43.4 26.5-76.2 33.8-102.5 6.4-22.9 11.4-41 19.5-58 8.5-17.9 16.1-29.7 22.2-39.2z"/>
			</g>
		</g>
		<g id="Clip-Path" clip-path="url(#cp2)">
			<g>
				<path fill-rule="evenodd" class="s1" d="m1301.9 802.9l0.1 0.9c11.3 104-6.3 184.6-52.2 239.5-44.1 52.8-114.2 81.3-208.3 84.5q-10.2 0.7-19.9 0.8c-159.5 1.6-218.8-108.4-233.5-143.2-19.1-45.1-29.1-78.9-37.2-106-6.2-21-11.1-37.5-18-51.2-7.7-15.5-14.4-25.6-20.4-34.5-10.1-15.1-18.8-28.2-20.3-52.8-1.1-17.7 4.5-33.6 16.2-45.9 13.3-14 33.8-21.8 54.5-20.9 33.3 1.5 57.1 13.7 94.5 74.5-0.3-70.4-6-175.9-30-268.4-9-34.8-0.9-57.7 7.5-70.8 9.7-15.3 25.1-25.5 42.2-28.1 15.7-2.3 36.2-2.9 56.4 13.8 0-0.2 0-0.4 0-0.4-7.4-49.9 8.8-78.8 47.9-86l2.1-0.3c24.1-1.6 45 6.3 62 23.2 9.1 9 17.1 20.7 24.1 35.3 7.4-11.6 16.9-17.6 24.5-20.6 46.4-18.7 72.9 18.9 84.5 42.9 13.5 28 22.1 59.5 27.3 91.6 0.9-0.6 1.8-1.3 2.8-1.9 10.2-6.3 31.5-14.3 59.7 3.8 47.8 30.6 43.4 121.3 35.5 203.9-0.4 4.4-0.8 8.7-1.3 13.1-3.4 33.9-6.6 65.9-0.8 103.3zm-197.6-256.5c2.5 43.7 3.2 94.2 2.1 151.9 18.7 3.5 36.4 7.5 52.7 12 7.2-26.7 37.9-196.3-14-303.7-14.6-30.1-26.5-28.4-37.4-24.1-15.1 6.1-12.2 37.5-10.2 50.7 0.4 1.9 8 50.9 6.8 113.2zm-117.5-199.2c-11.4 2.2-21.6 5.2-16.3 41.6 0.4 2.1 8.8 56.4 11.5 100.8q0 0.5 0 0.9c11.2 43.2 21 105.4 27.2 196.6 20.2 0.9 40.2 2.7 59.7 5.3 3-185.3-13.5-297.2-49.3-332.8-9.1-9.1-19.5-13-32.7-12.4zm278.5 348.5c0.5-4.3 0.9-8.6 1.3-13 3.9-40.1 14.1-146.6-17.9-167-8.6-5.5-15.5-6.7-20.6-3.5-8.7 5.4-17.2 24.5-15.4 53.9 0.1 1.5 0 3.1-0.3 4.6-0.4 68.5-11.2 128.4-17.5 150.9 11.1 4.1 20.9 8.3 29.1 12.6 9.3 4.9 13 16.6 8.3 26.2-3.3 6.7-9.8 10.6-16.6 10.6-2.9 0-5.9-0.6-8.6-2.1-46.2-24.3-155.4-47.7-251-43.2-10.5 0.3-19.2-7.7-19.6-18.5-0.5-10.7 7.5-19.8 17.9-20.2 5.6-0.3 11.4-0.5 17.2-0.6-12.8-183.8-40.2-243.3-61-260.7-8.6-7.1-16.8-7.6-27.9-5.9-3.2 0.5-10.9 2.5-16.4 11.1-5.9 9.3-6.8 22.9-2.5 39.3 37.3 143.5 32.4 313.2 29.2 354.3 0.7 1.4 1.3 2.7 2.1 4.2 8.4 15.6 23.7 31.7 41.7 30.3 10.3-0.7 19.3 7.2 20.1 17.9 0.8 10.6-6.9 20-17.2 20.8-30.3 2.5-59.3-16.3-77.4-50.1-2-3.6-3.6-7-5.1-10.3-0.1-0.2-0.2-0.5-0.3-0.7-3.5-7.5-5.9-14.5-8.2-20.8-3.5-9.6-6.4-18-12.3-28.3-41.6-72.9-57.9-73.7-75.1-74.5-10.2-0.5-20.2 3.1-26.1 9.3-4.1 4.3-5.9 9.7-5.5 16.4 0.8 13.8 4.6 19.4 13.7 33.1 6.3 9.4 14.1 21 23 38.7 8.3 16.9 13.7 34.8 20.5 57.7 7.7 26.2 17.4 58.7 35.6 101.8 12.9 30.5 66.7 129.1 217.3 119.2 84.9-2.9 144.2-26.2 181.7-71.1 38.7-46.3 53.2-116.8 43.3-209.4-6.6-42.3-3-78.2 0.5-113z"/>
			</g>
		</g>
		<path class="s1" d="m739.8 434.2c-3 0-6.1-0.6-9-2-10.5-5-15.2-18-10.3-28.9 15.7-35.6 38.8-68.4 66.6-94.9 8.5-8.1 21.9-7.6 29.7 1.3 7.9 8.9 7.4 22.7-1.2 30.8-23.7 22.7-43.4 50.6-56.8 81-3.6 7.9-11.1 12.6-19 12.7z"/>
		<path class="s1" d="m668.8 421.6c-10.9 0.1-20.3-8.5-21.2-20-4-51.4-4.2-103.5-0.4-154.8 0.9-12 11.1-21 22.6-20.1 11.6 0.9 20.3 11.3 19.4 23.3-3.6 49.1-3.4 98.9 0.4 148 1 12-7.7 22.5-19.3 23.5-0.5 0-1 0-1.5 0z"/>
		<path class="s1" d="m596.2 435.1c-9.4 0.1-18.2-6.5-20.6-16.4-8.9-36.3-25.9-70.8-48.9-99.7-7.4-9.3-6.1-23 2.8-30.7 9-7.6 22.3-6.3 29.7 3 26.9 33.8 46.7 74.2 57.2 116.7 2.9 11.6-4 23.5-15.2 26.5-1.8 0.4-3.4 0.6-5.1 0.7z"/>
	</g>
</svg>
