<?xml version="1.0" standalone="no"?>
<!DOCTYPE svg PUBLIC "-//W3C//DTD SVG 20010904//EN"
 "http://www.w3.org/TR/2001/REC-SVG-20010904/DTD/svg10.dtd">
<svg version="1.0" xmlns="http://www.w3.org/2000/svg"
 width="1024.000000pt" height="1024.000000pt" viewBox="0 0 1024.000000 1024.000000"
 preserveAspectRatio="xMidYMid meet">
<metadata>
Created by potrace 1.14, written by Peter Selinger 2001-2017
</metadata>
<g transform="translate(0.000000,1024.000000) scale(0.100000,-0.100000)"
fill="#000000" stroke="none">
<path d="M5195 8749 c-122 -19 -282 -101 -383 -197 -66 -61 -59 -81 52 -160
49 -34 99 -65 111 -68 16 -4 44 9 94 41 93 60 169 94 256 112 l70 14 82 -42
c46 -23 83 -44 83 -48 -1 -3 -34 -21 -74 -40 -217 -98 -499 -312 -667 -505
-138 -157 -309 -430 -309 -493 0 -38 66 -100 149 -140 42 -20 77 -38 79 -39 2
-1 -17 -32 -43 -70 -185 -277 -278 -669 -246 -1041 20 -245 61 -392 167 -612
35 -74 63 -135 62 -135 -2 -1 -30 -10 -62 -21 -38 -13 -67 -30 -79 -47 -19
-26 -19 -29 -3 -71 23 -61 101 -184 166 -262 99 -119 265 -247 425 -327 149
-75 397 -152 602 -188 l72 -13 -63 -67 c-139 -147 -205 -389 -139 -503 11 -18
40 -43 70 -58 50 -26 51 -28 33 -44 -11 -10 -40 -58 -66 -109 -77 -149 -235
-389 -267 -407 -17 -10 -269 -65 -352 -78 -38 -6 -115 -15 -169 -20 -74 -8
-107 -15 -128 -31 -21 -16 -47 -21 -110 -24 -61 -3 -121 -15 -223 -46 -77 -23
-153 -49 -168 -57 -16 -8 -52 -51 -84 -101 -31 -48 -69 -103 -85 -122 -54 -66
-31 -122 68 -159 47 -18 48 -19 18 -25 -49 -10 -352 -44 -694 -76 -314 -30
-326 -32 -347 -55 -19 -22 -31 -25 -85 -25 -91 0 -104 -12 -112 -103 -8 -94 3
-121 58 -142 23 -8 174 -56 336 -106 162 -50 445 -137 628 -195 183 -57 482
-149 665 -205 182 -55 367 -111 410 -125 43 -13 102 -24 130 -24 97 0 1501
180 1564 201 46 15 77 70 77 135 0 82 -43 130 -126 141 -24 4 -59 16 -78 29
-22 14 -129 46 -280 83 -135 34 -255 64 -268 67 -20 6 -16 10 30 31 29 13 63
34 75 45 22 21 24 21 122 5 124 -21 158 -21 217 -1 46 15 48 15 108 -13 64
-29 144 -37 231 -21 22 4 29 4 16 0 -24 -7 -23 -8 15 -19 68 -20 155 -35 169
-29 8 3 15 0 17 -6 3 -7 10 -8 17 -4 11 7 11 10 0 17 -10 6 -8 9 9 9 14 0 21
-4 16 -11 -4 -7 0 -9 14 -5 12 4 128 -13 259 -38 131 -25 362 -67 513 -95 815
-146 759 -135 707 -143 -27 -3 -51 -9 -54 -11 -2 -3 38 -12 89 -21 51 -10 125
-23 163 -31 98 -19 336 -53 420 -60 68 -5 69 -5 30 8 -22 7 -73 19 -114 27
-41 8 -70 15 -64 17 11 4 120 -12 607 -92 154 -25 281 -43 284 -40 8 7 -16 13
-153 39 -407 77 -958 186 -963 190 -8 8 15 135 48 268 46 182 103 350 221 643
144 360 219 605 288 936 69 337 104 670 99 964 -3 232 -6 241 -89 282 -50 25
-234 64 -414 88 -66 9 -134 18 -151 21 l-31 4 57 60 c233 242 426 579 505 884
14 55 30 105 35 112 23 27 71 180 78 247 4 40 3 110 -1 157 -11 105 -11 95 -2
210 5 73 3 111 -9 164 -31 131 -107 254 -204 328 -26 20 -42 40 -42 54 0 12
-27 74 -59 137 -204 399 -520 697 -963 912 -375 181 -795 278 -1268 292 -338
10 -691 -35 -972 -123 l-77 -25 -233 109 c-295 138 -320 146 -413 131z m107
-89 c20 -6 65 -24 100 -40 l63 -30 -65 6 c-68 6 -173 -10 -260 -41 -52 -18
-72 -32 -87 -59 -10 -18 -14 -14 -37 32 l-26 52 47 23 c68 34 154 60 213 66 8
0 32 -4 52 -9z m1843 -110 c448 -52 824 -167 1126 -343 307 -179 534 -393 691
-652 63 -102 101 -175 96 -181 -2 -2 -26 12 -52 31 -27 19 -64 39 -82 45 -19
7 -34 15 -34 18 -1 31 -32 148 -48 178 -32 63 -65 88 -105 80 -29 -5 -35 -3
-48 20 -8 15 -44 52 -81 83 -178 150 -544 337 -968 495 -129 48 -139 50 -235
50 -130 -1 -217 -23 -378 -96 -86 -40 -93 -59 -44 -126 41 -55 141 -152 157
-152 6 0 34 12 63 26 100 51 255 94 338 94 51 0 160 -42 324 -126 173 -88 320
-176 394 -236 l61 -49 -35 -30 c-19 -17 -38 -42 -41 -54 -3 -14 -16 -26 -32
-30 -63 -16 -56 -59 31 -192 l73 -110 -39 -44 c-53 -61 -138 -191 -180 -274
-64 -130 -120 -339 -134 -502 l-6 -72 -71 -11 c-39 -6 -87 -13 -107 -16 l-36
-5 -13 73 c-56 317 -249 568 -557 726 -254 130 -574 200 -1108 244 -339 27
-1062 15 -1363 -23 -46 -6 -85 -9 -88 -7 -6 7 63 131 124 220 365 540 1013
885 1797 958 120 11 484 5 610 -10z m-2169 -15 c20 -30 11 -81 -15 -88 -18 -4
-81 28 -81 41 0 6 70 70 77 72 2 0 10 -11 19 -25z m2662 -299 c67 -27 122 -52
122 -57 0 -12 -22 -7 -35 7 -5 6 -26 14 -45 17 -19 3 -44 9 -54 13 -14 5 -17
4 -12 -4 4 -7 2 -12 -3 -12 -6 0 -11 5 -11 11 0 6 -7 9 -15 6 -8 -4 -17 -2
-20 3 -3 5 -12 7 -20 4 -8 -4 -29 -1 -46 5 -24 8 -36 8 -45 0 -11 -9 -14 -8
-14 2 0 11 -2 11 -9 0 -6 -10 -30 -16 -68 -17 -32 -2 -58 -4 -58 -4 0 -1 -8
-3 -17 -5 -9 -2 -19 4 -22 12 -9 21 -29 4 -22 -19 2 -12 -1 -27 -9 -34 -18
-18 -25 -18 -25 1 0 9 -7 30 -16 46 -8 17 -13 34 -10 37 21 20 149 42 236 39
87 -2 105 -6 218 -51z m-478 -25 c17 -32 12 -61 -10 -61 -10 0 -23 -8 -29 -17
-9 -16 -12 -15 -40 11 -17 17 -31 33 -31 37 0 7 77 47 92 49 4 0 12 -9 18 -19z
m710 -76 c10 6 102 -34 112 -49 4 -6 8 -8 8 -4 0 4 13 2 30 -3 16 -6 28 -14
25 -19 -2 -4 8 -13 23 -20 22 -11 24 -14 9 -18 -21 -4 -47 14 -47 34 0 14 -73
14 -101 0 -8 -4 -5 -1 5 8 17 14 17 16 3 22 -9 3 -15 10 -12 14 3 5 -5 5 -17
2 -19 -5 -20 -7 -5 -10 20 -4 22 -17 5 -28 -7 -5 -8 -3 -3 6 6 10 4 12 -8 7
-9 -3 -23 1 -32 9 -8 8 -20 12 -26 8 -8 -4 -9 -3 -5 5 4 6 16 9 27 6 13 -4 19
-2 19 9 0 9 -5 15 -11 14 -6 -2 -13 3 -14 10 -2 7 -1 8 2 2 2 -5 8 -8 13 -5z
m384 -187 c-3 -4 -9 -8 -15 -8 -5 0 -9 4 -9 8 0 5 7 9 15 9 8 0 12 -4 9 -9z
m241 -144 c39 -28 83 -65 99 -82 l29 -31 -25 -6 c-40 -10 -61 -2 -79 30 -9 17
-37 51 -63 77 -25 26 -46 53 -46 58 0 6 -5 8 -12 4 -7 -4 -8 -3 -4 5 9 13 11
12 101 -55z m-61 -152 c7 -12 -101 -68 -111 -59 -11 12 58 66 84 67 12 0 24
-4 27 -8z m348 -64 l18 -48 -73 0 c-85 0 -150 -16 -246 -60 -68 -32 -95 -33
-84 -5 12 33 204 102 306 112 37 3 64 9 60 14 -10 9 -157 -14 -225 -37 -29 -9
-82 -32 -117 -50 -74 -39 -96 -41 -131 -13 l-25 21 36 -5 c25 -4 54 3 95 20
126 53 162 65 244 83 116 26 121 24 142 -32z m-24 -113 c-2 -3 -29 -9 -59 -15
-30 -6 -97 -31 -149 -56 -93 -45 -94 -45 -66 -15 32 34 111 68 182 80 59 10
99 13 92 6z m317 -219 c113 -53 219 -169 265 -292 18 -51 19 -59 6 -85 -8 -17
-10 -31 -5 -35 5 -3 13 5 18 18 8 19 9 16 9 -19 0 -22 3 -46 6 -52 4 -6 5 -11
3 -11 -2 0 -16 17 -30 39 -20 30 -23 41 -14 51 9 10 9 11 -3 8 -9 -3 -35 14
-63 39 -46 43 -156 103 -188 103 -9 0 -19 10 -23 23 -8 32 -60 144 -91 195
l-26 42 43 0 c24 0 65 -11 93 -24z m-250 -76 c41 -67 79 -166 70 -181 -4 -5
-12 -9 -18 -9 -31 0 -158 -72 -208 -118 -43 -39 -68 -74 -103 -144 -95 -192
-101 -405 -16 -586 18 -38 27 -69 22 -74 -16 -16 -88 -11 -134 10 -86 37 -172
152 -184 245 -4 26 -11 47 -17 47 -17 0 1 160 28 256 51 176 158 351 286 468
62 56 201 146 226 146 6 0 28 -27 48 -60z m-295 2 c0 -5 -34 -43 -75 -86 -41
-42 -96 -107 -122 -144 -39 -54 -49 -63 -51 -45 -10 67 166 283 230 283 10 0
18 -4 18 -8z m-3625 -38 c-42 -65 -90 -153 -129 -237 -35 -76 -41 -97 -34
-122 13 -48 0 -84 -38 -107 -19 -11 -34 -21 -34 -22 0 -1 -9 -42 -19 -91 -36
-162 -47 -318 -41 -525 3 -69 5 -55 11 75 11 230 41 363 78 341 5 -3 12 2 15
11 6 14 19 15 109 9 91 -6 142 -11 142 -16 0 -1 10 -3 22 -6 18 -3 27 4 44 37
11 23 22 39 24 37 2 -2 26 -69 53 -148 28 -80 73 -201 101 -270 62 -148 61
-145 67 -240 7 -93 -16 -250 -45 -310 -13 -26 -40 -59 -67 -79 -74 -56 -104
-68 -156 -64 -27 2 -48 -1 -48 -6 0 -5 -8 -11 -17 -13 -16 -3 -15 -7 8 -29 14
-14 32 -29 40 -32 12 -5 12 -7 -1 -16 -10 -7 -17 -6 -22 2 -6 9 -8 9 -8 -1 0
-10 -5 -10 -22 -1 -20 11 -22 11 -10 -3 10 -13 10 -18 1 -24 -8 -4 -9 -3 -5 4
6 11 2 13 -19 12 -3 0 -26 11 -50 26 -27 16 -54 24 -66 21 -18 -5 -28 10 -79
116 -68 142 -111 268 -142 411 -18 85 -22 134 -22 311 0 218 13 336 54 466 11
37 15 75 12 112 -5 67 14 107 52 107 20 0 31 13 62 73 42 81 75 136 112 185
18 23 32 32 54 32 l30 0 -17 -26z m1046 16 c27 -15 24 -24 -18 -71 -49 -54
-89 -78 -198 -119 -195 -72 -303 -179 -415 -411 -22 -46 -40 -78 -40 -72 0 9
-82 51 -115 58 -29 6 -46 19 -41 31 3 7 0 16 -6 20 -7 4 -8 3 -4 -4 7 -12 -6
-17 -17 -6 -18 18 122 230 222 336 113 121 235 201 352 232 63 17 251 21 280
6z m3039 -130 c0 -5 -8 -10 -17 -10 -15 0 -16 2 -3 10 19 12 20 12 20 0z
m-823 -221 c-35 -74 -69 -150 -77 -169 -21 -55 -30 -58 -30 -9 0 100 54 249
113 312 25 27 30 28 43 16 13 -13 7 -31 -49 -150z m952 138 c24 -12 59 -90 76
-166 l7 -34 -38 31 c-54 44 -114 62 -200 62 l-74 0 0 49 c0 48 1 49 38 59 53
14 163 14 191 -1z m-63 -219 c51 -45 74 -99 74 -175 0 -36 -4 -63 -10 -63 -5
0 -10 -9 -10 -19 0 -10 -6 -21 -14 -24 -11 -4 -13 -13 -7 -34 8 -28 -5 -73
-21 -73 -4 0 -7 -6 -5 -12 1 -7 -3 -12 -9 -11 -5 1 -16 -7 -23 -19 -10 -16
-10 -19 1 -12 10 6 10 4 -1 -9 -7 -9 -17 -14 -22 -12 -4 3 -15 -5 -24 -19 -29
-44 -108 -65 -185 -50 -70 14 -121 159 -99 280 29 159 148 283 271 284 39 0
54 -5 84 -32z m-961 -224 c0 -22 -5 -29 -20 -29 -24 0 -34 43 -13 56 21 14 33
4 33 -27z m-1195 -115 c22 -7 40 -16 40 -21 0 -4 6 -8 14 -8 8 0 33 -16 55
-34 71 -59 157 -204 180 -301 14 -60 19 -272 8 -335 -13 -71 -13 -72 -36 -125
-36 -80 -44 -95 -53 -95 -4 0 -8 -6 -8 -14 0 -8 -5 -18 -12 -22 -7 -5 -9 -2
-4 7 4 8 -1 4 -11 -8 -21 -25 -138 -85 -147 -76 -3 4 -6 1 -6 -5 0 -6 -7 -9
-15 -6 -8 4 -15 1 -15 -6 0 -6 -4 -9 -9 -6 -5 3 -26 8 -47 11 -137 20 -247 93
-274 180 -7 22 -19 53 -27 68 -8 16 -16 36 -18 45 -32 137 -36 169 -36 302 0
80 2 152 4 160 12 59 44 140 65 168 34 47 79 92 92 92 6 0 22 8 37 17 47 31
142 36 223 12z m1060 -98 c0 -38 9 -121 20 -184 35 -210 110 -369 229 -488
145 -144 299 -168 529 -83 116 43 296 135 334 172 46 43 43 18 -7 -70 -216
-375 -485 -627 -883 -827 -522 -262 -1255 -395 -1988 -360 -514 24 -883 122
-1173 312 -133 88 -278 228 -334 324 -4 6 39 -12 95 -41 275 -139 616 -208
953 -191 403 19 1003 133 1286 244 238 93 447 251 567 428 129 191 177 368
170 636 l-3 144 90 25 c50 14 96 26 103 27 8 1 12 -19 12 -68z m128 37 c14
-14 16 -94 3 -102 -30 -19 -56 28 -45 83 7 32 22 39 42 19z m1114 -185 c-6
-26 -14 -57 -18 -68 -6 -16 1 -13 36 14 45 33 45 33 -7 -17 -95 -91 -226 -131
-331 -103 l-43 12 22 37 c12 20 24 39 26 41 2 3 36 8 75 12 84 9 159 43 207
93 19 20 37 34 39 32 2 -3 -1 -26 -6 -53z m32 -158 c-4 -8 -10 -15 -16 -15 -5
0 -6 -6 -2 -12 4 -7 4 -10 -1 -6 -4 4 -16 -3 -26 -15 -16 -19 -18 -19 -12 -3
5 15 3 17 -8 11 -19 -11 -2 6 35 33 34 26 37 27 30 7z m-149 -88 c-11 -7 -35
-28 -54 -47 l-35 -35 20 34 c10 18 33 40 49 47 37 16 47 17 20 1z m-297 -84
c-60 -88 -154 -190 -165 -180 -4 4 14 29 39 55 25 26 71 82 102 125 73 100 93
100 24 0z m372 54 c0 -2 -19 -21 -42 -42 l-43 -40 40 43 c36 39 45 47 45 39z
m-215 -146 c3 -6 -4 -15 -15 -21 -20 -11 -21 -10 -10 9 12 23 16 25 25 12z
m-165 -41 c-11 -16 -26 -33 -33 -37 -12 -7 0 11 32 50 23 28 24 20 1 -13z
m-1221 -46 c9 -8 -102 -149 -183 -230 -206 -208 -417 -302 -876 -394 -340 -68
-617 -95 -885 -87 -217 6 -371 31 -539 87 -186 63 -464 202 -425 214 8 2 36
11 63 20 67 21 74 21 126 -15 120 -81 319 -161 504 -201 90 -20 129 -23 366
-22 297 0 442 15 747 79 484 101 758 245 945 496 l50 68 51 -6 c29 -3 54 -7
56 -9z m1341 -640 c104 -15 247 -40 285 -51 13 -4 -3 -12 -50 -25 -91 -25 -99
-25 -170 5 -33 14 -103 38 -155 52 -176 49 -154 53 90 19z m462 -132 c17 -65
0 -429 -33 -692 -57 -461 -173 -905 -341 -1309 -24 -58 -48 -106 -55 -108 -15
-5 -80 53 -98 88 -14 26 -12 37 35 170 28 78 49 146 48 151 -2 5 -25 -44 -52
-109 -27 -65 -93 -217 -146 -338 -54 -121 -103 -237 -111 -257 -14 -42 -17
-44 -43 -25 -17 13 -12 27 82 228 160 343 224 502 316 784 123 378 198 842
182 1120 -6 111 -28 229 -46 251 -12 13 17 27 90 43 113 26 166 27 172 3z
m-1252 -392 c63 -5 215 -10 336 -10 l222 0 7 -27 c3 -16 9 -131 12 -256 6
-245 -6 -401 -35 -449 -21 -36 -69 -58 -126 -58 -40 0 -46 3 -52 25 -3 14 -3
36 0 51 4 14 7 123 7 242 1 282 -18 394 -70 421 -10 6 -90 15 -177 21 -150 10
-240 27 -274 50 -12 8 -9 9 10 5 14 -2 77 -9 140 -15z m-275 -35 c241 -62 374
-242 375 -505 0 -115 -19 -144 -133 -199 -101 -50 -171 -69 -306 -82 -113 -11
-271 1 -340 26 -170 60 -231 160 -201 333 33 197 175 352 364 398 39 9 85 23
101 30 40 17 69 17 140 -1z m-1874 -81 l36 -6 -14 -41 c-9 -27 -12 -57 -8 -85
5 -33 3 -47 -9 -55 -8 -7 -24 -41 -36 -77 -12 -36 -36 -90 -54 -120 -18 -30
-41 -76 -51 -102 -16 -42 -21 -48 -47 -48 -45 0 -97 29 -115 63 -29 57 9 210
78 315 38 58 150 162 174 162 5 0 26 -3 46 -6z m126 -131 c10 -12 12 -13 8 -3
-4 8 1 6 10 -5 9 -11 19 -19 23 -18 4 2 15 0 25 -3 13 -4 15 -9 8 -18 -14 -17
-2 -29 15 -15 10 8 11 5 7 -12 -4 -15 -3 -20 5 -15 7 4 12 3 12 -2 0 -5 10
-12 22 -15 12 -4 20 -9 17 -12 -9 -8 -88 30 -105 51 -9 10 -13 13 -9 7 10 -22
-23 -3 -38 20 -18 28 -28 57 -20 57 3 0 12 -8 20 -17z m180 -74 c21 -8 24 -12
14 -19 -17 -10 -38 -3 -45 16 -6 17 -5 17 31 3z m724 -40 c-6 -24 -11 -78 -11
-120 l0 -76 -46 -36 c-180 -140 -693 -157 -854 -29 -53 43 -72 87 -66 149 6
53 25 106 35 101 3 -2 44 -22 91 -45 114 -57 238 -86 365 -86 160 -1 284 42
435 151 30 22 56 39 58 37 1 -1 -2 -22 -7 -46z m-711 -9 c-20 -13 -33 -13 -25
0 3 6 14 10 23 10 15 0 15 -2 2 -10z m-309 -254 c73 -120 247 -173 536 -163
222 8 391 54 495 137 28 23 38 27 46 17 14 -17 47 -143 63 -241 14 -87 38
-131 135 -242 29 -34 50 -64 47 -68 -3 -3 -1 -6 6 -6 6 0 28 -15 47 -32 33
-30 36 -37 31 -73 -7 -53 -15 -89 -33 -155 -25 -89 -24 -87 -34 -70 -6 8 -10
11 -10 5 0 -5 -12 4 -26 20 -14 17 -22 24 -19 17 4 -7 -31 14 -78 47 -161 116
-495 262 -714 312 -109 25 -337 36 -411 20 -75 -16 -140 -49 -159 -82 -10 -16
-21 -29 -25 -29 -28 0 -46 210 -29 330 18 118 77 301 98 300 4 0 20 -20 34
-44z m2441 -248 c74 -8 112 -8 159 1 33 7 64 10 67 6 16 -16 -161 -611 -192
-642 -28 -30 -107 -6 -121 37 -3 11 16 97 43 192 65 224 94 358 78 358 -6 0
-42 5 -79 10 -62 9 -93 24 -150 71 -5 3 16 0 45 -7 29 -8 97 -19 150 -26z
m-233 -47 c24 -18 23 -18 -120 -24 -86 -3 -202 -15 -289 -30 -156 -28 -310
-46 -310 -38 0 3 21 27 47 53 l47 48 91 0 c133 0 262 16 346 43 l74 23 45 -28
c25 -15 56 -36 69 -47z m-2433 51 c7 -5 8 -32 3 -82 -10 -104 4 -236 32 -300
18 -42 38 -65 96 -111 91 -72 88 -78 -3 -9 -113 87 -224 129 -336 130 l-47 0
74 110 c41 60 92 146 112 190 37 78 46 88 69 72z m2448 -162 l59 0 -6 -94
c-12 -175 -77 -427 -156 -600 l-31 -69 -28 53 c-63 125 -217 236 -362 262 -59
10 -186 0 -235 -18 -10 -4 -8 11 8 58 17 51 21 89 21 200 l1 138 45 5 c25 3
126 17 225 32 226 32 320 42 365 37 19 -2 62 -4 94 -4z m-1904 -334 c0 -88 24
-218 59 -316 l29 -83 -81 6 c-78 5 -84 7 -110 39 -60 71 -98 153 -104 227 -9
112 18 152 122 177 87 21 85 22 85 -50z m225 34 c141 -29 340 -116 488 -213
49 -33 73 -54 65 -58 -38 -21 -228 -50 -385 -60 -164 -9 -211 -16 -254 -34
-14 -5 -21 6 -37 57 -36 109 -42 141 -48 239 l-7 96 59 -7 c33 -4 86 -13 119
-20z m-969 -20 c42 -21 84 -70 103 -123 23 -61 2 -238 -31 -258 -48 -30 -558
-89 -558 -65 0 4 5 16 10 27 48 89 14 270 -62 323 -12 9 -20 17 -17 19 2 2 49
11 104 21 55 9 150 30 210 46 134 34 185 37 241 10z m-730 -164 c28 -9 63 -25
78 -37 24 -19 26 -27 26 -92 0 -40 -5 -89 -10 -109 -30 -106 -187 -190 -249
-134 -12 11 -21 25 -21 33 0 7 31 46 69 85 l69 73 -42 2 c-22 1 -65 5 -93 8
l-53 6 0 49 c0 68 -24 94 -84 95 -25 0 -46 1 -46 2 0 5 48 27 75 34 46 12 223
2 281 -15z m204 -18 c15 -24 20 -49 19 -93 l-2 -60 -7 67 c-3 36 -14 78 -23
92 -10 14 -15 26 -12 26 3 0 14 -15 25 -32z m1049 -164 c17 -28 31 -54 31 -57
0 -3 -15 -8 -32 -12 -18 -4 -68 -22 -110 -41 -43 -18 -115 -43 -160 -54 -45
-11 -92 -29 -103 -40 -12 -11 -31 -20 -43 -20 -24 0 -303 48 -308 53 -2 2 36
9 84 15 193 26 356 84 439 156 23 20 61 66 84 102 l43 65 21 -58 c12 -32 36
-81 54 -109z m-1776 111 c-12 -8 -51 -57 -87 -108 -87 -122 -95 -132 -102
-124 -4 4 11 30 32 59 22 29 55 77 73 106 18 29 45 59 60 67 35 19 51 19 24 0z
m245 3 c17 -17 15 -42 -7 -69 -16 -20 -28 -23 -79 -24 -43 0 -65 5 -79 18 -11
9 -25 17 -33 17 -7 0 -1 -9 14 -21 14 -11 26 -26 26 -33 0 -7 -14 -41 -31 -75
-34 -68 -68 -92 -131 -90 -26 0 -29 2 -14 8 14 5 16 10 7 15 -6 4 -17 3 -24
-3 -7 -5 -18 -6 -25 -2 -10 6 5 36 57 113 38 57 77 111 86 118 40 33 208 53
233 28z m2962 -43 c66 -23 125 -77 159 -147 26 -52 31 -73 31 -135 0 -104 -26
-202 -57 -214 -74 -28 -500 -69 -716 -69 -91 0 -99 2 -92 18 4 9 12 42 17 72
17 102 -20 226 -93 305 -48 52 -49 51 71 60 112 8 299 46 435 88 123 39 183
44 245 22z m265 -52 c26 -25 36 -60 25 -88 -10 -25 -30 -35 -30 -14 0 7 -13
34 -30 61 -16 26 -30 50 -30 53 0 12 50 3 65 -12z m538 -21 c58 -4 59 -5 53
-32 -3 -15 -29 -80 -58 -143 l-53 -116 -48 -1 c-27 0 -46 3 -44 8 73 124 127
223 127 231 0 6 -18 11 -40 11 -41 0 -48 9 -34 45 4 10 12 14 23 9 9 -4 42 -9
74 -12z m-3726 -149 c-9 -28 -7 -38 9 -61 60 -81 178 -81 289 -1 l45 32 117
-27 c65 -15 214 -46 330 -69 l213 -42 -61 -49 c-57 -46 -61 -52 -56 -83 5 -28
3 -33 -14 -33 -28 0 -299 62 -534 122 -110 28 -294 72 -410 98 l-210 47 60 31
c33 16 77 43 98 59 36 27 42 29 86 19 l48 -9 -10 -34z m1868 -9 l116 -18 -49
-18 c-80 -30 -87 -43 -88 -172 l-1 -111 -66 -3 -65 -3 10 35 c8 26 8 42 -2 66
-18 43 -49 61 -109 62 -45 0 -52 3 -64 26 -9 19 -22 28 -47 32 -26 4 -35 11
-40 30 -4 19 -13 26 -38 28 -42 4 -40 18 6 38 88 37 221 40 437 8z m319 -68
c22 -80 29 -129 17 -121 -6 3 -11 18 -11 33 0 32 -22 107 -45 153 l-16 34 21
-24 c11 -13 26 -46 34 -75z m-839 6 c-6 -5 -28 -14 -51 -20 -63 -18 -104 -51
-165 -132 -31 -41 -70 -83 -85 -92 -32 -20 -69 -23 -79 -8 -7 11 173 187 214
209 20 12 82 30 171 50 2 1 0 -3 -5 -7z m76 -36 c0 -5 -24 -17 -53 -26 -82
-26 -114 -46 -212 -134 -50 -45 -100 -85 -111 -89 -16 -6 -15 -3 5 13 14 11
27 20 30 20 3 0 34 36 69 80 67 83 106 109 199 135 52 15 73 15 73 1z m605
-27 c14 -16 18 -34 17 -70 -3 -74 -12 -84 -72 -83 -28 0 -53 3 -56 6 -3 3 -6
34 -6 69 -1 54 2 66 21 81 30 24 73 23 96 -3z m-2335 -21 l52 -12 -66 -12
c-57 -11 -72 -10 -124 6 -47 15 -53 19 -33 23 49 9 119 7 171 -5z m1819 -6 c0
-4 -23 -16 -52 -26 -35 -12 -72 -37 -114 -78 -34 -33 -65 -59 -68 -58 -4 1
-31 -11 -61 -26 -53 -25 -105 -28 -105 -4 0 16 163 142 216 167 29 13 78 27
110 31 59 8 74 7 74 -6z m-2055 -19 l40 -8 -40 -5 c-50 -6 -105 -1 -105 11 0
11 50 11 105 2z m-190 -28 c29 -14 26 -15 -48 -11 -43 1 -83 8 -90 15 -17 17
101 14 138 -4z m623 3 l47 -12 -55 -11 c-59 -12 -116 -5 -171 19 -34 14 -33
14 49 15 46 1 104 -4 130 -11z m-903 -18 c27 -7 27 -8 5 -8 -14 0 -36 4 -50 8
-20 6 -21 8 -5 8 11 0 34 -4 50 -8z m2689 -12 c7 -12 7 -26 0 -45 -9 -27 -12
-28 -82 -28 -62 0 -72 -2 -72 -17 0 -23 -67 -67 -113 -75 -45 -7 -87 3 -87 21
0 19 123 134 162 151 47 21 177 16 192 -7z m-2802 -5 l68 -17 -60 -13 c-55
-11 -67 -10 -138 12 l-77 23 45 4 c25 3 56 5 70 6 14 1 55 -6 92 -15z m727 -5
c36 -6 62 -13 56 -14 -5 -2 -44 2 -85 10 -41 8 -66 14 -56 15 11 1 49 -4 85
-11z m441 -7 l55 -18 -50 -7 c-31 -4 -78 -2 -120 5 l-70 13 50 12 c66 16 71
16 135 -5z m-625 -2 c13 -6 0 -7 -40 -3 -33 4 -62 8 -64 10 -9 8 85 2 104 -7z
m-242 -6 c-13 -2 -35 -2 -50 0 -16 2 -5 4 22 4 28 0 40 -2 28 -4z m4772 -13
c25 -28 8 -45 -31 -30 -20 8 -115 9 -316 4 -384 -9 -384 8 0 28 158 8 296 16
308 17 11 0 29 -8 39 -19z m-4229 1 c-3 -5 -15 -7 -26 -4 -28 7 -25 13 6 13
14 0 23 -4 20 -9z m47 -8 c-7 -2 -19 -2 -25 0 -7 3 -2 5 12 5 14 0 19 -2 13
-5z m452 -9 l40 -7 -41 -18 c-41 -17 -78 -15 -164 7 -22 6 -19 8 25 19 49 13
61 12 140 -1z m-640 -3 c14 -6 5 -8 -30 -9 -27 -1 -57 3 -65 8 -19 12 65 13
95 1z m232 3 c-3 -3 -12 -4 -19 -1 -8 3 -5 6 6 6 11 1 17 -2 13 -5z m-622 -47
c122 -32 331 -89 455 -124 l55 -15 -34 -14 c-42 -18 -66 -14 -251 41 -80 24
-219 64 -310 89 -222 60 -237 68 -130 62 52 -3 136 -18 215 -39z m160 33 c19
-5 6 -6 -35 -3 -36 3 -67 7 -69 9 -8 7 73 2 104 -6z m383 -41 c-13 -9 -88 -3
-118 8 -11 4 -8 8 10 12 33 9 126 -9 108 -20z m194 10 c-15 -5 -36 -6 -55 0
-29 8 -27 9 23 9 44 1 50 -1 32 -9z m508 -10 l55 -13 -64 -10 c-51 -7 -78 -6
-140 10 -73 17 -75 18 -41 25 44 9 118 4 190 -12z m-925 1 c27 -7 28 -8 5 -8
-14 0 -45 3 -70 7 l-45 8 40 1 c22 0 54 -4 70 -8z m1742 -15 c-15 -14 -36 -25
-45 -25 -10 0 0 11 23 24 52 31 57 31 22 1z m-1098 -25 c21 -13 8 -12 -69 5
l-65 15 59 -5 c32 -3 66 -10 75 -15z m-474 -15 c6 -3 -16 -3 -48 -2 -32 2 -62
8 -68 14 -10 10 92 -1 116 -12z m175 15 c-12 -8 -12 -10 -1 -10 8 0 12 -2 9
-5 -3 -3 -25 -3 -49 1 -34 6 -39 9 -24 15 11 4 34 8 50 8 23 1 26 -2 15 -9z
m800 -14 l45 -13 -61 -7 c-62 -8 -184 9 -184 25 0 22 122 19 200 -5z m-722 7
c-10 -2 -28 -2 -40 0 -13 2 -5 4 17 4 22 1 32 -1 23 -4z m357 -18 l40 -14 -58
3 c-32 1 -63 8 -69 14 -17 17 35 15 87 -3z m-1473 -16 c44 -12 77 -23 75 -26
-4 -4 -158 36 -166 43 -9 8 14 4 91 -17z m1263 0 c26 0 27 -2 10 -9 -25 -11
-102 -12 -135 -3 -23 7 -21 8 15 14 22 4 49 5 60 3 11 -2 34 -4 50 -5z m1210
1 c4 -7 -3 -8 -22 -4 -38 9 -42 14 -10 14 14 0 29 -5 32 -10z m1393 3 c-10 -2
-26 -2 -35 0 -10 3 -2 5 17 5 19 0 27 -2 18 -5z m-1841 -20 c52 -9 90 -20 85
-25 -20 -20 -113 -21 -198 -2 l-85 19 48 11 c26 6 50 12 52 13 3 0 47 -7 98
-16z m-1027 -3 l25 -8 -25 0 c-14 -1 -43 3 -65 7 l-40 9 40 0 c22 0 51 -4 65
-8z m745 -21 l40 -13 -42 -9 c-52 -12 -226 22 -182 35 32 10 134 2 184 -13z
m-1085 -152 c578 -168 1031 -304 1038 -312 18 -18 -78 6 -332 81 -160 47 -356
104 -435 125 -225 63 -901 279 -826 265 11 -2 261 -74 555 -159z m769 144 c25
-16 -6 -22 -76 -15 -47 5 -61 10 -48 15 27 10 107 11 124 0z m-259 -11 c19 -6
12 -8 -30 -8 -30 0 -64 3 -75 8 -26 11 70 11 105 0z m1148 -28 c97 -34 108
-42 56 -42 -30 0 -36 3 -24 11 11 8 -1 9 -44 5 -35 -3 -91 1 -135 10 -104 21
-114 27 -61 34 88 13 128 10 208 -18z m2355 -9 c-2 -10 -11 -27 -18 -37 -14
-18 -17 -18 -97 -2 -139 27 -154 35 -73 34 39 0 81 4 95 10 14 6 41 11 62 11
30 1 35 -2 31 -16z m-2978 -22 c44 -11 113 -25 154 -32 l74 -11 -32 -14 c-19
-8 -45 -14 -60 -14 -24 0 -290 69 -351 91 -47 17 132 0 215 -20z m245 22 c73
-5 74 -5 46 -20 -23 -12 -39 -13 -99 -3 -133 22 -105 35 53 23z m-815 -31 c64
-21 61 -27 -22 -37 -42 -4 -71 0 -140 22 l-88 28 50 6 c69 9 130 4 200 -19z
m225 19 l25 -7 -30 -6 c-16 -4 -57 0 -90 7 l-60 13 65 0 c36 0 76 -3 90 -7z
m765 -28 c31 -5 35 -8 20 -14 -30 -12 -86 -9 -125 6 l-35 13 50 1 c28 0 68 -2
90 -6z m508 -24 c26 -6 47 -14 47 -17 0 -15 -139 -11 -210 7 l-75 18 95 1 c52
1 116 -3 143 -9z m107 -19 c-36 -11 -52 -11 -45 0 3 6 21 10 38 9 31 -1 31 -1
7 -9z m-359 -14 l34 -14 -28 -7 c-29 -8 -172 1 -217 13 -24 6 -23 7 10 13 65
12 167 9 201 -5z m-986 -10 c28 -7 66 -20 85 -28 l35 -15 -83 -6 c-75 -6 -89
-4 -160 22 -68 26 -74 29 -47 33 61 10 121 7 170 -6z m1544 -14 l75 -17 -78
-14 c-74 -12 -83 -11 -160 11 l-81 23 65 6 c36 3 74 6 85 7 11 1 53 -7 94 -16z
m-819 -2 c0 -5 -6 -10 -12 -11 -7 0 -4 -4 7 -9 40 -17 -59 -10 -125 10 l-65
19 98 0 c58 1 97 -3 97 -9z m-181 -38 c20 -7 11 -10 -52 -19 -65 -9 -86 -8
-144 7 -65 17 -66 18 -33 23 49 7 200 0 229 -11z m743 -1 c11 -12 10 -13 -3
-8 -8 3 -38 1 -65 -5 -56 -10 -211 10 -177 24 32 13 231 5 245 -11z m-265 -30
c15 -9 13 -10 -12 -11 -17 0 -45 -4 -62 -9 -24 -7 -49 -5 -95 9 l-63 18 40 5
c57 7 172 0 192 -12z m-730 -15 l37 -13 -46 -6 c-47 -6 -143 14 -163 35 -13
14 123 1 172 -16z m488 -16 c14 -5 -1 -11 -55 -20 -60 -10 -87 -10 -135 0 -63
12 -115 34 -60 24 17 -2 57 0 90 5 59 9 121 6 160 -9z m1154 -44 c-2 -2 -13 8
-23 22 l-19 27 24 -22 c12 -12 21 -24 18 -27z m-1420 -6 c12 -7 8 -10 -19 -11
-53 -3 -80 1 -114 17 -29 13 -27 14 43 9 40 -3 81 -10 90 -15z m1351 17 c0 -2
-9 -12 -20 -22 -24 -21 -27 -14 -4 9 15 15 24 20 24 13z m35 -17 c3 -6 -1 -7
-9 -4 -18 7 -21 14 -7 14 6 0 13 -4 16 -10z m2322 -26 c-3 -3 -12 -4 -19 -1
-8 3 -5 6 6 6 11 1 17 -2 13 -5z m-2383 -57 c7 -6 6 -7 -4 -4 -8 2 -16 14 -17
28 -1 19 -1 20 4 4 3 -11 10 -24 17 -28z"/>
<path d="M5283 8633 c9 -2 25 -2 35 0 9 3 1 5 -18 5 -19 0 -27 -2 -17 -5z"/>
<path d="M5218 8623 c6 -2 18 -2 25 0 6 3 1 5 -13 5 -14 0 -19 -2 -12 -5z"/>
<path d="M5113 8592 c-23 -10 -48 -23 -55 -30 -11 -11 97 33 111 44 10 9 -17
2 -56 -14z"/>
<path d="M7275 8230 c3 -5 8 -10 11 -10 2 0 4 5 4 10 0 6 -5 10 -11 10 -5 0
-7 -4 -4 -10z"/>
<path d="M9280 6916 c0 -2 7 -9 15 -16 9 -7 15 -8 15 -2 0 5 -7 12 -15 16 -8
3 -15 4 -15 2z"/>
<path d="M8555 7085 c-33 -30 -55 -54 -49 -55 6 0 17 6 23 13 6 8 28 22 49 31
29 13 38 23 38 42 0 13 0 24 0 24 -1 0 -28 -25 -61 -55z"/>
<path d="M8865 7010 c-16 -7 -17 -9 -3 -9 9 -1 20 4 23 9 7 11 7 11 -20 0z"/>
<path d="M8760 6979 c0 -5 5 -7 10 -4 6 3 10 8 10 11 0 2 -4 4 -10 4 -5 0 -10
-5 -10 -11z"/>
<path d="M4910 6295 c0 -8 4 -15 8 -15 8 0 32 -43 32 -57 0 -3 -8 1 -17 8 -16
13 -17 12 -4 -3 7 -10 17 -15 22 -13 12 8 36 -32 59 -100 22 -64 25 -77 10
-55 -8 12 -10 11 -10 -7 0 -15 6 -23 18 -24 10 0 12 -3 5 -6 -9 -3 -13 -31
-12 -91 0 -58 3 -80 9 -67 7 15 9 16 9 4 1 -9 -6 -22 -14 -29 -17 -14 -20 -40
-5 -40 6 0 6 -9 -1 -26 -5 -15 -9 -45 -7 -66 2 -39 2 -39 18 -17 39 51 55 120
55 239 0 93 -5 128 -23 184 -25 75 -67 143 -108 175 -32 25 -44 26 -44 6z"/>
<path d="M4622 5910 c0 -19 2 -27 5 -17 2 9 2 25 0 35 -3 9 -5 1 -5 -18z"/>
<path d="M4632 5840 c0 -14 2 -19 5 -12 2 6 2 18 0 25 -3 6 -5 1 -5 -13z"/>
<path d="M4760 5454 c0 -5 7 -18 15 -28 8 -11 15 -16 15 -10 0 5 -7 18 -15 28
-8 11 -15 16 -15 10z"/>
<path d="M7960 4356 c24 -26 60 -52 60 -42 0 2 -19 19 -42 37 -40 30 -41 31
-18 5z"/>
<path d="M8027 4286 c-3 -8 1 -13 11 -12 9 0 16 -5 14 -12 -1 -8 2 -11 8 -7 8
5 6 13 -6 26 -20 23 -20 23 -27 5z"/>
<path d="M8143 3935 c0 -27 2 -38 4 -22 2 15 2 37 0 50 -2 12 -4 0 -4 -28z"/>
<path d="M8131 3834 c0 -11 3 -14 6 -6 3 7 2 16 -1 19 -3 4 -6 -2 -5 -13z"/>
<path d="M4667 2598 c-22 -14 46 -12 71 1 8 4 -3 7 -23 7 -20 -1 -42 -4 -48
-8z"/>
<path d="M6554 2467 c-12 -13 4 -87 20 -87 5 0 1 -7 -10 -15 -10 -8 -14 -15
-7 -15 36 -1 56 67 33 111 -12 22 -20 23 -36 6z"/>
<path d="M6520 2441 c0 -12 5 -21 10 -21 6 0 10 6 10 14 0 8 -4 18 -10 21 -5
3 -10 -3 -10 -14z"/>
<path d="M6098 2353 c7 -3 16 -2 19 1 4 3 -2 6 -13 5 -11 0 -14 -3 -6 -6z"/>
<path d="M1455 5297 c-20 -17 -28 -32 -27 -55 0 -17 41 -128 91 -247 90 -217
90 -217 70 -234 -21 -17 -21 -22 -14 -209 7 -173 10 -195 28 -219 20 -25 23
-26 108 -20 62 4 90 2 97 -6 5 -7 71 -156 146 -332 89 -207 133 -321 125 -324
-15 -5 -45 -35 -51 -51 -2 -7 -83 -20 -238 -36 -441 -45 -636 -92 -873 -210
-204 -103 -362 -274 -412 -448 -69 -241 88 -466 431 -615 119 -51 269 -94 489
-138 145 -29 185 -41 206 -60 21 -20 491 -223 643 -279 48 -17 222 -18 600 -3
290 11 307 15 327 65 6 18 5 34 -3 52 -14 29 -107 72 -433 202 -88 35 -165 68
-172 74 -7 6 -17 41 -23 77 -30 195 76 616 194 763 l23 30 79 -17 c148 -31
889 -188 1033 -218 160 -35 178 -33 206 21 20 39 19 42 -95 315 -98 234 -363
899 -605 1515 -201 514 -202 516 -233 536 -28 19 -28 19 -1052 63 -256 11
-504 23 -551 26 -81 6 -88 5 -114 -18z m792 -83 c-3 -3 -12 -4 -19 -1 -8 3 -5
6 6 6 11 1 17 -2 13 -5z m578 -25 c73 -5 19 -6 -160 -3 -148 3 -301 9 -340 14
-86 10 341 1 500 -11z m-947 -135 c23 -4 32 -10 32 -24 0 -24 -2 -24 -105 -8
-76 11 -94 20 -95 44 0 9 38 7 168 -12z m132 -67 c0 -32 0 -32 -45 -29 -42 4
-45 6 -45 33 0 28 2 29 45 29 44 0 45 -1 45 -33z m90 4 c0 -17 -4 -33 -10 -36
-6 -4 -10 8 -10 29 0 20 5 36 10 36 6 0 10 -13 10 -29z m190 4 c0 -11 -5 -12
-23 -6 -14 6 -30 6 -38 0 -19 -12 -32 -11 -24 1 3 6 -5 10 -19 10 -15 0 -26
-7 -29 -17 -4 -14 -5 -12 -6 5 -1 21 3 22 69 22 55 0 70 -3 70 -15z m-421 -1
c21 -4 31 -12 31 -25 0 -17 -3 -17 -45 -2 -68 23 -59 41 14 27z m718 -20 c18
-5 21 -13 21 -48 l-1 -42 -56 8 c-130 19 -121 14 -121 60 l0 41 68 -7 c37 -4
77 -9 89 -12z m-217 -25 c0 -17 -4 -28 -10 -24 -5 3 -10 17 -10 31 0 13 5 24
10 24 6 0 10 -14 10 -31z m308 -16 c2 -8 -5 -13 -17 -13 -12 0 -21 6 -21 16 0
18 31 15 38 -3z m-816 -9 c53 -6 56 -8 61 -38 2 -17 3 -32 2 -34 -2 -2 -46 5
-99 14 -96 17 -96 17 -96 47 0 29 1 29 38 24 20 -4 62 -9 94 -13z m1101 5 c3
-2 8 -21 11 -43 l7 -39 -63 7 c-140 16 -138 15 -138 54 l0 34 90 -4 c49 -2 91
-6 93 -9z m-1253 -96 c0 -5 -5 -15 -10 -23 -8 -12 -10 -11 -10 8 0 12 5 22 10
22 6 0 10 -3 10 -7z m1039 -14 c83 -10 102 -15 106 -30 4 -11 12 -19 19 -19 8
0 19 -7 26 -15 16 -19 9 -19 -145 0 -66 8 -123 15 -127 15 -5 0 -8 14 -8 30 0
35 -6 34 129 19z m-611 -40 c116 -12 157 -29 52 -21 l-60 4 6 -78 c3 -44 7
-92 9 -109 4 -28 4 -29 -10 -11 -31 40 -76 86 -85 86 -15 0 -23 49 -11 64 9
10 4 19 -24 40 -40 31 -45 48 -12 42 12 -3 73 -10 135 -17z m850 -30 c4 -53
-13 -42 -21 14 -4 27 -3 37 6 34 7 -2 13 -23 15 -48z m-1020 10 c-3 -8 -7 -3
-11 10 -4 17 -3 21 5 13 5 -5 8 -16 6 -23z m952 21 c0 -5 -2 -10 -4 -10 -3 0
-8 5 -11 10 -3 6 -1 10 4 10 6 0 11 -4 11 -10z m477 -210 c30 -69 79 -183 108
-255 29 -71 110 -269 179 -439 69 -170 124 -311 122 -313 -2 -2 -9 11 -16 29
-7 18 -47 107 -87 198 -117 260 -414 977 -413 997 1 14 50 -85 107 -217z
m-1462 196 c18 -13 18 -14 -8 -9 -15 3 -27 9 -27 14 0 13 13 11 35 -5z m24
-24 c54 -7 54 -7 58 -44 4 -38 4 -38 -34 -38 -49 1 -122 15 -133 26 -5 5 -12
21 -15 37 -7 26 -6 27 31 26 22 -1 63 -4 93 -7z m567 -12 l61 0 7 -47 c3 -25
4 -48 1 -51 -2 -2 -16 -2 -30 2 -21 5 -25 12 -25 42 0 19 -4 33 -9 30 -12 -8
-124 14 -136 27 -7 6 4 8 30 3 22 -3 68 -6 101 -6z m-336 -21 c0 -11 -5 -17
-10 -14 -6 4 -8 10 -5 15 3 4 -1 11 -7 13 -8 3 -6 6 5 6 11 1 17 -6 17 -20z
m53 14 c-7 -2 -21 -2 -30 0 -10 3 -4 5 12 5 17 0 24 -2 18 -5z m497 -18 c10
-6 50 -78 50 -90 0 -7 -85 -6 -104 1 -12 5 -16 20 -16 59 l0 54 30 -9 c16 -5
34 -11 40 -15z m-1026 -165 l65 -155 -61 -8 c-34 -4 -64 -4 -68 0 -11 12 -22
340 -11 328 5 -6 39 -80 75 -165z m713 123 c-3 -10 -5 -2 -5 17 0 19 2 27 5
18 2 -10 2 -26 0 -35z m-17 13 c0 -9 -8 -12 -25 -8 -37 7 -41 22 -6 22 20 0
31 -5 31 -14z m-535 -46 c3 -5 1 -10 -4 -10 -6 0 -11 5 -11 10 0 6 2 10 4 10
3 0 8 -4 11 -10z m82 -22 c-3 -8 -6 -5 -6 6 -1 11 2 17 5 13 3 -3 4 -12 1 -19z
m51 4 c2 -7 -2 -10 -12 -6 -9 3 -16 11 -16 16 0 13 23 5 28 -10z m-19 -52 c71
-18 91 -30 91 -57 0 -16 1 -16 -97 4 -73 15 -83 20 -83 38 0 17 8 36 14 35 1
0 34 -9 75 -20z m98 -111 c57 -10 61 -13 65 -40 3 -16 3 -29 0 -29 -25 0 -190
35 -199 43 -7 5 -13 18 -13 29 0 22 3 21 147 -3z m661 -33 c3 -33 1 -36 -22
-36 -21 0 -26 6 -32 34 -8 44 0 57 29 47 16 -6 23 -18 25 -45z m248 -6 c1 0 4
-14 6 -31 l5 -31 -65 6 c-36 4 -73 11 -83 17 -17 9 -26 48 -14 60 3 4 126 -13
151 -21z m-770 10 c21 0 24 -5 24 -35 0 -33 -1 -35 -27 -29 -36 8 -40 13 -49
48 -6 25 -5 28 10 23 10 -4 29 -7 42 -7z m124 -36 c0 -19 -4 -34 -10 -34 -5 0
-10 18 -10 41 0 24 4 38 10 34 6 -3 10 -22 10 -41z m176 6 c20 0 24 -5 24 -29
0 -17 5 -33 10 -36 15 -9 12 -35 -4 -35 -8 0 -16 4 -18 9 -1 5 -26 11 -54 15
-72 8 -117 27 -50 20 27 -2 60 -7 73 -10 19 -5 23 -2 23 16 0 19 -4 22 -26 17
-14 -2 -31 1 -37 7 -7 6 -23 17 -37 24 -23 11 -20 12 24 7 27 -3 59 -5 72 -5z
m-599 -6 c-3 -3 -12 -4 -19 -1 -8 3 -5 6 6 6 11 1 17 -2 13 -5z m59 -61 c-2
-3 -15 5 -28 17 -16 16 -18 21 -6 17 10 -3 19 1 24 11 6 13 9 11 12 -11 2 -16
1 -31 -2 -34z m150 25 c54 -10 64 -15 69 -36 3 -13 4 -26 1 -29 -2 -2 -40 1
-85 8 -79 12 -81 13 -81 41 0 32 5 33 96 16z m489 2 c3 -5 -1 -10 -10 -10 -9
0 -13 5 -10 10 3 6 8 10 10 10 2 0 7 -4 10 -10z m-183 -75 c4 -16 1 -25 -8
-25 -14 0 -23 19 -16 38 7 20 19 14 24 -13z m88 -5 c0 -5 -4 -10 -9 -10 -6 0
-13 5 -16 10 -3 6 1 10 9 10 9 0 16 -4 16 -10z m140 -41 c0 -16 -4 -29 -10
-29 -5 0 -10 16 -10 36 0 21 4 33 10 29 6 -3 10 -19 10 -36z m-614 23 c6 -4
14 -16 17 -27 7 -18 6 -18 -10 2 -12 14 -32 23 -58 26 l-40 4 40 1 c22 1 45
-2 51 -6z m222 -27 c6 -2 12 -16 12 -30 0 -28 -12 -31 -70 -16 -19 5 -52 12
-72 16 -34 5 -38 9 -38 34 l0 29 78 -15 c42 -7 83 -16 90 -18z m-238 5 c0 -5
-4 -10 -10 -10 -5 0 -10 5 -10 10 0 6 5 10 10 10 6 0 10 -4 10 -10z m877 -12
c53 -8 62 -13 68 -35 3 -14 3 -28 0 -31 -5 -5 -213 32 -220 40 -2 2 -2 14 2
27 6 24 -2 24 150 -1z m-567 -34 c0 -16 -26 -19 -35 -4 -3 6 -4 14 0 20 8 13
35 1 35 -16z m173 9 c13 -4 17 -16 17 -49 0 -50 -12 -55 -47 -22 -29 27 -34
95 -5 83 9 -4 25 -10 35 -12z m-405 -71 c2 -32 0 -42 -12 -42 -9 0 -18 12 -22
28 -3 15 -7 32 -9 39 -5 15 6 24 25 21 10 -2 16 -17 18 -46z m512 8 c0 -19 -5
-30 -14 -30 -8 0 -16 13 -18 30 -4 24 -1 30 14 30 13 0 18 -8 18 -30z m-325
-13 c57 -11 60 -14 63 -43 l3 -31 -93 18 c-51 10 -94 19 -95 19 -2 0 -3 14 -3
30 0 34 -12 34 125 7z m485 10 c50 -11 55 -15 58 -40 3 -27 4 -28 18 -10 12
16 15 16 24 3 19 -30 10 -33 -77 -27 -130 10 -148 17 -148 55 -1 30 1 32 35
31 19 0 60 -6 90 -12z m-248 -88 c5 -33 6 -33 -59 -18 -46 11 -49 14 -45 39 4
26 4 27 52 17 43 -8 49 -13 52 -38z m88 -19 c0 -11 -2 -20 -4 -20 -2 0 -6 9
-9 20 -3 11 -1 20 4 20 5 0 9 -9 9 -20z m198 -7 c5 -34 -34 -31 -41 3 -4 21
-1 25 17 22 13 -2 22 -12 24 -25z m-144 -8 c3 -8 1 -15 -4 -15 -6 0 -10 7 -10
15 0 8 2 15 4 15 2 0 6 -7 10 -15z m-279 -24 c75 -15 80 -18 83 -43 4 -33 10
-32 -101 -13 -119 21 -137 29 -137 59 0 28 -1 28 155 -3z m623 1 c8 -11 12
-12 12 -3 0 8 11 11 32 9 24 -2 34 -9 37 -23 5 -29 40 -50 37 -22 0 6 3 13 9
14 5 2 10 -5 10 -15 0 -13 11 -18 52 -22 45 -5 87 -20 54 -20 -7 0 -9 -4 -6
-10 4 -6 -21 -10 -68 -10 -107 0 -137 8 -151 40 -6 15 -16 25 -23 23 -6 -2
-29 1 -51 6 -34 10 -39 14 -35 35 5 22 9 24 42 19 20 -3 42 -12 49 -21z m-168
-16 c0 -3 -4 -8 -10 -11 -5 -3 -10 -1 -10 4 0 6 5 11 10 11 6 0 10 -2 10 -4z
m-632 -37 c1 -8 -4 -23 -12 -34 -15 -19 -15 -18 -16 18 0 27 4 37 13 35 6 -3
13 -11 15 -19z m212 -73 c56 -10 65 -15 68 -35 4 -23 2 -23 -35 -17 -21 4 -57
10 -80 13 -24 3 -43 9 -43 13 0 5 -3 15 -6 24 -7 19 6 20 96 2z m778 -13 c2
-16 4 -37 5 -47 1 -10 -4 -21 -10 -23 -9 -3 -13 5 -13 24 0 15 -3 38 -6 51 -4
15 -2 22 8 22 8 0 15 -12 16 -27z m69 21 c-3 -3 -12 -4 -19 -1 -8 3 -5 6 6 6
11 1 17 -2 13 -5z m-1080 -46 c-3 -8 -6 -5 -6 6 -1 11 2 17 5 13 3 -3 4 -12 1
-19z m93 -8 c0 -5 -7 -10 -15 -10 -8 0 -15 5 -15 10 0 6 7 10 15 10 8 0 15 -4
15 -10z m400 -51 c0 -28 -4 -39 -12 -37 -18 6 -19 78 -2 78 10 0 14 -13 14
-41z m-221 25 c18 -4 31 -13 31 -21 0 -12 -8 -14 -37 -8 -44 8 -53 13 -53 26
0 11 15 11 59 3z m-295 -10 c20 -8 21 -48 2 -63 -12 -10 -17 -8 -25 8 -13 24
-14 61 -2 61 5 0 16 -3 25 -6z m416 -19 c0 -23 -3 -25 -27 -19 -38 9 -43 13
-43 30 0 9 11 14 35 14 31 0 35 -3 35 -25z m317 -25 c3 -44 -2 -50 -37 -39
-24 7 -24 7 -2 8 19 1 22 6 22 43 0 51 13 42 17 -12z m48 10 c3 -5 2 -10 -4
-10 -5 0 -13 5 -16 10 -3 6 -2 10 4 10 5 0 13 -4 16 -10z m-665 -20 c7 0 -49
-38 -85 -57 -29 -15 -30 -15 -14 3 9 11 19 31 23 46 6 25 8 26 38 17 18 -5 35
-9 38 -9z m817 -106 c-14 -14 -27 11 -27 50 0 62 14 66 24 7 5 -28 6 -54 3
-57z m298 31 c119 -23 115 -20 115 -70 l0 -43 -72 14 c-122 23 -118 21 -118
57 0 18 -5 38 -12 45 -15 15 -9 15 87 -3z m-155 -19 c0 -2 -7 -7 -16 -10 -8
-3 -12 -2 -9 4 6 10 25 14 25 6z m312 -68 c-9 -9 -12 -7 -12 12 0 19 3 21 12
12 9 -9 9 -15 0 -24z m-1505 -78 c15 -12 41 -20 62 -20 35 0 37 -2 59 -58 12
-32 22 -61 22 -64 0 -4 -20 -36 -45 -71 -81 -117 -123 -227 -179 -478 -45
-202 -52 -358 -21 -482 6 -23 4 -24 -127 -46 -73 -13 -154 -30 -179 -38 -44
-14 -55 -13 -220 21 -381 78 -596 167 -739 307 -82 80 -115 153 -115 250 1
110 48 204 159 315 123 123 270 201 506 269 144 41 264 61 555 90 127 12 232
23 233 24 2 0 15 -8 29 -19z m311 -216 c2 -22 -25 -85 -104 -242 -58 -117
-110 -212 -115 -212 -16 0 -10 94 11 176 24 97 77 203 131 267 47 54 72 58 77
11z m26 -181 c-31 -74 -85 -226 -104 -296 -23 -87 -26 -55 -4 50 18 88 44 157
86 231 35 61 45 68 22 15z m-268 -940 c65 -31 148 -67 184 -80 52 -19 57 -22
25 -17 -46 7 -279 96 -312 119 -20 14 -31 35 -19 35 1 0 57 -25 122 -57z"/>
<path d="M7090 1674 c-52 -7 -131 -25 -175 -39 -92 -29 -208 -103 -242 -154
-26 -39 -30 -93 -8 -111 11 -9 13 -16 5 -24 -38 -38 23 -52 265 -61 250 -10
695 25 783 61 41 17 52 42 26 63 -14 12 -19 29 -19 61 0 93 -49 126 -278 185
-152 39 -203 41 -357 19z m270 -74 c11 -7 6 -10 -21 -10 -20 0 -72 -3 -115 -6
-43 -4 -76 -3 -72 1 20 21 181 32 208 15z m-427 -166 c56 -36 48 -48 -25 -40
-34 3 -66 10 -70 14 -5 5 -4 21 2 36 12 32 31 30 93 -10z"/>
</g>
</svg>
